<svg width="670" height="317" viewBox="0 0 670 317" fill="none" xmlns="http://www.w3.org/2000/svg">
<path d="M74.4016 89.2811H55.9932V113.212H74.4016V89.2811Z" fill="#FF9E3C"/>
<path opacity="0.1" d="M334.728 316.933C519.593 316.933 669.455 303.815 669.455 287.633C669.455 271.451 519.593 258.333 334.728 258.333C149.863 258.333 0 271.451 0 287.633C0 303.815 149.863 316.933 334.728 316.933Z" fill="black"/>
<path d="M605.792 277.508H596.281V48.1688C596.281 28.9933 580.787 13.4995 561.612 13.4995H117.507C98.3315 13.4995 82.8377 28.9933 82.8377 48.1688V273.673H73.3267V48.1688C73.3267 23.7776 93.1158 3.98846 117.507 3.98846H561.612C586.003 3.98846 605.792 23.7776 605.792 48.1688V277.508Z" fill="#FF9E3C"/>
<path d="M124.41 4.75555H118.888V196.664H124.41V4.75555Z" fill="#FFB748"/>
<path d="M184.391 4.75555H178.868V196.664H184.391V4.75555Z" fill="#FFB748"/>
<path d="M244.218 4.75555H238.696V196.664H244.218V4.75555Z" fill="#FFB748"/>
<path d="M304.201 4.75555H298.678V196.664H304.201V4.75555Z" fill="#FFB748"/>
<path d="M364.181 4.75555H358.659V196.664H364.181V4.75555Z" fill="#FFB748"/>
<path d="M424.162 4.75555H418.64V196.664H424.162V4.75555Z" fill="#FFB748"/>
<path d="M484.144 4.75555H478.621V196.664H484.144V4.75555Z" fill="#FFB748"/>
<path d="M544.124 4.75555H538.602V196.664H544.124V4.75555Z" fill="#FFB748"/>
<path d="M128.246 4.75555H122.724V196.664H128.246V4.75555Z" fill="#FF9E3C"/>
<path d="M188.227 4.75555H182.704V196.664H188.227V4.75555Z" fill="#FF9E3C"/>
<path d="M248.208 4.75555H242.685V196.664H248.208V4.75555Z" fill="#FF9E3C"/>
<path d="M308.188 4.75555H302.666V196.664H308.188V4.75555Z" fill="#FF9E3C"/>
<path d="M368.171 4.75555H362.648V196.664H368.171V4.75555Z" fill="#FF9E3C"/>
<path d="M428.15 4.75555H422.628V196.664H428.15V4.75555Z" fill="#FF9E3C"/>
<path d="M488.131 4.75555H482.608V196.664H488.131V4.75555Z" fill="#FF9E3C"/>
<path d="M547.959 4.75555H542.436V196.664H547.959V4.75555Z" fill="#FF9E3C"/>
<path d="M598.891 273.519H589.38V44.1804C589.38 25.0049 573.886 9.51107 554.71 9.51107H110.759C91.5835 9.51107 76.0897 25.0049 76.0897 44.1804V273.519H66.5786V44.1804C66.5786 19.7891 86.3677 0 110.759 0H554.864C579.255 0 599.044 19.7891 599.044 44.1804V273.519H598.891Z" fill="#FFB748"/>
<path d="M594.133 192.062H71.3325V201.573H594.133V192.062Z" fill="#FFB748"/>
<path d="M633.098 268.917H556.242V278.428H633.098V268.917Z" fill="#FFB748"/>
<path d="M638.161 268.917H609.321V278.428H638.161V268.917Z" fill="#FF9E3C"/>
<path d="M421.401 28.6865H239.771V140.671H421.401V28.6865Z" fill="#FFB748"/>
<path d="M407.594 37.2771H253.577V132.234H407.594V37.2771Z" fill="#FFB748"/>
<path d="M278.58 66.2544C279.501 65.9476 280.575 65.7942 281.648 65.4873C282.876 65.3339 283.796 65.1805 284.87 65.1805C285.944 65.1805 287.018 65.3339 288.091 65.4873C289.165 65.6407 290.086 66.101 290.853 66.5612C291.62 67.0214 292.233 67.7884 292.847 68.5554C293.307 69.4759 293.614 70.5497 293.614 71.7769V90.6456H299.904C300.21 91.1058 300.517 91.8729 300.824 92.6399C301.131 93.5603 301.284 94.3273 301.284 95.4011C301.284 97.242 300.824 98.4692 300.057 99.2362C299.29 100.003 298.216 100.31 296.989 100.31H293.614V108.747C293.154 108.901 292.233 108.901 291.313 109.207C290.239 109.361 289.319 109.514 288.398 109.514C287.324 109.514 286.404 109.514 285.637 109.361C284.87 109.208 284.103 109.054 283.643 108.747C283.029 108.44 282.722 107.827 282.415 107.213C282.109 106.6 281.955 105.679 281.955 104.452V100.463H264.16C263.087 99.8499 262.166 99.0828 261.399 98.009C260.632 96.9352 260.172 95.5545 260.172 93.8671C260.172 92.9467 260.325 92.0263 260.479 90.9524C260.785 89.8786 261.092 88.9582 261.706 88.0378L278.58 66.2544ZM282.262 77.4529H282.109L272.598 90.799H282.262V77.4529Z" fill="#555555"/>
<path d="M349.76 87.424C349.76 91.1057 349.299 94.3272 348.379 97.2419C347.458 100.157 346.078 102.458 344.39 104.452C342.703 106.446 340.709 107.827 338.408 108.901C336.107 109.821 333.499 110.435 330.737 110.435C327.976 110.435 325.368 109.974 323.067 108.901C320.766 107.98 318.772 106.446 317.084 104.452C315.397 102.458 314.17 100.157 313.096 97.2419C312.176 94.3272 311.715 91.1057 311.715 87.424C311.715 83.7423 312.176 80.5208 313.096 77.7596C314.016 74.9983 315.397 72.5438 317.084 70.703C318.772 68.7087 320.766 67.3281 323.067 66.2543C325.368 65.3338 327.976 64.7202 330.737 64.7202C333.499 64.7202 336.107 65.1804 338.408 66.2543C340.709 67.1747 342.703 68.7087 344.39 70.703C346.078 72.6972 347.458 74.9983 348.379 77.7596C349.299 80.5208 349.76 83.7423 349.76 87.424ZM337.641 87.424C337.641 83.2821 337.027 80.0606 335.8 77.7596C334.573 75.4585 332.885 74.3847 330.584 74.3847C328.283 74.3847 326.596 75.4585 325.522 77.7596C324.294 80.0606 323.834 83.2821 323.834 87.424C323.834 91.5659 324.448 94.7874 325.522 97.0885C326.749 99.3895 328.436 100.463 330.584 100.463C332.885 100.463 334.573 99.3895 335.8 97.0885C337.027 94.7874 337.641 91.5659 337.641 87.424Z" fill="#555555"/>
<path d="M380.134 66.2544C381.055 65.9476 382.128 65.7942 383.202 65.4873C384.43 65.3339 385.35 65.1805 386.424 65.1805C387.498 65.1805 388.571 65.3339 389.645 65.4873C390.719 65.6407 391.64 66.101 392.407 66.5612C393.174 67.0214 393.787 67.7884 394.401 68.5554C394.861 69.4759 395.168 70.5497 395.168 71.7769V90.6456H401.457C401.764 91.1058 402.071 91.8729 402.378 92.6399C402.685 93.5603 402.838 94.3273 402.838 95.4011C402.838 97.242 402.378 98.4692 401.611 99.2362C400.844 100.003 399.77 100.31 398.543 100.31H394.861V108.747C394.401 108.901 393.48 108.901 392.56 109.207C391.486 109.361 390.566 109.514 389.645 109.514C388.571 109.514 387.651 109.514 386.884 109.361C386.117 109.208 385.35 109.054 384.89 108.747C384.276 108.44 383.969 107.827 383.663 107.213C383.356 106.6 383.202 105.679 383.202 104.452V100.463H365.407C364.334 99.8499 363.413 99.0828 362.646 98.009C361.879 96.9352 361.419 95.5545 361.419 93.8671C361.419 92.9467 361.572 92.0263 361.726 90.9524C362.033 89.8786 362.339 88.9582 362.953 88.0378L380.134 66.2544ZM383.663 77.4529H383.509L373.998 90.799H383.663V77.4529Z" fill="#555555"/>
<path fill="transparent" d="M593.214 100.786H620.673V125.484" stroke="#FFB748" stroke-width="5" stroke-miterlimit="10"/>
<path d="M160.921 171.352L158.62 161.995H158.159H145.58H145.273L142.972 171.352L113.212 273.52H117.047H186.692H190.681L160.921 171.352Z" fill="#FFFBF3"/>
<path d="M160.921 171.352L158.62 161.995H158.16H151.87L142.359 273.52H186.693H190.682L160.921 171.352Z" fill="#C9C9C9"/>
<path d="M205.715 273.52H98.1792V285.792H205.715V273.52Z" fill="#FF4252"/>
<path d="M205.562 273.52H151.87V285.792H205.562V273.52Z" fill="#FF2639"/>
<path d="M160.921 171.352L158.62 161.995H158.159H145.58H145.274L142.972 171.352L137.91 188.38H165.83L160.921 171.352Z" fill="#FF4252"/>
<path d="M180.25 237.469H123.644L113.212 273.519H117.048H186.693H190.681L180.25 237.469Z" fill="#FF4252"/>
<path d="M170.585 204.334H133.307L128.245 221.515H175.494L170.585 204.334Z" fill="#FF4252"/>
<path d="M180.25 237.469H145.427L142.359 273.519H186.693H190.682L180.25 237.469Z" fill="#FF2639"/>
<path d="M146.808 221.515H175.495L170.586 204.334H148.342L146.808 221.515Z" fill="#FF2639"/>
<path d="M165.83 188.38L160.921 171.352L158.62 161.995H158.16H151.87L149.723 188.38H165.83Z" fill="#FF2639"/>
<path opacity="0.2" d="M125.178 255.418L142.359 181.17H146.808L136.07 255.418H125.178Z" fill="white"/>
<path d="M341.016 287.326L350.528 289.013L350.681 288.553L355.743 277.048L355.897 276.741L348.38 270.758L267.076 202.187L265.388 205.868L237.162 269.531L235.628 273.059L341.016 287.326Z" fill="#FFFBF3"/>
<path d="M341.016 287.326L350.528 289.013L350.681 288.553L353.135 282.877L255.11 229.032L237.162 269.531L235.628 273.059L341.016 287.326Z" fill="#C9C9C9"/>
<path d="M261.818 183.578L218.245 281.888L229.464 286.86L273.038 188.551L261.818 183.578Z" fill="#FF4252"/>
<path d="M239.967 232.822L218.211 281.907L229.431 286.88L251.187 237.795L239.967 232.822Z" fill="#FF2639"/>
<path d="M341.016 287.326L350.528 289.013L350.681 288.553L355.743 277.048L355.897 276.741L348.38 270.758L334.727 259.406L323.375 285.025L341.016 287.326Z" fill="#FF4252"/>
<path d="M272.752 278.122L295.762 226.424L267.076 202.187L265.388 205.868L237.162 269.531L235.628 273.059L272.752 278.122Z" fill="#FF4252"/>
<path d="M307.115 282.724L322.148 248.668L308.342 237.163L289.167 280.269L307.115 282.724Z" fill="#FF4252"/>
<path d="M272.752 278.121L286.865 246.367L255.11 229.032L237.162 269.531L235.628 273.059L272.752 278.121Z" fill="#FF2639"/>
<path d="M300.825 254.037L289.167 280.269L307.115 282.724L316.012 262.474L300.825 254.037Z" fill="#FF2639"/>
<path d="M323.376 285.024L341.017 287.326L350.529 289.013L350.682 288.553L353.136 282.877L329.972 270.144L323.376 285.024Z" fill="#FF2639"/>
<path opacity="0.2" d="M278.581 220.441L339.483 266.463L337.795 270.451L274.286 230.413L278.581 220.441Z" fill="white"/>
<path d="M431.678 294.996C427.689 294.996 423.854 292.848 421.86 289.32C419.866 285.792 419.866 281.496 421.86 277.968L502.55 138.217C504.545 134.689 508.38 132.541 512.368 132.541C516.357 132.541 520.192 134.689 522.186 138.217L602.57 277.508C603.797 279.349 604.411 281.496 604.411 283.644C604.411 289.934 599.348 294.996 593.059 294.996H431.678Z" fill="#FF2639"/>
<path d="M512.368 134.382C515.743 134.382 518.965 136.223 520.806 139.137L601.189 278.428C602.11 279.962 602.723 281.803 602.723 283.644C602.723 289.013 598.428 293.308 593.059 293.308H431.678C428.303 293.308 425.081 291.468 423.241 288.553C421.553 285.638 421.553 281.957 423.241 278.889L503.931 139.137C505.772 136.223 508.993 134.382 512.368 134.382ZM512.368 130.854C507.766 130.854 503.317 133.308 501.016 137.45L420.326 277.201C418.025 281.19 418.025 286.252 420.326 290.24C422.627 294.229 427.076 296.837 431.678 296.837H592.905C600.115 296.837 606.098 291.007 606.098 283.797C606.098 281.343 605.331 278.888 604.104 276.741L523.72 137.45C521.419 133.461 517.124 130.854 512.368 130.854Z" fill="white"/>
<path d="M578.18 273.059L514.211 162.302C513.904 161.688 513.137 161.228 512.37 161.228C511.603 161.228 510.989 161.688 510.529 162.302L446.56 273.059C446.253 273.673 446.253 274.44 446.56 275.053C446.867 275.667 447.633 276.127 448.401 276.127H576.186C576.953 276.127 577.567 275.667 578.027 275.053C578.487 274.44 578.487 273.673 578.18 273.059Z" fill="white"/>
<path d="M503.164 249.282C503.164 246.674 503.931 244.526 505.619 242.685C507.306 240.998 509.607 240.077 512.522 240.077C515.436 240.077 517.737 240.998 519.425 242.685C521.112 244.373 521.879 246.52 521.879 249.282C521.879 251.889 521.112 254.037 519.425 255.878C517.737 257.565 515.436 258.486 512.522 258.486C509.607 258.486 507.306 257.565 505.619 255.878C503.931 254.037 503.164 251.889 503.164 249.282ZM520.959 200.346C520.959 201.88 520.959 204.027 520.806 206.789C520.806 209.55 520.652 212.618 520.345 215.839C520.192 219.061 519.885 222.436 519.578 225.657C519.271 228.879 518.811 231.794 518.351 234.095C518.044 234.248 517.737 234.555 517.124 234.708C516.664 234.862 516.05 235.015 515.436 235.168C514.823 235.322 514.209 235.322 513.749 235.475C513.135 235.475 512.675 235.629 512.215 235.629C510.374 235.629 508.84 235.322 507.459 234.708C506.232 234.095 505.465 233.021 505.158 231.333C504.851 229.799 504.545 227.652 504.391 224.583C504.238 221.515 503.931 218.294 503.778 214.766C503.624 211.237 503.471 207.709 503.317 204.181C503.164 200.652 503.164 197.738 503.164 195.283C504.391 194.516 505.925 194.056 507.613 193.596C509.3 193.136 510.834 192.982 512.522 192.982C515.13 192.982 517.277 193.596 518.658 194.823C520.192 196.05 520.959 197.891 520.959 200.346Z" fill="#FF2639"/>
<path opacity="0.2" d="M604.105 276.587L523.721 137.45C521.42 133.461 516.971 130.854 512.369 130.854V296.837H593.06C600.27 296.837 606.252 291.007 606.252 283.797C606.099 281.19 605.485 278.735 604.105 276.587Z" fill="black"/>
</svg>
