<svg width="101" height="101" viewBox="0 0 101 101" fill="none" xmlns="http://www.w3.org/2000/svg">
<g clip-path="url(#clip0)">
<rect width="101" height="101" rx="20" fill="#F8FDFF"/>
<g opacity="0.2" clip-path="url(#clip1)">
<path d="M75.7896 15.5355H77.7541C78.2029 13.3254 80.1578 11.6609 82.5001 11.6609C83.4864 11.6609 84.405 11.9563 85.1701 12.4633L86.56 11.0733C85.4284 10.2257 84.0224 9.72363 82.5001 9.72363C79.0843 9.72363 76.2609 12.2502 75.7896 15.5355Z" fill="#A8B7BB"/>
<path d="M74.5415 23.0921L75.9201 21.7134C74.7852 20.2815 74.1056 18.4733 74.1056 16.5038C74.1056 12.1949 77.3519 8.64647 81.5313 8.16538V6.2168C76.28 6.70596 72.1685 11.123 72.1685 16.5021C72.1685 19.0077 73.0595 21.305 74.5415 23.0921Z" fill="#A8B7BB"/>
<path d="M90.8378 17.4727C90.3567 21.6523 86.8085 24.8989 82.5 24.8989C80.5306 24.8989 78.7226 24.2192 77.2907 23.0843L75.9121 24.463C77.7007 25.945 79.9963 26.8362 82.5 26.8362C87.8788 26.8362 92.2955 22.7243 92.7846 17.4727H90.8378Z" fill="#A8B7BB"/>
<path d="M83.4685 6.21826V8.16684C87.3299 8.6108 90.3922 11.6733 90.8377 15.5366H92.7845C92.3261 10.603 88.4018 6.67675 83.4685 6.21826Z" fill="#A8B7BB"/>
<path d="M81.5315 30.3504V28.4082C75.3875 27.9142 70.5543 22.7756 70.5543 16.5037C70.5543 13.5541 71.6262 10.8549 73.3987 8.77068L72.0249 7.39844C69.9038 9.83618 68.6172 13.0182 68.6172 16.5037C68.6172 23.846 74.3172 29.8531 81.5315 30.3504Z" fill="#A8B7BB"/>
<path d="M92.9751 7.39844L91.6013 8.77068C93.3738 10.8549 94.4457 13.5542 94.4457 16.5037C94.4457 19.4532 93.3738 22.1525 91.6029 24.2367L92.9767 25.6105C95.0963 23.1712 96.3828 19.9892 96.3828 16.5037C96.3828 13.0182 95.0963 9.83619 92.9751 7.39844Z" fill="#A8B7BB"/>
<path d="M74.7677 7.40197C76.8517 5.62936 79.5508 4.5574 82.5001 4.5574C85.451 4.5574 88.1485 5.62936 90.2325 7.40036L91.6046 6.02812C89.1671 3.90679 85.9853 2.62012 82.5001 2.62012C79.0148 2.62012 75.8331 3.90679 73.3955 6.02812L74.7677 7.40197Z" fill="#A8B7BB"/>
<path d="M90.2324 25.6074C88.3792 27.1831 86.0384 28.2018 83.4685 28.4084V30.3506C86.5728 30.1359 89.3962 28.9024 91.6045 26.9797L90.2324 25.6074Z" fill="#A8B7BB"/>
<path d="M82.5001 33.9396C91.8032 33.9396 99.4049 26.6521 99.907 17.4727H97.9666C97.4662 25.5802 90.733 32.0023 82.5001 32.0023C74.2673 32.0023 67.5341 25.5802 67.0336 17.4727H65.0933C65.5953 26.6521 73.197 33.9396 82.5001 33.9396Z" fill="#A8B7BB"/>
<path d="M65.0933 15.5356H67.0336C67.5147 7.74777 73.7442 1.51779 81.5315 1.0367V-0.903809C72.6739 -0.419488 65.5775 6.67742 65.0933 15.5356Z" fill="#A8B7BB"/>
<path d="M83.4685 -0.903809V1.0367C91.2558 1.51779 97.4853 7.74777 97.9664 15.5356H99.9068C99.4225 6.67742 92.3261 -0.419488 83.4685 -0.903809Z" fill="#A8B7BB"/>
<path d="M82.5001 -4.4834C70.9095 -4.4834 61.5144 4.91241 61.5144 16.5038C61.5144 27.7707 70.3914 36.9615 81.5316 37.4684V35.5295C71.4616 35.0258 63.4515 26.7004 63.4515 16.5038C63.4515 5.98276 71.9798 -2.54612 82.5001 -2.54612C93.0204 -2.54612 101.549 5.98276 101.549 16.5038C101.549 26.7004 93.5386 35.0258 83.4687 35.5295V37.4684C94.6089 36.9615 103.486 27.7707 103.486 16.5038C103.486 4.91241 94.0907 -4.4834 82.5001 -4.4834Z" fill="#A8B7BB"/>
<path d="M99.1514 34.5254L97.7808 33.1548C93.758 36.8501 88.3921 39.1055 82.5 39.1055C76.6078 39.1055 71.2436 36.8501 67.2192 33.1548L65.8486 34.5254C70.2233 38.5711 76.0735 41.0427 82.5 41.0427C88.9281 41.0427 94.7766 38.5711 99.1514 34.5254Z" fill="#A8B7BB"/>
<path d="M64.4798 33.1567L65.8503 31.786C62.1552 27.763 59.9 22.3967 59.9 16.5041C59.9 10.6116 62.1552 5.24528 65.8503 1.22219L64.4798 -0.148438C60.436 4.22659 57.9629 10.0772 57.9629 16.5041C57.9629 22.9327 60.436 28.7816 64.4798 33.1567Z" fill="#A8B7BB"/>
<path d="M82.5 -8.03516C76.0735 -8.03516 70.2233 -5.56189 65.8486 -1.51782L67.2192 -0.147192C71.2436 -3.84094 76.6078 -6.09787 82.5 -6.09787C94.9816 -6.09787 105.1 4.02119 105.1 16.5037C105.1 22.3963 102.845 27.7626 99.1497 31.7857L100.52 33.1563C104.566 28.7813 107.037 22.9323 107.037 16.5037C107.037 2.95084 96.0519 -8.03516 82.5 -8.03516Z" fill="#A8B7BB"/>
<path d="M54.4292 15.5355H56.368C56.8781 1.54028 68.3815 -9.64914 82.5 -9.64914C89.3736 -9.64914 95.6258 -6.99668 100.293 -2.6604L101.663 -4.03102C96.6444 -8.71763 89.908 -11.5864 82.5 -11.5864C67.3112 -11.5864 54.9409 0.469929 54.4292 15.5355Z" fill="#A8B7BB"/>
<path d="M82.5 44.5946C97.6888 44.5946 110.059 32.5382 110.571 17.4727H108.632C108.122 31.4679 96.6186 42.6573 82.5 42.6573C68.3815 42.6573 56.8781 31.4679 56.368 17.4727H54.4292C54.9409 32.5382 67.3112 44.5946 82.5 44.5946Z" fill="#A8B7BB"/>
<path d="M81.5316 48.1302V46.1913C74.0606 45.9524 67.2871 42.9528 62.194 38.1807L60.8235 39.5513C66.2685 44.6738 73.5247 47.8897 81.5316 48.1302Z" fill="#A8B7BB"/>
<path d="M83.4685 -15.1221V-13.1832C99.4241 -12.6714 112.203 0.422997 112.203 16.504C112.203 32.5851 99.4241 45.6795 83.4685 46.1913V48.1302C100.494 47.6184 114.14 33.6554 114.14 16.504C114.14 -0.647351 100.494 -14.6103 83.4685 -15.1221Z" fill="#A8B7BB"/>
<path d="M50.8601 16.504C50.8601 24.8941 54.1258 32.5189 59.4546 38.1822L60.8251 36.8116C55.8466 31.5002 52.7973 24.3581 52.7973 16.504C52.7973 0.422997 65.5759 -12.6714 81.5316 -13.1832V-15.1221C64.5057 -14.6103 50.8601 -0.64735 50.8601 16.504Z" fill="#A8B7BB"/>
<path d="M82.5 51.6976C91.8693 51.6976 100.383 48.0345 106.688 42.0645L105.318 40.6938C99.3629 46.3136 91.335 49.7603 82.5 49.7603C64.1343 49.7603 49.2457 34.8707 49.2457 16.5037C49.2457 7.66804 52.6922 -0.360374 58.3116 -6.3159L56.941 -7.68652C50.9714 -1.38067 47.3086 7.13368 47.3086 16.5037C47.3086 35.941 63.064 51.6976 82.5 51.6976Z" fill="#A8B7BB"/>
<path d="M82.5 -18.6899C73.1307 -18.6899 64.6169 -15.0269 58.3115 -9.05682L59.682 -7.68619C65.6371 -13.3059 73.665 -16.7527 82.5 -16.7527C100.866 -16.7527 115.754 -1.86305 115.754 16.504C115.754 25.3396 112.308 33.368 106.688 39.3235L108.059 40.6941C114.029 34.3883 117.691 25.8739 117.691 16.504C117.691 -2.9334 101.936 -18.6899 82.5 -18.6899Z" fill="#A8B7BB"/>
<path d="M121.232 17.4727H119.294C118.779 37.354 102.504 53.3123 82.5 53.3123C62.4973 53.3123 46.2205 37.354 45.7072 17.4727H43.77C44.2834 38.4243 61.4271 55.2496 82.5 55.2496C103.573 55.2496 120.717 38.4243 121.232 17.4727Z" fill="#A8B7BB"/>
<path d="M43.77 15.5353H45.7072C46.2205 -4.34607 62.4973 -20.3044 82.5 -20.3044C92.3148 -20.3044 101.232 -16.4621 107.831 -10.1983L109.202 -11.5689C102.252 -18.1831 92.8508 -22.2417 82.5 -22.2417C61.4271 -22.2417 44.2834 -5.4148 43.77 15.5353Z" fill="#A8B7BB"/>
<path d="M51.9175 45.7199L53.2864 44.3509C46.3821 37.1071 42.143 27.3012 42.143 16.5041C42.143 -5.46142 59.6902 -23.3296 81.5315 -23.843V-25.7803C58.62 -25.2653 40.2058 -6.53177 40.2058 16.5041C40.2058 27.8356 44.6629 38.1258 51.9175 45.7199Z" fill="#A8B7BB"/>
<path d="M111.714 47.0904L110.343 45.7213C103.102 52.6245 93.2965 56.864 82.5001 56.864C71.7038 56.864 61.8986 52.6245 54.6569 45.7197L53.2864 47.0887C60.88 54.3455 71.1694 58.8012 82.5001 58.8012C93.8308 58.8012 104.12 54.3455 111.714 47.0904Z" fill="#A8B7BB"/>
<path d="M83.4685 -25.7803V-23.843C105.31 -23.3296 122.857 -5.46143 122.857 16.5041C122.857 27.3012 118.618 37.1071 111.714 44.3493L113.084 45.7183C120.339 38.1258 124.794 27.8356 124.794 16.5041C124.794 -6.53177 106.38 -25.2653 83.4685 -25.7803Z" fill="#A8B7BB"/>
<path d="M50.7761 -16.5931L52.145 -15.2224C60.0308 -22.7714 70.7239 -27.4079 82.5001 -27.4079C106.75 -27.4079 126.409 -7.74776 126.409 16.5038C126.409 40.4324 107.271 59.8876 83.4686 60.4026V62.3398C108.342 61.8232 128.346 41.5012 128.346 16.5038C128.346 -8.81811 107.82 -29.3452 82.5001 -29.3452C70.1895 -29.3452 59.0122 -24.4907 50.7761 -16.5931Z" fill="#A8B7BB"/>
<path d="M81.5314 62.3401V60.4028C57.7288 59.8878 38.5914 40.4327 38.5914 16.504C38.5914 4.72698 43.2277 -5.96681 50.7761 -13.8532L49.4055 -15.2222C41.5085 -6.9855 36.6543 4.191 36.6543 16.504C36.6543 41.5014 56.6585 61.8251 81.5314 62.3401Z" fill="#A8B7BB"/>
<path d="M33.1157 15.5355H35.0529C35.5678 -10.2303 56.6133 -30.9592 82.5 -30.9592C95.2577 -30.9592 106.839 -25.9239 115.367 -17.734L116.737 -19.103C107.857 -27.6448 95.792 -32.8965 82.5 -32.8965C55.543 -32.8965 33.6323 -11.3006 33.1157 15.5355Z" fill="#A8B7BB"/>
<path d="M129.949 17.4727C129.432 43.2385 108.388 63.9674 82.5 63.9674C56.6133 63.9674 35.5678 43.2385 35.0529 17.4727H33.1157C33.6323 44.3088 55.543 65.9047 82.5 65.9047C109.457 65.9047 131.369 44.3088 131.886 17.4727H129.949Z" fill="#A8B7BB"/>
<path d="M83.4685 -36.4355V-34.4983C111.194 -33.9817 133.511 -11.3461 133.511 16.5039C133.511 30.2424 128.079 42.7121 119.248 51.8835L120.618 53.2541C129.666 43.8712 135.292 31.1513 135.447 17.0867C135.767 -12.0274 112.529 -35.9076 83.4685 -36.4355Z" fill="#A8B7BB"/>
<path d="M44.3836 53.2543L45.7526 51.8852C36.9208 42.7122 31.4887 30.2426 31.4887 16.504C31.4887 -11.3476 53.8062 -33.9815 81.5316 -34.4981V-36.437C52.9991 -35.9301 29.8712 -12.8022 29.5548 15.9212C29.395 30.404 35.0676 43.5905 44.3836 53.2543Z" fill="#A8B7BB"/>
<path d="M117.877 53.2544C108.706 62.0868 96.2376 67.5192 82.5 67.5192C68.7625 67.5192 56.2937 62.0868 47.123 53.2544L45.7524 54.625C55.1347 63.6737 67.8536 69.2999 81.9157 69.4549C96.3974 69.6147 109.583 63.9417 119.246 54.625L117.877 53.2544Z" fill="#A8B7BB"/>
<path d="M123.13 -22.7583L121.758 -21.3861C131.371 -11.4268 137.224 2.17127 137.06 17.1061C136.733 46.7142 112.884 70.554 83.4685 71.061V72.9999C113.945 72.4929 138.659 47.7991 138.997 17.1271C139.168 1.6482 133.098 -12.4439 123.13 -22.7583Z" fill="#A8B7BB"/>
<path d="M81.5315 71.0594C51.5703 70.5299 27.6095 45.9151 27.9404 15.9034C28.1002 1.40121 33.9052 -11.7158 43.2406 -21.3877L41.8701 -22.7583C32.1892 -12.7426 26.1695 0.852318 26.0033 15.8808C25.661 46.9709 50.4904 72.4704 81.5315 72.9983V71.0594Z" fill="#A8B7BB"/>
<path d="M87.9306 12.4438L86.5407 13.8338C87.0476 14.5991 87.343 15.5177 87.343 16.5041C87.343 19.1791 85.175 21.3473 82.5002 21.3473C80.1578 21.3473 78.2029 19.6828 77.7541 17.4727H75.7896C76.2593 20.758 79.0843 23.2845 82.5002 23.2845C86.2453 23.2845 89.2802 20.2495 89.2802 16.5041C89.2802 14.9817 88.7781 13.5755 87.9306 12.4438Z" fill="#A8B7BB"/>
<path d="M85.6528 16.5251C85.6528 18.2703 84.2386 19.6845 82.4936 19.6845C80.7486 19.6845 79.3345 18.2703 79.3345 16.5251C79.3345 14.7799 80.7486 13.3657 82.4936 13.3657C84.2386 13.3657 85.6528 14.7799 85.6528 16.5251Z" fill="white"/>
<path d="M82.5001 13.2754C80.7179 13.2754 79.2715 14.7219 79.2715 16.5042C79.2715 18.2881 80.7179 19.733 82.5001 19.733C84.2838 19.733 85.7286 18.2881 85.7286 16.5042C85.7286 14.7219 84.2838 13.2754 82.5001 13.2754ZM82.4936 19.0307C81.9399 17.9571 81.0617 17.0805 79.9898 16.5268C81.0633 15.9731 81.9399 15.0948 82.4936 14.0229C83.0473 15.0964 83.9255 15.9731 84.9974 16.5268C83.9255 17.0789 83.0473 17.9571 82.4936 19.0307Z" fill="#A8B7BB"/>
</g>
<rect fill="transparent" opacity="0.5" x="68.5574" y="77.6641" width="46.6721" height="46.6721" rx="18.5" stroke="#83919B" stroke-width="3"/>
<circle cx="7.45093" cy="96.033" r="16.5574" fill="white"/>
<path d="M78.4983 53.0117L65.8154 60.3647L65.8601 77.4158L88.0705 64.576L78.4983 53.0117Z" fill="#FFA94D"/>
<path d="M25.8511 37.353L38.534 30L78.4983 53.0115L65.8154 60.3645L25.8511 37.353Z" fill="#FFE499"/>
<path d="M65.8154 60.3645L25.8511 37.353L15 48.1263L65.8601 77.4157L65.8154 60.3645Z" fill="#EF8E35"/>
</g>
<defs>
<clipPath id="clip0">
<rect width="101" height="101" rx="20" fill="white"/>
</clipPath>
<clipPath id="clip1">
<rect width="113" height="113" fill="white" transform="translate(26 -40)"/>
</clipPath>
</defs>
</svg>
