<svg width="101" height="101" viewBox="0 0 101 101" fill="none" xmlns="http://www.w3.org/2000/svg">
<g clip-path="url(#clip0)">
<rect width="101" height="101" rx="20" fill="#F8FDFF"/>
<circle opacity="0.3" cx="20.5" cy="16.5" r="39.5" fill="#FF2639"/>
<circle fill="transparent" cx="14" cy="10" r="28.5" stroke="white" stroke-width="5"/>
<rect fill="transparent" opacity="0.5" x="68.5574" y="77.6641" width="46.6721" height="46.6721" rx="18.5" stroke="#D3E1E2" stroke-width="3"/>
<path d="M72.0869 26.3524L50.5016 19L29.1226 26.2556C26.3931 27.4766 24 28.2104 24 30.6201V42.6276C24 50.9662 26.3042 59.2286 31.0428 66.5223C35.0291 72.6596 41.2054 78.9818 50.7111 83C59.4486 80.3085 65.9709 73.1292 69.9604 66.9919C74.699 59.6982 77.0032 51.4329 77.0032 43.0972V32.299C77 28.859 75.0798 27.1801 72.0869 26.3524Z" fill="#FF2639"/>
<g clip-path="url(#clip1)">
<path d="M72.0869 26.3524L50.5016 19L29.1226 26.2556C26.3931 27.4766 24 28.2104 24 30.6201V42.6276C24 50.9662 26.3042 59.2286 31.0428 66.5223C35.0291 72.6596 41.2054 78.9818 50.7111 83C59.4486 80.3085 65.9709 73.1292 69.9604 66.9919C74.699 59.6982 77.0032 51.4329 77.0032 43.0972V32.299C77 28.859 75.0798 27.1801 72.0869 26.3524Z" fill="#FF2639"/>
</g>
<g opacity="0.3" clip-path="url(#clip2)">
<path d="M33.5366 40.2147H35.1361C35.5015 38.4153 37.0931 37.0602 39.0001 37.0602C39.8031 37.0602 40.5509 37.3007 41.1739 37.7134L42.3055 36.5817C41.3842 35.8917 40.2395 35.4829 39.0001 35.4829C36.2191 35.4829 33.9204 37.5399 33.5366 40.2147Z" fill="white"/>
<path d="M32.5206 46.3671L33.643 45.2447C32.7191 44.0788 32.1658 42.6067 32.1658 41.0032C32.1658 37.4951 34.8088 34.6061 38.2115 34.2144V32.6279C33.9361 33.0262 30.5886 36.6223 30.5886 41.0018C30.5886 43.0418 31.3141 44.9121 32.5206 46.3671Z" fill="white"/>
<path d="M45.7884 41.792C45.3967 45.1949 42.5079 47.8381 39.0001 47.8381C37.3966 47.8381 35.9246 47.2848 34.7589 46.3608L33.6365 47.4832C35.0927 48.6898 36.9616 49.4154 39.0001 49.4154C43.3793 49.4154 46.9752 46.0677 47.3734 41.792H45.7884Z" fill="white"/>
<path d="M39.7886 32.6289V34.2154C42.9323 34.5768 45.4255 37.0702 45.7883 40.2155H47.3733C47 36.1988 43.805 33.0022 39.7886 32.6289Z" fill="white"/>
<path d="M38.2115 52.2764V50.6952C33.2094 50.293 29.2744 46.1093 29.2744 41.0029C29.2744 38.6016 30.1471 36.4039 31.5902 34.7071L30.4717 33.5898C28.7447 35.5746 27.6973 38.1652 27.6973 41.0029C27.6973 46.9807 32.338 51.8715 38.2115 52.2764Z" fill="white"/>
<path d="M47.5284 33.5898L46.4099 34.7071C47.853 36.4039 48.7257 38.6016 48.7257 41.003C48.7257 43.4043 47.853 45.602 46.4112 47.2988L47.5297 48.4174C49.2553 46.4313 50.3028 43.8407 50.3028 41.003C50.3028 38.1652 49.2553 35.5746 47.5284 33.5898Z" fill="white"/>
<path d="M32.7045 33.5929C34.4013 32.1497 36.5988 31.277 39 31.277C41.4025 31.277 43.5987 32.1497 45.2954 33.5916L46.4125 32.4744C44.428 30.7473 41.8375 29.6997 39 29.6997C36.1624 29.6997 33.572 30.7473 31.5874 32.4744L32.7045 33.5929Z" fill="white"/>
<path d="M45.2954 48.415C43.7866 49.6979 41.8809 50.5273 39.7886 50.6955V52.2767C42.3159 52.1019 44.6146 51.0977 46.4126 49.5323L45.2954 48.415Z" fill="white"/>
<path d="M39.0001 55.1987C46.5743 55.1987 52.7633 49.2656 53.172 41.792H51.5923C51.1848 48.3928 45.7029 53.6214 39.0001 53.6214C32.2972 53.6214 26.8153 48.3928 26.4079 41.792H24.8281C25.2369 49.2656 31.4258 55.1987 39.0001 55.1987Z" fill="white"/>
<path d="M24.8281 40.2149H26.4079C26.7996 33.8743 31.8714 28.8021 38.2115 28.4105V26.8306C31 27.2249 25.2224 33.0029 24.8281 40.2149Z" fill="white"/>
<path d="M39.7886 26.8306V28.4105C46.1287 28.8021 51.2005 33.8743 51.5922 40.2149H53.1719C52.7777 33.0029 47.0001 27.2249 39.7886 26.8306Z" fill="white"/>
<path d="M39 23.9165C29.5634 23.9165 21.9143 31.5662 21.9143 41.0034C21.9143 50.1765 29.1416 57.6592 38.2115 58.072V56.4934C30.0129 56.0833 23.4914 49.3051 23.4914 41.0034C23.4914 32.4376 30.4348 25.4938 39 25.4938C47.5652 25.4938 54.5086 32.4376 54.5086 41.0034C54.5086 49.3051 47.9871 56.0833 39.7886 56.4934V58.072C48.8585 57.6592 56.0857 50.1765 56.0857 41.0034C56.0857 31.5662 48.4366 23.9165 39 23.9165Z" fill="white"/>
<path d="M52.5568 55.6755L51.441 54.5596C48.1658 57.5682 43.7971 59.4044 39 59.4044C34.2028 59.4044 29.8355 57.5682 26.5589 54.5596L25.4431 55.6755C29.0048 58.9693 33.7678 60.9816 39 60.9816C44.2335 60.9816 48.9951 58.9693 52.5568 55.6755Z" fill="white"/>
<path d="M24.3287 54.5615L25.4445 53.4456C22.4361 50.1701 20.6001 45.8011 20.6001 41.0036C20.6001 36.2061 22.4361 31.8371 25.4445 28.5617L24.3287 27.4458C21.0364 31.0078 19.0229 35.7711 19.0229 41.0036C19.0229 46.2375 21.0364 50.9995 24.3287 54.5615Z" fill="white"/>
<path d="M39 21.0244C33.7678 21.0244 29.0048 23.038 25.4431 26.3306L26.5589 27.4465C29.8355 24.4392 34.2028 22.6017 39 22.6017C49.162 22.6017 57.3999 30.8402 57.3999 41.003C57.3999 45.8005 55.5639 50.1695 52.5555 53.4449L53.6713 54.5608C56.9649 50.9988 58.9771 46.2368 58.9771 41.003C58.9771 29.9688 50.0334 21.0244 39 21.0244Z" fill="white"/>
<path d="M16.146 40.2149H17.7245C18.1398 28.8205 27.5054 19.7106 39.0001 19.7106C44.5963 19.7106 49.6866 21.8701 53.4862 25.4005L54.602 24.2846C50.5159 20.469 45.0314 18.1333 39.0001 18.1333C26.634 18.1333 16.5626 27.9491 16.146 40.2149Z" fill="white"/>
<path d="M55.7176 25.4004L54.6018 26.5163C57.9651 30.1374 60.0837 34.9297 60.2756 40.2148H61.854C61.6595 34.4946 59.3661 29.308 55.7176 25.4004Z" fill="white"/>
<path d="M39.0001 63.8736C51.3662 63.8736 61.4376 54.0578 61.8542 41.792H60.2758C59.8605 53.1863 50.4949 62.2963 39.0001 62.2963C27.5054 62.2963 18.1398 53.1863 17.7245 41.792H16.146C16.5626 54.0578 26.634 63.8736 39.0001 63.8736Z" fill="white"/>
<path d="M38.2115 66.7524V65.1738C32.129 64.9793 26.6142 62.5372 22.4676 58.6519L21.3518 59.7678C25.7849 63.9383 31.6926 66.5565 38.2115 66.7524Z" fill="white"/>
<path d="M39.7886 15.2544V16.833C52.779 17.2496 63.1829 27.9106 63.1829 41.0031C63.1829 54.0956 52.779 64.7566 39.7886 65.1732V66.7518C53.6504 66.3351 64.76 54.9671 64.76 41.0031C64.76 27.0391 53.6504 15.6711 39.7886 15.2544Z" fill="white"/>
<path d="M13.24 41.0031C13.24 47.8339 15.8988 54.0417 20.2373 58.6526L21.3531 57.5367C17.2998 53.2124 14.8171 47.3976 14.8171 41.0031C14.8171 27.9106 25.221 17.2496 38.2114 16.833V15.2544C24.3497 15.6711 13.24 27.0391 13.24 41.0031Z" fill="white"/>
<path d="M39.0001 69.6567C46.6282 69.6567 53.5597 66.6744 58.6933 61.8138L57.5775 60.6979C52.7291 65.2733 46.1931 68.0795 39.0001 68.0795C24.0474 68.0795 11.9258 55.957 11.9258 41.0033C11.9258 33.8097 14.7318 27.2732 19.3068 22.4245L18.191 21.3086C13.3307 26.4426 10.3486 33.3746 10.3486 41.0033C10.3486 56.8284 23.1761 69.6567 39.0001 69.6567Z" fill="white"/>
<path d="M38.9999 12.3496C31.3718 12.3496 24.4402 15.3319 19.3066 20.1925L20.4225 21.3084C25.2709 16.7331 31.8068 13.9269 38.9999 13.9269C53.9525 13.9269 66.0741 26.0494 66.0741 41.0031C66.0741 48.1967 63.2681 54.7331 58.6931 59.5818L59.8089 60.6977C64.6692 55.5637 67.6513 48.6317 67.6513 41.0031C67.6513 25.1779 54.8239 12.3496 38.9999 12.3496Z" fill="white"/>
<path d="M70.5338 41.792H68.9566C68.5374 57.9786 55.2868 70.9712 39.0001 70.9712C22.7148 70.9712 9.46286 57.9786 9.04492 41.792H7.46777C7.88572 58.85 21.8434 72.5485 39.0001 72.5485C56.1568 72.5485 70.1145 58.85 70.5338 41.792Z" fill="white"/>
<path d="M61.8541 19.2622L60.7383 20.3781C65.6682 25.5739 68.7567 32.5348 68.9552 40.2147H70.5323C70.3339 32.0998 67.0705 24.7445 61.8541 19.2622Z" fill="white"/>
<path d="M7.46777 40.2145H9.04492C9.46286 24.0279 22.7148 11.0353 39.0001 11.0353C46.991 11.0353 54.2511 14.1635 59.6239 19.2633L60.7397 18.1474C55.0817 12.7624 47.4273 9.45801 39.0001 9.45801C21.8434 9.45801 7.88572 23.1578 7.46777 40.2145Z" fill="white"/>
<path d="M14.1008 64.7897L15.2153 63.6751C9.59413 57.7775 6.14282 49.7939 6.14282 41.0034C6.14282 23.1199 20.4291 8.57238 38.2114 8.1544V6.57715C19.5577 6.99644 4.56567 22.2485 4.56567 41.0034C4.56567 50.229 8.19442 58.6069 14.1008 64.7897Z" fill="white"/>
<path d="M62.7846 65.9055L61.6688 64.7909C55.7729 70.4112 47.7899 73.8627 39 73.8627C30.21 73.8627 22.227 70.4112 16.3312 64.7896L15.2153 65.9042C21.3977 71.8123 29.775 75.44 39 75.44C48.2249 75.44 56.6022 71.8123 62.7846 65.9055Z" fill="white"/>
<path d="M39.7886 6.57715V8.1544C57.5709 8.57238 71.8571 23.1199 71.8571 41.0034C71.8571 49.7939 68.4058 57.7775 62.7846 63.6738L63.9005 64.7884C69.8069 58.6069 73.4343 50.229 73.4343 41.0034C73.4343 22.2485 58.4422 6.99644 39.7886 6.57715Z" fill="white"/>
<path d="M13.1716 14.0571L14.2861 15.173C20.7064 9.02696 29.4123 5.25206 39 5.25206C58.7432 5.25206 74.7485 21.2586 74.7485 41.0032C74.7485 60.4849 59.1677 76.3245 39.7885 76.7438V78.3211C60.0391 77.9005 76.3257 61.355 76.3257 41.0032C76.3257 20.3871 59.6145 3.6748 39 3.6748C28.9772 3.6748 19.8771 7.62715 13.1716 14.0571Z" fill="white"/>
<path d="M38.2115 78.3209V76.7436C18.8323 76.3243 3.25146 60.4848 3.25146 41.003C3.25146 31.4146 7.02609 22.7082 13.1717 16.2874L12.0559 15.1729C5.62637 21.8788 1.67432 30.9783 1.67432 41.003C1.67432 61.3549 17.9609 77.9016 38.2115 78.3209Z" fill="white"/>
<path d="M66.8733 14.2425C73.3711 21.0103 77.4283 30.1386 77.6294 40.2147H79.2066C79.0042 29.7036 74.7722 20.1809 67.9878 13.1279L66.8733 14.2425Z" fill="white"/>
<path d="M-1.20654 40.2146H0.3706C0.789858 19.2371 17.9242 2.36046 39.0001 2.36046C49.3869 2.36046 58.8156 6.46001 65.7589 13.1279L66.8748 12.0133C59.6449 5.05888 49.8219 0.783203 39.0001 0.783203C17.0528 0.783203 -0.785971 18.3657 -1.20654 40.2146Z" fill="white"/>
<path d="M77.6309 41.792C77.2103 62.7695 60.0773 79.6461 39.0001 79.6461C17.9242 79.6461 0.789857 62.7695 0.3706 41.792H-1.20654C-0.785971 63.6409 17.0528 81.2234 39.0001 81.2234C60.9473 81.2234 78.7875 63.6409 79.208 41.792H77.6309Z" fill="white"/>
<path d="M39.7886 -2.09766V-0.520401C62.3614 -0.099799 80.5314 18.3291 80.5314 41.0035C80.5314 52.1889 76.1089 62.3411 68.9184 69.8081L70.0342 70.924C77.4008 63.2848 81.9811 52.9288 82.1073 41.478C82.3675 17.7744 63.4483 -1.66785 39.7886 -2.09766Z" fill="white"/>
<path d="M7.96707 70.9239L9.08158 69.8093C1.89112 62.341 -2.53145 52.1887 -2.53145 41.0033C-2.53145 18.3277 15.6386 -0.0999495 38.2114 -0.520551V-2.09912C14.9814 -1.68641 -3.84836 17.1434 -4.10596 40.5288C-4.23608 52.3201 0.382323 63.056 7.96707 70.9239Z" fill="white"/>
<path d="M67.8025 70.9238C60.336 78.1148 50.1845 82.5377 38.9999 82.5377C27.8154 82.5377 17.6638 78.1148 10.1974 70.9238L9.08154 72.0397C16.7202 79.4068 27.0754 83.9875 38.5242 84.1136C50.3146 84.2438 61.0497 79.625 68.917 72.0397L67.8025 70.9238Z" fill="white"/>
<path d="M8.15245 9.03907C16.2616 1.21194 27.3305 -3.55399 39.489 -3.41993C51.2952 -3.2898 61.9738 1.4367 69.8477 9.03776L70.9635 7.92185C62.8097 0.0395174 51.7434 -4.8618 39.5074 -4.99718C26.906 -5.13519 15.4336 -0.194442 7.03662 7.92185L8.15245 9.03907Z" fill="white"/>
<path d="M72.0792 9.0376L70.9621 10.1548C78.7886 18.2632 83.5542 29.3342 83.4202 41.4936C83.1547 65.5993 63.7375 85.0087 39.7886 85.4214V87C64.6009 86.5873 84.7226 66.4825 84.9973 41.5106C85.1366 28.9084 80.1949 17.4352 72.0792 9.0376Z" fill="white"/>
<path d="M38.2114 85.4201C13.8183 84.989 -5.68968 64.9487 -5.42026 40.5144C-5.29014 28.7073 -0.563969 18.028 7.03655 10.1535L5.92072 9.0376C-1.96106 17.192 -6.86203 28.2604 -6.9974 40.496C-7.27603 65.8083 12.939 86.5689 38.2114 86.9987V85.4201Z" fill="white"/>
<path d="M43.4214 37.6978L42.2898 38.8294C42.7025 39.4524 42.943 40.2003 42.943 41.0034C42.943 43.1813 41.1779 44.9465 39.0001 44.9465C37.0931 44.9465 35.5015 43.5914 35.1361 41.792H33.5366C33.9191 44.4668 36.2191 46.5238 39.0001 46.5238C42.0493 46.5238 44.5201 44.0528 44.5201 41.0034C44.5201 39.764 44.1114 38.6191 43.4214 37.6978Z" fill="white"/>
<path d="M41.5667 41.0205C41.5667 42.4413 40.4154 43.5927 38.9946 43.5927C37.5739 43.5927 36.4226 42.4413 36.4226 41.0205C36.4226 39.5996 37.5739 38.4482 38.9946 38.4482C40.4154 38.4482 41.5667 39.5996 41.5667 41.0205Z" fill="white"/>
<path d="M38.9999 38.3745C37.5489 38.3745 36.3713 39.5522 36.3713 41.0033C36.3713 42.4557 37.5489 43.632 38.9999 43.632C40.4522 43.632 41.6285 42.4557 41.6285 41.0033C41.6285 39.5522 40.4522 38.3745 38.9999 38.3745ZM38.9947 43.0603C38.5439 42.1862 37.8289 41.4725 36.9562 41.0217C37.8302 40.5708 38.5439 39.8558 38.9947 38.9831C39.4455 39.8571 40.1604 40.5708 41.0331 41.0217C40.1604 41.4712 39.4455 42.1862 38.9947 43.0603Z" fill="white"/>
</g>
</g>
<defs>
<clipPath id="clip0">
<rect width="101" height="101" rx="20" fill="white"/>
</clipPath>
<clipPath id="clip1">
<rect width="53" height="64" fill="white" transform="translate(24 19)"/>
</clipPath>
<clipPath id="clip2">
<rect width="92" height="92" fill="white" transform="translate(-7 -5)"/>
</clipPath>
</defs>
</svg>
