<svg width="102" height="102" viewBox="0 0 102 102" fill="none" xmlns="http://www.w3.org/2000/svg">
<g clip-path="url(#clip0)">
<rect width="102" height="102" rx="20" fill="#F8FDFF"/>
<g opacity="0.1" clip-path="url(#clip1)">
<path d="M43.1956 49.4329H45.334C45.8225 46.9881 47.9504 45.1469 50.5 45.1469C51.5736 45.1469 52.5734 45.4737 53.4063 46.0345L54.9192 44.4969C53.6874 43.5593 52.157 43.0039 50.5 43.0039C46.7819 43.0039 43.7086 45.7987 43.1956 49.4329Z" fill="#A8B7BB"/>
<path d="M41.8374 57.7924L43.338 56.2673C42.1027 54.6833 41.363 52.6831 41.363 50.5044C41.363 45.738 44.8966 41.8127 49.4458 41.2805V39.125C43.7298 39.6661 39.2544 44.5522 39.2544 50.5026C39.2544 53.2742 40.2243 55.8155 41.8374 57.7924Z" fill="#A8B7BB"/>
<path d="M59.5756 51.5762C59.052 56.1997 55.1898 59.791 50.5 59.791C48.3563 59.791 46.3883 59.0392 44.8297 57.7837L43.3291 59.3088C45.276 60.9482 47.7747 61.934 50.5 61.934C56.3548 61.934 61.1623 57.3855 61.6948 51.5762H59.5756Z" fill="#A8B7BB"/>
<path d="M51.5542 39.1265V41.282C55.7573 41.7731 59.0906 45.1608 59.5755 49.4343H61.6946C61.1956 43.9768 56.924 39.6336 51.5542 39.1265Z" fill="#A8B7BB"/>
<path d="M49.4458 65.8214V63.6731C42.7581 63.1266 37.4972 57.4423 37.4972 50.5043C37.4972 47.2415 38.664 44.2556 40.5933 41.9501L39.098 40.4321C36.7891 43.1288 35.3887 46.6486 35.3887 50.5043C35.3887 58.6263 41.5931 65.2714 49.4458 65.8214Z" fill="#A8B7BB"/>
<path d="M61.9021 40.4321L60.4067 41.9501C62.3361 44.2556 63.5028 47.2416 63.5028 50.5043C63.5028 53.767 62.3361 56.753 60.4085 59.0585L61.9038 60.5782C64.211 57.8798 65.6114 54.3599 65.6114 50.5043C65.6114 46.6487 64.211 43.1288 61.9021 40.4321Z" fill="#A8B7BB"/>
<path d="M42.0832 40.4361C44.3516 38.4753 47.2896 37.2895 50.4999 37.2895C53.7119 37.2895 56.6481 38.4753 58.9166 40.4344L60.4102 38.9164C57.7569 36.5698 54.2936 35.1465 50.4999 35.1465C46.7062 35.1465 43.2429 36.5698 40.5896 38.9164L42.0832 40.4361Z" fill="#A8B7BB"/>
<path d="M58.9166 60.5747C56.8994 62.3177 54.3516 63.4446 51.5542 63.6732V65.8216C54.9332 65.584 58.0064 64.2196 60.4102 62.0927L58.9166 60.5747Z" fill="#A8B7BB"/>
<path d="M50.5 69.7918C60.6264 69.7918 68.9008 61.7305 69.4473 51.5762H67.3352C66.7905 60.5447 59.4614 67.6488 50.5 67.6488C41.5386 67.6488 34.2095 60.5447 33.6648 51.5762H31.5527C32.0992 61.7305 40.3736 69.7918 50.5 69.7918Z" fill="#A8B7BB"/>
<path d="M31.5527 49.4333H33.6648C34.1884 40.8184 40.9693 33.9268 49.4457 33.3946V31.248C39.8043 31.7838 32.0799 39.6344 31.5527 49.4333Z" fill="#A8B7BB"/>
<path d="M51.5542 31.248V33.3946C60.0307 33.9268 66.8115 40.8184 67.3351 49.4333H69.4472C68.92 39.6344 61.1956 31.7838 51.5542 31.248Z" fill="#A8B7BB"/>
<path d="M50.5001 27.2886C37.8838 27.2886 27.6572 37.6822 27.6572 50.5045C27.6572 62.9679 37.3198 73.1347 49.4458 73.6954V71.5507C38.4847 70.9935 29.7658 61.7839 29.7658 50.5045C29.7658 38.8662 39.0488 29.4316 50.5001 29.4316C61.9514 29.4316 71.2344 38.8662 71.2344 50.5045C71.2344 61.7839 62.5154 70.9935 51.5544 71.5507V73.6954C63.6804 73.1347 73.3429 62.9679 73.3429 50.5045C73.3429 37.6822 63.1164 27.2886 50.5001 27.2886Z" fill="#A8B7BB"/>
<path d="M68.6249 70.4395L67.1331 68.9233C62.7543 73.0111 56.9135 75.5059 50.4999 75.5059C44.0864 75.5059 38.2474 73.0111 33.8668 68.9233L32.375 70.4395C37.1369 74.9148 43.5047 77.649 50.4999 77.649C57.4969 77.649 63.863 74.9148 68.6249 70.4395Z" fill="#A8B7BB"/>
<path d="M30.8851 68.9254L32.3769 67.4093C28.3548 62.9589 25.9001 57.0228 25.9001 50.5045C25.9001 43.9861 28.3548 38.05 32.3769 33.5997L30.8851 32.0835C26.4834 36.9231 23.7915 43.395 23.7915 50.5045C23.7915 57.6157 26.4834 64.0858 30.8851 68.9254Z" fill="#A8B7BB"/>
<path d="M50.4999 23.3594C43.5047 23.3594 37.1369 26.0953 32.375 30.5688L33.8668 32.085C38.2474 27.999 44.0864 25.5024 50.4999 25.5024C64.0861 25.5024 75.0999 36.696 75.0999 50.5042C75.0999 57.0225 72.6452 62.9586 68.6231 67.409L70.1149 68.9251C74.5183 64.0855 77.2085 57.6154 77.2085 50.5042C77.2085 35.512 65.2511 23.3594 50.4999 23.3594Z" fill="#A8B7BB"/>
<path d="M19.9451 49.4328H22.0554C22.6107 33.9514 35.1321 21.5737 50.5 21.5737C57.9819 21.5737 64.7873 24.5078 69.8672 29.3046L71.3591 27.7884C65.8961 22.6041 58.5635 19.4307 50.5 19.4307C33.9671 19.4307 20.5021 32.7673 19.9451 49.4328Z" fill="#A8B7BB"/>
<path d="M72.8509 29.3047L71.3591 30.8209C75.8557 35.7409 78.6882 42.2521 78.9447 49.4329H81.055C80.795 41.6609 77.7288 34.614 72.8509 29.3047Z" fill="#A8B7BB"/>
<path d="M50.5 81.5783C67.033 81.5783 80.498 68.2416 81.055 51.5762H78.9446C78.3894 67.0576 65.868 79.4353 50.5 79.4353C35.1321 79.4353 22.6107 67.0576 22.0554 51.5762H19.9451C20.5021 68.2416 33.9671 81.5783 50.5 81.5783Z" fill="#A8B7BB"/>
<path d="M49.4457 85.489V83.3442C41.3136 83.0799 33.9406 79.7619 28.3968 74.4829L26.905 75.9991C32.8319 81.6656 40.7302 85.223 49.4457 85.489Z" fill="#A8B7BB"/>
<path d="M51.5542 15.52V17.6648C68.9218 18.2309 82.8314 32.7159 82.8314 50.5047C82.8314 68.2934 68.9218 82.7784 51.5542 83.3445V85.4893C70.0868 84.9232 84.9399 69.4774 84.9399 50.5047C84.9399 31.5319 70.0868 16.0861 51.5542 15.52Z" fill="#A8B7BB"/>
<path d="M16.0601 50.5047C16.0601 59.7857 19.6148 68.2202 25.4151 74.4849L26.9069 72.9688C21.4879 67.0933 18.1686 59.1928 18.1686 50.5047C18.1686 32.7159 32.0782 18.2309 49.4458 17.6648V15.52C30.9132 16.0861 16.0601 31.5319 16.0601 50.5047Z" fill="#A8B7BB"/>
<path d="M50.5 89.4355C60.6985 89.4355 69.9657 85.3834 76.8291 78.7794L75.3373 77.2632C68.8552 83.4797 60.1169 87.2925 50.5 87.2925C30.509 87.2925 14.3029 70.8217 14.3029 50.5042C14.3029 40.7303 18.0544 31.8493 24.171 25.2613L22.6792 23.7451C16.1813 30.7206 12.1943 40.1391 12.1943 50.5042C12.1943 72.0057 29.344 89.4355 50.5 89.4355Z" fill="#A8B7BB"/>
<path d="M50.4999 11.5732C40.3015 11.5732 31.0343 15.6253 24.1709 22.2294L25.6627 23.7455C32.1448 17.529 40.8831 13.7163 50.4999 13.7163C70.4909 13.7163 86.697 30.1871 86.697 50.5046C86.697 60.2785 82.9455 69.1595 76.8289 75.7474L78.3207 77.2636C84.8186 70.2881 88.8056 60.8696 88.8056 50.5046C88.8056 29.003 71.6559 11.5732 50.4999 11.5732Z" fill="#A8B7BB"/>
<path d="M92.659 51.5762H90.5505C89.9899 73.5688 72.2744 91.2218 50.4999 91.2218C28.7271 91.2218 11.0099 73.5688 10.4511 51.5762H8.34253C8.9013 74.7528 27.5622 93.3648 50.4999 93.3648C73.4376 93.3648 92.0985 74.7528 92.659 51.5762Z" fill="#A8B7BB"/>
<path d="M81.055 20.9648L79.5632 22.481C86.1543 29.5405 90.2835 38.9983 90.5489 49.4329H92.6574C92.3921 38.4072 88.0291 28.4136 81.055 20.9648Z" fill="#A8B7BB"/>
<path d="M8.34253 49.4327H10.4511C11.0099 27.4401 28.7271 9.78705 50.4999 9.78705C61.1833 9.78705 70.8898 14.0374 78.073 20.9664L79.5648 19.4502C72.0003 12.1336 61.7667 7.64404 50.4999 7.64404C27.5622 7.64404 8.9013 26.2579 8.34253 49.4327Z" fill="#A8B7BB"/>
<path d="M17.211 82.8226L18.701 81.3082C11.1857 73.2952 6.57146 62.448 6.57146 50.5043C6.57146 26.2061 25.6716 6.4404 49.4457 5.8725V3.72949C24.5066 4.29918 4.46289 25.0221 4.46289 50.5043C4.46289 63.0391 9.31436 74.422 17.211 82.8226Z" fill="#A8B7BB"/>
<path d="M82.299 84.3389L80.8072 82.8245C72.9246 90.4608 62.2517 95.1505 50.5 95.1505C38.7482 95.1505 28.0753 90.4608 20.1927 82.8228L18.7009 84.3372C26.9665 92.3645 38.1666 97.2935 50.5 97.2935C62.8333 97.2935 74.0334 92.3645 82.299 84.3389Z" fill="#A8B7BB"/>
<path d="M51.5542 3.72949V5.8725C75.3283 6.4404 94.4285 26.2061 94.4285 50.5043C94.4285 62.448 89.8142 73.2952 82.2989 81.3064L83.7907 82.8209C91.6873 74.422 96.5371 63.0391 96.5371 50.5043C96.5371 25.0221 76.4933 4.29918 51.5542 3.72949Z" fill="#A8B7BB"/>
<path d="M15.9685 13.893L17.4586 15.4092C26.0422 7.05857 37.6815 1.92963 50.4999 1.92963C76.8957 1.92963 98.2942 23.6776 98.2942 50.5045C98.2942 76.9743 77.4632 98.4954 51.5542 99.0651V101.208C78.6282 100.637 100.403 78.1565 100.403 50.5045C100.403 22.4936 78.0607 -0.213379 50.4999 -0.213379C37.0999 -0.213379 24.9334 5.15665 15.9685 13.893Z" fill="#A8B7BB"/>
<path d="M49.4457 101.208V99.0651C23.5367 98.4955 2.70574 76.9743 2.70574 50.5045C2.70574 37.4768 7.75225 25.6474 15.9687 16.9236L14.4768 15.4092C5.8809 24.5205 0.597168 36.8839 0.597168 50.5045C0.597168 78.1565 22.3717 100.638 49.4457 101.208Z" fill="#A8B7BB"/>
<path d="M87.7654 14.1448C96.4527 23.3401 101.877 35.7427 102.146 49.433H104.254C103.984 35.1516 98.3258 22.2132 89.2554 12.6304L87.7654 14.1448Z" fill="#A8B7BB"/>
<path d="M-3.25464 49.4332H-1.14607C-0.585538 20.9311 22.3223 -1.99908 50.4999 -1.99908C64.3866 -1.99908 76.9923 3.57096 86.2753 12.6305L87.7671 11.1161C78.1011 1.66725 64.9682 -4.14209 50.4999 -4.14209C21.1573 -4.14209 -2.69235 19.7471 -3.25464 49.4332Z" fill="#A8B7BB"/>
<path d="M102.148 51.5762C101.585 80.0782 78.6792 103.008 50.4999 103.008C22.3223 103.008 -0.585538 80.0782 -1.14607 51.5762H-3.25464C-2.69235 81.2622 21.1573 105.151 50.4999 105.151C79.8424 105.151 103.694 81.2622 104.256 51.5762H102.148Z" fill="#A8B7BB"/>
<path d="M51.5542 -8.05664V-5.91363C81.7331 -5.34216 106.026 19.6971 106.026 50.5047C106.026 65.7022 100.113 79.496 90.4995 89.6414L91.9913 91.1576C101.84 80.7783 107.964 66.7076 108.132 51.1494C108.48 18.9435 83.1863 -7.47267 51.5542 -8.05664Z" fill="#A8B7BB"/>
<path d="M9.01042 91.1574L10.5005 89.643C0.887149 79.4959 -5.02564 65.702 -5.02564 50.5045C-5.02564 19.6952 19.2669 -5.34233 49.4458 -5.9138V-8.05859C18.3883 -7.49784 -6.7863 18.0861 -7.1307 49.8598C-7.30465 65.8806 -1.13005 80.4674 9.01042 91.1574Z" fill="#A8B7BB"/>
<path d="M89.0079 91.1572C79.0255 100.928 65.4534 106.937 50.5001 106.937C35.5468 106.937 21.9746 100.928 11.9923 91.1572L10.5005 92.6734C20.713 102.683 34.5575 108.907 49.864 109.078C65.6273 109.255 79.9797 102.979 90.4979 92.6734L89.0079 91.1572Z" fill="#A8B7BB"/>
<path d="M9.25817 7.07483C20.0997 -3.55986 34.8984 -10.0353 51.1537 -9.85316C66.9381 -9.67636 81.2149 -3.25448 91.742 7.07305L93.2338 5.55686C82.3325 -5.15283 67.5373 -11.8122 51.1783 -11.9962C34.3308 -12.1837 18.9927 -5.47071 7.76636 5.55686L9.25817 7.07483Z" fill="#A8B7BB"/>
<path d="M94.7254 7.07275L93.2318 8.59072C103.696 19.6076 110.067 34.6497 109.888 51.1705C109.533 83.9229 83.5728 110.294 51.5542 110.855V113C84.7273 112.439 111.629 85.1229 111.996 51.1937C112.183 34.0711 105.576 18.4825 94.7254 7.07275Z" fill="#A8B7BB"/>
<path d="M49.4458 110.853C16.8332 110.268 -9.24808 83.0389 -8.88787 49.8401C-8.71391 33.7979 -2.39522 19.2879 7.76634 8.58893L6.27452 7.07275C-4.26307 18.1521 -10.8155 33.1907 -10.9964 49.8151C-11.369 84.2068 15.6577 112.414 49.4458 112.998V110.853Z" fill="#A8B7BB"/>
<path d="M56.411 46.0132L54.8981 47.5508C55.4499 48.3973 55.7714 49.4134 55.7714 50.5046C55.7714 53.4637 53.4116 55.8621 50.5 55.8621C47.9504 55.8621 45.8225 54.0209 45.334 51.5761H43.1956C43.7069 55.2103 46.7819 58.0051 50.5 58.0051C54.5766 58.0051 57.88 54.6477 57.88 50.5046C57.88 48.8205 57.3336 47.2651 56.411 46.0132Z" fill="#A8B7BB"/>
<path d="M53.9316 50.5276C53.9316 52.4581 52.3924 54.0225 50.4929 54.0225C48.5934 54.0225 47.0542 52.4581 47.0542 50.5276C47.0542 48.5971 48.5934 47.0327 50.4929 47.0327C52.3924 47.0327 53.9316 48.5971 53.9316 50.5276Z" fill="white"/>
<path d="M50.4999 46.9326C48.56 46.9326 46.9856 48.5327 46.9856 50.5043C46.9856 52.4777 48.56 54.076 50.4999 54.076C52.4415 54.076 54.0142 52.4777 54.0142 50.5043C54.0142 48.5327 52.4415 46.9326 50.4999 46.9326ZM50.4929 53.2991C49.8902 52.1116 48.9343 51.1418 47.7675 50.5293C48.936 49.9168 49.8902 48.9453 50.4929 47.7595C51.0956 48.947 52.0514 49.9168 53.2182 50.5293C52.0514 51.1401 51.0956 52.1116 50.4929 53.2991Z" fill="#A8B7BB"/>
</g>
<rect fill="transparent" opacity="0.5" x="-19.5" y="-17.5" width="47.1639" height="47.1639" rx="18.5" stroke="#D3E1E2" stroke-width="3"/>
<path d="M55.8535 19C36.4431 19 20.7123 34.916 20.7123 54.5433C20.7123 59.9501 21.9112 65.0682 24.0442 69.6562L13 91L34.1024 82.4541C40.0864 87.231 47.6378 90.0919 55.8535 90.0919C75.264 90.0919 90.9948 74.1758 90.9948 54.5486C91 34.916 75.264 19 55.8535 19Z" fill="#49A9B4"/>
<path d="M51.416 61.336C51.416 59.672 51.784 58.296 52.52 57.208C53.288 56.12 54.392 54.92 55.832 53.608C56.888 52.648 57.656 51.848 58.136 51.208C58.648 50.536 58.904 49.784 58.904 48.952C58.904 47.768 58.424 46.84 57.464 46.168C56.536 45.464 55.288 45.112 53.72 45.112C52.216 45.112 50.872 45.432 49.688 46.072C48.536 46.68 47.56 47.544 46.76 48.664L40.952 45.256C42.296 43.208 44.104 41.624 46.376 40.504C48.68 39.384 51.4 38.824 54.536 38.824C58.216 38.824 61.16 39.608 63.368 41.176C65.608 42.744 66.728 44.92 66.728 47.704C66.728 49.016 66.504 50.168 66.056 51.16C65.64 52.152 65.112 53 64.472 53.704C63.864 54.376 63.064 55.16 62.072 56.056C60.888 57.112 60.024 58.008 59.48 58.744C58.936 59.448 58.664 60.312 58.664 61.336H51.416ZM55.064 73.384C53.752 73.384 52.648 72.968 51.752 72.136C50.888 71.272 50.456 70.232 50.456 69.016C50.456 67.8 50.888 66.792 51.752 65.992C52.616 65.16 53.72 64.744 55.064 64.744C56.408 64.744 57.512 65.16 58.376 65.992C59.24 66.792 59.672 67.8 59.672 69.016C59.672 70.232 59.224 71.272 58.328 72.136C57.464 72.968 56.376 73.384 55.064 73.384Z" fill="white"/>
<path d="M128.125 -34.8594L120.901 -27.6289C123.539 -23.6491 125.079 -18.8788 125.079 -13.7473C125.079 0.161556 113.807 11.4331 99.8983 11.4331C87.7135 11.4331 77.5527 2.77842 75.2221 -8.71123H65C67.4465 8.37331 82.1322 21.5053 99.8914 21.5053C119.361 21.5053 135.144 5.72238 135.144 -13.7473C135.144 -21.666 132.534 -28.9714 128.125 -34.8594Z" fill="white"/>
<path d="M99.8914 -30.5322C90.6165 -30.5322 83.1067 -23.0156 83.1067 -13.7407C83.1067 -4.46586 90.6233 3.04398 99.8914 3.04398C109.166 3.04398 116.683 -4.47267 116.683 -13.7407C116.683 -23.0156 109.166 -30.5322 99.8914 -30.5322ZM99.8573 -0.608715C96.9747 -6.18998 92.4156 -10.749 86.8344 -13.6317C92.4156 -16.5143 96.9747 -21.0734 99.8573 -26.6546C102.74 -21.0734 107.299 -16.5143 112.88 -13.6317C107.299 -10.7559 102.74 -6.18998 99.8573 -0.608715Z" fill="#49A9B4"/>
</g>
<defs>
<clipPath id="clip0">
<rect width="102" height="102" rx="20" fill="white"/>
</clipPath>
<clipPath id="clip1">
<rect width="123" height="125" fill="white" transform="translate(-11 -12)"/>
</clipPath>
</defs>
</svg>
