<svg width="102" height="102" viewBox="0 0 102 102" fill="none" xmlns="http://www.w3.org/2000/svg">
<g clip-path="url(#clip0)">
<rect width="102" height="102" rx="20" fill="#F8FDFF"/>
<g opacity="0.2" clip-path="url(#clip1)">
<path d="M10.7896 15.5355H12.7541C13.2029 13.3254 15.1578 11.6609 17.5001 11.6609C18.4864 11.6609 19.405 11.9563 20.1701 12.4633L21.56 11.0733C20.4284 10.2257 19.0224 9.72363 17.5001 9.72363C14.0843 9.72363 11.2609 12.2502 10.7896 15.5355Z" fill="#49A9B4"/>
<path d="M9.54146 23.0921L10.9201 21.7134C9.78521 20.2815 9.1056 18.4733 9.1056 16.5038C9.1056 12.1949 12.3519 8.64647 16.5313 8.16538V6.2168C11.28 6.70596 7.16846 11.123 7.16846 16.5021C7.16846 19.0077 8.05954 21.305 9.54146 23.0921Z" fill="#49A9B4"/>
<path d="M25.8378 17.4727C25.3567 21.6523 21.8085 24.8989 17.5 24.8989C15.5306 24.8989 13.7226 24.2192 12.2907 23.0843L10.9121 24.463C12.7007 25.945 14.9963 26.8362 17.5 26.8362C22.8788 26.8362 27.2955 22.7243 27.7846 17.4727H25.8378Z" fill="#49A9B4"/>
<path d="M18.4685 6.21826V8.16684C22.3299 8.6108 25.3922 11.6733 25.8377 15.5366H27.7845C27.3261 10.603 23.4018 6.67675 18.4685 6.21826Z" fill="#49A9B4"/>
<path d="M16.5315 30.3504V28.4082C10.3875 27.9142 5.55433 22.7756 5.55433 16.5037C5.55433 13.5541 6.62621 10.8549 8.3987 8.77068L7.02494 7.39844C4.90377 9.83618 3.61719 13.0182 3.61719 16.5037C3.61719 23.846 9.31723 29.8531 16.5315 30.3504Z" fill="#49A9B4"/>
<path d="M27.9751 7.39844L26.6013 8.77068C28.3738 10.8549 29.4457 13.5542 29.4457 16.5037C29.4457 19.4532 28.3738 22.1525 26.6029 24.2367L27.9767 25.6105C30.0963 23.1712 31.3828 19.9892 31.3828 16.5037C31.3828 13.0182 30.0963 9.83619 27.9751 7.39844Z" fill="#49A9B4"/>
<path d="M9.76765 7.40197C11.8517 5.62936 14.5508 4.5574 17.5001 4.5574C20.451 4.5574 23.1485 5.62936 25.2325 7.40036L26.6046 6.02812C24.1671 3.90679 20.9853 2.62012 17.5001 2.62012C14.0148 2.62012 10.8331 3.90679 8.39551 6.02812L9.76765 7.40197Z" fill="#49A9B4"/>
<path d="M25.2324 25.6074C23.3792 27.1831 21.0384 28.2018 18.4685 28.4084V30.3506C21.5728 30.1359 24.3962 28.9024 26.6045 26.9797L25.2324 25.6074Z" fill="#49A9B4"/>
<path d="M17.5001 33.9396C26.8032 33.9396 34.4049 26.6521 34.907 17.4727H32.9666C32.4662 25.5802 25.733 32.0023 17.5001 32.0023C9.26725 32.0023 2.53406 25.5802 2.03363 17.4727H0.0932617C0.595305 26.6521 8.19698 33.9396 17.5001 33.9396Z" fill="#49A9B4"/>
<path d="M0.0932617 15.5356H2.03363C2.51469 7.74777 8.74421 1.51779 16.5315 1.0367V-0.903809C7.67394 -0.419488 0.577547 6.67742 0.0932617 15.5356Z" fill="#49A9B4"/>
<path d="M18.4685 -0.903809V1.0367C26.2558 1.51779 32.4853 7.74777 32.9664 15.5356H34.9068C34.4225 6.67742 27.3261 -0.419488 18.4685 -0.903809Z" fill="#49A9B4"/>
<path d="M17.5001 -4.4834C5.90955 -4.4834 -3.4856 4.91241 -3.4856 16.5038C-3.4856 27.7707 5.39136 36.9615 16.5316 37.4684V35.5295C6.46163 35.0258 -1.54845 26.7004 -1.54845 16.5038C-1.54845 5.98276 6.97982 -2.54612 17.5001 -2.54612C28.0204 -2.54612 36.5487 5.98276 36.5487 16.5038C36.5487 26.7004 28.5386 35.0258 18.4687 35.5295V37.4684C29.6089 36.9615 38.4858 27.7707 38.4858 16.5038C38.4858 4.91241 29.0907 -4.4834 17.5001 -4.4834Z" fill="#49A9B4"/>
<path d="M34.1514 34.5254L32.7808 33.1548C28.758 36.8501 23.3921 39.1055 17.5 39.1055C11.6078 39.1055 6.24358 36.8501 2.21916 33.1548L0.848633 34.5254C5.22335 38.5711 11.0735 41.0427 17.5 41.0427C23.9281 41.0427 29.7766 38.5711 34.1514 34.5254Z" fill="#49A9B4"/>
<path d="M-0.520239 33.1567L0.85029 31.786C-2.84481 27.763 -5.09997 22.3967 -5.09997 16.5041C-5.09997 10.6116 -2.84481 5.24528 0.85029 1.22219L-0.520239 -0.148438C-4.56402 4.22659 -7.03711 10.0772 -7.03711 16.5041C-7.03711 22.9327 -4.56402 28.7816 -0.520239 33.1567Z" fill="#49A9B4"/>
<path d="M17.5 -8.03516C11.0735 -8.03516 5.22335 -5.56189 0.848633 -1.51782L2.21916 -0.147192C6.24357 -3.84094 11.6078 -6.09787 17.5 -6.09787C29.9816 -6.09787 40.1 4.02119 40.1 16.5037C40.1 22.3963 37.8448 27.7626 34.1497 31.7857L35.5202 33.1563C39.5656 28.7813 42.0371 22.9323 42.0371 16.5037C42.0371 2.95084 31.0519 -8.03516 17.5 -8.03516Z" fill="#49A9B4"/>
<path d="M-10.5708 15.5355H-8.63204C-8.12193 1.54028 3.38147 -9.64914 17.5 -9.64914C24.3736 -9.64914 30.6258 -6.99668 35.2927 -2.6604L36.6632 -4.03102C31.6444 -8.71763 24.908 -11.5864 17.5 -11.5864C2.3112 -11.5864 -10.0591 0.469929 -10.5708 15.5355Z" fill="#49A9B4"/>
<path d="M38.0336 -2.66064L36.6631 -1.29002C40.794 3.15766 43.3963 9.04378 43.632 15.5353H45.5707C45.3318 8.50941 42.5149 2.13897 38.0336 -2.66064Z" fill="#49A9B4"/>
<path d="M17.5 44.5946C32.6888 44.5946 45.0591 32.5382 45.5708 17.4727H43.6321C43.122 31.4679 31.6186 42.6573 17.5 42.6573C3.38147 42.6573 -8.12193 31.4679 -8.63204 17.4727H-10.5708C-10.0591 32.5382 2.3112 44.5946 17.5 44.5946Z" fill="#49A9B4"/>
<path d="M16.5316 48.1302V46.1913C9.06064 45.9524 2.28709 42.9528 -2.80598 38.1807L-4.17651 39.5513C1.26848 44.6738 8.5247 47.8897 16.5316 48.1302Z" fill="#49A9B4"/>
<path d="M18.4685 -15.1221V-13.1832C34.4241 -12.6714 47.2028 0.422997 47.2028 16.504C47.2028 32.5851 34.4241 45.6795 18.4685 46.1913V48.1302C35.4944 47.6184 49.1399 33.6554 49.1399 16.504C49.1399 -0.647351 35.4944 -14.6103 18.4685 -15.1221Z" fill="#49A9B4"/>
<path d="M-14.1399 16.504C-14.1399 24.8941 -10.8742 32.5189 -5.54543 38.1822L-4.1749 36.8116C-9.15336 31.5002 -12.2027 24.3581 -12.2027 16.504C-12.2027 0.422997 0.575946 -12.6714 16.5316 -13.1832V-15.1221C-0.494327 -14.6103 -14.1399 -0.64735 -14.1399 16.504Z" fill="#49A9B4"/>
<path d="M17.5 51.6976C26.8693 51.6976 35.3831 48.0345 41.6885 42.0645L40.318 40.6938C34.3629 46.3136 26.335 49.7603 17.5 49.7603C-0.865705 49.7603 -15.7543 34.8707 -15.7543 16.5037C-15.7543 7.66804 -12.3078 -0.360374 -6.68843 -6.3159L-8.05896 -7.68652C-14.0286 -1.38067 -17.6914 7.13368 -17.6914 16.5037C-17.6914 35.941 -1.93598 51.6976 17.5 51.6976Z" fill="#49A9B4"/>
<path d="M17.5 -18.6899C8.13065 -18.6899 -0.383081 -15.0269 -6.68848 -9.05682L-5.31795 -7.68619C0.637144 -13.3059 8.66498 -16.7527 17.5 -16.7527C35.8657 -16.7527 50.7542 -1.86305 50.7542 16.504C50.7542 25.3396 47.3077 33.368 41.6884 39.3235L43.0589 40.6941C49.0285 34.3883 52.6914 25.8739 52.6914 16.504C52.6914 -2.9334 36.9359 -18.6899 17.5 -18.6899Z" fill="#49A9B4"/>
<path d="M56.2315 17.4727H54.2944C53.7794 37.354 37.5042 53.3123 17.5 53.3123C-2.50265 53.3123 -18.7795 37.354 -19.2928 17.4727H-21.23C-20.7166 38.4243 -3.57292 55.2496 17.5 55.2496C38.5729 55.2496 55.7166 38.4243 56.2315 17.4727Z" fill="#49A9B4"/>
<path d="M45.5707 -10.1997L44.2002 -8.82908C50.2554 -2.44735 54.0489 6.10252 54.2927 15.5355H56.2298C55.9861 5.56815 51.9778 -3.46604 45.5707 -10.1997Z" fill="#49A9B4"/>
<path d="M-21.23 15.5353H-19.2928C-18.7795 -4.34607 -2.50266 -20.3044 17.5 -20.3044C27.3148 -20.3044 36.2321 -16.4621 42.8313 -10.1983L44.2019 -11.5689C37.2523 -18.1831 27.8508 -22.2417 17.5 -22.2417C-3.57292 -22.2417 -20.7166 -5.4148 -21.23 15.5353Z" fill="#49A9B4"/>
<path d="M-13.0825 45.7199L-11.7136 44.3509C-18.6179 37.1071 -22.857 27.3012 -22.857 16.5041C-22.857 -5.46142 -5.30976 -23.3296 16.5315 -23.843V-25.7803C-6.38004 -25.2653 -24.7942 -6.53177 -24.7942 16.5041C-24.7942 27.8356 -20.3371 38.1258 -13.0825 45.7199Z" fill="#49A9B4"/>
<path d="M46.7138 47.0904L45.3433 45.7213C38.1016 52.6245 28.2965 56.864 17.5001 56.864C6.70377 56.864 -3.10141 52.6245 -10.3431 45.7197L-11.7136 47.0887C-4.12002 54.3455 6.16944 58.8012 17.5001 58.8012C28.8308 58.8012 39.1202 54.3455 46.7138 47.0904Z" fill="#49A9B4"/>
<path d="M18.4685 -25.7803V-23.843C40.3098 -23.3296 57.8571 -5.46143 57.8571 16.5041C57.8571 27.3012 53.618 37.1071 46.7137 44.3493L48.0842 45.7183C55.3388 38.1258 59.7942 27.8356 59.7942 16.5041C59.7942 -6.53177 41.3801 -25.2653 18.4685 -25.7803Z" fill="#49A9B4"/>
<path d="M-14.2239 -16.5931L-12.855 -15.2224C-4.96918 -22.7714 5.72385 -27.4079 17.5001 -27.4079C41.7499 -27.4079 61.4086 -7.74776 61.4086 16.5038C61.4086 40.4324 42.2713 59.8876 18.4686 60.4026V62.3398C43.3415 61.8232 63.3458 41.5012 63.3458 16.5038C63.3458 -8.81811 42.8201 -29.3452 17.5001 -29.3452C5.18952 -29.3452 -5.98779 -24.4907 -14.2239 -16.5931Z" fill="#49A9B4"/>
<path d="M16.5314 62.3401V60.4028C-7.2712 59.8878 -26.4086 40.4327 -26.4086 16.504C-26.4086 4.72698 -21.7723 -5.96681 -14.2239 -13.8532L-15.5945 -15.2222C-23.4915 -6.9855 -28.3457 4.191 -28.3457 16.504C-28.3457 41.5014 -8.34147 61.8251 16.5314 62.3401Z" fill="#49A9B4"/>
<path d="M51.7358 -16.3654C59.7169 -8.05281 64.7002 3.15921 64.9472 15.5352H66.8843C66.6357 2.62485 61.4377 -9.0715 53.1048 -17.7344L51.7358 -16.3654Z" fill="#49A9B4"/>
<path d="M-31.8843 15.5355H-29.9471C-29.4322 -10.2303 -8.38673 -30.9592 17.5 -30.9592C30.2577 -30.9592 41.8385 -25.9239 50.3668 -17.734L51.7374 -19.103C42.8572 -27.6448 30.792 -32.8965 17.5 -32.8965C-9.45701 -32.8965 -31.3677 -11.3006 -31.8843 15.5355Z" fill="#49A9B4"/>
<path d="M64.9487 17.4727C64.4321 43.2385 43.3883 63.9674 17.5 63.9674C-8.38674 63.9674 -29.4322 43.2385 -29.9471 17.4727H-31.8843C-31.3677 44.3088 -9.45701 65.9047 17.5 65.9047C44.4569 65.9047 66.3692 44.3088 66.8858 17.4727H64.9487Z" fill="#49A9B4"/>
<path d="M18.4685 -36.4355V-34.4983C46.1939 -33.9817 68.5114 -11.3461 68.5114 16.5039C68.5114 30.2424 63.0793 42.7121 54.2475 51.8835L55.6181 53.2541C64.6661 43.8712 70.2919 31.1513 70.4469 17.0867C70.7665 -12.0274 47.5289 -35.9076 18.4685 -36.4355Z" fill="#49A9B4"/>
<path d="M-20.6164 53.2543L-19.2474 51.8852C-28.0792 42.7122 -33.5113 30.2426 -33.5113 16.504C-33.5113 -11.3476 -11.1938 -33.9815 16.5316 -34.4981V-36.437C-12.0009 -35.9301 -35.1288 -12.8022 -35.4452 15.9212C-35.605 30.404 -29.9324 43.5905 -20.6164 53.2543Z" fill="#49A9B4"/>
<path d="M52.8771 53.2544C43.7063 62.0868 31.2376 67.5192 17.5 67.5192C3.76247 67.5192 -8.70627 62.0868 -17.877 53.2544L-19.2476 54.625C-9.86533 63.6737 2.85362 69.2999 16.9157 69.4549C31.3974 69.6147 44.5829 63.9417 54.246 54.625L52.8771 53.2544Z" fill="#49A9B4"/>
<path d="M58.1299 -22.7583L56.7577 -21.3861C66.3708 -11.4268 72.2242 2.17127 72.0595 17.1061C71.7334 46.7142 47.884 70.554 18.4685 71.061V72.9999C48.9446 72.4929 73.6593 47.7991 73.9967 17.1271C74.1678 1.6482 68.0981 -12.4439 58.1299 -22.7583Z" fill="#49A9B4"/>
<path d="M16.5315 71.0594C-13.4297 70.5299 -37.3905 45.9151 -37.0596 15.9034C-36.8998 1.40121 -31.0948 -11.7158 -21.7594 -21.3877L-23.1299 -22.7583C-32.8108 -12.7426 -38.8305 0.852318 -38.9967 15.8808C-39.339 46.9709 -14.5096 72.4704 16.5315 72.9983V71.0594Z" fill="#49A9B4"/>
<path d="M22.9306 12.4438L21.5407 13.8338C22.0476 14.5991 22.343 15.5177 22.343 16.5041C22.343 19.1791 20.175 21.3473 17.5002 21.3473C15.1578 21.3473 13.2029 19.6828 12.7541 17.4727H10.7896C11.2593 20.758 14.0843 23.2845 17.5002 23.2845C21.2453 23.2845 24.2802 20.2495 24.2802 16.5041C24.2802 14.9817 23.7781 13.5755 22.9306 12.4438Z" fill="#49A9B4"/>
<path d="M20.6528 16.5251C20.6528 18.2703 19.2386 19.6845 17.4936 19.6845C15.7486 19.6845 14.3345 18.2703 14.3345 16.5251C14.3345 14.7799 15.7486 13.3657 17.4936 13.3657C19.2386 13.3657 20.6528 14.7799 20.6528 16.5251Z" fill="white"/>
<path d="M17.5001 13.2754C15.7179 13.2754 14.2715 14.7219 14.2715 16.5042C14.2715 18.2881 15.7179 19.733 17.5001 19.733C19.2838 19.733 20.7286 18.2881 20.7286 16.5042C20.7286 14.7219 19.2838 13.2754 17.5001 13.2754ZM17.4936 19.0307C16.9399 17.9571 16.0617 17.0805 14.9898 16.5268C16.0633 15.9731 16.9399 15.0948 17.4936 14.0229C18.0473 15.0964 18.9255 15.9731 19.9974 16.5268C18.9255 17.0789 18.0473 17.9571 17.4936 19.0307Z" fill="#49A9B4"/>
</g>
<rect fill="transparent" opacity="0.5" x="69.2212" y="78.418" width="47.1639" height="47.1639" rx="18.5" stroke="#D3E1E2" stroke-width="3"/>
<circle cx="7.52453" cy="96.9835" r="16.7213" fill="white"/>
<rect opacity="0.5" x="26" y="46" width="12" height="35" fill="#49A9B4"/>
<rect opacity="0.7" x="45" y="31" width="12" height="50" fill="#49A9B4"/>
<rect x="64" y="21" width="12" height="60" fill="#49A9B4"/>
</g>
<defs>
<clipPath id="clip0">
<rect width="102" height="102" rx="20" fill="white"/>
</clipPath>
<clipPath id="clip1">
<rect width="113" height="113" fill="white" transform="translate(-39 -40)"/>
</clipPath>
</defs>
</svg>
