<svg width="32" height="32" viewBox="0 0 32 32" fill="none" xmlns="http://www.w3.org/2000/svg">
<path d="M23.5902 8.41675C23.0702 7.89675 22.2302 7.89675 21.7102 8.41675L17.0568 13.0567L11.0567 7.05667C10.5367 6.53667 9.69672 6.53667 9.17672 7.05667C8.65672 7.57667 8.65672 8.41667 9.17672 8.93667L15.1768 14.9367L7.05675 23.3367C6.53675 23.8567 6.53675 24.6967 7.05675 25.2167C7.57675 25.7367 8.41675 25.7367 8.93675 25.2167L17.0568 16.8167L22.3902 22.1501C22.9102 22.6701 23.7502 22.6701 24.2702 22.1501C24.7902 21.6301 24.7902 20.7901 24.2702 20.2701L18.9368 14.9367L23.5902 10.2834C24.0968 9.77675 24.0968 8.92341 23.5902 8.41675Z" fill="#D3E1E2"/>
</svg>
