<svg width="386" height="458" viewBox="0 0 386 458" fill="none" xmlns="http://www.w3.org/2000/svg">
<path opacity="0.4" d="M43.7403 457.974L0 432.95L65.4466 395.497L109.166 420.5L43.7403 457.974Z" fill="#D6D8E5"/>
<path d="M44.6417 407.537L8.41675 386.63L44.6417 365.722L80.8462 386.63L44.6417 407.537Z" fill="#D6D8E5"/>
<path d="M44.6417 449.353L8.41675 428.445V386.63L44.6417 407.537V449.353Z" fill="#B1B6C4"/>
<path d="M80.8658 428.445L44.6409 449.353V407.537L80.8658 386.63V428.445Z" fill="#C4C7D6"/>
<path d="M93.3186 415.38C96.451 416.253 99.8015 415.848 102.636 414.254C104.888 414.254 117.093 409.114 118.752 413.496C120.206 417.326 114.922 420.889 112.097 421.565C105.953 423.059 101.366 426.131 98.8885 426.664C97.9448 427.002 96.9326 427.104 95.9403 426.961C94.948 426.819 94.0057 426.435 93.1957 425.844C91.4346 424.001 91.5984 417.571 93.3186 415.38Z" fill="#B81B29"/>
<path d="M98.8874 425.496C101.365 424.964 105.932 421.892 112.096 420.397C114.45 419.824 118.525 417.244 118.935 414.152C119.488 417.694 114.717 420.827 112.096 421.462C105.952 422.957 101.365 426.029 98.8874 426.561C97.9437 426.899 96.9315 427.002 95.9392 426.859C94.9469 426.716 94.0047 426.333 93.1946 425.742C92.8043 425.329 92.5289 424.82 92.396 424.268C93.3071 424.965 94.3687 425.439 95.4959 425.652C96.6231 425.866 97.7846 425.812 98.8874 425.496Z" fill="#811922"/>
<path d="M71.3237 403.565C74.4561 404.437 77.8066 404.032 80.641 402.438C82.8935 402.438 94.9754 397.299 96.7364 401.681C98.1903 405.51 92.9071 409.073 90.1017 409.749C83.9584 411.244 79.3714 414.315 76.8936 414.848C75.9499 415.186 74.9377 415.289 73.9454 415.146C72.9531 415.003 72.0108 414.619 71.2008 414.029C69.4397 412.288 69.624 405.858 71.3237 403.565Z" fill="#B81B29"/>
<path d="M76.8957 413.783C79.3735 413.251 83.94 410.179 90.1038 408.684C92.4587 408.111 96.5338 405.531 96.9433 402.438C97.4962 405.981 92.7249 409.114 90.1038 409.749C83.9605 411.244 79.3735 414.315 76.8957 414.848C75.952 415.186 74.9398 415.288 73.9475 415.146C72.9552 415.003 72.013 414.619 71.2029 414.029C70.8172 413.62 70.5422 413.12 70.4043 412.575C71.3186 413.266 72.381 413.734 73.5076 413.944C74.6342 414.154 75.7941 414.099 76.8957 413.783Z" fill="#811922"/>
<path d="M37.065 388.391C46.5871 392.486 55.4949 393.224 62.8873 389.292L70.4641 384.91C70.9146 394.698 71.3446 404.097 71.3446 404.097C71.3446 404.097 77.1602 408.5 81.5834 404.568C81.5834 404.568 82.5254 390.848 83.4878 377.333L91.4332 372.746C91.2417 373.468 91.1386 374.211 91.126 374.957C91.126 377.517 92.969 415.667 92.969 415.667C92.969 415.667 98.8256 419.148 103.351 415.237C103.351 415.237 106.402 371.026 107.099 364.043C107.877 356.098 99.0713 352.186 93.4809 354.214L84.9622 357.388L85.3718 352.473C86.1704 344.528 77.3445 340.616 71.7746 342.644C66.6962 344.507 32.3756 357.367 32.3756 357.367C32.5892 360.671 32.9926 363.96 33.5838 367.217L20.0276 366.07C19.3109 378.746 27.5634 384.213 37.065 388.391ZM60.7372 366.418L69.8088 361.196C69.6576 361.836 69.5617 362.486 69.5221 363.142L60.7372 366.418Z" fill="#FF2639"/>
<path d="M12.6973 327.326C12.6973 327.326 13.8031 344.18 16.0146 346.616C18.2262 349.053 25.7211 350.712 25.7211 350.712L31.4753 360.091C31.4753 360.091 26.2125 330.029 25.0658 329.374C23.919 328.719 12.6973 327.326 12.6973 327.326Z" fill="#FFCEA9"/>
<path d="M23.7759 308.589C22.3805 307.938 20.7954 307.818 19.3176 308.251C17.8399 308.685 16.571 309.642 15.7487 310.944C13.7009 314.446 11.4279 326.507 11.2231 328.555C12.0743 329.705 13.2018 330.621 14.5012 331.218C15.8006 331.816 17.2298 332.076 18.6565 331.975L23.7759 308.589Z" fill="#EDEDED"/>
<path d="M25.8019 308.897C28.7097 309.04 30.8803 309.777 31.2489 308.897C31.5611 307.396 31.78 305.878 31.9042 304.35C31.5766 303.49 31.2899 302.589 31.2899 302.589C27.6244 300.337 26.4776 296.446 25.9862 291.777C25.1671 283.893 29.4264 277.013 37.2898 276.194C44.7028 275.416 50.1498 280.617 51.6242 287.764C52.4023 291.286 53.9587 298.002 51.8495 303.757C50.6822 306.992 49.1669 309.572 47.7539 310.064C46.2869 310.033 44.8233 309.91 43.3717 309.695C43.3717 309.695 42.9826 311.886 42.7164 313.279C42.4502 314.671 42.5321 315.429 45.3376 317.149C48.143 318.869 41.1192 322.412 36.5322 322.064C31.9452 321.716 26.7848 318.951 25.3718 315.92C23.6722 312.603 23.7951 308.712 25.8019 308.897Z" fill="#FFCEA9"/>
<path d="M99.644 360.398C99.6423 360.813 99.5318 361.221 99.3234 361.58C99.115 361.939 98.816 362.238 98.4563 362.446L76.238 375.265C75.8776 375.475 75.4677 375.586 75.0503 375.586C74.6329 375.586 74.223 375.475 73.8626 375.265L42.7366 357.285C42.374 357.081 42.0727 356.783 41.8639 356.423C41.6551 356.063 41.5463 355.654 41.5489 355.237V355.074L99.644 360.398Z" fill="#E5E5E5"/>
<path d="M98.4565 362.446L76.2382 375.265C75.8805 375.482 75.4692 375.596 75.0505 375.592V360.398H99.6237C99.6242 360.811 99.5167 361.218 99.312 361.577C99.1073 361.936 98.8124 362.235 98.4565 362.446Z" fill="#E5E5E5"/>
<path d="M75.8891 374.097C75.6384 374.247 75.3518 374.326 75.0598 374.326C74.7677 374.326 74.4812 374.247 74.2304 374.097L41.8553 355.422C41.4457 355.176 41.4457 354.787 41.8553 354.562L65.6912 340.78L99.6432 360.398L75.8891 374.097Z" fill="#F4F4F4"/>
<path d="M55.1458 360.398L55.3096 360.48L65.6917 366.48L71.3845 363.183L71.5483 363.101L61.0024 357.019L55.1458 360.398Z" fill="#BFBFBF"/>
<path d="M55.3083 360.48L65.6905 366.48L71.3833 363.183L61.0011 357.203L55.3083 360.48Z" fill="#E5E5E5"/>
<path d="M90.8376 361.36L92.3324 362.22C92.4047 362.26 92.4856 362.28 92.5679 362.28C92.6502 362.28 92.7312 362.26 92.8034 362.22L94.2369 361.401C94.3802 361.401 94.4007 361.196 94.2369 361.135L92.742 360.254C92.6683 360.22 92.5879 360.202 92.5065 360.202C92.4251 360.202 92.3447 360.22 92.271 360.254L90.8376 361.094C90.7352 361.176 90.7147 361.299 90.8376 361.36Z" fill="#2C2943"/>
<path d="M88.7297 360.091L90.2245 360.951C90.2968 360.99 90.3777 361.011 90.46 361.011C90.5423 361.011 90.6233 360.99 90.6955 360.951L92.129 360.132C92.2723 360.132 92.2723 359.927 92.129 359.865L90.6341 359.005C90.5618 358.966 90.4809 358.945 90.3986 358.945C90.3163 358.945 90.2353 358.966 90.1631 359.005L88.7297 359.824C88.6273 359.947 88.6068 360.091 88.7297 360.091Z" fill="#2C2943"/>
<path d="M86.6003 358.923L88.0951 359.784C88.1723 359.819 88.2561 359.837 88.3409 359.837C88.4256 359.837 88.5094 359.819 88.5866 359.784L89.9996 358.964C90.1429 358.964 90.1634 358.76 89.9996 358.678L88.5047 357.818C88.4325 357.778 88.3515 357.758 88.2692 357.758C88.1869 357.758 88.1059 357.778 88.0337 357.818L86.6003 358.637C86.4979 358.719 86.4774 358.842 86.6003 358.923Z" fill="#2C2943"/>
<path d="M84.4902 357.695L85.985 358.555C86.0587 358.589 86.1391 358.607 86.2205 358.607C86.3019 358.607 86.3824 358.589 86.456 358.555L87.8895 357.736C88.0328 357.736 88.0533 357.531 87.8895 357.449L86.3946 356.589C86.3174 356.554 86.2336 356.536 86.1489 356.536C86.0641 356.536 85.9803 356.554 85.9031 356.589L84.4902 357.408C84.3878 357.49 84.3673 357.613 84.4902 357.695Z" fill="#2C2943"/>
<path d="M82.3608 356.466L83.8761 357.326C83.9483 357.366 84.0293 357.386 84.1116 357.386C84.1939 357.386 84.2749 357.366 84.3471 357.326L85.7601 356.507C85.9034 356.507 85.9239 356.302 85.7601 356.241L84.2652 355.36C84.1915 355.326 84.1111 355.308 84.0297 355.308C83.9483 355.308 83.8679 355.326 83.7942 355.36L82.3608 356.2C82.2584 356.282 82.2379 356.405 82.3608 356.466Z" fill="#3A2C6D"/>
<path d="M80.2507 355.237L81.7455 356.118C81.8192 356.153 81.8996 356.171 81.981 356.171C82.0624 356.171 82.1429 356.153 82.2165 356.118L83.6499 355.278C83.7933 355.278 83.8138 355.074 83.6499 355.012L82.1551 354.152C82.0792 354.113 81.9949 354.092 81.9094 354.092C81.8238 354.092 81.7395 354.113 81.6636 354.152L80.2507 354.971C80.1483 355.053 80.1278 355.176 80.2507 355.237Z" fill="#3A2C6D"/>
<path d="M78.1427 353.947L79.6376 354.807C79.7112 354.842 79.7916 354.86 79.8731 354.86C79.9545 354.86 80.0349 354.842 80.1085 354.807L81.542 353.988C81.6853 353.988 81.6853 353.784 81.542 353.702L80.0471 352.842C79.9734 352.807 79.893 352.789 79.8116 352.789C79.7302 352.789 79.6498 352.807 79.5761 352.842L78.1427 353.661C78.0198 353.824 78.0198 353.947 78.1427 353.947Z" fill="#3A2C6D"/>
<path d="M76.0134 352.801L77.5082 353.661C77.5805 353.7 77.6614 353.721 77.7437 353.721C77.826 353.721 77.907 353.7 77.9792 353.661L79.4126 352.842C79.556 352.842 79.5765 352.637 79.4126 352.575L77.9178 351.695C77.8441 351.66 77.7637 351.642 77.6823 351.642C77.6009 351.642 77.5205 351.66 77.4468 351.695L76.0134 352.534C75.911 352.616 75.8905 352.739 76.0134 352.801Z" fill="#2C2943"/>
<path d="M73.9021 351.572L75.397 352.432C75.4692 352.471 75.5502 352.492 75.6325 352.492C75.7148 352.492 75.7958 352.471 75.868 352.432L77.3014 351.613C77.4448 351.613 77.4448 351.408 77.3014 351.347L75.7656 350.466C75.6934 350.427 75.6124 350.406 75.5301 350.406C75.4478 350.406 75.3668 350.427 75.2946 350.466L73.8612 351.285C73.7178 351.388 73.7178 351.511 73.9021 351.572Z" fill="#2C2943"/>
<path d="M71.7732 350.364L73.2681 351.224C73.3453 351.259 73.4291 351.277 73.5138 351.277C73.5986 351.277 73.6824 351.259 73.7596 351.224L75.1725 350.405C75.3159 350.405 75.3364 350.2 75.1725 350.118L73.7186 349.238C73.6464 349.198 73.5654 349.177 73.4831 349.177C73.4008 349.177 73.3199 349.198 73.2476 349.238L71.8142 350.057C71.6709 350.159 71.6709 350.282 71.7732 350.364Z" fill="#2C2943"/>
<path d="M69.623 349.135L71.1179 349.995C71.1916 350.03 71.272 350.048 71.3534 350.048C71.4348 350.048 71.5152 350.03 71.5889 349.995L73.0223 349.176C73.1657 349.176 73.1862 348.971 73.0223 348.889L71.6708 348.009C71.5936 347.974 71.5099 347.956 71.4251 347.956C71.3403 347.956 71.2565 347.974 71.1793 348.009L69.7664 348.828C69.623 348.93 69.623 349.053 69.623 349.135Z" fill="#2C2943"/>
<path d="M67.5763 347.906L69.0916 348.767C69.1638 348.806 69.2448 348.827 69.3271 348.827C69.4094 348.827 69.4904 348.806 69.5626 348.767L70.996 347.947C71.1189 347.947 71.1394 347.743 70.996 347.681L69.5012 346.801C69.4275 346.766 69.3471 346.748 69.2657 346.748C69.1843 346.748 69.1038 346.766 69.0302 346.801L67.5967 347.64C67.4329 347.804 67.4329 347.804 67.5763 347.906Z" fill="#2C2943"/>
<path d="M65.5266 346.678L67.0215 347.558C67.0951 347.593 67.1755 347.611 67.257 347.611C67.3384 347.611 67.4188 347.593 67.4924 347.558L68.9259 346.719C69.0692 346.719 69.0897 346.514 68.9259 346.453L67.431 345.592C67.3551 345.553 67.2708 345.532 67.1853 345.532C67.0997 345.532 67.0154 345.553 66.9395 345.592L65.5266 346.412C65.3218 346.494 65.3013 346.616 65.5266 346.678Z" fill="#2C2943"/>
<path d="M62.2923 344.876L64.8111 346.33C64.8847 346.364 64.9652 346.382 65.0466 346.382C65.128 346.382 65.2084 346.364 65.2821 346.33L66.7155 345.511C66.8589 345.511 66.8589 345.306 66.7155 345.224L64.2172 343.709C64.1436 343.674 64.0632 343.656 63.9817 343.656C63.9003 343.656 63.8199 343.674 63.7462 343.709L62.3128 344.548C62.2913 344.547 62.2697 344.55 62.2493 344.557C62.2289 344.564 62.2101 344.575 62.194 344.589C62.1778 344.603 62.1646 344.62 62.1551 344.64C62.1457 344.659 62.1401 344.68 62.1387 344.702C62.1374 344.723 62.1403 344.745 62.1473 344.765C62.1543 344.786 62.1652 344.804 62.1795 344.821C62.1938 344.837 62.2111 344.85 62.2304 344.859C62.2498 344.869 62.2708 344.874 62.2923 344.876Z" fill="#2C2943"/>
<path d="M85.6376 360.725L87.153 361.586C87.2252 361.625 87.3062 361.646 87.3885 361.646C87.4708 361.646 87.5517 361.625 87.624 361.586L89.0574 360.766C89.1803 360.766 89.2008 360.562 89.0574 360.5L87.5625 359.64C87.4903 359.601 87.4093 359.58 87.327 359.58C87.2448 359.58 87.1638 359.601 87.0915 359.64L85.6581 360.459C85.5353 360.541 85.5352 360.664 85.6376 360.725Z" fill="#2C2943"/>
<path d="M83.5282 359.497L85.0231 360.377C85.0968 360.412 85.1772 360.43 85.2586 360.43C85.34 360.43 85.4204 360.412 85.4941 360.377L86.9275 359.538C87.0709 359.538 87.0914 359.333 86.9275 359.272L85.4327 358.411C85.3568 358.372 85.2725 358.351 85.1869 358.351C85.1014 358.351 85.0171 358.372 84.9412 358.411L83.5282 359.231C83.4259 359.312 83.4054 359.435 83.5282 359.497Z" fill="#2C2943"/>
<path d="M81.3989 358.289L82.8937 359.149C82.9709 359.184 83.0547 359.202 83.1395 359.202C83.2242 359.202 83.308 359.184 83.3852 359.149L84.7981 358.33C84.9415 358.33 84.962 358.125 84.7981 358.043L83.3033 357.183C83.2296 357.148 83.1492 357.13 83.0678 357.13C82.9864 357.13 82.906 357.148 82.8323 357.183L81.3989 358.002C81.2965 358.043 81.276 358.207 81.3989 358.289Z" fill="#3A2C6D"/>
<path d="M79.2877 357.06L80.7826 357.92C80.8562 357.955 80.9366 357.973 81.0181 357.973C81.0995 357.973 81.1799 357.955 81.2536 357.92L82.687 357.101C82.8303 357.101 82.8303 356.896 82.687 356.814L81.1921 355.954C81.1185 355.92 81.038 355.902 80.9566 355.902C80.8752 355.902 80.7948 355.92 80.7211 355.954L79.2877 356.773C79.1648 356.855 79.1648 356.978 79.2877 357.06Z" fill="#3A2C6D"/>
<path d="M77.1786 355.831L78.6735 356.712C78.7472 356.747 78.8276 356.764 78.909 356.764C78.9904 356.764 79.0708 356.747 79.1445 356.712L80.5779 355.872C80.7213 355.872 80.7417 355.667 80.5779 355.606L79.0831 354.746C79.0072 354.707 78.9229 354.686 78.8373 354.686C78.7518 354.686 78.6675 354.707 78.5916 354.746L77.1786 355.565C77.0763 355.647 77.0558 355.77 77.1786 355.831Z" fill="#3A2C6D"/>
<path d="M75.0492 354.623L76.5441 355.483C76.6213 355.518 76.7051 355.536 76.7898 355.536C76.8746 355.536 76.9584 355.518 77.0356 355.483L78.4485 354.664C78.5919 354.664 78.6124 354.459 78.4485 354.377L76.9537 353.517C76.88 353.483 76.7996 353.465 76.7182 353.465C76.6368 353.465 76.5563 353.483 76.4827 353.517L75.0492 354.336C74.9469 354.418 74.9264 354.541 75.0492 354.623Z" fill="#3A2C6D"/>
<path d="M72.9413 353.394L74.4361 354.255C74.5098 354.289 74.5902 354.307 74.6716 354.307C74.7531 354.307 74.8335 354.289 74.9071 354.255L76.3406 353.435C76.4839 353.435 76.4839 353.231 76.3406 353.149L74.8457 352.289C74.772 352.254 74.6916 352.236 74.6102 352.236C74.5288 352.236 74.4484 352.254 74.3747 352.289L72.9413 353.108C72.8184 353.19 72.8184 353.313 72.9413 353.394Z" fill="#2C2943"/>
<path d="M70.8117 352.166L72.3066 353.026C72.3788 353.065 72.4598 353.086 72.5421 353.086C72.6243 353.086 72.7053 353.065 72.7775 353.026L74.211 352.207C74.3543 352.207 74.3748 352.002 74.211 351.941L72.7161 351.06C72.6389 351.025 72.5552 351.007 72.4704 351.007C72.3856 351.007 72.3018 351.025 72.2247 351.06L70.8117 351.9C70.7093 351.9 70.6888 352.104 70.8117 352.166Z" fill="#2C2943"/>
<path d="M68.6818 350.937L70.1972 351.797C70.2694 351.837 70.3504 351.857 70.4327 351.857C70.515 351.857 70.5959 351.837 70.6682 351.797L72.1016 350.978C72.2245 350.978 72.2449 350.773 72.1016 350.712L70.6067 349.852C70.5345 349.812 70.4535 349.792 70.3712 349.792C70.2889 349.792 70.208 349.812 70.1357 349.852L68.7023 350.671C68.5794 350.753 68.5794 350.876 68.6818 350.937Z" fill="#2C2943"/>
<path d="M66.5722 349.708L68.0671 350.589C68.1407 350.624 68.2211 350.642 68.3026 350.642C68.384 350.642 68.4644 350.624 68.5381 350.589L69.9715 349.749C70.1148 349.749 70.1353 349.545 69.9715 349.483L68.4766 348.623C68.4007 348.584 68.3164 348.563 68.2309 348.563C68.1453 348.563 68.061 348.584 67.9852 348.623L66.5722 349.442C66.4698 349.524 66.4493 349.647 66.5722 349.708Z" fill="#2C2943"/>
<path d="M64.4428 348.5L65.9377 349.36C66.0148 349.395 66.0986 349.414 66.1834 349.414C66.2682 349.414 66.352 349.395 66.4291 349.36L67.8421 348.541C67.9854 348.541 68.0059 348.337 67.8421 348.255L66.3472 347.395C66.2736 347.36 66.1931 347.342 66.1117 347.342C66.0303 347.342 65.9499 347.36 65.8762 347.395L64.4428 348.214C64.3404 348.296 64.3199 348.418 64.4428 348.5Z" fill="#2C2943"/>
<path d="M62.3338 347.272L63.8287 348.132C63.9024 348.166 63.9828 348.184 64.0642 348.184C64.1456 348.184 64.226 348.166 64.2997 348.132L65.7331 347.313C65.8765 347.313 65.8765 347.108 65.7331 347.026L64.2383 346.166C64.1646 346.131 64.0842 346.113 64.0028 346.113C63.9214 346.113 63.8409 346.131 63.7673 346.166L62.3338 346.985C62.211 347.067 62.211 347.19 62.3338 347.272Z" fill="#2C2943"/>
<path d="M87.7656 361.954L90.2843 363.408C90.358 363.443 90.4384 363.461 90.5198 363.461C90.6012 363.461 90.6816 363.443 90.7553 363.408L92.1887 362.589C92.3321 362.589 92.3525 362.384 92.1887 362.302L89.67 360.848C89.5928 360.813 89.509 360.795 89.4242 360.795C89.3395 360.795 89.2557 360.813 89.1785 360.848L87.7656 361.688C87.6632 361.77 87.6427 361.893 87.7656 361.954Z" fill="#2C2943"/>
<path d="M62.1488 344.937L63.6437 345.797C63.7665 345.797 63.7665 345.982 63.6437 346.063L62.1283 346.924C62.0637 346.963 61.9892 346.985 61.9133 346.985C61.8374 346.985 61.7629 346.963 61.6983 346.924H61.5754C61.5116 346.893 61.4416 346.877 61.3706 346.877C61.2997 346.877 61.2297 346.893 61.1659 346.924L59.5686 347.845C59.4974 347.875 59.4208 347.891 59.3434 347.891C59.2659 347.891 59.1893 347.875 59.1181 347.845L58.1761 347.292C58.0533 347.292 58.0533 347.108 58.1761 347.026L59.671 346.166L59.9782 346.002L60.2034 345.859L60.4287 345.736L61.6983 344.999C61.7612 344.949 61.8361 344.918 61.9152 344.907C61.9944 344.896 62.075 344.907 62.1488 344.937Z" fill="#2C2943"/>
<path d="M82.6266 366.091L84.1215 366.951C84.1937 366.99 84.2747 367.011 84.357 367.011C84.4393 367.011 84.5203 366.99 84.5925 366.951L86.0259 366.132C86.1693 366.132 86.1693 365.927 86.0259 365.865L84.5311 365.005C84.4588 364.966 84.3779 364.945 84.2956 364.945C84.2133 364.945 84.1323 364.966 84.0601 365.005L82.6266 365.824C82.5242 365.906 82.5038 366.029 82.6266 366.091Z" fill="#2C2943"/>
<path d="M80.5174 364.882L82.0123 365.743C82.086 365.777 82.1664 365.795 82.2478 365.795C82.3292 365.795 82.4096 365.777 82.4833 365.743L83.9167 364.923C84.0601 364.923 84.0601 364.719 83.9167 364.637L82.4219 363.777C82.3482 363.742 82.2678 363.724 82.1864 363.724C82.105 363.724 82.0245 363.742 81.9509 363.777L80.5174 364.596C80.3946 364.678 80.3946 364.801 80.5174 364.882Z" fill="#2C2943"/>
<path d="M78.3886 363.654L79.904 364.514C79.9762 364.553 80.0572 364.574 80.1395 364.574C80.2217 364.574 80.3027 364.553 80.3749 364.514L81.8084 363.695C81.9313 363.695 81.9517 363.49 81.8084 363.429L80.3135 362.568C80.2413 362.529 80.1603 362.508 80.078 362.508C79.9957 362.508 79.9148 362.529 79.8425 362.568L78.4091 363.408C78.2862 363.469 78.2862 363.592 78.3886 363.654Z" fill="#2C2943"/>
<path d="M60.4089 353.272L61.9037 354.132C61.9796 354.171 62.0639 354.192 62.1495 354.192C62.235 354.192 62.3193 354.171 62.3952 354.132L63.8082 353.313C63.9515 353.313 63.972 353.108 63.8082 353.046L62.3133 352.166C62.2396 352.131 62.1592 352.113 62.0778 352.113C61.9964 352.113 61.916 352.131 61.8423 352.166L60.4089 353.005C60.3065 353.087 60.286 353.21 60.4089 353.272Z" fill="#3A2C6D"/>
<path d="M58.2988 352.063L59.7936 352.923C59.8673 352.958 59.9477 352.976 60.0291 352.976C60.1105 352.976 60.1909 352.958 60.2646 352.923L61.698 352.084C61.8414 352.084 61.8619 351.9 61.698 351.818L60.2032 350.958C60.1273 350.918 60.043 350.898 59.9574 350.898C59.8719 350.898 59.7876 350.918 59.7117 350.958L58.2988 351.777C58.1964 351.9 58.1759 351.9 58.2988 352.063Z" fill="#3A2C6D"/>
<path d="M56.1899 350.835L57.6847 351.695C57.757 351.734 57.8379 351.755 57.9202 351.755C58.0025 351.755 58.0835 351.734 58.1557 351.695L59.5892 350.876C59.7325 350.876 59.753 350.671 59.5892 350.61L58.0943 349.729C58.0171 349.694 57.9333 349.676 57.8486 349.676C57.7638 349.676 57.68 349.694 57.6028 349.729L56.1899 350.569C56.0875 350.65 56.067 350.773 56.1899 350.835Z" fill="#3A2C6D"/>
<path d="M54.08 349.606L55.5748 350.487C55.6485 350.521 55.7289 350.539 55.8103 350.539C55.8917 350.539 55.9721 350.521 56.0458 350.487L57.4792 349.647C57.6226 349.647 57.6226 349.442 57.4792 349.381L55.9639 348.521C55.8917 348.481 55.8107 348.461 55.7284 348.461C55.6461 348.461 55.5651 348.481 55.4929 348.521L54.0595 349.34C53.9776 349.422 53.9571 349.545 54.08 349.606Z" fill="#3A2C6D"/>
<path d="M75.766 362.138L77.8138 363.326C77.8909 363.361 77.9747 363.379 78.0595 363.379C78.1443 363.379 78.2281 363.361 78.3052 363.326L79.7182 362.507C79.8615 362.507 79.882 362.302 79.7182 362.22L77.6704 361.053C77.5982 361.014 77.5172 360.993 77.4349 360.993C77.3526 360.993 77.2717 361.014 77.1994 361.053L75.766 361.872C75.6431 361.934 75.6226 362.138 75.766 362.138Z" fill="#2C2943"/>
<path d="M62.5168 354.5L64.5645 355.667C64.6368 355.707 64.7177 355.728 64.8 355.728C64.8823 355.728 64.9633 355.707 65.0355 355.667L66.469 354.848C66.6123 354.848 66.6328 354.644 66.469 354.562L64.4212 353.394C64.3475 353.36 64.2671 353.342 64.1857 353.342C64.1043 353.342 64.0239 353.36 63.9502 353.394L62.5168 354.214C62.4144 354.295 62.3939 354.418 62.5168 354.5Z" fill="#3A2C6D"/>
<path d="M65.18 355.995L75.1321 361.749C75.2058 361.784 75.2862 361.802 75.3676 361.802C75.449 361.802 75.5294 361.784 75.6031 361.749L77.0365 360.93C77.1799 360.93 77.1799 360.725 77.0365 360.644L67.1049 354.91C67.029 354.87 66.9447 354.85 66.8591 354.85C66.7736 354.85 66.6893 354.87 66.6134 354.91L65.2004 355.729C65.0776 355.831 65.0571 355.995 65.18 355.995Z" fill="#3A2C6D"/>
<path d="M83.016 361.586L84.5109 362.446C84.5831 362.485 84.6641 362.506 84.7464 362.506C84.8287 362.506 84.9097 362.485 84.9819 362.446L86.4153 361.626C86.5587 361.626 86.5792 361.422 86.4153 361.34L84.9205 360.48C84.8433 360.445 84.7595 360.426 84.6747 360.426C84.59 360.426 84.5062 360.445 84.429 360.48L83.016 361.299C82.9137 361.381 82.8932 361.504 83.016 361.586Z" fill="#2C2943"/>
<path d="M80.9059 360.357L82.4008 361.217C82.473 361.256 82.554 361.277 82.6363 361.277C82.7186 361.277 82.7996 361.256 82.8718 361.217L84.3052 360.398C84.4486 360.398 84.4486 360.193 84.3052 360.132L82.8104 359.272C82.7381 359.232 82.6572 359.211 82.5749 359.211C82.4926 359.211 82.4116 359.232 82.3394 359.272L80.9059 360.091C80.8035 360.091 80.7831 360.295 80.9059 360.357Z" fill="#2C2943"/>
<path d="M78.7761 359.149L80.2914 360.009C80.3651 360.043 80.4455 360.061 80.5269 360.061C80.6083 360.061 80.6887 360.043 80.7624 360.009L82.1958 359.19C82.3187 359.19 82.3392 358.985 82.1958 358.903L80.701 358.043C80.6273 358.008 80.5469 357.99 80.4655 357.99C80.3841 357.99 80.3036 358.008 80.23 358.043L78.7965 358.862C78.6737 358.944 78.6737 359.067 78.7761 359.149Z" fill="#3A2C6D"/>
<path d="M76.6664 357.92L78.1613 358.78C78.2335 358.819 78.3145 358.84 78.3968 358.84C78.4791 358.84 78.5601 358.819 78.6323 358.78L80.0657 357.961C80.2091 357.961 80.2295 357.756 80.0657 357.674L78.5709 356.814C78.4972 356.78 78.4168 356.762 78.3354 356.762C78.2539 356.762 78.1735 356.78 78.0999 356.814L76.6664 357.654C76.564 357.736 76.5436 357.859 76.6664 357.92Z" fill="#3A2C6D"/>
<path d="M74.5595 356.691L76.0544 357.551C76.1266 357.591 76.2076 357.611 76.2899 357.611C76.3722 357.611 76.4531 357.591 76.5254 357.551L77.9588 356.712C78.1021 356.712 78.1226 356.507 77.9588 356.446L76.4639 355.586C76.388 355.546 76.3037 355.525 76.2182 355.525C76.1326 355.525 76.0483 355.546 75.9725 355.586L74.5595 356.405C74.4571 356.507 74.4366 356.63 74.5595 356.691Z" fill="#3A2C6D"/>
<path d="M72.4484 355.483L73.9432 356.343C74.0169 356.378 74.0973 356.396 74.1787 356.396C74.2601 356.396 74.3405 356.378 74.4142 356.343L75.8476 355.524C75.9705 355.524 75.991 355.319 75.8476 355.237L74.3528 354.377C74.2791 354.343 74.1987 354.325 74.1173 354.325C74.0359 354.325 73.9555 354.343 73.8818 354.377L72.4484 355.196C72.3255 355.278 72.3255 355.401 72.4484 355.483Z" fill="#3A2C6D"/>
<path d="M70.32 354.254L71.8149 355.115C71.8908 355.154 71.975 355.175 72.0606 355.175C72.1461 355.175 72.2304 355.154 72.3063 355.115L73.7193 354.295C73.8626 354.295 73.8831 354.091 73.7193 354.029L72.2244 353.149C72.1508 353.114 72.0703 353.096 71.9889 353.096C71.9075 353.096 71.8271 353.114 71.7534 353.149L70.32 353.988C70.2176 354.07 70.1971 354.193 70.32 354.254Z" fill="#2C2943"/>
<path d="M68.2109 353.026L69.6239 353.947C69.6975 353.982 69.778 354 69.8594 354C69.9408 354 70.0212 353.982 70.0949 353.947L71.5283 353.108C71.6716 353.108 71.6921 352.903 71.5283 352.842L70.0334 351.982C69.9575 351.942 69.8732 351.921 69.7877 351.921C69.7021 351.921 69.6179 351.942 69.542 351.982L68.129 352.801C68.1085 352.842 68.0881 352.964 68.2109 353.026Z" fill="#2C2943"/>
<path d="M66.1022 351.9L67.597 352.76C67.6707 352.794 67.7511 352.812 67.8325 352.812C67.9139 352.812 67.9944 352.794 68.068 352.76L69.5014 351.941C69.6448 351.941 69.6448 351.736 69.5014 351.654L68.0066 350.794C67.9329 350.759 67.8525 350.741 67.7711 350.741C67.6897 350.741 67.6093 350.759 67.5356 350.794L66.1022 351.613C65.9793 351.613 65.9793 351.736 66.1022 351.9Z" fill="#2C2943"/>
<path d="M63.9704 350.589L65.4653 351.449C65.5411 351.489 65.6254 351.509 65.711 351.509C65.7965 351.509 65.8808 351.489 65.9567 351.449L67.3697 350.63C67.513 350.63 67.5335 350.425 67.3697 350.364L65.8748 349.483C65.8011 349.449 65.7207 349.431 65.6393 349.431C65.5579 349.431 65.4775 349.449 65.4038 349.483L63.9704 350.323C63.868 350.405 63.8475 350.528 63.9704 350.589Z" fill="#2C2943"/>
<path d="M61.8625 349.36L63.3573 350.241C63.431 350.276 63.5114 350.294 63.5928 350.294C63.6743 350.294 63.7547 350.276 63.8283 350.241L65.2618 349.401C65.4051 349.401 65.4256 349.197 65.2618 349.135L63.7669 348.275C63.691 348.236 63.6067 348.215 63.5212 348.215C63.4356 348.215 63.3513 348.236 63.2754 348.275L61.8625 349.094C61.7601 349.176 61.7396 349.299 61.8625 349.36Z" fill="#2C2943"/>
<path d="M59.7525 348.152L61.2474 349.012C61.3211 349.047 61.4015 349.065 61.4829 349.065C61.5643 349.065 61.6447 349.047 61.7184 349.012L63.1518 348.193C63.2952 348.193 63.2952 347.988 63.1518 347.906L61.657 347.046C61.5833 347.012 61.5029 346.994 61.4215 346.994C61.3401 346.994 61.2596 347.012 61.186 347.046L59.7525 347.866C59.6297 347.947 59.6297 348.07 59.7525 348.152Z" fill="#2C2943"/>
<path d="M85.124 362.814L88.2366 364.596C88.3102 364.63 88.3906 364.648 88.4721 364.648C88.5535 364.648 88.6339 364.63 88.7075 364.596L90.1205 363.777C90.2638 363.777 90.2843 363.572 90.1205 363.49L87.0284 361.708C86.9561 361.669 86.8752 361.648 86.7929 361.648C86.7106 361.648 86.6296 361.669 86.5574 361.708L85.124 362.527C85.0216 362.609 85.0011 362.732 85.124 362.814Z" fill="#2C2943"/>
<path d="M82.0128 363.367L83.5077 364.248C83.5814 364.282 83.6618 364.3 83.7432 364.3C83.8246 364.3 83.905 364.282 83.9787 364.248L85.4121 363.408C85.5555 363.408 85.5759 363.203 85.4121 363.142L83.9172 362.282C83.845 362.242 83.7641 362.222 83.6818 362.222C83.5995 362.222 83.5185 362.242 83.4463 362.282L82.0128 363.101C81.9104 363.183 81.9104 363.306 82.0128 363.367Z" fill="#2C2943"/>
<path d="M79.8616 362.138L81.3564 362.999C81.4301 363.033 81.5105 363.051 81.5919 363.051C81.6734 363.051 81.7538 363.033 81.8274 362.999L83.2609 362.179C83.4042 362.179 83.4247 361.975 83.2609 361.893L81.7455 361.033C81.6718 360.998 81.5914 360.98 81.51 360.98C81.4286 360.98 81.3482 360.998 81.2745 361.033L79.8616 361.852C79.8616 361.954 79.8616 362.138 79.8616 362.138Z" fill="#2C2943"/>
<path d="M77.8138 360.93L79.3087 361.79C79.3809 361.83 79.4619 361.85 79.5442 361.85C79.6265 361.85 79.7074 361.83 79.7797 361.79L81.2131 360.971C81.336 360.971 81.3564 360.766 81.2131 360.705L79.7182 359.824C79.6446 359.79 79.5641 359.772 79.4827 359.772C79.4013 359.772 79.3209 359.79 79.2472 359.824L77.8138 360.664C77.6705 360.746 77.6705 360.869 77.8138 360.93Z" fill="#2C2943"/>
<path d="M75.7661 359.702L77.261 360.582C77.3381 360.617 77.4219 360.635 77.5067 360.635C77.5915 360.635 77.6753 360.617 77.7524 360.582L79.1654 359.742C79.3087 359.742 79.3292 359.538 79.1654 359.476L77.6705 358.616C77.5983 358.577 77.5173 358.556 77.435 358.556C77.3527 358.556 77.2718 358.577 77.1995 358.616L75.7661 359.435C75.5613 359.517 75.5408 359.64 75.7661 359.702Z" fill="#3A2C6D"/>
<path d="M73.5556 358.493L75.0505 359.353C75.1241 359.388 75.2045 359.406 75.286 359.406C75.3674 359.406 75.4478 359.388 75.5215 359.353L76.9549 358.534C77.0982 358.534 77.1187 358.33 76.9549 358.248L75.46 357.388C75.3828 357.353 75.2991 357.334 75.2143 357.334C75.1295 357.334 75.0457 357.353 74.9686 357.388L73.5556 358.207C73.4532 358.289 73.4327 358.411 73.5556 358.493Z" fill="#3A2C6D"/>
<path d="M71.4444 357.265L72.9393 358.125C73.0115 358.164 73.0925 358.185 73.1748 358.185C73.2571 358.185 73.3381 358.164 73.4103 358.125L74.8437 357.306C74.9871 357.306 74.9871 357.101 74.8437 357.039L73.3489 356.179C73.2766 356.14 73.1957 356.119 73.1134 356.119C73.0311 356.119 72.9501 356.14 72.8779 356.179L71.4444 356.999C71.3216 357.08 71.3216 357.203 71.4444 357.265Z" fill="#3A2C6D"/>
<path d="M69.3161 355.995L70.811 356.855C70.8881 356.89 70.9719 356.908 71.0567 356.908C71.1415 356.908 71.2253 356.89 71.3024 356.855L72.7154 356.036C72.8587 356.036 72.8792 355.831 72.7154 355.749L71.2205 354.889C71.1483 354.85 71.0673 354.829 70.985 354.829C70.9027 354.829 70.8218 354.85 70.7495 354.889L69.3161 355.708C69.2137 355.852 69.1932 355.995 69.3161 355.995Z" fill="#3A2C6D"/>
<path d="M67.206 354.828L68.7008 355.688C68.7731 355.727 68.8541 355.748 68.9363 355.748C69.0186 355.748 69.0996 355.727 69.1718 355.688L70.6053 354.869C70.7486 354.869 70.7691 354.664 70.6053 354.582L69.1104 353.722C69.0332 353.687 68.9494 353.669 68.8647 353.669C68.7799 353.669 68.6961 353.687 68.6189 353.722L67.206 354.562C67.1036 354.623 67.0831 354.746 67.206 354.828Z" fill="#2C2943"/>
<path d="M65.0983 353.599L66.5931 354.459C66.6664 354.495 66.7469 354.514 66.8286 354.514C66.9103 354.514 66.9909 354.495 67.0641 354.459L68.4976 353.62C68.6409 353.62 68.6409 353.415 68.4976 353.353L66.9822 352.493C66.91 352.454 66.829 352.433 66.7467 352.433C66.6644 352.433 66.5834 352.454 66.5112 352.493L65.0778 353.313C64.9959 353.415 64.9754 353.538 65.0983 353.599Z" fill="#2C2943"/>
<path d="M62.9881 352.391L64.483 353.251C64.5567 353.286 64.6371 353.304 64.7185 353.304C64.7999 353.304 64.8803 353.286 64.954 353.251L66.3874 352.432C66.5103 352.432 66.5308 352.227 66.3874 352.145L64.8926 351.285C64.8189 351.251 64.7385 351.233 64.6571 351.233C64.5757 351.233 64.4952 351.251 64.4216 351.285L62.9881 352.104C62.8653 352.186 62.8653 352.309 62.9881 352.391Z" fill="#2C2943"/>
<path d="M60.8586 351.162L62.3534 352.022C62.4293 352.062 62.5136 352.083 62.5992 352.083C62.6847 352.083 62.769 352.062 62.8449 352.022L64.2579 351.203C64.4012 351.203 64.4217 350.999 64.2579 350.937L62.763 350.057C62.6893 350.022 62.6089 350.004 62.5275 350.004C62.4461 350.004 62.3657 350.022 62.292 350.057L60.8586 350.896C60.7562 350.978 60.7357 351.101 60.8586 351.162Z" fill="#2C2943"/>
<path d="M56.1296 348.439L60.2251 350.814C60.2988 350.849 60.3792 350.867 60.4606 350.867C60.542 350.867 60.6224 350.849 60.6961 350.814L62.1295 349.975C62.2729 349.975 62.2933 349.77 62.1295 349.708L58.034 347.333C57.9581 347.294 57.8738 347.273 57.7883 347.273C57.7027 347.273 57.6184 347.294 57.5425 347.333L56.1296 348.152C56.0272 348.234 56.0067 348.357 56.1296 348.439Z" fill="#3A2C6D"/>
<path d="M84.1229 364.596L86.1706 365.783C86.2443 365.818 86.3247 365.836 86.4061 365.836C86.4875 365.836 86.568 365.818 86.6416 365.783L88.075 364.944C88.2184 364.944 88.2389 364.739 88.075 364.678L86.0273 363.49C85.9536 363.455 85.8732 363.437 85.7918 363.437C85.7104 363.437 85.63 363.455 85.5563 363.49L84.1229 364.33C83.959 364.411 83.959 364.534 84.1229 364.596Z" fill="#2C2943"/>
<path d="M99.6455 360.398L65.6936 340.78V314.159L65.9598 313.545L66.226 313.422C66.5826 313.211 66.9893 313.1 67.4035 313.1C67.8177 313.1 68.2244 313.211 68.581 313.422L99.6455 331.34C100 331.552 100.294 331.852 100.498 332.211C100.703 332.569 100.811 332.975 100.813 333.388V358.452C100.588 359.661 100.342 359.968 99.6455 360.398Z" fill="#E5E5E5"/>
<path d="M96.5329 334.514L65.6936 315.04V314.159L65.9598 313.545L66.226 313.422C66.5826 313.211 66.9893 313.1 67.4035 313.1C67.8177 313.1 68.2244 313.211 68.581 313.422L99.6455 331.34C100.028 331.558 100.335 331.886 100.526 332.282L96.5329 334.514Z" fill="#E5E5E5"/>
<path d="M66.4712 313.483L99.0716 332.302C99.2431 332.404 99.3858 332.547 99.4862 332.719C99.5866 332.891 99.6412 333.086 99.645 333.285V360.398L65.693 340.78V313.934C65.6906 313.842 65.7131 313.751 65.758 313.671C65.8029 313.59 65.8687 313.524 65.9483 313.478C66.0279 313.432 66.1185 313.408 66.2106 313.409C66.3026 313.41 66.3926 313.436 66.4712 313.483Z" fill="#DCEEFF"/>
<path d="M66.4712 313.483L99.0716 332.302C99.2431 332.404 99.3858 332.547 99.4862 332.719C99.5866 332.891 99.6412 333.086 99.645 333.285V360.398L65.693 340.78V313.934C65.6906 313.842 65.7131 313.751 65.758 313.671C65.8029 313.59 65.8687 313.524 65.9483 313.478C66.0279 313.432 66.1185 313.408 66.2106 313.409C66.3026 313.41 66.3926 313.436 66.4712 313.483Z" fill="#F4F4F4"/>
<path d="M99.6448 360.398V359.415L65.6929 339.818V340.78L99.6448 360.398Z" fill="#DBDBDB"/>
<path d="M66.573 339.367V314.896L66.9826 315.122V339.163L66.573 339.367Z" fill="#1E3779"/>
<path d="M66.9829 315.122V339.163L98.5595 357.326V333.347L66.9829 315.122Z" fill="#2C2943"/>
<path d="M66.573 339.367L98.5591 357.818V357.326L66.9826 339.163L66.573 339.367Z" fill="#031F60"/>
<path d="M30.0218 309.245C29.2027 311.292 31.2709 313.709 36.7384 315.388C42.206 317.067 42.6974 314.897 42.6974 314.897C46.3442 316.531 49.8989 318.363 53.3458 320.385C56.6222 322.678 58.0761 329.333 58.5267 340.555C59.0386 353.538 59.0795 372.787 58.6495 376.125C58.6495 376.125 52.5062 382.268 44.6633 381.592C36.8203 380.916 23.5713 373.995 20.3768 368.63C20.3768 357.244 21.7897 355.381 19.9468 348.828C15.7284 333.818 13.4963 327.675 15.5645 317.682C17.2437 309.49 19.6601 308.446 22.8751 308.528C25.2682 308.641 27.6537 308.881 30.0218 309.245Z" fill="#F4F4F4"/>
<path d="M71.4482 354.5C64.9977 356.138 63.4824 352.063 62.6428 348.705C60.5951 340.514 59.4893 333.183 57.9534 328.555C56.1514 323.108 54.2675 322.227 51.6054 321.163C48.5132 319.914 45.8307 322.555 46.8545 329.497C48.1316 337.559 50.1118 345.494 52.7726 353.21C53.7145 356.684 55.5338 359.857 58.0558 362.425C61.3937 365.128 66.4107 365.005 73.9874 363.121C78.4312 361.608 82.7455 359.739 86.8884 357.531C88.5266 356.773 89.7962 356.261 93.0317 354.787C96.2369 353.386 99.0494 351.221 101.223 348.48C102.861 346.084 103.086 344.958 102.759 344.384C102.431 343.811 101.571 343.852 100.711 344.855C99.4398 346.55 97.8717 348 96.0828 349.135C96.0828 349.135 98.1306 347.087 99.2159 345.674C100.21 344.426 101.03 343.048 101.653 341.579C102.247 340.186 101.038 338.302 100.117 339.285C99.1954 340.268 98.7859 341.333 97.1067 343.381C96.2298 344.448 95.2258 345.404 94.117 346.227C95.1561 344.83 96.0806 343.351 96.8815 341.804C97.5999 340.563 97.9481 339.142 97.8849 337.709C97.8849 336.992 96.7995 336.132 95.8371 337.504C94.8398 339.459 93.6015 341.283 92.1511 342.93C90.6767 344.466 89.4276 345.347 89.3866 344.978C89.3457 344.61 90.2876 343.709 90.7996 341.948C91.3115 340.186 90.7996 338.282 89.8167 338.077C88.8337 337.872 89.018 337.913 88.2399 339.593C87.1468 341.3 86.1685 343.079 85.3116 344.917C84.8064 346.632 83.893 348.199 82.6495 349.483C81.0932 351.101 77.5915 352.964 71.4482 354.5Z" fill="#FFCEA9"/>
<path d="M49.1481 320.057C53.4484 319.422 56.4996 321.367 58.404 327.879C60.3084 334.391 61.619 339.756 61.619 339.756C59.9192 342.218 57.3389 343.934 54.4109 344.548C49.271 345.797 47.4075 343.34 47.4075 343.34C47.4075 343.34 45.9741 336.5 45.0935 331.852C44.213 327.204 43.9058 320.835 49.1481 320.057Z" fill="#EDEDED"/>
<path d="M51.3591 286.658C51.3591 286.658 58.1577 276.317 43.4138 274.207C32.7859 272.692 25.9463 279.511 25.1682 286.924C24.4105 294.009 28.7722 301.361 31.9053 304.289C35.001 305.077 38.2792 304.683 41.0998 303.183C41.2755 301.25 41.3439 299.308 41.3046 297.368C41.3046 297.368 36.1237 286.474 51.3591 286.658Z" fill="#2B2842"/>
<path d="M80.8675 417.531V386.466L56.1919 400.862L65.6935 420.5L80.8675 417.531Z" fill="#C4C7D6"/>
<path d="M64.6882 388.247L74.1489 382.759L80.8451 386.63L71.0363 392.2L64.6882 388.247Z" fill="#D6D8E5"/>
<path opacity="0.4" d="M211.1 375L154.18 342.14C150.07 339.77 150.59 335.63 155.33 332.89L192.21 311.6L264 353.08L227.13 374.37C222.38 377.11 215.21 377.4 211.1 375Z" fill="#D6D8E5"/>
<path d="M215.26 372.59L158.33 339.72C154.23 337.35 154.75 333.22 159.48 330.48L196.36 309.19L268.15 350.63L231.27 371.93C226.53 374.66 219.36 375 215.26 372.59Z" fill="#B1B4C4"/>
<path d="M268.15 350.63V348.46L264.84 350.37L268.15 350.63Z" fill="#B1B4C4"/>
<path d="M155.56 335.81V333.6L158.97 335.01L155.56 335.81Z" fill="#B1B4C4"/>
<path d="M215.26 370.42L158.33 337.55C154.23 335.18 154.75 331.04 159.48 328.31L196.36 307L268.15 348.45L231.27 369.74C226.53 372.49 219.36 372.78 215.26 370.42Z" fill="#D6D8E5"/>
<path d="M196.56 307.11L187.67 277.63L260.24 319.26L268.15 348.46L196.56 307.11Z" fill="#9EA1AF"/>
<path d="M266.05 349.67L268.15 348.46L265 346L266.05 349.67Z" fill="#9EA1AF"/>
<path d="M194.27 308.22L185.38 278.74L257.95 320.37L266.05 349.67L194.27 308.22Z" fill="#B1B4C4"/>
<path d="M378.49 399.35L97.58 237.17C93.64 234.89 90.45 228.79 90.45 223.54V6.25C90.45 0.999999 93.64 -1.42 97.58 0.859999L378.49 163C382.43 165.27 385.62 171.37 385.62 176.63V394C385.62 399.21 382.43 401.63 378.49 399.35Z" fill="#C4C7D6"/>
<path d="M379.93 401.59L383.05 399.8L381.7 390.57L379.93 401.59Z" fill="#C4C7D6"/>
<path d="M89.9399 2.19L92.9999 0.43L97.3999 2.94C97.3999 2.94 92.7099 3.65 92.5999 3.62C92.4899 3.59 89.9399 2.19 89.9399 2.19Z" fill="#B1B4C4"/>
<path d="M375.91 400.84L94.9999 238.66C91.0599 236.38 87.8599 230.28 87.8599 225.03V7.74C87.8599 2.48 91.0599 0.0699973 94.9999 2.34L375.9 164.52C379.84 166.8 383.04 172.9 383.04 178.16V395.44C383.05 400.7 379.85 403.11 375.91 400.84Z" fill="#E4E7F2"/>
<path d="M375.42 401.12L94.5099 238.94C90.5699 236.66 87.3799 230.56 87.3799 225.31V8C87.3799 2.75 90.5699 0.329999 94.5099 2.61L375.42 164.81C379.36 167.08 382.55 173.18 382.55 178.44V395.73C382.55 401 379.36 403.4 375.42 401.12Z" fill="#201D38"/>
<path opacity="0.3" d="M378.69 387.91L90.9399 221.78L91.0899 8.89C91.0899 6.71 92.6199 5.83 94.5099 6.89L375.42 169.1C376.416 169.748 377.244 170.622 377.838 171.651C378.433 172.679 378.776 173.834 378.84 175.02L378.69 387.91Z" fill="url(#paint0_linear)"/>
<path d="M265.62 142.08L246.55 131.07V124.19L265.62 135.2V142.08Z" fill="#FFB748"/>
<path d="M309.7 167.55L269.19 144.14V137.26L309.7 160.67V167.55Z" fill="#F4CE2C"/>
<path d="M265.62 164.09L246.55 153.09V146.21L265.62 157.21V164.09Z" fill="#FFB748"/>
<path d="M282.61 174.07L269.19 166.16V159.28L282.61 167.19V174.07Z" fill="#FF9E3C"/>
<path d="M265.62 175.1L246.55 164.09V157.21L265.62 168.22V175.1Z" fill="#FFB748"/>
<path d="M291.83 190.23L269.19 177.16V170.28L291.83 183.35V190.23Z" fill="#FF9E3C"/>
<path d="M265.62 186.1L246.55 175.1V168.22L265.62 179.23V186.1Z" fill="#FFB748"/>
<path d="M328.9 222.56L269.19 188.17V181.29L328.9 215.69V222.56Z" fill="#FF8657"/>
<path d="M265.62 153.09L246.55 142.08V135.2L265.62 146.21V153.09Z" fill="#FFB748"/>
<path d="M343.57 198.14L269.19 155.15V148.27L343.57 191.26V198.14Z" fill="#49A9B4"/>
<path d="M265.62 197.11L246.55 186.1V179.22L265.62 190.23V197.11Z" fill="#FFB748"/>
<path d="M333.53 237.01L269.19 199.18V192.3L333.53 230.13V237.01Z" fill="#FF4252"/>
<path d="M265.62 219.13L246.55 208.12V201.24L265.62 212.25V219.13Z" fill="#FFB748"/>
<path d="M344.26 264.53L269.19 221.19V214.31L344.26 257.65V264.53Z" fill="#49A9B4"/>
<path d="M265.62 230.13L246.55 219.13V212.25L265.62 223.25V230.13Z" fill="#FFB748"/>
<path d="M291.83 245.27L269.19 232.19V225.32L291.83 238.39V245.27Z" fill="#FF4252"/>
<path d="M265.62 241.14L246.55 230.13V223.25L265.62 234.26V241.14Z" fill="#FFB748"/>
<path d="M315.45 270.03L269.19 243.2V236.32L315.45 263.15V270.03Z" fill="#FF9E3C"/>
<path d="M265.62 208.12L246.55 197.11V190.23L265.62 201.24V208.12Z" fill="#FFB748"/>
<path d="M277.53 215L269.19 210.18V203.3L277.53 208.12V215Z" fill="#F4CE2C"/>
<path d="M265.62 252.15L246.55 241.14V234.26L265.62 245.27V252.15Z" fill="#FFB748"/>
<path d="M299.05 271.41L269.19 254.21V247.33L299.05 264.53V271.41Z" fill="#FF4252"/>
<path d="M265.62 274.16L246.55 263.15V256.27L265.62 267.28V274.16Z" fill="#FFB748"/>
<path d="M312.76 301.06L269.19 276.22V269.34L312.76 294.18V301.06Z" fill="#FF8657"/>
<path d="M265.62 285.17L246.55 274.16V267.28L265.62 278.29V285.17Z" fill="#FFB748"/>
<path d="M274.63 290.67L269.19 287.23V280.35L274.63 283.79V290.67Z" fill="#49A9B4"/>
<path d="M265.62 296.17L246.55 285.17V278.29L265.62 289.29V296.17Z" fill="#FFB748"/>
<path d="M294.18 312.63L269.19 298.24V291.36L294.18 305.75V312.63Z" fill="#F4CE2C"/>
<path d="M265.62 263.15L246.55 252.15V245.26L265.62 256.27V263.15Z" fill="#FFB748"/>
<path d="M303.96 285.17L269.19 265.21V258.34L303.96 278.29V285.17Z" fill="#FF9E3C"/>
<path d="M142.28 73.29L123.21 62.28V55.4L142.28 66.41V73.29Z" fill="#FFB748"/>
<path d="M226.88 122.13L145.85 75.35V68.47L226.88 115.25V122.13Z" fill="#FF4252"/>
<path d="M142.28 95.3L123.21 84.29V77.41L142.28 88.42V95.3Z" fill="#FFB748"/>
<path d="M199.47 128.32L145.85 97.36V90.48L199.47 121.44V128.32Z" fill="#F4CE2C"/>
<path d="M142.28 106.31L123.21 95.3V88.42L142.28 99.43V106.31Z" fill="#FFB748"/>
<path d="M212.58 146.89L145.85 108.37V101.49L212.58 140.01V146.89Z" fill="#FF8657"/>
<path d="M142.28 117.31L123.21 106.31V99.43L142.28 110.43V117.31Z" fill="#FFB748"/>
<path d="M192.32 146.21L145.85 119.38V112.5L192.32 139.33V146.21Z" fill="#49A9B4"/>
<path d="M142.28 84.29L123.21 73.28V66.41L142.28 77.41V84.29Z" fill="#FFB748"/>
<path d="M186.36 109.75L145.85 86.36V79.48L186.36 102.87V109.75Z" fill="#FF9E3C"/>
<path d="M142.28 128.32L123.21 117.31V110.43L142.28 121.44V128.32Z" fill="#FFB748"/>
<path d="M169.68 144.14L145.85 130.38V123.5L169.68 137.26V144.14Z" fill="#FF4252"/>
<path d="M142.28 150.33L123.21 139.32V132.45L142.28 143.45V150.33Z" fill="#FFB748"/>
<path d="M220.92 195.74L145.85 152.4V145.52L220.92 188.86V195.74Z" fill="#F4CE2C"/>
<path d="M142.28 161.34L123.21 150.33V143.45L142.28 154.46V161.34Z" fill="#FFB748"/>
<path d="M168.49 176.47L145.85 163.4V156.52L168.49 169.59V176.47Z" fill="#FF8657"/>
<path d="M142.28 172.35L123.21 161.34V154.46L142.28 165.47V172.35Z" fill="#FFB748"/>
<path d="M212.58 212.93L145.85 174.41V167.53L212.58 206.06V212.93Z" fill="#49A9B4"/>
<path d="M142.28 139.33L123.21 128.32V121.44L142.28 132.45V139.33Z" fill="#FFB748"/>
<path d="M209 177.85L145.85 141.39V134.51L209 170.97V177.85Z" fill="#FF9E3C"/>
<path d="M142.28 183.35L123.21 172.34V165.47L142.28 176.47V183.35Z" fill="#FFB748"/>
<path d="M154.19 190.23L145.85 185.42V178.54L154.19 183.35V190.23Z" fill="#FF4252"/>
<path d="M142.28 205.37L123.21 194.36V187.48L142.28 198.49V205.37Z" fill="#FFB748"/>
<path d="M161.34 216.37L145.85 207.43V200.55L161.34 209.49V216.37Z" fill="#F4CE2C"/>
<path d="M142.28 216.37L123.21 205.37V198.49L142.28 209.49V216.37Z" fill="#FFB748"/>
<path d="M186.36 241.83L145.85 218.44V211.56L186.36 234.95V241.83Z" fill="#FF8657"/>
<path d="M142.28 227.38L123.21 216.37V209.49L142.28 220.5V227.38Z" fill="#FFB748"/>
<path d="M210.19 266.59L145.85 229.44V222.56L210.19 259.71V266.59Z" fill="#49A9B4"/>
<path d="M142.28 194.36L123.21 183.35V176.47L142.28 187.48V194.36Z" fill="#FFB748"/>
<path d="M226.88 243.2L145.85 196.42V189.54L226.88 236.32V243.2Z" fill="#FF9E3C"/>
<defs>
<linearGradient id="paint0_linear" x1="90.9399" y1="197.18" x2="378.84" y2="197.18" gradientUnits="userSpaceOnUse">
<stop offset="0.21" stop-color="white" stop-opacity="0"/>
<stop offset="1" stop-color="white" stop-opacity="0.2"/>
</linearGradient>
</defs>
</svg>
