<svg width="79" height="80" viewBox="0 0 79 80" fill="none" xmlns="http://www.w3.org/2000/svg">
<path d="M39.8428 11.3036C34.0839 11.3036 28.7304 13.032 24.2641 15.9917L16.1496 7.87733C22.7574 2.92914 30.956 0 39.8428 0C59.7732 0 76.2544 14.7375 79 33.9107H67.5358C64.9202 21.0164 53.5172 11.3036 39.8428 11.3036Z" fill="#FF2639"/>
<path d="M8.1576 15.8696L16.2644 23.984C13.3046 28.4504 11.5762 33.8039 11.5762 39.5628C11.5762 55.1721 24.2258 67.8217 39.8352 67.8217C53.5096 67.8217 64.9126 58.1089 67.5282 45.2146H79C76.2544 64.3878 59.7732 79.1253 39.8428 79.1253C17.9928 79.1253 0.280273 61.4128 0.280273 39.5628C0.280273 30.6759 3.20942 22.4774 8.1576 15.8696Z" fill="#FF2639"/>
<path d="M39.8429 20.7256C50.2517 20.7256 58.6797 29.1612 58.6797 39.57C58.6797 49.9788 50.2441 58.4067 39.8429 58.4067C29.4342 58.4067 20.9985 49.9711 20.9985 39.57C20.9985 29.1612 29.4342 20.7256 39.8429 20.7256ZM39.8812 54.3075C43.1162 48.0439 48.2327 42.9274 54.4963 39.6924C48.2327 36.4573 43.1162 31.3409 39.8812 25.0772C36.6461 31.3409 31.5297 36.4573 25.2661 39.6924C31.5297 42.9198 36.6461 48.0439 39.8812 54.3075Z" fill="#FF2639"/>
</svg>
