<svg width="122" height="122" viewBox="0 0 122 122" fill="none" xmlns="http://www.w3.org/2000/svg">
<g clip-path="url(#clip0)">
<rect width="122" height="122" rx="20" fill="#F8FDFF"/>
<g opacity="0.2" clip-path="url(#clip1)">
<path d="M10.7896 15.5355H12.7541C13.2029 13.3254 15.1578 11.6609 17.5001 11.6609C18.4864 11.6609 19.405 11.9563 20.1701 12.4633L21.56 11.0733C20.4284 10.2257 19.0224 9.72363 17.5001 9.72363C14.0843 9.72363 11.2609 12.2502 10.7896 15.5355Z" fill="#A8B7BB"/>
<path d="M9.54146 23.0924L10.9201 21.7137C9.78521 20.2817 9.1056 18.4736 9.1056 16.504C9.1056 12.1952 12.3519 8.64672 16.5313 8.16562V6.21704C11.28 6.7062 7.16846 11.1232 7.16846 16.5024C7.16846 19.0079 8.05954 21.3052 9.54146 23.0924Z" fill="#A8B7BB"/>
<path d="M25.8378 17.4727C25.3567 21.6523 21.8085 24.8989 17.5 24.8989C15.5306 24.8989 13.7226 24.2192 12.2907 23.0843L10.9121 24.463C12.7007 25.945 14.9963 26.8362 17.5 26.8362C22.8788 26.8362 27.2955 22.7243 27.7846 17.4727H25.8378Z" fill="#A8B7BB"/>
<path d="M18.4685 6.21851V8.16708C22.3299 8.61104 25.3922 11.6736 25.8377 15.5368H27.7845C27.3261 10.6032 23.4018 6.677 18.4685 6.21851Z" fill="#A8B7BB"/>
<path d="M16.5315 30.3506V28.4085C10.3875 27.9145 5.55433 22.7758 5.55433 16.5039C5.55433 13.5544 6.62621 10.8551 8.3987 8.77092L7.02494 7.39868C4.90377 9.83643 3.61719 13.0184 3.61719 16.5039C3.61719 23.8462 9.31723 29.8534 16.5315 30.3506Z" fill="#A8B7BB"/>
<path d="M27.9751 7.39868L26.6013 8.77092C28.3738 10.8551 29.4457 13.5544 29.4457 16.5039C29.4457 19.4534 28.3738 22.1527 26.6029 24.2369L27.9767 25.6108C30.0963 23.1714 31.3828 19.9894 31.3828 16.5039C31.3828 13.0184 30.0963 9.83643 27.9751 7.39868Z" fill="#A8B7BB"/>
<path d="M9.76765 7.40222C11.8517 5.62961 14.5508 4.55764 17.5001 4.55764C20.451 4.55764 23.1485 5.6296 25.2325 7.4006L26.6046 6.02836C24.1671 3.90704 20.9853 2.62036 17.5001 2.62036C14.0148 2.62036 10.8331 3.90704 8.39551 6.02836L9.76765 7.40222Z" fill="#A8B7BB"/>
<path d="M25.2324 25.6077C23.3792 27.1833 21.0384 28.202 18.4685 28.4087V30.3508C21.5728 30.1361 24.3962 28.9027 26.6045 26.9799L25.2324 25.6077Z" fill="#A8B7BB"/>
<path d="M17.5001 33.9396C26.8032 33.9396 34.4049 26.6521 34.907 17.4727H32.9666C32.4662 25.5802 25.733 32.0023 17.5001 32.0023C9.26725 32.0023 2.53406 25.5802 2.03363 17.4727H0.0932617C0.595305 26.6521 8.19698 33.9396 17.5001 33.9396Z" fill="#A8B7BB"/>
<path d="M0.0932617 15.5355H2.03363C2.51469 7.74764 8.74421 1.51767 16.5315 1.03658V-0.903931C7.67394 -0.41961 0.577547 6.6773 0.0932617 15.5355Z" fill="#A8B7BB"/>
<path d="M18.4685 -0.903931V1.03658C26.2558 1.51767 32.4853 7.74764 32.9664 15.5355H34.9068C34.4225 6.6773 27.3261 -0.41961 18.4685 -0.903931Z" fill="#A8B7BB"/>
<path d="M17.5001 -4.48328C5.90955 -4.48328 -3.4856 4.91253 -3.4856 16.5039C-3.4856 27.7708 5.39136 36.9616 16.5316 37.4685V35.5296C6.46163 35.0259 -1.54845 26.7005 -1.54845 16.5039C-1.54845 5.98288 6.97982 -2.546 17.5001 -2.546C28.0204 -2.546 36.5487 5.98288 36.5487 16.5039C36.5487 26.7005 28.5386 35.0259 18.4687 35.5296V37.4685C29.6089 36.9616 38.4858 27.7708 38.4858 16.5039C38.4858 4.91253 29.0907 -4.48328 17.5001 -4.48328Z" fill="#A8B7BB"/>
<path d="M34.1514 34.5254L32.7808 33.1548C28.758 36.8501 23.3921 39.1055 17.5 39.1055C11.6078 39.1055 6.24358 36.8501 2.21916 33.1548L0.848633 34.5254C5.22335 38.5711 11.0735 41.0427 17.5 41.0427C23.9281 41.0427 29.7766 38.5711 34.1514 34.5254Z" fill="#A8B7BB"/>
<path d="M-0.520239 33.1568L0.85029 31.7862C-2.84481 27.7631 -5.09997 22.3968 -5.09997 16.5042C-5.09997 10.6117 -2.84481 5.2454 0.85029 1.22231L-0.520239 -0.148315C-4.56402 4.22671 -7.03711 10.0773 -7.03711 16.5042C-7.03711 22.9328 -4.56402 28.7818 -0.520239 33.1568Z" fill="#A8B7BB"/>
<path d="M17.5 -8.03503C11.0735 -8.03503 5.22335 -5.56177 0.848633 -1.5177L2.21916 -0.14707C6.24357 -3.84082 11.6078 -6.09775 17.5 -6.09775C29.9816 -6.09775 40.1 4.02131 40.1 16.5039C40.1 22.3964 37.8448 27.7627 34.1497 31.7858L35.5202 33.1564C39.5656 28.7814 42.0371 22.9324 42.0371 16.5039C42.0371 2.95097 31.0519 -8.03503 17.5 -8.03503Z" fill="#A8B7BB"/>
<path d="M-10.5708 15.5355H-8.63204C-8.12193 1.54028 3.38147 -9.64914 17.5 -9.64914C24.3736 -9.64914 30.6258 -6.99668 35.2927 -2.6604L36.6632 -4.03102C31.6444 -8.71763 24.908 -11.5864 17.5 -11.5864C2.3112 -11.5864 -10.0591 0.469929 -10.5708 15.5355Z" fill="#A8B7BB"/>
<path d="M38.0336 -2.6604L36.6631 -1.28977C40.794 3.15791 43.3963 9.04402 43.632 15.5355H45.5707C45.3318 8.50965 42.5149 2.13922 38.0336 -2.6604Z" fill="#A8B7BB"/>
<path d="M17.5 44.5946C32.6888 44.5946 45.0591 32.5382 45.5708 17.4727H43.6321C43.122 31.4679 31.6186 42.6573 17.5 42.6573C3.38147 42.6573 -8.12193 31.4679 -8.63204 17.4727H-10.5708C-10.0591 32.5382 2.3112 44.5946 17.5 44.5946Z" fill="#A8B7BB"/>
<path d="M16.5316 48.1303V46.1914C9.06064 45.9525 2.28709 42.9529 -2.80598 38.1808L-4.17651 39.5514C1.26848 44.6739 8.5247 47.8898 16.5316 48.1303Z" fill="#A8B7BB"/>
<path d="M18.4685 -15.1221V-13.1832C34.4241 -12.6714 47.2028 0.422997 47.2028 16.504C47.2028 32.5851 34.4241 45.6795 18.4685 46.1913V48.1302C35.4944 47.6184 49.1399 33.6554 49.1399 16.504C49.1399 -0.647351 35.4944 -14.6103 18.4685 -15.1221Z" fill="#A8B7BB"/>
<path d="M-14.1399 16.504C-14.1399 24.8941 -10.8742 32.5189 -5.54543 38.1822L-4.1749 36.8116C-9.15336 31.5002 -12.2027 24.3581 -12.2027 16.504C-12.2027 0.422997 0.575946 -12.6714 16.5316 -13.1832V-15.1221C-0.494327 -14.6103 -14.1399 -0.64735 -14.1399 16.504Z" fill="#A8B7BB"/>
<path d="M17.5 51.6977C26.8693 51.6977 35.3831 48.0346 41.6885 42.0646L40.318 40.694C34.3629 46.3137 26.335 49.7604 17.5 49.7604C-0.865705 49.7604 -15.7543 34.8708 -15.7543 16.5038C-15.7543 7.66817 -12.3078 -0.360252 -6.68843 -6.31578L-8.05896 -7.6864C-14.0286 -1.38055 -17.6914 7.1338 -17.6914 16.5038C-17.6914 35.9412 -1.93598 51.6977 17.5 51.6977Z" fill="#A8B7BB"/>
<path d="M17.5 -18.6899C8.13065 -18.6899 -0.383081 -15.0269 -6.68848 -9.05682L-5.31795 -7.68619C0.637144 -13.3059 8.66498 -16.7527 17.5 -16.7527C35.8657 -16.7527 50.7542 -1.86305 50.7542 16.504C50.7542 25.3396 47.3077 33.368 41.6884 39.3235L43.0589 40.6941C49.0285 34.3883 52.6914 25.8739 52.6914 16.504C52.6914 -2.9334 36.9359 -18.6899 17.5 -18.6899Z" fill="#A8B7BB"/>
<path d="M56.2315 17.4727H54.2944C53.7794 37.354 37.5042 53.3123 17.5 53.3123C-2.50265 53.3123 -18.7795 37.354 -19.2928 17.4727H-21.23C-20.7166 38.4243 -3.57292 55.2496 17.5 55.2496C38.5729 55.2496 55.7166 38.4243 56.2315 17.4727Z" fill="#A8B7BB"/>
<path d="M45.5707 -10.1997L44.2002 -8.82908C50.2554 -2.44735 54.0489 6.10252 54.2927 15.5355H56.2298C55.9861 5.56815 51.9778 -3.46604 45.5707 -10.1997Z" fill="#A8B7BB"/>
<path d="M-21.23 15.5354H-19.2928C-18.7795 -4.34595 -2.50266 -20.3043 17.5 -20.3043C27.3148 -20.3043 36.2321 -16.462 42.8313 -10.1981L44.2019 -11.5688C37.2523 -18.183 27.8508 -22.2416 17.5 -22.2416C-3.57292 -22.2416 -20.7166 -5.41468 -21.23 15.5354Z" fill="#A8B7BB"/>
<path d="M-13.0825 45.7198L-11.7136 44.3508C-18.6179 37.107 -22.857 27.3011 -22.857 16.504C-22.857 -5.46155 -5.30976 -23.3297 16.5315 -23.8431V-25.7804C-6.38004 -25.2654 -24.7942 -6.53189 -24.7942 16.504C-24.7942 27.8355 -20.3371 38.1257 -13.0825 45.7198Z" fill="#A8B7BB"/>
<path d="M46.7138 47.0905L45.3433 45.7215C38.1016 52.6247 28.2965 56.8641 17.5001 56.8641C6.70377 56.8641 -3.10141 52.6247 -10.3431 45.7198L-11.7136 47.0889C-4.12002 54.3456 6.16944 58.8014 17.5001 58.8014C28.8308 58.8014 39.1202 54.3456 46.7138 47.0905Z" fill="#A8B7BB"/>
<path d="M18.4685 -25.7804V-23.8431C40.3098 -23.3297 57.8571 -5.46155 57.8571 16.504C57.8571 27.3011 53.618 37.107 46.7137 44.3492L48.0842 45.7182C55.3388 38.1257 59.7942 27.8355 59.7942 16.504C59.7942 -6.5319 41.3801 -25.2654 18.4685 -25.7804Z" fill="#A8B7BB"/>
<path d="M-14.2239 -16.5929L-12.855 -15.2223C-4.96918 -22.7713 5.72385 -27.4078 17.5001 -27.4078C41.7499 -27.4078 61.4086 -7.74763 61.4086 16.5039C61.4086 40.4325 42.2713 59.8877 18.4686 60.4027V62.34C43.3415 61.8234 63.3458 41.5013 63.3458 16.5039C63.3458 -8.81798 42.8201 -29.3451 17.5001 -29.3451C5.18952 -29.3451 -5.98779 -24.4906 -14.2239 -16.5929Z" fill="#A8B7BB"/>
<path d="M16.5314 62.3401V60.4028C-7.2712 59.8878 -26.4086 40.4327 -26.4086 16.504C-26.4086 4.72698 -21.7723 -5.96681 -14.2239 -13.8532L-15.5945 -15.2222C-23.4915 -6.9855 -28.3457 4.191 -28.3457 16.504C-28.3457 41.5014 -8.34147 61.8251 16.5314 62.3401Z" fill="#A8B7BB"/>
<path d="M51.7358 -16.3652C59.7169 -8.05269 64.7002 3.15933 64.9472 15.5353H66.8843C66.6357 2.62497 61.4377 -9.07137 53.1048 -17.7343L51.7358 -16.3652Z" fill="#A8B7BB"/>
<path d="M-31.8843 15.5354H-29.9471C-29.4322 -10.2304 -8.38673 -30.9593 17.5 -30.9593C30.2577 -30.9593 41.8385 -25.924 50.3668 -17.7342L51.7374 -19.1032C42.8572 -27.645 30.792 -32.8966 17.5 -32.8966C-9.45701 -32.8966 -31.3677 -11.3008 -31.8843 15.5354Z" fill="#A8B7BB"/>
<path d="M64.9487 17.4727C64.4321 43.2385 43.3883 63.9674 17.5 63.9674C-8.38674 63.9674 -29.4322 43.2385 -29.9471 17.4727H-31.8843C-31.3677 44.3088 -9.45701 65.9047 17.5 65.9047C44.4569 65.9047 66.3692 44.3088 66.8858 17.4727H64.9487Z" fill="#A8B7BB"/>
<path d="M18.4685 -36.4353V-34.498C46.1939 -33.9814 68.5114 -11.3459 68.5114 16.5041C68.5114 30.2427 63.0793 42.7123 54.2475 51.8837L55.6181 53.2544C64.6661 43.8715 70.2919 31.1516 70.4469 17.0869C70.7665 -12.0272 47.5289 -35.9074 18.4685 -36.4353Z" fill="#A8B7BB"/>
<path d="M-20.6164 53.2543L-19.2474 51.8852C-28.0792 42.7122 -33.5113 30.2426 -33.5113 16.504C-33.5113 -11.3476 -11.1938 -33.9815 16.5316 -34.4981V-36.437C-12.0009 -35.9301 -35.1288 -12.8022 -35.4452 15.9212C-35.605 30.404 -29.9324 43.5905 -20.6164 53.2543Z" fill="#A8B7BB"/>
<path d="M52.8771 53.2543C43.7063 62.0867 31.2376 67.5191 17.5 67.5191C3.76247 67.5191 -8.70627 62.0867 -17.877 53.2543L-19.2476 54.6249C-9.86533 63.6736 2.85362 69.2998 16.9157 69.4548C31.3974 69.6146 44.5829 63.9416 54.246 54.6249L52.8771 53.2543Z" fill="#A8B7BB"/>
<path d="M58.1299 -22.7582L56.7577 -21.3859C66.3708 -11.4267 72.2242 2.17139 72.0595 17.1062C71.7334 46.7143 47.884 70.5542 18.4685 71.0611V73C48.9446 72.4931 73.6593 47.7992 73.9967 17.1272C74.1678 1.64832 68.0981 -12.4438 58.1299 -22.7582Z" fill="#A8B7BB"/>
<path d="M16.5315 71.0595C-13.4297 70.53 -37.3905 45.9152 -37.0596 15.9035C-36.8998 1.40133 -31.0948 -11.7157 -21.7594 -21.3876L-23.1299 -22.7582C-32.8108 -12.7424 -38.8305 0.85244 -38.9967 15.8809C-39.339 46.971 -14.5096 72.4705 16.5315 72.9984V71.0595Z" fill="#A8B7BB"/>
<path d="M22.9306 12.444L21.5407 13.834C22.0476 14.5992 22.343 15.5178 22.343 16.5042C22.343 19.1792 20.175 21.3474 17.5002 21.3474C15.1578 21.3474 13.2029 19.6829 12.7541 17.4728H10.7896C11.2593 20.7581 14.0843 23.2847 17.5002 23.2847C21.2453 23.2847 24.2802 20.2496 24.2802 16.5042C24.2802 14.9818 23.7781 13.5757 22.9306 12.444Z" fill="#A8B7BB"/>
<path d="M20.6528 16.5251C20.6528 18.2703 19.2386 19.6845 17.4936 19.6845C15.7486 19.6845 14.3345 18.2703 14.3345 16.5251C14.3345 14.7799 15.7486 13.3657 17.4936 13.3657C19.2386 13.3657 20.6528 14.7799 20.6528 16.5251Z" fill="white"/>
<path d="M17.5001 13.2753C15.7179 13.2753 14.2715 14.7218 14.2715 16.5041C14.2715 18.288 15.7179 19.7329 17.5001 19.7329C19.2838 19.7329 20.7286 18.288 20.7286 16.5041C20.7286 14.7218 19.2838 13.2753 17.5001 13.2753ZM17.4936 19.0306C16.9399 17.957 16.0617 17.0804 14.9898 16.5267C16.0633 15.9729 16.9399 15.0947 17.4936 14.0227C18.0473 15.0963 18.9255 15.9729 19.9974 16.5267C18.9255 17.0788 18.0473 17.957 17.4936 19.0306Z" fill="#A8B7BB"/>
</g>
<rect fill="transparent" opacity="0.5" x="82.5" y="93.5" width="57" height="57" rx="18.5" stroke="#D3E1E2" stroke-width="3"/>
<path d="M60.9961 30.8821C67.1338 30.8821 72.8394 32.7242 77.5996 35.8786L86.2478 27.2304C79.2053 21.9568 70.4675 18.835 60.9961 18.835C39.7547 18.835 22.1894 34.5419 19.2632 54.9763H31.4815C34.2691 41.2338 46.4222 30.8821 60.9961 30.8821Z" fill="#FF2639"/>
<path d="M94.7655 35.7482L86.1255 44.3963C89.2799 49.1565 91.122 54.8622 91.122 60.9998C91.122 77.6359 77.6404 91.1176 61.0042 91.1176C46.4303 91.1176 34.2773 80.7659 31.4896 67.0234H19.2632C22.1894 87.4579 39.7547 103.165 60.9961 103.165C84.2834 103.165 103.161 84.2871 103.161 60.9998C103.161 51.5284 100.039 42.7906 94.7655 35.7482Z" fill="#FF2639"/>
<path d="M60.996 40.9241C49.9025 40.9241 40.9202 49.9146 40.9202 61.008C40.9202 72.1015 49.9107 81.0839 60.996 81.0839C72.0894 81.0839 81.0799 72.0933 81.0799 61.008C81.0799 49.9146 72.0894 40.9241 60.996 40.9241ZM60.9552 76.7149C57.5074 70.0393 52.0544 64.5863 45.3787 61.1385C52.0544 57.6906 57.5074 52.2376 60.9552 45.562C64.4031 52.2376 69.8561 57.6906 76.5317 61.1385C69.8561 64.5782 64.4031 70.0393 60.9552 76.7149Z" fill="#FF2639"/>
<circle cx="9" cy="116" r="20" fill="white"/>
</g>
<defs>
<clipPath id="clip0">
<rect width="122" height="122" rx="20" fill="white"/>
</clipPath>
<clipPath id="clip1">
<rect width="113" height="113" fill="white" transform="translate(-39 -40)"/>
</clipPath>
</defs>
</svg>
