<svg width="122" height="122" viewBox="0 0 122 122" fill="none" xmlns="http://www.w3.org/2000/svg">
<g clip-path="url(#clip0)">
<rect width="122" height="122" rx="20" fill="#F8FDFF"/>
<g opacity="0.3">
<path d="M21.7329 -5.95288C27.8706 -5.95288 33.5763 -4.11077 38.3364 -0.956347L46.9846 -9.60451C39.9422 -14.8782 31.2043 -18 21.7329 -18C0.491514 -18 -17.0738 -2.2931 -20 18.1413H-7.78171C-4.99408 4.39883 7.159 -5.95288 21.7329 -5.95288Z" fill="#D3E1E2"/>
<path d="M55.5023 -1.08667L46.8623 7.5615C50.0167 12.3217 51.8589 18.0273 51.8589 24.165C51.8589 40.8011 38.3772 54.2828 21.7411 54.2828C7.16715 54.2828 -4.98593 43.9311 -7.77356 30.1886H-20C-17.0738 50.623 0.491512 66.3299 21.7329 66.3299C45.0202 66.3299 63.8978 47.4523 63.8978 24.165C63.8978 14.6936 60.776 5.95576 55.5023 -1.08667Z" fill="#D3E1E2"/>
<path d="M21.7328 4.08911C10.6393 4.08911 1.65698 13.0796 1.65698 24.1731C1.65698 35.2665 10.6475 44.2489 21.7328 44.2489C32.8263 44.2489 41.8168 35.2584 41.8168 24.1731C41.8168 13.0796 32.8263 4.08911 21.7328 4.08911ZM21.692 39.88C18.2442 33.2043 12.7912 27.7513 6.11556 24.3035C12.7912 20.8556 18.2442 15.4026 21.692 8.72701C25.1399 15.4026 30.5929 20.8556 37.2685 24.3035C30.5929 27.7432 25.1399 33.2043 21.692 39.88Z" fill="#D3E1E2"/>
</g>
<circle fill="transparent" cx="61.1771" cy="61.1771" r="36.9139" stroke="#49A9B4" stroke-width="10"/>
<path d="M59.325 74.3451C58.727 74.3817 58.17 74.1762 57.7794 73.7627L47.3299 62.656C46.5333 61.8126 46.6772 60.3512 47.6561 59.4006C48.635 58.45 50.0757 58.3725 50.8723 59.2159L59.5424 68.4278L74.254 47.875C75.0428 46.767 76.484 46.3936 77.4708 47.0212C78.4576 47.6488 78.6125 49.0532 77.8237 50.1613L61.3381 73.1831C60.9055 73.7899 60.2574 74.2015 59.5652 74.314C59.4859 74.3288 59.3989 74.3356 59.325 74.3451Z" fill="#49A9B4"/>
<g opacity="0.05" clip-path="url(#clip1)">
<path d="M57.0271 120.569H58.9221C59.355 118.438 61.2407 116.832 63.5001 116.832C64.4515 116.832 65.3375 117.117 66.0756 117.606L67.4163 116.265C66.3248 115.448 64.9685 114.963 63.5001 114.963C60.2052 114.963 57.4818 117.4 57.0271 120.569Z" fill="#A8B7BB"/>
<path d="M55.8232 127.859L57.153 126.529C56.0583 125.148 55.4028 123.404 55.4028 121.504C55.4028 117.348 58.5342 113.925 62.5656 113.461V111.581C57.5002 112.053 53.5342 116.314 53.5342 121.502C53.5342 123.919 54.3937 126.135 55.8232 127.859Z" fill="#A8B7BB"/>
<path d="M64.4343 111.583V113.462C68.159 113.89 71.1129 116.844 71.5427 120.571H73.4206C72.9783 115.812 69.1929 112.025 64.4343 111.583Z" fill="#A8B7BB"/>
<path d="M62.5658 134.86V132.987C56.6393 132.511 51.9772 127.554 51.9772 121.504C51.9772 118.659 53.0112 116.055 54.7209 114.045L53.3958 112.721C51.3497 115.072 50.1086 118.142 50.1086 121.504C50.1086 128.586 55.6069 134.381 62.5658 134.86Z" fill="#A8B7BB"/>
<path d="M73.6042 112.721L72.2791 114.045C73.9888 116.055 75.0227 118.659 75.0227 121.504C75.0227 124.349 73.9888 126.953 72.2806 128.963L73.6057 130.288C75.6503 127.935 76.8913 124.866 76.8913 121.504C76.8913 118.142 75.6503 115.072 73.6042 112.721Z" fill="#A8B7BB"/>
<path d="M56.0413 112.724C58.0516 111.014 60.6552 109.98 63.5001 109.98C66.3465 109.98 68.9485 111.014 70.9588 112.723L72.2823 111.399C69.9311 109.353 66.8619 108.112 63.5001 108.112C60.1382 108.112 57.0691 109.353 54.7178 111.399L56.0413 112.724Z" fill="#A8B7BB"/>
<path d="M46.7092 120.57H48.5809C49.0449 113.057 55.054 107.048 62.5656 106.584V104.712C54.0216 105.179 47.1764 112.025 46.7092 120.57Z" fill="#A8B7BB"/>
<path d="M64.4343 104.712V106.584C71.946 107.048 77.955 113.057 78.419 120.57H80.2907C79.8236 112.025 72.9784 105.179 64.4343 104.712Z" fill="#A8B7BB"/>
<path d="M63.4999 101.26C52.3197 101.26 43.2571 110.323 43.2571 121.504C43.2571 132.372 51.8198 141.237 62.5657 141.726V139.856C52.8522 139.37 45.1257 131.339 45.1257 121.504C45.1257 111.355 53.352 103.128 63.4999 103.128C73.6478 103.128 81.8742 111.355 81.8742 121.504C81.8742 131.339 74.1477 139.37 64.4342 139.856V141.726C75.1801 141.237 83.7428 132.372 83.7428 121.504C83.7428 110.323 74.6802 101.26 63.4999 101.26Z" fill="#A8B7BB"/>
<path d="M46.1175 137.567L47.4395 136.245C43.8752 132.364 41.6999 127.188 41.6999 121.504C41.6999 115.82 43.8752 110.644 47.4395 106.763L46.1175 105.441C42.2168 109.661 39.8313 115.305 39.8313 121.504C39.8313 127.705 42.2168 133.347 46.1175 137.567Z" fill="#A8B7BB"/>
<path d="M63.4999 97.8335C57.3009 97.8335 51.6578 100.219 47.438 104.12L48.76 105.442C52.642 101.879 57.8163 99.7022 63.4999 99.7022C75.5397 99.7022 85.2999 109.463 85.2999 121.504C85.2999 127.188 83.1246 132.364 79.5603 136.245L80.8823 137.567C84.7845 133.347 87.1685 127.705 87.1685 121.504C87.1685 108.431 76.5721 97.8335 63.4999 97.8335Z" fill="#A8B7BB"/>
<path d="M36.4229 120.57H38.293C38.785 107.07 49.8812 96.2764 63.5 96.2764C70.1303 96.2764 76.1611 98.835 80.6628 103.018L81.9848 101.696C77.1437 97.175 70.6457 94.4077 63.5 94.4077C48.8489 94.4077 36.9165 106.037 36.4229 120.57Z" fill="#A8B7BB"/>
<path d="M83.3069 103.018L81.9849 104.34C85.9696 108.63 88.4797 114.308 88.707 120.57H90.5772C90.3467 113.792 87.6295 107.648 83.3069 103.018Z" fill="#A8B7BB"/>
<path d="M64.4343 90.9973V92.8676C79.8251 93.3612 92.1515 105.992 92.1515 121.504C92.1515 137.016 79.8251 149.647 64.4343 150.14V152.011C80.8575 151.517 94.0201 138.048 94.0201 121.504C94.0201 104.96 80.8575 91.491 64.4343 90.9973Z" fill="#A8B7BB"/>
<path d="M32.98 121.504C32.98 129.597 36.1301 136.952 41.2702 142.415L42.5922 141.093C37.79 135.969 34.8486 129.08 34.8486 121.504C34.8486 105.992 47.1749 93.3612 62.5657 92.8676V90.9973C46.1425 91.491 32.98 104.96 32.98 121.504Z" fill="#A8B7BB"/>
<path d="M63.4999 155.452C72.5376 155.452 80.7499 151.918 86.8321 146.16L85.5101 144.837C79.7658 150.258 72.0221 153.583 63.4999 153.583C45.7843 153.583 31.4228 139.22 31.4228 121.504C31.4228 112.981 34.7473 105.236 40.1677 99.4918L38.8457 98.1697C33.0874 104.252 29.5542 112.465 29.5542 121.504C29.5542 140.253 44.7519 155.452 63.4999 155.452Z" fill="#A8B7BB"/>
<path d="M63.4999 87.5557C54.4623 87.5557 46.2499 91.0891 40.1677 96.8478L41.4897 98.1699C47.234 92.7491 54.9777 89.4244 63.4999 89.4244C81.2155 89.4244 95.577 103.787 95.577 121.504C95.577 130.027 92.2525 137.771 86.8321 143.516L88.1541 144.838C93.9125 138.755 97.4456 130.542 97.4456 121.504C97.4456 102.754 82.2479 87.5557 63.4999 87.5557Z" fill="#A8B7BB"/>
<path d="M90.5771 95.7454L89.2551 97.0675C95.096 103.223 98.7552 111.471 98.9904 120.57H100.859C100.624 110.955 96.7574 102.241 90.5771 95.7454Z" fill="#A8B7BB"/>
<path d="M26.1411 120.57H28.0097C28.5049 101.392 44.2055 85.9986 63.5001 85.9986C72.9675 85.9986 81.5692 89.7049 87.9348 95.747L89.2568 94.4249C82.5533 88.0448 73.4845 84.1299 63.5001 84.1299C43.1731 84.1299 26.6363 100.361 26.1411 120.57Z" fill="#A8B7BB"/>
<path d="M34 149.686L35.3204 148.365C28.6605 141.378 24.5715 131.919 24.5715 121.504C24.5715 100.316 41.4976 83.0802 62.5657 82.585V80.7163C40.4652 81.2131 22.7029 99.2834 22.7029 121.504C22.7029 132.434 27.0022 142.36 34 149.686Z" fill="#A8B7BB"/>
<path d="M64.4343 80.7163V82.585C85.5025 83.0802 102.429 100.316 102.429 121.504C102.429 131.919 98.3396 141.378 91.6797 148.363L93.0017 149.684C99.9995 142.36 104.297 132.434 104.297 121.504C104.297 99.2834 86.5349 81.2131 64.4343 80.7163Z" fill="#A8B7BB"/>
<path d="M32.8989 89.5786L34.2194 90.9007C41.826 83.619 52.1405 79.1465 63.4999 79.1465C86.8913 79.1465 105.854 98.1108 105.854 121.504C105.854 144.585 87.3943 163.352 64.4342 163.849V165.717C88.4266 165.219 107.723 145.616 107.723 121.504C107.723 97.0783 87.9237 77.2778 63.4999 77.2778C51.6251 77.2778 40.8435 81.9605 32.8989 89.5786Z" fill="#A8B7BB"/>
<path d="M62.5657 165.717V163.849C39.6056 163.352 21.1457 144.585 21.1457 121.504C21.1457 110.144 25.6178 99.8284 32.899 92.2212L31.577 90.9006C23.9594 98.8457 19.2771 109.627 19.2771 121.504C19.2771 145.616 38.5732 165.221 62.5657 165.717Z" fill="#A8B7BB"/>
<path d="M96.5239 89.7981C104.222 97.8164 109.029 108.632 109.268 120.569H111.136C110.896 108.116 105.882 96.8338 97.8444 88.4775L96.5239 89.7981Z" fill="#A8B7BB"/>
<path d="M15.8638 120.57H17.7323C18.2291 95.7159 38.5295 75.7208 63.4999 75.7208C75.806 75.7208 86.9769 80.5778 95.2033 88.4778L96.5253 87.1572C87.9595 78.9178 76.3214 73.8521 63.4999 73.8521C37.4972 73.8521 16.3621 94.6834 15.8638 120.57Z" fill="#A8B7BB"/>
<path d="M64.4343 70.4385V72.3072C91.1783 72.8055 112.706 94.6398 112.706 121.504C112.706 134.756 107.466 146.784 98.9468 155.631L100.269 156.953C108.997 147.903 114.423 135.633 114.573 122.066C114.881 93.9826 92.466 70.9477 64.4343 70.4385Z" fill="#A8B7BB"/>
<path d="M26.7329 156.953L28.0533 155.633C19.5342 146.784 14.2944 134.756 14.2944 121.504C14.2944 94.6381 35.8219 72.8054 62.5658 72.307V70.4368C35.0433 70.9257 12.7342 93.235 12.429 120.942C12.2748 134.912 17.7466 147.631 26.7329 156.953Z" fill="#A8B7BB"/>
<path d="M26.9524 83.633C36.56 74.3596 49.6742 68.713 64.0793 68.8718C78.0672 69.026 90.7189 74.6259 100.048 83.6314L101.37 82.3093C91.7093 72.9705 78.5981 67.1635 64.1011 67.0031C49.1713 66.8396 35.579 72.6933 25.6304 82.3093L26.9524 83.633Z" fill="#A8B7BB"/>
<path d="M102.692 83.6316L101.368 84.9553C110.641 94.562 116.287 107.679 116.128 122.085C115.814 150.645 92.8086 173.641 64.4343 174.13V176C93.8316 175.511 117.671 151.691 117.997 122.105C118.162 107.174 112.307 93.5809 102.692 83.6316Z" fill="#A8B7BB"/>
<path d="M62.5657 174.128C33.6652 173.618 10.5525 149.874 10.8717 120.925C11.0259 106.936 16.6253 94.2832 25.6303 84.9537L24.3083 83.6316C14.9701 93.2928 9.16351 106.406 9.00313 120.903C8.67301 150.893 32.6234 175.489 62.5657 175.999V174.128Z" fill="#A8B7BB"/>
<path d="M68.7384 117.588L67.3977 118.928C67.8866 119.667 68.1716 120.553 68.1716 121.504C68.1716 124.085 66.0803 126.176 63.5002 126.176C61.2407 126.176 59.355 124.57 58.9221 122.438H57.0271C57.4802 125.607 60.2052 128.045 63.5002 128.045C67.1127 128.045 70.0402 125.117 70.0402 121.504C70.0402 120.036 69.5559 118.679 68.7384 117.588Z" fill="#A8B7BB"/>
<path d="M66.5412 121.524C66.5412 123.208 65.1771 124.572 63.4938 124.572C61.8106 124.572 60.4465 123.208 60.4465 121.524C60.4465 119.841 61.8106 118.477 63.4938 118.477C65.1771 118.477 66.5412 119.841 66.5412 121.524Z" fill="white"/>
<path d="M63.5 118.389C61.7809 118.389 60.3857 119.785 60.3857 121.504C60.3857 123.225 61.7809 124.618 63.5 124.618C65.2207 124.618 66.6143 123.225 66.6143 121.504C66.6143 119.785 65.2207 118.389 63.5 118.389ZM63.4938 123.941C62.9597 122.905 62.1126 122.06 61.0787 121.526C62.1142 120.992 62.9597 120.144 63.4938 119.11C64.0279 120.146 64.875 120.992 65.9089 121.526C64.875 122.058 64.0279 122.905 63.4938 123.941Z" fill="#A8B7BB"/>
</g>
<circle cx="112" cy="4" r="20" fill="white"/>
</g>
<defs>
<clipPath id="clip0">
<rect width="122" height="122" rx="20" fill="white"/>
</clipPath>
<clipPath id="clip1">
<rect width="109" height="109" fill="white" transform="translate(9 67)"/>
</clipPath>
</defs>
</svg>
