<svg width="122" height="122" viewBox="0 0 122 122" fill="none" xmlns="http://www.w3.org/2000/svg">
<g clip-path="url(#clip0)">
<rect width="122" height="122" rx="20" fill="#F8FDFF"/>
<g opacity="0.2">
<path d="M21.7329 73.0471C27.8706 73.0471 33.5763 74.8892 38.3364 78.0437L46.9846 69.3955C39.9422 64.1218 31.2043 61 21.7329 61C0.491514 61 -17.0738 76.7069 -20 97.1413H-7.78171C-4.99408 83.3988 7.159 73.0471 21.7329 73.0471Z" fill="#D3E1E2"/>
<path d="M55.5023 77.9133L46.8623 86.5615C50.0167 91.3217 51.8589 97.0273 51.8589 103.165C51.8589 119.801 38.3772 133.283 21.7411 133.283C7.16715 133.283 -4.98593 122.931 -7.77356 109.189H-20C-17.0738 129.623 0.491512 145.33 21.7329 145.33C45.0202 145.33 63.8978 126.452 63.8978 103.165C63.8978 93.6936 60.776 84.9558 55.5023 77.9133Z" fill="#D3E1E2"/>
<path d="M21.7328 83.0891C10.6393 83.0891 1.65698 92.0796 1.65698 103.173C1.65698 114.267 10.6475 123.249 21.7328 123.249C32.8263 123.249 41.8168 114.258 41.8168 103.173C41.8168 92.0796 32.8263 83.0891 21.7328 83.0891ZM21.692 118.88C18.2442 112.204 12.7912 106.751 6.11556 103.303C12.7912 99.8556 18.2442 94.4026 21.692 87.727C25.1399 94.4026 30.5929 99.8556 37.2685 103.303C30.5929 106.743 25.1399 112.204 21.692 118.88Z" fill="#D3E1E2"/>
</g>
<circle fill="transparent" opacity="0.5" cx="108.5" cy="-3.5" r="40.5" stroke="#D3E1E2" stroke-width="4"/>
<path d="M99.1575 56.0198L86.4746 63.3728L86.5193 80.4239L108.73 67.5896L99.1575 56.0198Z" fill="#FFA94D"/>
<path d="M46.5103 40.3613L59.1932 33.0083L99.1574 56.0198L86.4745 63.3728L46.5103 40.3613Z" fill="#FFE499"/>
<path d="M86.4746 63.3728L46.5103 40.3613L35.6592 51.1346L86.5192 80.424L86.4746 63.3728Z" fill="#EF8E35"/>
<path opacity="0.3" d="M64.9014 40.7014C65.4152 40.9966 65.9122 41.3587 66.1021 41.7208L64.9237 42.4004L64.678 42.2611C65.0521 41.8378 65.3593 41.3086 64.6389 40.8964C63.5052 40.2446 62.0141 40.9131 61.3551 41.2974C60.8804 41.5704 59.3278 42.5397 60.5006 43.2137C60.9474 43.4699 61.1038 43.4866 61.3327 43.3585L62.2486 42.8293C62.5669 42.6455 62.5446 42.5954 62.0755 42.289L62.3212 42.1497L64.2815 43.275L64.0357 43.4142C63.6895 43.2527 63.6057 43.2415 63.3041 43.4198L62.0978 44.1161C61.4444 43.9713 60.7017 43.6705 60.2102 43.3864C59.7802 43.1413 59.2105 42.768 59.0542 42.3113C58.8922 41.8378 59.1044 41.2752 60.132 40.6847C61.0144 40.1611 62.8294 39.5038 64.9014 40.7014ZM69.4194 43.2972C70.9105 44.1551 70.7597 45.0798 69.2965 45.9209C67.8333 46.762 66.2305 46.8512 64.7394 45.9933C63.2483 45.1355 63.3991 44.2108 64.8623 43.3696C66.3255 42.5285 67.9283 42.4394 69.4194 43.2972ZM65.0354 45.8206C65.9904 46.3721 67.3642 45.7148 68.1461 45.258C68.9279 44.8068 70.0728 44.0158 69.1178 43.4643C68.1628 42.9129 66.789 43.5702 66.0071 44.027C65.2253 44.4837 64.0972 45.2803 65.0354 45.8206ZM67.7887 47.3525C68.2689 47.6088 68.3527 47.6199 68.6822 47.4249L71.9102 45.5644C72.2397 45.375 72.2229 45.3249 71.7817 45.0519L72.0275 44.9127L74.1664 46.1437L73.9207 46.283C73.3622 45.9822 73.2784 45.971 72.9489 46.166L69.8606 47.943C69.4473 48.1825 69.5646 48.3162 70.1063 48.6281C70.8435 49.0515 71.2847 48.8955 72.1671 48.656L72.4128 48.7953L71.0334 49.5027L67.5373 47.4918L67.7887 47.3525ZM71.5807 49.5417C72.061 49.7979 72.1447 49.8091 72.4742 49.6141L75.7022 47.7536C76.0317 47.5642 76.015 47.5141 75.5738 47.2355L75.8195 47.0963L78.0422 48.3775C78.8799 48.8677 79.2429 49.2855 79.2485 49.7144C79.2541 50.1433 78.8967 50.5667 78.1707 50.9844C76.0205 52.2211 74.2781 51.3799 73.2673 50.795L71.3294 49.681L71.5807 49.5417ZM73.7029 50.7004C74.3395 51.068 75.3169 51.3075 77.0258 50.3216C78.2768 49.603 78.4778 48.9679 77.6122 48.4722C77.2045 48.2382 77.0425 48.1825 76.8918 48.2661L73.4683 50.238C73.2617 50.3606 73.2952 50.4664 73.7029 50.7004ZM81.3539 53.0678C81.6499 53.2405 81.7393 53.4076 81.689 53.5803C81.6332 53.7474 81.4321 53.9201 81.1138 54.1039C80.6726 54.3601 80.2817 54.4771 79.9578 54.4883C79.6562 54.4994 79.3881 54.4158 79.1424 54.271C78.6789 54.0036 78.7682 53.7641 78.8855 53.6973C79.0139 53.6248 79.2373 53.6527 79.3267 53.7084C79.3993 53.753 79.416 53.7975 79.3714 53.8477C79.1927 54.0538 79.2094 54.1373 79.3211 54.2042C79.4831 54.2989 79.7735 54.31 80.5218 53.8922L80.5162 53.8866C80.3319 53.8866 80.0918 53.8644 79.9187 53.7641C79.5892 53.5747 79.4886 53.2906 79.9075 53.0455C80.3096 52.8227 80.8792 52.7948 81.3539 53.0678ZM80.3264 53.7251C80.4269 53.7808 80.5665 53.7919 80.6559 53.7808C80.734 53.7697 80.8066 53.7362 80.8904 53.6861C81.259 53.4744 81.4154 53.2683 81.2311 53.1625C81.0524 53.0567 80.762 53.1068 80.466 53.2795C80.2035 53.4354 80.1253 53.6081 80.3264 53.7251ZM83.0908 54.0705C83.3868 54.2432 83.4761 54.4103 83.4259 54.583C83.37 54.7501 83.169 54.9227 82.8506 55.1066C82.4095 55.3628 82.0185 55.4798 81.6946 55.4909C81.393 55.5021 81.125 55.4185 80.8792 55.2737C80.4157 55.0063 80.5051 54.7668 80.6223 54.6999C80.7508 54.6275 80.9742 54.6554 81.0635 54.7111C81.1361 54.7556 81.1529 54.8002 81.1082 54.8503C80.9295 55.0564 80.9463 55.14 81.058 55.2068C81.2199 55.3015 81.5103 55.3127 82.2587 54.8949L82.2531 54.8893C82.0688 54.8893 81.8286 54.867 81.6555 54.7668C81.326 54.5774 81.2255 54.2933 81.6444 54.0482C82.0465 53.8254 82.6161 53.7975 83.0908 54.0705ZM82.0688 54.7278C82.1693 54.7835 82.3089 54.7946 82.3983 54.7835C82.4765 54.7723 82.5491 54.7389 82.6328 54.6888C83.0014 54.4771 83.1578 54.271 82.9735 54.1652C82.7948 54.0593 82.5044 54.1095 82.2084 54.2821C81.9403 54.4325 81.8677 54.6108 82.0688 54.7278ZM84.8332 55.0732C85.1292 55.2458 85.2186 55.4129 85.1683 55.5856C85.1125 55.7527 84.9114 55.9254 84.5931 56.1093C84.1519 56.3655 83.761 56.4825 83.437 56.4936C83.1355 56.5048 82.8674 56.4212 82.6217 56.2764C82.1581 56.009 82.2475 55.7695 82.3648 55.7026C82.4932 55.6302 82.7166 55.658 82.806 55.7138C82.8786 55.7583 82.8953 55.8029 82.8506 55.853C82.6719 56.0591 82.6887 56.1427 82.8004 56.2095C82.9623 56.3042 83.2528 56.3154 84.0011 55.8976L83.9955 55.892C83.8112 55.892 83.5711 55.8697 83.398 55.7695C83.0685 55.5801 82.9679 55.296 83.3868 55.0509C83.7833 54.8281 84.3585 54.8002 84.8332 55.0732ZM83.8056 55.7305C83.9062 55.7862 84.0458 55.7973 84.1351 55.7862C84.2133 55.775 84.2859 55.7416 84.3697 55.6915C84.7383 55.4798 84.8947 55.2737 84.7104 55.1678C84.5317 55.062 84.2412 55.1121 83.9453 55.2848C83.6828 55.4352 83.6046 55.6135 83.8056 55.7305ZM84.5931 56.7387C84.7662 56.839 84.7662 56.9727 84.5931 57.0729C84.42 57.1732 84.1854 57.1732 84.0179 57.0729C83.8447 56.9727 83.8447 56.839 84.0179 56.7387C84.1854 56.644 84.42 56.644 84.5931 56.7387Z" fill="#D99027"/>
<path opacity="0.6" d="M84.006 56.1368C83.6486 56.3374 83.3917 56.4321 83.2074 56.4766C83.0343 56.4543 82.8723 56.3986 82.716 56.3206C82.7215 56.2872 82.7439 56.2371 82.7774 56.187C82.783 56.1925 82.7886 56.1981 82.7997 56.2037C82.9282 56.2761 83.146 56.2984 83.6207 56.0867C83.7491 56.1201 83.8832 56.1368 83.9949 56.1368H84.006ZM81.4091 54.527C81.4482 54.449 81.5208 54.371 81.6549 54.293C81.9062 54.1482 82.2301 54.098 82.554 54.1426C82.716 54.1036 82.8667 54.1036 82.9728 54.1649C83.0287 54.1983 83.0455 54.2429 83.0399 54.293C83.0566 54.3041 83.079 54.3041 83.0957 54.3153C83.2688 54.4156 83.3694 54.5158 83.414 54.6161C83.4196 54.605 83.4308 54.5938 83.4308 54.5827C83.4811 54.4156 83.3917 54.2429 83.0957 54.0702C82.621 53.7972 82.0458 53.8251 81.6549 54.0479C81.3868 54.2039 81.3309 54.371 81.4091 54.527ZM82.2636 55.1341C82.1519 55.1341 82.0179 55.1174 81.8894 55.084C81.4147 55.2957 81.1969 55.279 81.0685 55.201C81.0573 55.1954 81.0573 55.1898 81.0461 55.1843C81.0126 55.2344 80.9847 55.2845 80.9847 55.318C81.1411 55.396 81.303 55.4517 81.4761 55.4739C81.6604 55.4349 81.9117 55.3347 82.2748 55.1341H82.2636ZM78.8904 53.697C78.8178 53.736 78.7564 53.8474 78.8346 53.9922C78.8513 53.9699 78.8681 53.9532 78.8904 53.9421C79.0133 53.8752 79.2087 53.8975 79.3093 53.9421C79.3316 53.9142 79.3484 53.8864 79.3819 53.8474C79.4265 53.7972 79.4154 53.7527 79.3372 53.7081C79.2423 53.6524 79.0189 53.6246 78.8904 53.697ZM79.918 53.2903C80.1693 53.1455 80.4876 53.0954 80.8171 53.1399C80.9791 53.1009 81.1299 53.1009 81.236 53.1622C81.2918 53.1956 81.3086 53.2402 81.303 53.2903C81.3198 53.3015 81.3421 53.3015 81.3589 53.3126C81.532 53.4129 81.6325 53.5131 81.6772 53.6134C81.6828 53.6023 81.6939 53.5911 81.6939 53.58C81.7442 53.4129 81.6549 53.2402 81.3589 53.0675C80.8842 52.7946 80.3089 52.8224 79.918 53.0452C79.6499 53.2012 79.5941 53.3683 79.6723 53.5243C79.7114 53.4463 79.784 53.3683 79.918 53.2903ZM79.3037 54.1872C79.2702 54.2373 79.2423 54.2874 79.2423 54.3209C79.3986 54.3988 79.5606 54.4545 79.7337 54.4768C79.918 54.4378 80.1693 54.3376 80.5323 54.137L80.5267 54.1315C80.415 54.1315 80.281 54.1148 80.1526 54.0813C79.6779 54.293 79.4601 54.2763 79.3316 54.1983C79.3149 54.1983 79.3149 54.1927 79.3037 54.1872ZM82.3641 55.9419C82.487 55.875 82.6824 55.8973 82.783 55.9419C82.8053 55.914 82.8221 55.8862 82.8556 55.8472C82.9002 55.797 82.8891 55.7525 82.8109 55.7079C82.7215 55.6578 82.4981 55.6243 82.3697 55.6968C82.2971 55.7358 82.2357 55.8472 82.3139 55.992C82.325 55.9753 82.3474 55.953 82.3641 55.9419ZM80.6273 54.9392C80.7501 54.8723 80.9456 54.8946 81.0461 54.9392C81.0685 54.9113 81.0852 54.8835 81.1187 54.8445C81.1634 54.7943 81.1522 54.7498 81.074 54.7052C80.9847 54.6551 80.7613 54.6217 80.6329 54.6941C80.5602 54.7331 80.4988 54.8445 80.577 54.9893C80.5882 54.9726 80.6049 54.9559 80.6273 54.9392ZM83.146 55.5296C83.1851 55.4517 83.2577 55.3737 83.3917 55.2957C83.643 55.1509 83.9669 55.1007 84.2908 55.1453C84.4528 55.1063 84.6036 55.1063 84.7097 55.1676C84.7655 55.201 84.7823 55.2456 84.7767 55.2957C84.7935 55.3068 84.8158 55.3068 84.8326 55.318C85.0057 55.4182 85.1062 55.5185 85.1509 55.6188C85.1565 55.6076 85.1677 55.5965 85.1677 55.5853C85.2179 55.4182 85.1286 55.2456 84.8326 55.0729C84.3579 54.7999 83.7826 54.8278 83.3917 55.0506C83.1236 55.2066 83.0678 55.3737 83.146 55.5296ZM82.2692 54.8946C82.2077 54.928 82.1575 54.9559 82.1016 54.9837C82.1966 55.0283 82.3139 55.0394 82.3976 55.0283C82.4758 55.0172 82.5484 54.9837 82.6322 54.9336C82.9896 54.7275 83.146 54.527 82.9784 54.4211C82.9114 54.5047 82.7941 54.5994 82.6322 54.6941C82.5428 54.7442 82.4758 54.7776 82.3976 54.7888C82.3083 54.7999 82.1686 54.7943 82.0681 54.7331C82.0458 54.7219 82.0346 54.6996 82.0179 54.6885C81.962 54.7554 81.9397 54.8166 81.9676 54.8723C82.0681 54.889 82.1742 54.8946 82.2636 54.8946H82.2692ZM84.006 55.8917C83.9446 55.9251 83.8943 55.953 83.8385 55.9809C83.9334 56.0254 84.0507 56.0366 84.1345 56.0254C84.2127 56.0143 84.2853 55.9809 84.369 55.9307C84.7265 55.7246 84.8828 55.5241 84.7153 55.4182C84.6483 55.5018 84.531 55.5965 84.369 55.6912C84.2797 55.7413 84.2127 55.7747 84.1345 55.7859C84.0451 55.797 83.9055 55.7915 83.805 55.7302C83.7826 55.719 83.7715 55.6968 83.7547 55.6856C83.6989 55.7525 83.6765 55.8137 83.7045 55.8694C83.805 55.8862 83.9111 55.8917 84.0004 55.8917H84.006ZM80.6552 54.0256C80.7334 54.0145 80.806 53.9811 80.8897 53.9309C81.2472 53.7248 81.4035 53.5243 81.236 53.4184C81.169 53.502 81.0517 53.5967 80.8897 53.6914C80.8004 53.7415 80.7334 53.775 80.6552 53.7861C80.5658 53.7972 80.4262 53.7917 80.3257 53.7304C80.3034 53.7192 80.2922 53.697 80.2754 53.6858C80.2196 53.7527 80.1972 53.8139 80.2252 53.8697C80.3257 53.8864 80.4318 53.8919 80.5212 53.8919L80.5267 53.8975C80.4653 53.9309 80.415 53.9588 80.3592 53.9866C80.4597 54.0256 80.577 54.0368 80.6552 54.0256ZM72.1664 48.6613C71.284 48.9008 70.8428 49.0568 70.1056 48.6334C69.8934 48.5109 69.7482 48.4162 69.67 48.3326C69.5192 48.4942 69.6756 48.6334 70.1056 48.8785C70.8428 49.3019 71.284 49.1459 72.1664 48.9064L72.1887 48.9175L72.4121 48.8005L72.1664 48.6613ZM64.8113 42.3333C64.99 42.0993 65.1129 41.8486 65.057 41.6091C65.0124 41.8319 64.856 42.0547 64.6773 42.2553L64.8113 42.3333ZM60.4943 43.4529C60.9411 43.7092 61.0975 43.7259 61.3265 43.5978L62.2423 43.0686C62.4657 42.9404 62.516 42.8792 62.3708 42.7455C62.3373 42.7678 62.2982 42.7956 62.2423 42.829L61.3265 43.3582C61.0975 43.4863 60.9467 43.4752 60.4943 43.2134C60.243 43.0686 60.1201 42.9126 60.0866 42.7455C60.0252 42.985 60.1146 43.2357 60.4943 43.4529ZM62.3094 42.1383L62.0636 42.2776C62.1418 42.3277 62.2033 42.3723 62.2591 42.4112L62.3094 42.3834L64.0574 43.3916L64.2696 43.2691L62.3094 42.1383ZM72.4736 49.8589L75.7015 47.9984C75.9417 47.8591 75.9919 47.7979 75.8412 47.6642C75.8076 47.692 75.763 47.7199 75.7015 47.7533L72.4736 49.6138C72.1441 49.8032 72.0603 49.7921 71.58 49.5414L71.3343 49.6807L71.5465 49.8032L71.58 49.7809C72.0603 50.0372 72.1441 50.0483 72.4736 49.8589ZM84.5924 56.7384C84.4193 56.6382 84.1847 56.6382 84.0172 56.7384C83.872 56.822 83.8552 56.9334 83.9613 57.0281C83.9781 57.0114 83.9893 57.0002 84.0172 56.9835C84.1903 56.8833 84.4249 56.8833 84.5924 56.9835C84.6148 56.9947 84.6259 57.0114 84.6483 57.0281C84.7488 56.939 84.7376 56.8276 84.5924 56.7384ZM63.7 44.8622C63.7614 44.4389 64.1579 44.0155 64.8616 43.6089C66.3248 42.7678 67.9276 42.6786 69.4187 43.5365C70.061 43.9041 70.396 44.2829 70.4575 44.6673C70.5245 44.2049 70.195 43.7426 69.4187 43.2914C67.9276 42.4335 66.3248 42.5171 64.8616 43.3638C64.0239 43.854 63.6162 44.3609 63.7 44.8622ZM60.1201 40.9184C61.0137 40.4003 62.8287 39.7486 64.9063 40.9406C65.3363 41.1913 65.744 41.4866 65.9841 41.7874L66.107 41.7149C65.9171 41.3529 65.4201 40.9908 64.9063 40.6955C62.8343 39.5035 61.0193 40.1608 60.1201 40.6733C59.2098 41.1969 58.9418 41.7038 59.0088 42.1439C59.0591 41.7651 59.3718 41.3529 60.1201 40.9184ZM68.6815 47.6753L71.9095 45.8148C72.1496 45.6755 72.1999 45.6143 72.0491 45.4806C72.0156 45.5084 71.9709 45.5363 71.9095 45.5697L68.6815 47.4302C68.352 47.6196 68.2683 47.6085 67.788 47.3578L67.5422 47.4971L67.7545 47.6196L67.788 47.5973C68.2683 47.8536 68.352 47.8647 68.6815 47.6753ZM72.0268 45.1575L73.9535 46.266L74.1657 46.1434L72.0268 44.9124L71.7811 45.0516C71.8648 45.1018 71.9263 45.1463 71.9765 45.1798L72.0268 45.1575ZM65.0347 46.0655C65.9897 46.6169 67.3635 45.9596 68.1454 45.5028C68.7653 45.1463 69.6086 44.5726 69.4578 44.0824C69.3405 44.5113 68.6648 44.9625 68.1454 45.2633C67.3635 45.7145 65.9897 46.3718 65.0347 45.8259C64.8392 45.7145 64.7387 45.592 64.6996 45.4583C64.6382 45.6755 64.7164 45.8872 65.0347 46.0655ZM75.8188 47.3411L78.0415 48.6223C78.8066 49.0735 79.1752 49.4634 79.2367 49.8534C79.2423 49.8088 79.2478 49.7587 79.2478 49.7141C79.2423 49.2852 78.8792 48.8674 78.0415 48.3772L75.8188 47.096L75.5731 47.2353C75.6569 47.2854 75.7183 47.3299 75.7686 47.3634L75.8188 47.3411ZM77.0251 50.3268C75.3162 51.3128 74.3333 51.0677 73.7022 50.7056C73.5738 50.6332 73.4844 50.5719 73.423 50.5162C73.2666 50.6277 73.3224 50.7335 73.7022 50.9507C74.3389 51.3184 75.3162 51.5579 77.0251 50.5719C77.8461 50.0985 78.2091 49.664 78.1141 49.2796C78.0415 49.5971 77.6785 49.9481 77.0251 50.3268Z" fill="#D99027"/>
<path d="M76.7683 68.9153L64.0854 76.2683L64.1301 93.3194L86.3406 80.4795L76.7683 68.9153Z" fill="#FFA94D"/>
<path d="M24.1211 53.2568L36.804 45.9038L76.7683 68.9153L64.0854 76.2683L24.1211 53.2568Z" fill="#FFE499"/>
<path d="M64.0854 76.2683L24.1211 53.2568L13.27 64.0301L64.1301 93.3195L64.0854 76.2683Z" fill="#EF8E35"/>
<path opacity="0.3" d="M42.5124 53.5911C43.0262 53.8864 43.5233 54.2485 43.7131 54.6105L42.5292 55.2901L42.2834 55.1509C42.6576 54.7275 42.9648 54.1983 42.2444 53.7861C41.1107 53.1344 39.6195 53.8028 38.9605 54.1872C38.4858 54.4601 36.9333 55.4294 38.1061 56.1034C38.5529 56.3597 38.7092 56.3764 38.9382 56.2483L39.8541 55.7191C40.1724 55.5352 40.1501 55.4851 39.681 55.1787L39.9267 55.0395L41.8869 56.1647L41.6412 56.304C41.2949 56.1424 41.2112 56.1313 40.9096 56.3095L39.7033 57.0058C39.0499 56.861 38.3071 56.5602 37.8157 56.2761C37.3856 56.031 36.816 55.6578 36.6596 55.201C36.4977 54.7275 36.7099 54.1649 37.7375 53.5744C38.6255 53.0564 40.4405 52.3991 42.5124 53.5911ZM47.0249 56.1925C48.516 57.0504 48.3652 57.9751 46.902 58.8162C45.4388 59.6574 43.836 59.7465 42.3449 58.8886C40.8538 58.0308 41.0045 57.1061 42.4677 56.265C43.9365 55.4183 45.5338 55.3347 47.0249 56.1925ZM42.6464 58.716C43.6014 59.2674 44.9753 58.6101 45.7571 58.1533C46.539 57.7021 47.6839 56.9111 46.7289 56.3597C45.7739 55.8082 44.4001 56.4655 43.6182 56.9223C42.8307 57.3791 41.7026 58.1756 42.6464 58.716ZM45.3941 60.2478C45.8744 60.5041 45.9582 60.5152 46.2877 60.3202L49.5157 58.4597C49.8452 58.2703 49.8284 58.2202 49.3872 57.9472L49.6329 57.808L51.7719 59.039L51.5262 59.1783C50.9677 58.8775 50.8839 58.8664 50.5544 59.0613L47.4661 60.8383C47.0528 61.0778 47.1701 61.2115 47.7118 61.5235C48.449 61.9468 48.8902 61.7908 49.7726 61.5513L50.0183 61.6906L48.6389 62.398L45.1428 60.3871L45.3941 60.2478ZM49.1917 62.4314C49.672 62.6877 49.7558 62.6988 50.0853 62.5039L53.3133 60.6433C53.6428 60.4539 53.626 60.4038 53.1848 60.1253L53.4305 59.986L55.6533 61.2672C56.491 61.7574 56.854 62.1752 56.8596 62.6041C56.8652 63.0331 56.5077 63.4564 55.7817 63.8742C53.6316 65.1108 51.8892 64.2697 50.8783 63.6848L48.9404 62.5707L49.1917 62.4314ZM51.3084 63.5957C51.945 63.9633 52.9223 64.2028 54.6313 63.2169C55.8822 62.4983 56.0833 61.8633 55.2177 61.3675C54.81 61.1335 54.648 61.0778 54.4972 61.1614L51.0738 63.1333C50.8672 63.2503 50.9007 63.3617 51.3084 63.5957ZM58.965 65.9631C59.261 66.1358 59.3503 66.3029 59.3001 66.4756C59.2442 66.6427 59.0432 66.8154 58.7249 66.9992C58.2837 67.2555 57.8927 67.3724 57.5688 67.3836C57.2673 67.3947 56.9992 67.3112 56.7535 67.1663C56.2899 66.8989 56.3793 66.6594 56.4966 66.5926C56.625 66.5202 56.8484 66.548 56.9378 66.6037C57.0104 66.6483 57.0271 66.6928 56.9824 66.743C56.8037 66.9491 56.8205 67.0326 56.9322 67.0995C57.0941 67.1942 57.3845 67.2053 58.1329 66.7875L58.1273 66.782C57.943 66.782 57.7029 66.7597 57.5297 66.6594C57.2002 66.47 57.0997 66.1859 57.5186 65.9408C57.9151 65.718 58.4903 65.6902 58.965 65.9631ZM57.9374 66.6204C58.0379 66.6761 58.1776 66.6873 58.2669 66.6761C58.3451 66.665 58.4177 66.6316 58.5015 66.5814C58.8701 66.3698 59.0264 66.1636 58.8421 66.0578C58.6634 65.952 58.373 66.0021 58.077 66.1748C57.8146 66.3252 57.7364 66.5034 57.9374 66.6204ZM60.7019 66.9658C60.9978 67.1385 61.0872 67.3056 61.0369 67.4783C60.9811 67.6454 60.78 67.8181 60.4617 68.0019C60.0205 68.2581 59.6296 68.3751 59.3057 68.3863C59.0041 68.3974 58.736 68.3138 58.4903 68.169C58.0268 67.9016 58.1161 67.6621 58.2334 67.5953C58.3619 67.5228 58.5852 67.5507 58.6746 67.6064C58.7472 67.651 58.764 67.6955 58.7193 67.7457C58.5406 67.9518 58.5573 68.0353 58.669 68.1022C58.831 68.1969 59.1214 68.208 59.8697 67.7902L59.8641 67.7846C59.6798 67.7846 59.4397 67.7624 59.2666 67.6621C58.9371 67.4727 58.8366 67.1886 59.2554 66.9435C59.6575 66.7207 60.2272 66.6928 60.7019 66.9658ZM59.6743 67.6231C59.7748 67.6788 59.9144 67.69 60.0038 67.6788C60.0819 67.6677 60.1546 67.6342 60.2383 67.5841C60.6069 67.3724 60.7633 67.1663 60.579 67.0605C60.4003 66.9547 60.1099 67.0048 59.8139 67.1775C59.5514 67.3279 59.4732 67.5061 59.6743 67.6231ZM62.4387 67.9685C62.7347 68.1412 62.824 68.3083 62.7738 68.481C62.7179 68.6481 62.5169 68.8208 62.1986 69.0046C61.7574 69.2608 61.3664 69.3778 61.0425 69.3889C60.7409 69.4001 60.4729 69.3165 60.2272 69.1717C59.7636 68.9043 59.853 68.6648 59.9703 68.5979C60.0987 68.5255 60.3221 68.5534 60.4114 68.6091C60.4841 68.6536 60.5008 68.6982 60.4561 68.7483C60.2774 68.9544 60.2942 69.038 60.4059 69.1048C60.5678 69.1995 60.8582 69.2107 61.6066 68.7929L61.601 68.7873C61.4167 68.7873 61.1766 68.765 61.0034 68.6648C60.6739 68.4754 60.5734 68.1913 60.9923 67.9462C61.3944 67.7178 61.964 67.6899 62.4387 67.9685ZM61.4167 68.6202C61.5172 68.6759 61.6568 68.6871 61.7462 68.6759C61.8244 68.6648 61.897 68.6314 61.9808 68.5812C62.3493 68.3695 62.5057 68.1634 62.3214 68.0576C62.1427 67.9518 61.8523 68.0019 61.5563 68.1746C61.2882 68.3306 61.2156 68.5032 61.4167 68.6202ZM62.1986 69.634C62.3717 69.7343 62.3717 69.868 62.1986 69.9683C62.0254 70.0685 61.7909 70.0685 61.6233 69.9683C61.4502 69.868 61.4502 69.7343 61.6233 69.634C61.7965 69.5393 62.031 69.5393 62.1986 69.634Z" fill="#D99027"/>
<path opacity="0.6" d="M61.6171 69.0323C61.2596 69.2329 61.0027 69.3276 60.8184 69.3721C60.6453 69.3498 60.4834 69.2941 60.327 69.2162C60.3326 69.1827 60.3549 69.1326 60.3884 69.0825C60.394 69.088 60.3996 69.0936 60.4108 69.0992C60.5392 69.1716 60.757 69.1939 61.2317 68.9822C61.3602 69.0156 61.4942 69.0323 61.6059 69.0323H61.6171ZM59.0202 67.4225C59.0593 67.3445 59.1319 67.2665 59.2659 67.1885C59.5172 67.0437 59.8411 66.9935 60.165 67.0381C60.327 66.9991 60.4778 66.9991 60.5839 67.0604C60.6397 67.0938 60.6565 67.1384 60.6509 67.1885C60.6677 67.1997 60.69 67.1997 60.7067 67.2108C60.8799 67.3111 60.9804 67.4113 61.0251 67.5116C61.0307 67.5005 61.0418 67.4893 61.0418 67.4782C61.0921 67.3111 61.0027 67.1384 60.7067 66.9657C60.232 66.6927 59.6568 66.7206 59.2659 66.9434C58.9978 67.0994 58.942 67.2665 59.0202 67.4225ZM59.869 68.0296C59.7573 68.0296 59.6233 68.0129 59.4949 67.9795C59.0202 68.1912 58.8024 68.1745 58.6739 68.0965C58.6627 68.0909 58.6627 68.0854 58.6516 68.0798C58.6181 68.1299 58.5901 68.1801 58.5901 68.2135C58.7465 68.2915 58.9085 68.3472 59.0816 68.3694C59.2659 68.3305 59.5172 68.2302 59.8802 68.0296H59.869ZM56.5015 66.5925C56.4289 66.6315 56.3674 66.7429 56.4456 66.8877C56.4624 66.8654 56.4791 66.8487 56.5015 66.8376C56.6243 66.7707 56.8198 66.793 56.9203 66.8376C56.9426 66.8097 56.9594 66.7819 56.9929 66.7429C57.0376 66.6927 57.0264 66.6482 56.9482 66.6036C56.8533 66.5479 56.6299 66.5145 56.5015 66.5925ZM57.5235 66.1858C57.7748 66.041 58.0931 65.9909 58.4226 66.0354C58.5846 65.9964 58.7353 65.9964 58.8414 66.0577C58.8973 66.0911 58.9141 66.1357 58.9085 66.1858C58.9252 66.197 58.9476 66.197 58.9643 66.2081C59.1374 66.3084 59.238 66.4086 59.2826 66.5089C59.2882 66.4978 59.2994 66.4866 59.2994 66.4755C59.3497 66.3084 59.2603 66.1357 58.9643 65.963C58.4896 65.6901 57.9144 65.7179 57.5235 65.9407C57.2554 66.0967 57.1995 66.2638 57.2777 66.4198C57.3224 66.3418 57.395 66.2638 57.5235 66.1858ZM56.9147 67.0771C56.8812 67.1272 56.8533 67.1774 56.8533 67.2108C57.0097 67.2888 57.1716 67.3445 57.3447 67.3668C57.529 67.3278 57.7804 67.2275 58.1434 67.027L58.1378 67.0214C58.0261 67.0214 57.892 67.0047 57.7636 66.9713C57.2889 67.1829 57.0711 67.1662 56.9426 67.0882C56.9259 67.0938 56.9203 67.0827 56.9147 67.0771ZM59.9751 68.8374C60.098 68.7705 60.2935 68.7928 60.394 68.8374C60.4163 68.8095 60.4331 68.7817 60.4666 68.7427C60.5113 68.6925 60.5001 68.648 60.4219 68.6034C60.3326 68.5533 60.1092 68.5198 59.9807 68.5923C59.9081 68.6313 59.8467 68.7427 59.9249 68.8875C59.9361 68.8652 59.9528 68.8485 59.9751 68.8374ZM58.2383 67.8347C58.3612 67.7678 58.5566 67.7901 58.6572 67.8347C58.6795 67.8068 58.6962 67.779 58.7298 67.74C58.7744 67.6899 58.7633 67.6453 58.6851 67.6007C58.5957 67.5506 58.3723 67.5172 58.2439 67.5896C58.1713 67.6286 58.1099 67.74 58.188 67.8848C58.1992 67.8681 58.216 67.8458 58.2383 67.8347ZM60.757 68.4196C60.7961 68.3416 60.8743 68.2636 61.0027 68.1856C61.2541 68.0408 61.5724 67.9907 61.9019 68.0352C62.0638 67.9962 62.2146 67.9962 62.3207 68.0575C62.3766 68.0909 62.3933 68.1355 62.3877 68.1856C62.4045 68.1968 62.4268 68.1968 62.4436 68.2079C62.6167 68.3082 62.7172 68.4084 62.7619 68.5087C62.7675 68.4976 62.7787 68.4864 62.7787 68.4753C62.8289 68.3082 62.7396 68.1355 62.4436 67.9628C61.9689 67.6899 61.3937 67.7177 61.0027 67.9405C60.7347 68.0965 60.6788 68.2692 60.757 68.4196ZM59.8802 67.7845C59.8188 67.818 59.7685 67.8458 59.7127 67.8737C59.8076 67.9182 59.9249 67.9294 60.0087 67.9182C60.0868 67.9071 60.1594 67.8737 60.2432 67.8235C60.6006 67.6174 60.757 67.4169 60.5895 67.3111C60.5225 67.3946 60.4052 67.4893 60.2432 67.584C60.1539 67.6341 60.0868 67.6676 60.0087 67.6787C59.9193 67.6899 59.7797 67.6843 59.6792 67.623C59.6568 67.6119 59.6457 67.5896 59.6289 67.5784C59.573 67.6453 59.5507 67.7066 59.5786 67.7623C59.6792 67.779 59.7853 67.7845 59.8746 67.7845H59.8802ZM61.6171 68.7872C61.5556 68.8207 61.5054 68.8485 61.4495 68.8764C61.5445 68.9209 61.6617 68.9321 61.7455 68.9209C61.8237 68.9098 61.8963 68.8764 61.9801 68.8262C62.3375 68.6201 62.4939 68.4196 62.3263 68.3137C62.2593 68.3973 62.142 68.492 61.9801 68.5867C61.8907 68.6368 61.8237 68.6703 61.7455 68.6814C61.6562 68.6925 61.5165 68.687 61.416 68.6257C61.3937 68.6145 61.3825 68.5923 61.3657 68.5811C61.3099 68.648 61.2876 68.7092 61.3155 68.7649C61.416 68.7817 61.5221 68.7872 61.6115 68.7872H61.6171ZM58.2662 66.9156C58.3444 66.9044 58.417 66.871 58.5008 66.8209C58.8582 66.6148 59.0146 66.4142 58.847 66.3084C58.78 66.3919 58.6627 66.4866 58.5008 66.5813C58.4114 66.6315 58.3444 66.6649 58.2662 66.676C58.1769 66.6872 58.0373 66.6816 57.9367 66.6203C57.9144 66.6092 57.9032 66.5869 57.8865 66.5758C57.8306 66.6426 57.8083 66.7039 57.8362 66.7596C57.9367 66.7763 58.0428 66.7819 58.1322 66.7819L58.1378 66.7874C58.0763 66.8209 58.0261 66.8487 57.9702 66.8766C58.0652 66.9156 58.188 66.9267 58.2662 66.9156ZM49.7774 61.5568C48.8951 61.7963 48.4539 61.9523 47.7167 61.5289C47.5045 61.4064 47.3593 61.3117 47.2811 61.2281C47.1303 61.3897 47.2867 61.5289 47.7167 61.774C48.4539 62.1974 48.8951 62.0414 49.7774 61.8019L49.7998 61.813L50.0232 61.6961L49.7774 61.5568ZM42.4224 55.2288C42.6011 54.9948 42.7239 54.7441 42.6681 54.5046C42.6234 54.7274 42.467 54.9502 42.2883 55.1508L42.4224 55.2288ZM38.1054 56.3429C38.5522 56.5991 38.7085 56.6158 38.9375 56.4877L39.8534 55.9585C40.0768 55.8304 40.127 55.7691 39.9818 55.6354C39.9483 55.6577 39.9092 55.6855 39.8534 55.719L38.9375 56.2482C38.7085 56.3763 38.5577 56.3651 38.1054 56.1033C37.8541 55.9585 37.7312 55.8025 37.6977 55.6354C37.6307 55.8805 37.7256 56.1312 38.1054 56.3429ZM39.9204 55.0338L39.6747 55.1731C39.7529 55.2232 39.8143 55.2678 39.8702 55.3068L39.9204 55.2789L41.6684 56.2872L41.8807 56.1646L39.9204 55.0338ZM50.0846 62.7544L53.3126 60.8939C53.5527 60.7546 53.603 60.6934 53.4522 60.5597C53.4187 60.5875 53.374 60.6154 53.3126 60.6488L50.0846 62.5093C49.7551 62.6987 49.6713 62.6876 49.1911 62.4369L48.9453 62.5762L49.1575 62.6987L49.1911 62.6765C49.6713 62.9327 49.7551 62.9438 50.0846 62.7544ZM62.1979 69.6339C62.0247 69.5337 61.7902 69.5337 61.6226 69.6339C61.4774 69.7175 61.4607 69.8289 61.5668 69.9236C61.5836 69.9069 61.5947 69.8958 61.6226 69.879C61.7958 69.7788 62.0303 69.7788 62.1979 69.879C62.2202 69.8902 62.237 69.9069 62.2537 69.9236C62.3598 69.8289 62.3487 69.7175 62.1979 69.6339ZM41.311 57.7577C41.3724 57.3344 41.769 56.911 42.4726 56.5044C43.9358 55.6633 45.5386 55.5741 47.0298 56.432C47.672 56.7996 48.0071 57.1784 48.0685 57.5628C48.1355 57.1004 47.806 56.6381 47.0298 56.1869C45.5386 55.329 43.9358 55.4126 42.4726 56.2593C41.6349 56.7439 41.2272 57.2508 41.311 57.7577ZM37.7256 53.8139C38.6192 53.3014 40.4342 52.6441 42.5117 53.8362C42.9417 54.0868 43.3494 54.3821 43.5896 54.6829L43.7124 54.6104C43.5226 54.2484 43.0255 53.8863 42.5117 53.5911C40.4398 52.399 38.6248 53.0563 37.7256 53.5688C36.8153 54.0924 36.5472 54.5993 36.6143 55.0394C36.6701 54.6606 36.9828 54.2428 37.7256 53.8139ZM46.287 60.5653L49.515 58.7047C49.7551 58.5655 49.8054 58.5042 49.6546 58.3705C49.6211 58.3983 49.5764 58.4262 49.515 58.4596L46.287 60.3202C45.9575 60.5095 45.8737 60.4984 45.3934 60.2477L45.1477 60.387L45.3599 60.5095L45.3934 60.4873C45.8737 60.7435 45.9575 60.7602 46.287 60.5653ZM49.6378 58.053L51.5646 59.1615L51.7768 59.039L49.6378 57.8079L49.3921 57.9471C49.4759 57.9973 49.5373 58.0418 49.5876 58.0753L49.6378 58.053ZM42.6458 58.961C43.6007 59.5069 44.9746 58.8551 45.7564 58.3984C46.3764 58.0418 47.2196 57.4681 47.0689 56.9779C46.9516 57.4068 46.2758 57.858 45.7564 58.1588C44.9746 58.61 43.6007 59.2673 42.6458 58.7214C42.4503 58.61 42.3498 58.4875 42.3107 58.3538C42.2492 58.5655 42.3274 58.7771 42.6458 58.961ZM53.4299 60.2366L55.6526 61.5178C56.4177 61.969 56.7863 62.3589 56.8477 62.7489C56.8533 62.7043 56.8589 62.6542 56.8589 62.6096C56.8533 62.1807 56.4903 61.7629 55.6526 61.2727L53.4299 59.9915L53.1841 60.1308C53.2679 60.1809 53.3293 60.2255 53.3796 60.2589L53.4299 60.2366ZM54.6362 63.2168C52.9272 64.2028 51.9443 63.9577 51.3132 63.5956C51.1848 63.5232 51.0954 63.4619 51.034 63.4062C50.8776 63.5176 50.9335 63.6234 51.3132 63.8407C51.9499 64.2083 52.9272 64.4479 54.6362 63.4619C55.4571 62.9884 55.8201 62.5539 55.7252 62.1695C55.647 62.4926 55.2896 62.8436 54.6362 63.2168Z" fill="#D99027"/>
<path d="M84.707 53.0461L73.6631 59.4489L73.702 74.2965L93.0422 63.1159L84.707 53.0461Z" fill="#FFA94D"/>
<path d="M38.8633 39.4111L49.9072 33.0083L84.7069 53.046L73.663 59.4488L38.8633 39.4111Z" fill="#FFE499"/>
<path d="M73.6631 59.4489L38.8634 39.4111L29.4146 48.7922L73.702 74.2965L73.6631 59.4489Z" fill="#EF8E35"/>
<path opacity="0.3" d="M54.8782 39.7022C55.3256 39.9593 55.7584 40.2746 55.9237 40.5899L54.8928 41.1816L54.6788 41.0604C55.0046 40.6917 55.2721 40.2309 54.6448 39.872C53.6576 39.3045 52.3591 39.8865 51.7853 40.2212C51.3719 40.4589 50.02 41.3029 51.0413 41.8898C51.4303 42.113 51.5665 42.1275 51.7659 42.0159L52.5634 41.5551C52.8406 41.3951 52.8211 41.3514 52.4126 41.0846L52.6266 40.9634L54.3335 41.9432L54.1195 42.0645C53.818 41.9238 53.7451 41.9141 53.4825 42.0693L52.4321 42.6756C51.8631 42.5495 51.2163 42.2876 50.7884 42.0402C50.4139 41.8268 49.9179 41.5018 49.7817 41.104C49.6407 40.6917 49.8255 40.2018 50.7203 39.6877C51.4935 39.2366 53.074 38.6642 54.8782 39.7022ZM58.8075 41.9674C60.1059 42.7144 59.9746 43.5196 58.7005 44.2521C57.4264 44.9845 56.0307 45.0621 54.7323 44.3151C53.4339 43.5681 53.5652 42.7629 54.8393 42.0305C56.1182 41.2932 57.5091 41.2205 58.8075 41.9674ZM54.9949 44.1648C55.8265 44.645 57.0228 44.0726 57.7036 43.6748C58.3844 43.2819 59.3813 42.5932 58.5498 42.113C57.7182 41.6328 56.5219 42.2051 55.8411 42.6029C55.1554 43.0006 54.173 43.6942 54.9949 44.1648ZM57.3875 45.4987C57.8057 45.7218 57.8787 45.7315 58.1656 45.5617L60.9764 43.9416C61.2633 43.7767 61.2487 43.7331 60.8645 43.4954L61.0785 43.3741L62.9411 44.4461L62.7271 44.5674C62.2408 44.3054 62.1678 44.2957 61.8809 44.4655L59.1917 46.0128C58.8318 46.2214 58.9339 46.3378 59.4056 46.6094C60.0476 46.9781 60.4317 46.8423 61.2001 46.6337L61.4141 46.755L60.2129 47.371L57.1687 45.6199L57.3875 45.4987ZM60.6943 47.4001C61.1126 47.6232 61.1855 47.6329 61.4724 47.4631L64.2832 45.8431C64.5702 45.6781 64.5556 45.6345 64.1714 45.392L64.3854 45.2707L66.3209 46.3863C67.0503 46.8132 67.3664 47.177 67.3713 47.5505C67.3761 47.924 67.0649 48.2926 66.4327 48.6564C64.5604 49.7332 63.0432 49.0008 62.163 48.4915L60.4755 47.5214L60.6943 47.4001ZM62.5374 48.4139C63.0918 48.734 63.9428 48.9426 65.4309 48.084C66.5202 47.4583 66.6953 46.9053 65.9415 46.4736C65.5865 46.2699 65.4455 46.2214 65.3142 46.2942L62.3332 48.0113C62.1532 48.1131 62.1824 48.2101 62.5374 48.4139ZM69.2046 50.4754C69.4624 50.6257 69.5402 50.7712 69.4964 50.9216C69.4478 51.0671 69.2727 51.2175 68.9955 51.3776C68.6113 51.6007 68.2709 51.7026 67.9889 51.7123C67.7263 51.722 67.4928 51.6492 67.2789 51.5231C66.8752 51.2903 66.953 51.0817 67.0552 51.0235C67.167 50.9604 67.3615 50.9847 67.4393 51.0332C67.5026 51.072 67.5172 51.1108 67.4782 51.1544C67.3226 51.3339 67.3372 51.4067 67.4345 51.4649C67.5755 51.5473 67.8284 51.557 68.48 51.1932L68.4752 51.1884C68.3147 51.1884 68.1056 51.169 67.9548 51.0817C67.6679 50.9168 67.5804 50.6694 67.9451 50.456C68.2904 50.2619 68.7913 50.2377 69.2046 50.4754ZM68.3098 51.0477C68.3974 51.0962 68.5189 51.1059 68.5967 51.0962C68.6648 51.0865 68.728 51.0574 68.801 51.0138C69.1219 50.8294 69.2581 50.65 69.0976 50.5578C68.942 50.4657 68.6891 50.5093 68.4314 50.6597C68.2028 50.7906 68.1348 50.9459 68.3098 51.0477ZM70.717 51.3485C70.9748 51.4988 71.0526 51.6443 71.0088 51.7947C70.9602 51.9402 70.7851 52.0906 70.5079 52.2507C70.1237 52.4738 69.7833 52.5757 69.5013 52.5854C69.2387 52.5951 69.0052 52.5223 68.7913 52.3962C68.3876 52.1634 68.4654 51.9548 68.5676 51.8966C68.6794 51.8335 68.8739 51.8578 68.9517 51.9063C69.015 51.9451 69.0295 51.9839 68.9906 52.0275C68.835 52.207 68.8496 52.2798 68.9469 52.338C69.0879 52.4204 69.3408 52.4301 69.9924 52.0663L69.9876 52.0615C69.8271 52.0615 69.618 52.0421 69.4672 51.9548C69.1803 51.7899 69.0928 51.5425 69.4575 51.3291C69.8076 51.135 70.3037 51.1108 70.717 51.3485ZM69.8222 51.9208C69.9098 51.9693 70.0313 51.979 70.1091 51.9693C70.1772 51.9596 70.2404 51.9305 70.3134 51.8869C70.6343 51.7026 70.7705 51.5231 70.61 51.4309C70.4544 51.3388 70.2015 51.3824 69.9438 51.5328C69.7152 51.6637 69.6472 51.819 69.8222 51.9208ZM72.2294 52.2216C72.4872 52.3719 72.565 52.5174 72.5212 52.6678C72.4726 52.8133 72.2975 52.9637 72.0203 53.1238C71.6361 53.3469 71.2957 53.4488 71.0137 53.4585C70.7511 53.4682 70.5176 53.3954 70.3037 53.2693C69.9 53.0365 69.9778 52.8279 70.08 52.7697C70.1918 52.7066 70.3863 52.7309 70.4641 52.7794C70.5274 52.8182 70.5419 52.857 70.503 52.9006C70.3474 53.0801 70.362 53.1529 70.4593 53.2111C70.6003 53.2935 70.8532 53.3032 71.5048 52.9394L71.5 52.9346C71.3395 52.9346 71.1304 52.9152 70.9796 52.8279C70.6927 52.663 70.6052 52.4156 70.9699 52.2022C71.32 52.0033 71.8161 51.979 72.2294 52.2216ZM71.3395 52.7891C71.427 52.8376 71.5486 52.8473 71.6264 52.8376C71.6945 52.8279 71.7577 52.7988 71.8306 52.7551C72.1516 52.5708 72.2878 52.3913 72.1273 52.2992C71.9717 52.207 71.7188 52.2507 71.4611 52.401C71.2276 52.5369 71.1644 52.6872 71.3395 52.7891ZM72.0203 53.6719C72.1711 53.7592 72.1711 53.8756 72.0203 53.9629C71.8695 54.0502 71.6653 54.0502 71.5194 53.9629C71.3687 53.8756 71.3687 53.7592 71.5194 53.6719C71.6702 53.5894 71.8744 53.5894 72.0203 53.6719Z" fill="#D99027"/>
<path opacity="0.6" d="M71.5136 53.1479C71.2024 53.3225 70.9787 53.405 70.8182 53.4438C70.6675 53.4244 70.5264 53.3759 70.3903 53.308C70.3951 53.2789 70.4146 53.2352 70.4438 53.1915C70.4486 53.1964 70.4535 53.2012 70.4632 53.2061C70.5751 53.2692 70.7647 53.2886 71.1781 53.1042C71.2899 53.1333 71.4066 53.1479 71.5039 53.1479H71.5136ZM69.2523 51.7461C69.2864 51.6782 69.3496 51.6103 69.4663 51.5423C69.6851 51.4162 69.9672 51.3726 70.2492 51.4114C70.3903 51.3774 70.5216 51.3774 70.614 51.4308C70.6626 51.4599 70.6772 51.4987 70.6723 51.5423C70.6869 51.552 70.7064 51.552 70.7209 51.5617C70.8717 51.6491 70.9592 51.7364 70.9981 51.8237C71.003 51.814 71.0127 51.8043 71.0127 51.7946C71.0565 51.6491 70.9787 51.4987 70.7209 51.3483C70.3076 51.1106 69.8067 51.1349 69.4663 51.3289C69.2329 51.4647 69.1842 51.6103 69.2523 51.7461ZM69.9915 52.2748C69.8942 52.2748 69.7775 52.2602 69.6657 52.2311C69.2523 52.4154 69.0627 52.4009 68.9508 52.333C68.9411 52.3281 68.9411 52.3233 68.9314 52.3184C68.9022 52.3621 68.8779 52.4057 68.8779 52.4349C69.014 52.5028 69.1551 52.5513 69.3058 52.5707C69.4663 52.5367 69.6851 52.4494 70.0012 52.2748H69.9915ZM67.0591 51.0233C66.9959 51.0573 66.9424 51.1543 67.0105 51.2804C67.0251 51.261 67.0396 51.2465 67.0591 51.2368C67.1661 51.1786 67.3363 51.198 67.4238 51.2368C67.4433 51.2125 67.4579 51.1883 67.487 51.1543C67.5259 51.1106 67.5162 51.0718 67.4481 51.033C67.3655 50.9845 67.1709 50.9554 67.0591 51.0233ZM67.949 50.6692C68.1679 50.5431 68.4451 50.4995 68.732 50.5383C68.873 50.5043 69.0043 50.5043 69.0967 50.5577C69.1453 50.5868 69.1599 50.6256 69.1551 50.6692C69.1696 50.6789 69.1891 50.6789 69.2037 50.6886C69.3544 50.776 69.442 50.8633 69.4809 50.9506C69.4857 50.9409 69.4955 50.9312 69.4955 50.9215C69.5392 50.776 69.4614 50.6256 69.2037 50.4752C68.7903 50.2375 68.2894 50.2618 67.949 50.4558C67.7156 50.5916 67.667 50.7371 67.7351 50.873C67.774 50.8051 67.8372 50.7372 67.949 50.6692ZM67.419 51.4453C67.3898 51.489 67.3655 51.5326 67.3655 51.5617C67.5016 51.6297 67.6427 51.6782 67.7934 51.6976C67.9539 51.6636 68.1727 51.5763 68.4888 51.4017L68.484 51.3968C68.3867 51.3968 68.27 51.3823 68.1581 51.3532C67.7448 51.5375 67.5551 51.5229 67.4433 51.455C67.4287 51.4599 67.4238 51.4502 67.419 51.4453ZM70.0839 52.9781C70.1909 52.9199 70.3611 52.9393 70.4486 52.9781C70.4681 52.9539 70.4827 52.9296 70.5118 52.8957C70.5507 52.852 70.541 52.8132 70.4729 52.7744C70.3951 52.7307 70.2006 52.7016 70.0888 52.7647C70.0255 52.7986 69.972 52.8957 70.0401 53.0218C70.0499 53.0024 70.0644 52.9878 70.0839 52.9781ZM68.5715 52.105C68.6785 52.0468 68.8487 52.0662 68.9362 52.105C68.9557 52.0808 68.9703 52.0565 68.9994 52.0226C69.0383 51.9789 69.0286 51.9401 68.9605 51.9013C68.8827 51.8576 68.6882 51.8285 68.5764 51.8916C68.5131 51.9255 68.4596 52.0226 68.5277 52.1487C68.5375 52.1341 68.552 52.1147 68.5715 52.105ZM70.7647 52.6143C70.7988 52.5464 70.8668 52.4785 70.9787 52.4106C71.1975 52.2845 71.4747 52.2408 71.7616 52.2796C71.9027 52.2457 72.034 52.2457 72.1264 52.299C72.175 52.3281 72.1896 52.3669 72.1847 52.4106C72.1993 52.4203 72.2188 52.4203 72.2333 52.43C72.3841 52.5173 72.4716 52.6046 72.5105 52.6919C72.5154 52.6822 72.5251 52.6725 72.5251 52.6628C72.5689 52.5173 72.4911 52.3669 72.2333 52.2166C71.82 51.9789 71.3191 52.0031 70.9787 52.1972C70.7453 52.333 70.6966 52.4834 70.7647 52.6143ZM70.0012 52.0614C69.9477 52.0905 69.904 52.1147 69.8553 52.139C69.938 52.1778 70.0401 52.1875 70.1131 52.1778C70.1812 52.1681 70.2444 52.139 70.3173 52.0953C70.6286 51.9158 70.7647 51.7412 70.6188 51.6491C70.5605 51.7218 70.4583 51.8043 70.3173 51.8867C70.2395 51.9304 70.1812 51.9595 70.1131 51.9692C70.0353 51.9789 69.9137 51.974 69.8262 51.9207C69.8067 51.911 69.797 51.8916 69.7824 51.8819C69.7338 51.9401 69.7143 51.9934 69.7386 52.042C69.8262 52.0565 69.9185 52.0614 69.9964 52.0614H70.0012ZM71.5136 52.9345C71.4601 52.9636 71.4164 52.9878 71.3677 53.0121C71.4504 53.0509 71.5525 53.0606 71.6255 53.0509C71.6936 53.0412 71.7568 53.0121 71.8297 52.9684C72.1409 52.7889 72.2771 52.6143 72.1312 52.5222C72.0729 52.5949 71.9707 52.6774 71.8297 52.7598C71.7519 52.8035 71.6936 52.8326 71.6255 52.8423C71.5477 52.852 71.4261 52.8472 71.3386 52.7938C71.3191 52.7841 71.3094 52.7647 71.2948 52.755C71.2462 52.8132 71.2267 52.8666 71.251 52.9151C71.3386 52.9296 71.4309 52.9345 71.5088 52.9345H71.5136ZM68.5958 51.3047C68.6639 51.295 68.7271 51.2659 68.8001 51.2222C69.1113 51.0427 69.2475 50.8681 69.1016 50.776C69.0432 50.8487 68.9411 50.9312 68.8001 51.0136C68.7222 51.0573 68.6639 51.0864 68.5958 51.0961C68.518 51.1058 68.3964 51.1009 68.3089 51.0476C68.2894 51.0379 68.2797 51.0185 68.2651 51.0088C68.2165 51.067 68.197 51.1203 68.2214 51.1689C68.3089 51.1834 68.4013 51.1883 68.4791 51.1883L68.484 51.1931C68.4305 51.2222 68.3867 51.2465 68.3381 51.2707C68.4207 51.3047 68.5277 51.3144 68.5958 51.3047ZM61.204 46.6384C60.4357 46.847 60.0515 46.9828 59.4096 46.6142C59.2248 46.5074 59.0983 46.425 59.0303 46.3522C58.899 46.4929 59.0351 46.6142 59.4096 46.8276C60.0515 47.1962 60.4357 47.0604 61.204 46.8518L61.2235 46.8615L61.418 46.7597L61.204 46.6384ZM54.7994 41.1282C54.9551 40.9244 55.062 40.7062 55.0134 40.4976C54.9745 40.6916 54.8383 40.8856 54.6827 41.0602L54.7994 41.1282ZM51.0403 42.0983C51.4294 42.3214 51.5655 42.3359 51.7649 42.2244L52.5624 41.7636C52.757 41.652 52.8007 41.5987 52.6743 41.4822C52.6451 41.5016 52.6111 41.5259 52.5624 41.555L51.7649 42.0158C51.5655 42.1274 51.4342 42.1177 51.0403 41.8897C50.8215 41.7636 50.7145 41.6278 50.6853 41.4822C50.627 41.6957 50.7096 41.9139 51.0403 42.0983ZM52.6208 40.9584L52.4068 41.0796C52.4749 41.1233 52.5284 41.1621 52.577 41.1961L52.6208 41.1718L54.1429 42.0498L54.3277 41.943L52.6208 40.9584ZM61.4715 47.6813L64.2823 46.0612C64.4914 45.9399 64.5352 45.8866 64.4039 45.7702C64.3747 45.7944 64.3358 45.8187 64.2823 45.8478L61.4715 47.4679C61.1846 47.6328 61.1116 47.6231 60.6934 47.4048L60.4794 47.5261L60.6642 47.6328L60.6934 47.6134C61.1116 47.8365 61.1846 47.8462 61.4715 47.6813ZM72.0194 53.6718C71.8686 53.5844 71.6644 53.5844 71.5185 53.6718C71.392 53.7445 71.3775 53.8415 71.4699 53.924C71.4844 53.9094 71.4942 53.8997 71.5185 53.8852C71.6692 53.7979 71.8735 53.7979 72.0194 53.8852C72.0388 53.8949 72.0534 53.9094 72.068 53.924C72.1604 53.8415 72.1507 53.7445 72.0194 53.6718ZM53.8317 43.3303C53.8852 42.9617 54.2305 42.593 54.8432 42.2389C56.1173 41.5065 57.513 41.4289 58.8114 42.1759C59.3707 42.496 59.6625 42.8259 59.7159 43.1605C59.7743 42.7579 59.4874 42.3553 58.8114 41.9625C57.513 41.2155 56.1173 41.2882 54.8432 42.0255C54.1138 42.4475 53.7588 42.8889 53.8317 43.3303ZM50.7096 39.8961C51.4877 39.4498 53.0682 38.8775 54.8772 39.9155C55.2517 40.1338 55.6067 40.3909 55.8158 40.6528L55.9228 40.5897C55.7575 40.2744 55.3246 39.9592 54.8772 39.7021C53.0731 38.6641 51.4926 39.2364 50.7096 39.6827C49.917 40.1386 49.6835 40.58 49.7419 40.9632C49.7905 40.6334 50.0629 40.2696 50.7096 39.8961ZM58.1646 45.775L60.9755 44.1549C61.1846 44.0336 61.2283 43.9803 61.097 43.8639C61.0679 43.8881 61.029 43.9124 60.9755 43.9415L58.1646 45.5616C57.8777 45.7265 57.8048 45.7168 57.3866 45.4985L57.1726 45.6198L57.3574 45.7265L57.3866 45.7071C57.8048 45.9302 57.8777 45.9448 58.1646 45.775ZM61.0825 43.5874L62.7602 44.5527L62.945 44.4459L61.0825 43.374L60.8685 43.4952C60.9414 43.5389 60.9949 43.5777 61.0387 43.6068L61.0825 43.5874ZM54.994 44.378C55.8255 44.8534 57.0218 44.2859 57.7027 43.8881C58.2425 43.5777 58.9768 43.0781 58.8455 42.6512C58.7433 43.0247 58.1549 43.4176 57.7027 43.6796C57.0218 44.0725 55.8255 44.6448 54.994 44.1695C54.8238 44.0725 54.7362 43.9657 54.7022 43.8493C54.6487 44.0336 54.7168 44.218 54.994 44.378ZM64.3844 45.4888L66.3199 46.6045C66.9862 46.9974 67.3071 47.3369 67.3606 47.6764C67.3655 47.6376 67.3703 47.594 67.3703 47.5552C67.3655 47.1817 67.0494 46.8179 66.3199 46.391L64.3844 45.2754L64.1705 45.3967C64.2434 45.4403 64.2969 45.4791 64.3407 45.5082L64.3844 45.4888ZM65.4349 48.0839C63.9468 48.9424 63.0909 48.729 62.5414 48.4137C62.4295 48.3507 62.3517 48.2973 62.2982 48.2488C62.162 48.3458 62.2107 48.438 62.5414 48.6271C63.0957 48.9473 63.9468 49.1559 65.4349 48.2973C66.1497 47.885 66.4658 47.5067 66.3831 47.172C66.3151 47.4533 66.0038 47.7589 65.4349 48.0839Z" fill="#D99027"/>
<circle cx="109.5" cy="111.5" r="23.5" fill="white"/>
</g>
<defs>
<clipPath id="clip0">
<rect width="122" height="122" rx="20" fill="white"/>
</clipPath>
</defs>
</svg>
