<svg width="101" height="101" viewBox="0 0 101 101" fill="none" xmlns="http://www.w3.org/2000/svg">
<g clip-path="url(#clip0)">
<rect width="101" height="101" rx="20" fill="#F8FDFF"/>
<g opacity="0.2" clip-path="url(#clip1)">
<path d="M75.7895 15.5355H77.7541C78.2028 13.3254 80.1577 11.6609 82.5001 11.6609C83.4864 11.6609 84.4049 11.9563 85.1701 12.4633L86.56 11.0733C85.4284 10.2257 84.0223 9.72363 82.5001 9.72363C79.0842 9.72363 76.2609 12.2502 75.7895 15.5355Z" fill="#FF2639"/>
<path d="M74.5416 23.0924L75.9202 21.7137C74.7853 20.2817 74.1057 18.4736 74.1057 16.504C74.1057 12.1952 77.3521 8.64672 81.5314 8.16562V6.21704C76.2802 6.7062 72.1686 11.1232 72.1686 16.5024C72.1686 19.0079 73.0597 21.3052 74.5416 23.0924Z" fill="#FF2639"/>
<path d="M90.8378 17.4727C90.3567 21.6523 86.8085 24.8989 82.5 24.8989C80.5306 24.8989 78.7226 24.2192 77.2907 23.0843L75.9121 24.463C77.7007 25.945 79.9963 26.8362 82.5 26.8362C87.8788 26.8362 92.2955 22.7243 92.7846 17.4727H90.8378Z" fill="#FF2639"/>
<path d="M83.4685 6.21851V8.16708C87.3299 8.61104 90.3922 11.6736 90.8377 15.5368H92.7845C92.3261 10.6032 88.4018 6.677 83.4685 6.21851Z" fill="#FF2639"/>
<path d="M81.5315 30.3506V28.4085C75.3875 27.9145 70.5543 22.7758 70.5543 16.5039C70.5543 13.5544 71.6262 10.8551 73.3987 8.77092L72.0249 7.39868C69.9038 9.83643 68.6172 13.0184 68.6172 16.5039C68.6172 23.8462 74.3172 29.8534 81.5315 30.3506Z" fill="#FF2639"/>
<path d="M92.9751 7.39868L91.6013 8.77092C93.3738 10.8551 94.4457 13.5544 94.4457 16.5039C94.4457 19.4534 93.3738 22.1527 91.6029 24.2369L92.9767 25.6108C95.0963 23.1714 96.3828 19.9894 96.3828 16.5039C96.3828 13.0184 95.0963 9.83643 92.9751 7.39868Z" fill="#FF2639"/>
<path d="M74.7676 7.40222C76.8516 5.62961 79.5507 4.55764 82.5 4.55764C85.4509 4.55764 88.1484 5.6296 90.2324 7.4006L91.6046 6.02836C89.167 3.90704 85.9853 2.62036 82.5 2.62036C79.0148 2.62036 75.833 3.90704 73.3954 6.02836L74.7676 7.40222Z" fill="#FF2639"/>
<path d="M90.2324 25.6077C88.3792 27.1833 86.0384 28.202 83.4685 28.4087V30.3508C86.5728 30.1361 89.3962 28.9027 91.6045 26.9799L90.2324 25.6077Z" fill="#FF2639"/>
<path d="M82.5 33.9396C91.8031 33.9396 99.4048 26.6521 99.9068 17.4727H97.9665C97.466 25.5802 90.7328 32.0023 82.5 32.0023C74.2671 32.0023 67.5339 25.5802 67.0335 17.4727H65.0931C65.5952 26.6521 73.1969 33.9396 82.5 33.9396Z" fill="#FF2639"/>
<path d="M65.0931 15.5354H67.0335C67.5146 7.74752 73.7441 1.51755 81.5314 1.03646V-0.904053C72.6738 -0.419732 65.5774 6.67718 65.0931 15.5354Z" fill="#FF2639"/>
<path d="M83.4685 -0.904053V1.03646C91.2558 1.51755 97.4853 7.74752 97.9664 15.5354H99.9068C99.4225 6.67718 92.3261 -0.419732 83.4685 -0.904053Z" fill="#FF2639"/>
<path d="M82.5001 -4.48315C70.9095 -4.48315 61.5143 4.91266 61.5143 16.5041C61.5143 27.771 70.3913 36.9617 81.5315 37.4687V35.5298C71.4616 35.0261 63.4515 26.7006 63.4515 16.5041C63.4515 5.983 71.9798 -2.54587 82.5001 -2.54587C93.0204 -2.54587 101.549 5.983 101.549 16.5041C101.549 26.7006 93.5385 35.0261 83.4686 35.5298V37.4687C94.6088 36.9617 103.486 27.771 103.486 16.5041C103.486 4.91266 94.0906 -4.48315 82.5001 -4.48315Z" fill="#FF2639"/>
<path d="M99.1514 34.5254L97.7809 33.1548C93.7581 36.8501 88.3922 39.1055 82.5001 39.1055C76.6079 39.1055 71.2436 36.8501 67.2192 33.1548L65.8487 34.5254C70.2234 38.5711 76.0736 41.0427 82.5001 41.0427C88.9281 41.0427 94.7767 38.5711 99.1514 34.5254Z" fill="#FF2639"/>
<path d="M64.4797 33.1567L65.8502 31.786C62.1551 27.763 59.9 22.3967 59.9 16.5041C59.9 10.6116 62.1551 5.24528 65.8502 1.22219L64.4797 -0.148438C60.4359 4.22659 57.9628 10.0772 57.9628 16.5041C57.9628 22.9327 60.4359 28.7816 64.4797 33.1567Z" fill="#FF2639"/>
<path d="M82.5 -8.03491C76.0736 -8.03491 70.2234 -5.56165 65.8487 -1.51758L67.2192 -0.146948C71.2436 -3.8407 76.6079 -6.09763 82.5 -6.09763C94.9817 -6.09763 105.1 4.02143 105.1 16.504C105.1 22.3965 102.845 27.7628 99.1498 31.7859L100.52 33.1565C104.566 28.7815 107.037 22.9325 107.037 16.504C107.037 2.95109 96.052 -8.03491 82.5 -8.03491Z" fill="#FF2639"/>
<path d="M54.4292 15.5355H56.368C56.8781 1.54028 68.3815 -9.64914 82.5 -9.64914C89.3736 -9.64914 95.6258 -6.99668 100.293 -2.6604L101.663 -4.03102C96.6444 -8.71763 89.908 -11.5864 82.5 -11.5864C67.3112 -11.5864 54.9409 0.469929 54.4292 15.5355Z" fill="#FF2639"/>
<path d="M82.5 44.5946C97.6888 44.5946 110.059 32.5382 110.571 17.4727H108.632C108.122 31.4679 96.6186 42.6573 82.5 42.6573C68.3815 42.6573 56.8781 31.4679 56.368 17.4727H54.4292C54.9409 32.5382 67.3112 44.5946 82.5 44.5946Z" fill="#FF2639"/>
<path d="M81.5315 48.1302V46.1913C74.0606 45.9524 67.287 42.9528 62.194 38.1807L60.8234 39.5513C66.2684 44.6738 73.5246 47.8897 81.5315 48.1302Z" fill="#FF2639"/>
<path d="M83.4685 -15.1221V-13.1832C99.4241 -12.6714 112.203 0.422997 112.203 16.504C112.203 32.5851 99.4241 45.6795 83.4685 46.1913V48.1302C100.494 47.6184 114.14 33.6554 114.14 16.504C114.14 -0.647351 100.494 -14.6103 83.4685 -15.1221Z" fill="#FF2639"/>
<path d="M50.86 16.504C50.86 24.8941 54.1257 32.5189 59.4545 38.1822L60.825 36.8116C55.8466 31.5002 52.7972 24.3581 52.7972 16.504C52.7972 0.422997 65.5759 -12.6714 81.5315 -13.1832V-15.1221C64.5056 -14.6103 50.86 -0.64735 50.86 16.504Z" fill="#FF2639"/>
<path d="M82.5 51.6978C91.8693 51.6978 100.383 48.0348 106.688 42.0647L105.318 40.6941C99.3628 46.3138 91.3349 49.7606 82.5 49.7606C64.1342 49.7606 49.2457 34.8709 49.2457 16.5039C49.2457 7.66829 52.6922 -0.36013 58.3115 -6.31565L56.941 -7.68628C50.9713 -1.38043 47.3085 7.13392 47.3085 16.5039C47.3085 35.9413 63.064 51.6978 82.5 51.6978Z" fill="#FF2639"/>
<path d="M82.5 -18.6899C73.1307 -18.6899 64.6169 -15.0269 58.3115 -9.05682L59.682 -7.68619C65.6371 -13.3059 73.665 -16.7527 82.5 -16.7527C100.866 -16.7527 115.754 -1.86305 115.754 16.504C115.754 25.3396 112.308 33.368 106.688 39.3235L108.059 40.6941C114.029 34.3883 117.691 25.8739 117.691 16.504C117.691 -2.9334 101.936 -18.6899 82.5 -18.6899Z" fill="#FF2639"/>
<path d="M121.232 17.4727H119.294C118.779 37.354 102.504 53.3123 82.5 53.3123C62.4974 53.3123 46.2206 37.354 45.7072 17.4727H43.7701C44.2834 38.4243 61.4271 55.2496 82.5 55.2496C103.573 55.2496 120.717 38.4243 121.232 17.4727Z" fill="#FF2639"/>
<path d="M43.7701 15.5353H45.7072C46.2206 -4.34607 62.4974 -20.3044 82.5 -20.3044C92.3149 -20.3044 101.232 -16.4621 107.831 -10.1983L109.202 -11.5689C102.252 -18.1831 92.8508 -22.2417 82.5 -22.2417C61.4271 -22.2417 44.2834 -5.4148 43.7701 15.5353Z" fill="#FF2639"/>
<path d="M51.9174 45.7197L53.2863 44.3507C46.382 37.1069 42.1429 27.301 42.1429 16.5039C42.1429 -5.46167 59.6902 -23.3299 81.5315 -23.8432V-25.7805C58.6199 -25.2655 40.2057 -6.53202 40.2057 16.5039C40.2057 27.8354 44.6628 38.1255 51.9174 45.7197Z" fill="#FF2639"/>
<path d="M111.714 47.0904L110.343 45.7213C103.101 52.6245 93.2963 56.864 82.5 56.864C71.7036 56.864 61.8985 52.6245 54.6568 45.7197L53.2863 47.0887C60.8799 54.3455 71.1693 58.8012 82.5 58.8012C93.8307 58.8012 104.12 54.3455 111.714 47.0904Z" fill="#FF2639"/>
<path d="M83.4685 -25.7805V-23.8432C105.31 -23.3299 122.857 -5.46167 122.857 16.5039C122.857 27.301 118.618 37.1068 111.714 44.3491L113.084 45.7181C120.339 38.1255 124.794 27.8354 124.794 16.5039C124.794 -6.53202 106.38 -25.2655 83.4685 -25.7805Z" fill="#FF2639"/>
<path d="M50.776 -16.5928L52.1449 -15.2222C60.0307 -22.7711 70.7237 -27.4077 82.4999 -27.4077C106.75 -27.4077 126.409 -7.74751 126.409 16.504C126.409 40.4327 107.271 59.8878 83.4685 60.4028V62.3401C108.341 61.8235 128.346 41.5014 128.346 16.504C128.346 -8.81786 107.82 -29.345 82.4999 -29.345C70.1894 -29.345 59.0121 -24.4905 50.776 -16.5928Z" fill="#FF2639"/>
<path d="M81.5314 62.3401V60.4028C57.7288 59.8878 38.5914 40.4327 38.5914 16.504C38.5914 4.72698 43.2277 -5.96681 50.7761 -13.8532L49.4055 -15.2222C41.5085 -6.9855 36.6543 4.191 36.6543 16.504C36.6543 41.5014 56.6585 61.8251 81.5314 62.3401Z" fill="#FF2639"/>
<path d="M33.1157 15.5355H35.0529C35.5678 -10.2303 56.6133 -30.9592 82.5 -30.9592C95.2577 -30.9592 106.839 -25.9239 115.367 -17.734L116.737 -19.103C107.857 -27.6448 95.792 -32.8965 82.5 -32.8965C55.543 -32.8965 33.6323 -11.3006 33.1157 15.5355Z" fill="#FF2639"/>
<path d="M129.949 17.4727C129.432 43.2385 108.388 63.9674 82.5 63.9674C56.6133 63.9674 35.5678 43.2385 35.0529 17.4727H33.1157C33.6323 44.3088 55.543 65.9047 82.5 65.9047C109.457 65.9047 131.369 44.3088 131.886 17.4727H129.949Z" fill="#FF2639"/>
<path d="M83.4685 -36.4353V-34.498C111.194 -33.9814 133.511 -11.3459 133.511 16.5041C133.511 30.2427 128.079 42.7123 119.248 51.8837L120.618 53.2544C129.666 43.8715 135.292 31.1516 135.447 17.0869C135.767 -12.0272 112.529 -35.9074 83.4685 -36.4353Z" fill="#FF2639"/>
<path d="M44.3835 53.2543L45.7524 51.8852C36.9207 42.7122 31.4886 30.2426 31.4886 16.504C31.4886 -11.3476 53.8061 -33.9815 81.5315 -34.4981V-36.437C52.999 -35.9301 29.8711 -12.8022 29.5547 15.9212C29.3949 30.404 35.0675 43.5905 44.3835 53.2543Z" fill="#FF2639"/>
<path d="M117.877 53.2542C108.706 62.0865 96.2376 67.519 82.5 67.519C68.7625 67.519 56.2937 62.0865 47.123 53.2542L45.7524 54.6248C55.1347 63.6735 67.8536 69.2997 81.9157 69.4547C96.3974 69.6145 109.583 63.9415 119.246 54.6248L117.877 53.2542Z" fill="#FF2639"/>
<path d="M123.13 -22.7581L121.758 -21.3858C131.371 -11.4266 137.224 2.17152 137.06 17.1063C136.733 46.7144 112.884 70.5543 83.4685 71.0612V73.0001C113.945 72.4932 138.659 47.7993 138.997 17.1273C139.168 1.64845 133.098 -12.4437 123.13 -22.7581Z" fill="#FF2639"/>
<path d="M81.5315 71.0596C51.5703 70.5301 27.6095 45.9153 27.9404 15.9036C28.1002 1.40145 33.9052 -11.7156 43.2406 -21.3874L41.8701 -22.7581C32.1892 -12.7423 26.1695 0.852562 26.0033 15.881C25.661 46.9712 50.4904 72.4706 81.5315 72.9985V71.0596Z" fill="#FF2639"/>
<path d="M87.9306 12.4441L86.5407 13.8341C87.0475 14.5993 87.343 15.5179 87.343 16.5043C87.343 19.1794 85.175 21.3475 82.5001 21.3475C80.1578 21.3475 78.2029 19.6831 77.7541 17.4729H75.7895C76.2592 20.7582 79.0843 23.2848 82.5001 23.2848C86.2452 23.2848 89.2801 20.2497 89.2801 16.5043C89.2801 14.9819 88.7781 13.5758 87.9306 12.4441Z" fill="#FF2639"/>
<path d="M85.6527 16.5251C85.6527 18.2703 84.2386 19.6845 82.4936 19.6845C80.7485 19.6845 79.3344 18.2703 79.3344 16.5251C79.3344 14.7799 80.7485 13.3657 82.4936 13.3657C84.2386 13.3657 85.6527 14.7799 85.6527 16.5251Z" fill="white"/>
<path d="M82.5 13.2754C80.7178 13.2754 79.2714 14.7219 79.2714 16.5042C79.2714 18.2881 80.7178 19.733 82.5 19.733C84.2838 19.733 85.7286 18.2881 85.7286 16.5042C85.7286 14.7219 84.2838 13.2754 82.5 13.2754ZM82.4935 19.0307C81.9398 17.9571 81.0617 17.0805 79.9898 16.5268C81.0633 15.9731 81.9398 15.0948 82.4935 14.0229C83.0472 15.0964 83.9254 15.9731 84.9973 16.5268C83.9254 17.0789 83.0472 17.9571 82.4935 19.0307Z" fill="#FF2639"/>
</g>
<rect fill="transparent" opacity="0.5" x="68.5574" y="77.6638" width="46.6721" height="46.6721" rx="18.5" stroke="#83919B" stroke-width="3"/>
<rect x="45" y="34" width="10" height="46" fill="#FF2639"/>
<path d="M50 23L59.5263 39.5H40.4737L50 23Z" fill="#FF2639"/>
<g opacity="0.1">
<path d="M17.8944 66.1127C14.2707 66.1127 10.902 67.2003 8.0916 69.0627L2.98567 63.9567C7.14356 60.8431 12.3024 59 17.8944 59C30.4354 59 40.8061 68.2734 42.5338 80.3381H35.32C33.6742 72.2244 26.4989 66.1127 17.8944 66.1127Z" fill="#FF2639"/>
<path d="M-2.04325 68.9856L3.05786 74.0915C1.19547 76.9019 0.107872 80.2706 0.107872 83.8943C0.107872 93.7164 8.06754 101.676 17.8896 101.676C26.4941 101.676 33.6694 95.5643 35.3152 87.4507H42.5338C40.8061 99.5153 30.4354 108.789 17.8944 108.789C4.14545 108.789 -7 97.6433 -7 83.8943C-7 78.3023 -5.15686 73.1435 -2.04325 68.9856Z" fill="#FF2639"/>
<path d="M17.8946 72.0417C24.4442 72.0417 29.7474 77.3498 29.7474 83.8994C29.7474 90.4491 24.4394 95.7523 17.8946 95.7523C11.3449 95.7523 6.03688 90.4443 6.03688 83.8994C6.03688 77.3498 11.3449 72.0417 17.8946 72.0417ZM17.9186 93.1729C19.9543 89.2315 23.1737 86.0121 27.1151 83.9764C23.1737 81.9408 19.9543 78.7213 17.9186 74.78C15.883 78.7213 12.6635 81.9408 8.72218 83.9764C12.6635 86.0073 15.883 89.2315 17.9186 93.1729Z" fill="#FF2639"/>
</g>
</g>
<defs>
<clipPath id="clip0">
<rect width="101" height="101" rx="20" fill="white"/>
</clipPath>
<clipPath id="clip1">
<rect width="113" height="113" fill="white" transform="translate(26 -40)"/>
</clipPath>
</defs>
</svg>
