<svg width="179" height="46" viewBox="0 0 179 46" fill="none" xmlns="http://www.w3.org/2000/svg">
<path d="M58.686 23.9987C59.2533 24.7465 59.5395 25.6689 59.5395 26.7636C59.5395 28.3133 58.9403 29.5039 57.7446 30.3378C56.5488 31.1717 54.8028 31.5874 52.5115 31.5874H43.4221V13.9082H52.0078C54.1499 13.9082 55.7932 14.3214 56.9425 15.1455C58.0894 15.972 58.6616 17.0913 58.6616 18.5057C58.6616 19.3642 58.4562 20.1317 58.0478 20.8033C57.637 21.4773 57.0648 22.0062 56.3287 22.3948C57.3313 22.7171 58.1163 23.2509 58.686 23.9987ZM47.4643 16.9904V21.1575H51.5065C52.5115 21.1575 53.272 20.9804 53.7904 20.6262C54.3088 20.2719 54.5705 19.7504 54.5705 19.0617C54.5705 18.3704 54.3088 17.8539 53.7904 17.507C53.272 17.1626 52.5115 16.9904 51.5065 16.9904H47.4643ZM54.6316 27.9763C55.1769 27.6221 55.4484 27.076 55.4484 26.3331C55.4484 24.8695 54.37 24.1364 52.2107 24.1364H47.4643V28.5052H52.2107C53.2793 28.5076 54.0888 28.3305 54.6316 27.9763Z" fill="#FF2639"/>
<path d="M70.4605 29.0881V31.5898H61.4983V29.5924L65.6652 25.9813C66.0834 25.6271 66.367 25.3294 66.5186 25.0834C66.6702 24.8399 66.7436 24.6087 66.7436 24.3897C66.7436 24.1044 66.6262 23.8707 66.3939 23.6961C66.1592 23.5189 65.7997 23.4304 65.3155 23.4304C64.8631 23.4304 64.4645 23.5189 64.1222 23.6961C63.7798 23.8732 63.5084 24.129 63.3054 24.466L60.8699 23.1524C61.2734 22.4464 61.8749 21.888 62.677 21.4846C63.4815 21.0812 64.4597 20.877 65.6139 20.877C66.9686 20.877 68.0568 21.1771 68.876 21.7749C69.6951 22.3726 70.106 23.1598 70.106 24.1364C70.106 24.6751 69.9641 25.1892 69.678 25.6763C69.3919 26.1658 68.8662 26.7537 68.0959 27.4449L66.1885 29.0857H70.4605V29.0881Z" fill="#FF2639"/>
<path d="M88.6882 23.9987C89.2556 24.7465 89.5417 25.6689 89.5417 26.7636C89.5417 28.3133 88.9426 29.5039 87.7468 30.3378C86.551 31.1717 84.805 31.5874 82.5137 31.5874H73.4243V13.9082H82.01C84.1521 13.9082 85.7954 14.3214 86.9447 15.1455C88.0916 15.972 88.6638 17.0913 88.6638 18.5057C88.6638 19.3642 88.4584 20.1317 88.05 20.8033C87.6392 21.4773 87.067 22.0062 86.3309 22.3948C87.3335 22.7171 88.1185 23.2509 88.6882 23.9987ZM77.4665 16.9904V21.1575H81.5087C82.5137 21.1575 83.2742 20.9804 83.7926 20.6262C84.3111 20.2719 84.5727 19.7504 84.5727 19.0617C84.5727 18.3704 84.3111 17.8539 83.7926 17.507C83.2742 17.1626 82.5137 16.9904 81.5087 16.9904H77.4665ZM84.6338 27.9763C85.1792 27.6221 85.4506 27.076 85.4506 26.3331C85.4506 24.8695 84.3722 24.1364 82.2129 24.1364H77.4665V28.5052H82.2129C83.2816 28.5076 84.091 28.3305 84.6338 27.9763Z" fill="#FF2639"/>
<path d="M101.064 30.9307C100.678 31.2186 100.206 31.4326 99.6457 31.5752C99.0857 31.7179 98.4939 31.7892 97.8753 31.7892C96.2687 31.7892 95.0264 31.376 94.1461 30.5519C93.2682 29.7279 92.8281 28.5151 92.8281 26.9162V21.3347H90.7446V18.3041H92.8281V14.9956H96.7431V18.3041H100.108V21.3347H96.7431V26.8645C96.7431 27.4377 96.8898 27.8805 97.1832 28.1904C97.4767 28.5028 97.8899 28.6578 98.4255 28.6578C99.0466 28.6578 99.5723 28.4881 100.008 28.1535L101.064 30.9307Z" fill="white"/>
<path d="M105.446 30.8937C104.316 30.2959 103.434 29.467 102.798 28.4043C102.162 27.3441 101.844 26.1412 101.844 24.7932C101.844 23.4476 102.162 22.2423 102.798 21.182C103.434 20.1218 104.316 19.2928 105.446 18.6951C106.576 18.0973 107.852 17.7972 109.276 17.7972C110.699 17.7972 111.97 18.0973 113.093 18.6951C114.213 19.2928 115.093 20.1218 115.729 21.182C116.365 22.2423 116.683 23.4476 116.683 24.7932C116.683 26.1412 116.365 27.3441 115.729 28.4043C115.093 29.4645 114.213 30.2959 113.093 30.8937C111.97 31.4914 110.699 31.7916 109.276 31.7916C107.852 31.7916 106.576 31.4914 105.446 30.8937ZM111.748 27.5335C112.391 26.8521 112.714 25.9395 112.714 24.7932C112.714 23.6493 112.391 22.7342 111.748 22.0553C111.102 21.3739 110.278 21.032 109.273 21.032C108.268 21.032 107.442 21.3739 106.786 22.0553C106.133 22.7367 105.808 23.6493 105.808 24.7932C105.808 25.9395 106.133 26.8521 106.786 27.5335C107.439 28.2149 108.268 28.5568 109.273 28.5568C110.278 28.5568 111.102 28.2173 111.748 27.5335Z" fill="white"/>
<path d="M125.092 26.2594L123.207 28.1289V31.5875H119.292V12.848H123.207V23.4551L128.931 18.0015H133.602L127.978 23.7601L134.103 31.5875H129.359L125.092 26.2594Z" fill="white"/>
<path d="M148.438 25.905H138.219C138.402 26.7463 138.84 27.4105 139.525 27.9C140.212 28.3871 141.065 28.6331 142.085 28.6331C142.787 28.6331 143.41 28.5297 143.956 28.3182C144.498 28.1091 145.005 27.7746 145.474 27.3219L147.558 29.5949C146.286 31.0585 144.428 31.7916 141.985 31.7916C140.461 31.7916 139.114 31.4914 137.942 30.8937C136.771 30.2959 135.866 29.467 135.231 28.4043C134.595 27.3441 134.277 26.1412 134.277 24.7932C134.277 23.4648 134.59 22.2644 135.218 21.1943C135.847 20.1267 136.708 19.2928 137.806 18.6951C138.901 18.0973 140.126 17.7972 141.483 17.7972C142.806 17.7972 144.002 18.085 145.073 18.6557C146.144 19.2289 146.985 20.0505 147.597 21.1181C148.208 22.1881 148.514 23.4304 148.514 24.8448C148.514 24.8965 148.489 25.2482 148.438 25.905ZM139.275 21.5363C138.671 22.0405 138.304 22.7318 138.17 23.6075H144.821C144.687 22.749 144.32 22.0627 143.716 21.5486C143.114 21.0344 142.378 20.7786 141.508 20.7786C140.623 20.7786 139.879 21.032 139.275 21.5363Z" fill="white"/>
<path d="M163.391 19.315C164.421 20.326 164.934 21.8241 164.934 23.8092V31.5874H161.019V24.4143C161.019 23.3369 160.785 22.5325 160.315 22.0036C159.848 21.4723 159.168 21.2091 158.283 21.2091C157.295 21.2091 156.508 21.5166 155.923 22.1316C155.336 22.7441 155.043 23.6591 155.043 24.8719V31.5898H151.128V18.0014H154.869V19.5905C155.388 19.0198 156.033 18.577 156.801 18.2646C157.571 17.9547 158.418 17.7972 159.337 17.7972C161.01 17.7997 162.362 18.304 163.391 19.315Z" fill="white"/>
<path d="M26.4587 13.2293C28.3001 13.2293 30.0118 13.7852 31.4399 14.7372L34.0344 12.1273C31.9216 10.5357 29.3002 9.59358 26.4587 9.59358C20.0861 9.59358 14.8164 14.3338 13.9385 20.5007H17.6041C18.4404 16.3534 22.0864 13.2293 26.4587 13.2293Z" fill="#FF2639"/>
<path d="M36.5898 14.6979L33.9977 17.3078C34.9441 18.7444 35.4967 20.4663 35.4967 22.3186C35.4967 27.3393 31.4521 31.4079 26.4611 31.4079C22.0888 31.4079 18.4428 28.2839 17.6065 24.1365H13.9385C14.8164 30.3034 20.0861 35.0436 26.4587 35.0436C33.4451 35.0436 39.1085 29.3465 39.1085 22.3186C39.1085 19.4602 38.1719 16.8232 36.5898 14.6979Z" fill="#FF2639"/>
<path d="M26.4587 16.2598C23.1306 16.2598 20.4358 18.9731 20.4358 22.321C20.4358 25.6689 23.133 28.3797 26.4587 28.3797C29.7868 28.3797 32.4841 25.6664 32.4841 22.321C32.4841 18.9731 29.7868 16.2598 26.4587 16.2598ZM26.4465 27.0612C25.4121 25.0465 23.7761 23.4009 21.7734 22.3603C23.7761 21.3198 25.4121 19.6741 26.4465 17.6595C27.4809 19.6741 29.1168 21.3198 31.1196 22.3603C29.1168 23.3984 27.4809 25.0465 26.4465 27.0612Z" fill="#FF2639"/>
</svg>
