<svg width="235" height="60" viewBox="0 0 235 60" fill="none" xmlns="http://www.w3.org/2000/svg">
<path d="M77.046 31.3027C77.7909 32.2813 78.1665 33.4813 78.1665 34.9091C78.1665 36.9305 77.3799 38.4834 75.81 39.5711C74.2402 40.6588 71.948 41.2011 68.9398 41.2011H57.0068V18.1412H68.2785C71.0908 18.1412 73.2482 18.6802 74.757 19.7551C76.2627 20.8332 77.0139 22.2931 77.0139 24.138C77.0139 25.2578 76.7443 26.2556 76.2081 27.1348C75.6688 28.0139 74.9176 28.7038 73.9512 29.2107C75.2675 29.6278 76.298 30.3273 77.046 31.3027ZM62.3136 22.1615V27.5968H67.6204C68.9398 27.5968 69.9383 27.3658 70.6189 26.9038C71.2995 26.4417 71.643 25.7615 71.643 24.8631C71.643 23.9615 71.2995 23.2877 70.6189 22.8353C69.9383 22.3861 68.9398 22.1615 67.6204 22.1615H62.3136ZM71.7232 36.4909C72.4391 36.0289 72.7955 35.3166 72.7955 34.3476C72.7955 32.4353 71.3797 31.4824 68.5449 31.4824H62.3136V37.1808H68.5449C69.9479 37.184 71.0105 36.9529 71.7232 36.4909Z" fill="#FF2639"/>
<path d="M92.504 37.9413V41.2044H80.7379V38.599L86.2084 33.8889C86.7574 33.4268 87.1298 33.0386 87.3288 32.7177C87.5279 32.4001 87.6242 32.0985 87.6242 31.8129C87.6242 31.4407 87.4701 31.1359 87.1651 30.9081C86.8569 30.6771 86.385 30.5616 85.7493 30.5616C85.1554 30.5616 84.6321 30.6771 84.1826 30.9081C83.7332 31.1391 83.3768 31.4728 83.1104 31.9124L79.9128 30.199C80.4426 29.2782 81.2323 28.5498 82.2853 28.0236C83.3415 27.4974 84.6257 27.2343 86.141 27.2343C87.9195 27.2343 89.3481 27.6258 90.4236 28.4054C91.4991 29.1851 92.0384 30.2119 92.0384 31.4857C92.0384 32.1883 91.8522 32.8589 91.4766 33.4942C91.101 34.1295 90.4108 34.8996 89.3995 35.8012L86.8954 37.9413H92.504Z" fill="#FF2639"/>
<path d="M116.434 31.3027C117.179 32.2813 117.555 33.4813 117.555 34.9091C117.555 36.9305 116.768 38.4834 115.198 39.5711C113.628 40.6588 111.336 41.2011 108.328 41.2011H96.395V18.1412H107.667C110.479 18.1412 112.636 18.6802 114.145 19.7551C115.651 20.8332 116.402 22.2931 116.402 24.138C116.402 25.2578 116.132 26.2556 115.596 27.1348C115.057 28.0139 114.306 28.7038 113.339 29.2107C114.656 29.6278 115.686 30.3273 116.434 31.3027ZM101.702 22.1615V27.5968H107.009C108.328 27.5968 109.326 27.3658 110.007 26.9038C110.688 26.4417 111.031 25.7615 111.031 24.8631C111.031 23.9615 110.688 23.2877 110.007 22.8353C109.326 22.3861 108.328 22.1615 107.009 22.1615H101.702ZM111.111 36.4909C111.827 36.0289 112.184 35.3166 112.184 34.3476C112.184 32.4353 110.768 31.4824 107.933 31.4824H101.702V37.1808H107.933C109.336 37.184 110.399 36.9529 111.111 36.4909Z" fill="#FF2639"/>
<path d="M132.682 40.3444C132.175 40.7198 131.555 40.9989 130.82 41.185C130.085 41.3711 129.308 41.4642 128.496 41.4642C126.386 41.4642 124.755 40.9251 123.6 39.847C122.447 38.7722 121.869 37.1904 121.869 35.1048V27.8278H119.134V23.8748H121.869V19.5593H127.009V23.8748H131.427V27.8278H127.009V35.0406C127.009 35.7882 127.202 36.3658 127.587 36.77C127.972 37.1775 128.515 37.3797 129.218 37.3797C130.033 37.3797 130.724 37.1583 131.295 36.7219L132.682 40.3444Z" fill="#050412"/>
<path d="M138.435 40.2963C136.952 39.5167 135.793 38.4354 134.958 37.0525C134.123 35.6696 133.706 34.1006 133.706 32.3423C133.706 30.5872 134.123 29.0151 134.958 27.6322C135.793 26.2493 136.952 25.168 138.435 24.3883C139.918 23.6086 141.594 23.2172 143.462 23.2172C145.331 23.2172 147 23.6086 148.474 24.3883C149.944 25.168 151.1 26.2493 151.935 27.6322C152.769 29.0151 153.187 30.5872 153.187 32.3423C153.187 34.1006 152.769 35.6696 151.935 37.0525C151.1 38.4354 149.944 39.5199 148.474 40.2963C147 41.076 145.331 41.4675 143.462 41.4675C141.594 41.4675 139.918 41.076 138.435 40.2963ZM146.708 35.9135C147.552 35.0247 147.976 33.8343 147.976 32.3391C147.976 30.8471 147.552 29.6536 146.708 28.768C145.861 27.8792 144.779 27.4332 143.459 27.4332C142.14 27.4332 141.055 27.8792 140.194 28.768C139.337 29.6568 138.91 30.8471 138.91 32.3391C138.91 33.8343 139.337 35.0247 140.194 35.9135C141.051 36.8022 142.14 37.2482 143.459 37.2482C144.779 37.2482 145.861 36.8054 146.708 35.9135Z" fill="#050412"/>
<path d="M164.227 34.2513L161.752 36.6898V41.2011H156.612V16.7583H161.752V30.5936L169.267 23.4802H175.399L168.015 30.9914L176.057 41.2011H169.829L164.227 34.2513Z" fill="#050412"/>
<path d="M194.877 33.7894H181.461C181.701 34.8867 182.276 35.7562 183.175 36.3915C184.077 37.0268 185.197 37.3477 186.536 37.3477C187.458 37.3477 188.276 37.2129 188.992 36.937C189.705 36.6642 190.369 36.2279 190.986 35.6343L193.721 38.599C192.052 40.5113 189.612 41.4643 186.405 41.4643C184.404 41.4643 182.636 41.0728 181.098 40.2931C179.56 39.5134 178.372 38.4322 177.537 37.0461C176.703 35.6632 176.285 34.0942 176.285 32.3359C176.285 30.6033 176.696 29.0375 177.521 27.6418C178.346 26.2493 179.477 25.1616 180.918 24.3819C182.356 23.6022 183.965 23.2108 185.746 23.2108C187.483 23.2108 189.053 23.5862 190.459 24.3306C191.865 25.0782 192.97 26.1498 193.772 27.5423C194.575 28.938 194.976 30.5584 194.976 32.4033C194.976 32.4739 194.944 32.9327 194.877 33.7894ZM182.847 28.091C182.054 28.7487 181.573 29.6503 181.396 30.7926H190.129C189.952 29.6728 189.47 28.7776 188.677 28.107C187.888 27.4364 186.921 27.1027 185.779 27.1027C184.616 27.1027 183.64 27.4332 182.847 28.091Z" fill="#050412"/>
<path d="M214.508 25.1935C215.86 26.5122 216.534 28.4662 216.534 31.0555V41.201H211.394V31.8448C211.394 30.4395 211.086 29.3903 210.469 28.7004C209.856 28.0074 208.964 27.6641 207.802 27.6641C206.505 27.6641 205.471 28.0651 204.704 28.8673C203.933 29.6662 203.548 30.8598 203.548 32.4416V41.2042H198.408V23.4801H203.32V25.5528C204 24.8085 204.848 24.2309 205.856 23.8234C206.867 23.4192 207.978 23.2138 209.185 23.2138C211.381 23.217 213.156 23.8748 214.508 25.1935Z" fill="#050412"/>
<path d="M34.7362 17.2556C37.1537 17.2556 39.4009 17.9807 41.2758 19.2225L44.682 15.8182C41.9082 13.7422 38.4667 12.5134 34.7362 12.5134C26.37 12.5134 19.4516 18.6963 18.2991 26.7401H23.1114C24.2094 21.3305 28.9961 17.2556 34.7362 17.2556Z" fill="#FF2639"/>
<path d="M48.0368 19.1711L44.6338 22.5754C45.8762 24.4492 46.6018 26.6952 46.6018 29.1112C46.6018 35.6599 41.2918 40.9669 34.7394 40.9669C28.9993 40.9669 24.2126 36.892 23.1146 31.4824H18.2991C19.4516 39.5262 26.37 45.7091 34.7362 45.7091C43.9083 45.7091 51.3435 38.2781 51.3435 29.1112C51.3435 25.3829 50.114 21.9433 48.0368 19.1711Z" fill="#FF2639"/>
<path d="M34.7363 21.2085C30.3669 21.2085 26.8291 24.7475 26.8291 29.1143C26.8291 33.4812 30.3702 37.0202 34.7363 37.0202C39.1056 37.0202 42.6467 33.4812 42.6467 29.1143C42.6467 24.7475 39.1056 21.2085 34.7363 21.2085ZM34.7202 35.2972C33.3622 32.6694 31.2145 30.5229 28.5852 29.1657C31.2145 27.8085 33.3622 25.6619 34.7202 23.0341C36.0782 25.6619 38.226 27.8085 40.8553 29.1657C38.226 30.5197 36.0782 32.6694 34.7202 35.2972Z" fill="#FF2639"/>
</svg>
