<svg width="32" height="32" viewBox="0 0 32 32" fill="none" xmlns="http://www.w3.org/2000/svg">
<path d="M5.33333 24H26.6667C27.4 24 28 23.4 28 22.6667C28 21.9333 27.4 21.3333 26.6667 21.3333H5.33333C4.6 21.3333 4 21.9333 4 22.6667C4 23.4 4.6 24 5.33333 24ZM8 17.3333H26.6667C27.4 17.3333 28 16.7333 28 16C28 15.2667 27.4 14.6667 26.6667 14.6667H8C7.26667 14.6667 6.66667 15.2667 6.66667 16C6.66667 16.7333 7.26667 17.3333 8 17.3333ZM9.33333 9.33333C9.33333 10.0667 9.93333 10.6667 10.6667 10.6667H26.6667C27.4 10.6667 28 10.0667 28 9.33333C28 8.6 27.4 8 26.6667 8H10.6667C9.93333 8 9.33333 8.6 9.33333 9.33333Z" fill="white"/>
</svg>
