<svg width="1200" height="796" viewBox="0 0 1200 796" fill="none" xmlns="http://www.w3.org/2000/svg">
<g opacity="0.1" clip-path="url(#clip0)">
<path d="M915.855 596.229H927.608C930.293 583.008 941.987 573.05 956 573.05C961.9 573.05 967.395 574.818 971.973 577.85L980.288 569.535C973.518 564.465 965.107 561.461 956 561.461C935.565 561.461 918.675 576.575 915.855 596.229Z" fill="white"/>
<path d="M908.39 641.438L916.638 633.19C909.849 624.623 905.783 613.807 905.783 602.024C905.783 576.247 925.203 555.019 950.206 552.141V540.484C918.791 543.411 894.194 569.835 894.194 602.014C894.194 617.003 899.525 630.746 908.39 641.438Z" fill="white"/>
<path d="M1005.88 607.819C1003 632.823 981.775 652.245 956 652.245C944.218 652.245 933.402 648.179 924.836 641.39L916.589 649.638C927.289 658.504 941.022 663.835 956 663.835C988.178 663.835 1014.6 639.236 1017.53 607.819H1005.88Z" fill="white"/>
<path d="M961.794 540.494V552.151C984.894 554.807 1003.21 573.128 1005.88 596.239H1017.53C1014.78 566.725 991.306 543.237 961.794 540.494Z" fill="white"/>
<path d="M950.206 684.859V673.241C913.451 670.285 884.537 639.545 884.537 602.024C884.537 584.379 890.95 568.231 901.553 555.763L893.335 547.554C880.645 562.137 872.949 581.173 872.949 602.024C872.949 645.948 907.048 681.884 950.206 684.859Z" fill="white"/>
<path d="M1018.67 547.554L1010.45 555.763C1021.05 568.231 1027.46 584.379 1027.46 602.024C1027.46 619.669 1021.05 635.817 1010.46 648.285L1018.67 656.504C1031.35 641.911 1039.05 622.875 1039.05 602.024C1039.05 581.173 1031.35 562.137 1018.67 547.554Z" fill="white"/>
<path d="M909.742 547.573C922.21 536.969 938.356 530.556 956 530.556C973.653 530.556 989.79 536.969 1002.26 547.564L1010.47 539.354C995.884 526.664 976.85 518.967 956 518.967C935.15 518.967 916.116 526.664 901.534 539.354L909.742 547.573Z" fill="white"/>
<path d="M1002.26 656.484C991.171 665.91 977.168 672.005 961.794 673.241V684.859C980.365 683.575 997.255 676.196 1010.47 664.694L1002.26 656.484Z" fill="white"/>
<path d="M956 706.329C1011.65 706.329 1057.13 662.734 1060.13 607.819H1048.53C1045.53 656.321 1005.25 694.74 956 694.74C906.749 694.74 866.469 656.321 863.475 607.819H851.867C854.87 662.734 900.346 706.329 956 706.329Z" fill="white"/>
<path d="M851.867 596.23H863.475C866.353 549.64 903.62 512.371 950.206 509.493V497.884C897.217 500.781 854.764 543.237 851.867 596.23Z" fill="white"/>
<path d="M961.794 497.884V509.493C1008.38 512.371 1045.65 549.64 1048.52 596.23H1060.13C1057.24 543.237 1014.78 500.781 961.794 497.884Z" fill="white"/>
<path d="M956 476.473C886.662 476.473 830.457 532.681 830.457 602.024C830.457 669.426 883.562 724.408 950.206 727.441V715.842C889.964 712.829 842.046 663.023 842.046 602.024C842.046 539.084 893.064 488.062 956 488.062C1018.94 488.062 1069.95 539.084 1069.95 602.024C1069.95 663.023 1022.04 712.829 961.794 715.842V727.441C1028.44 724.408 1081.54 669.426 1081.54 602.024C1081.54 532.681 1025.34 476.473 956 476.473Z" fill="white"/>
<path d="M1055.61 709.834L1047.41 701.635C1023.35 723.742 991.249 737.233 956 737.233C920.751 737.233 888.661 723.742 864.585 701.635L856.387 709.834C882.557 734.037 917.555 748.823 956 748.823C994.455 748.823 1029.44 734.037 1055.61 709.834Z" fill="white"/>
<path d="M848.197 701.644L856.396 693.445C834.291 669.378 820.8 637.275 820.8 602.024C820.8 566.773 834.291 534.67 856.396 510.603L848.197 502.403C824.006 528.576 809.211 563.576 809.211 602.024C809.211 640.481 824.006 675.472 848.197 701.644Z" fill="white"/>
<path d="M956 455.225C917.555 455.225 882.557 470.02 856.387 494.213L864.586 502.413C888.661 480.316 920.751 466.814 956 466.814C1030.67 466.814 1091.2 527.349 1091.2 602.024C1091.2 637.275 1077.71 669.377 1055.6 693.445L1063.8 701.644C1088 675.472 1102.79 640.481 1102.79 602.024C1102.79 520.946 1037.07 455.225 956 455.225Z" fill="white"/>
<path d="M788.072 596.229H799.67C802.722 512.505 871.539 445.567 956 445.567C997.12 445.567 1034.52 461.435 1062.44 487.376L1070.64 479.176C1040.62 451.14 1000.32 433.978 956 433.978C865.136 433.978 791.133 506.102 788.072 596.229Z" fill="white"/>
<path d="M1078.84 487.376L1070.64 495.575C1095.35 522.183 1110.92 557.395 1112.33 596.23H1123.93C1122.5 554.199 1105.65 516.089 1078.84 487.376Z" fill="white"/>
<path d="M956 770.071C1046.86 770.071 1120.87 697.946 1123.93 607.819H1112.33C1109.28 691.543 1040.46 758.481 956 758.481C871.539 758.481 802.722 691.543 799.67 607.819H788.072C791.133 697.946 865.136 770.071 956 770.071Z" fill="white"/>
<path d="M950.206 791.221V779.622C905.512 778.193 864.991 760.249 834.523 731.7L826.324 739.9C858.897 770.544 902.306 789.782 950.206 791.221Z" fill="white"/>
<path d="M961.794 412.827V424.426C1057.25 427.488 1133.69 505.822 1133.69 602.024C1133.69 698.226 1057.25 776.56 961.794 779.622V791.221C1063.65 788.16 1145.28 704.629 1145.28 602.024C1145.28 499.419 1063.65 415.889 961.794 412.827Z" fill="white"/>
<path d="M766.72 602.024C766.72 652.216 786.256 697.83 818.135 731.71L826.334 723.51C796.551 691.736 778.309 649.009 778.309 602.024C778.309 505.822 854.755 427.488 950.206 424.426V412.827C848.352 415.889 766.72 499.419 766.72 602.024Z" fill="white"/>
<path d="M956 812.565C1012.05 812.565 1062.98 790.652 1100.7 754.937L1092.5 746.737C1056.88 780.356 1008.85 800.976 956 800.976C846.131 800.976 757.063 711.902 757.063 602.024C757.063 549.167 777.681 501.139 811.297 465.511L803.098 457.312C767.386 495.035 745.474 545.97 745.474 602.024C745.474 718.305 839.728 812.565 956 812.565Z" fill="white"/>
<path d="M956 391.483C899.95 391.483 849.018 413.397 811.297 449.112L819.496 457.311C855.121 423.692 903.146 403.073 956 403.073C1065.87 403.073 1154.94 492.147 1154.94 602.024C1154.94 654.881 1134.32 702.91 1100.7 738.537L1108.9 746.737C1144.61 709.013 1166.53 658.078 1166.53 602.024C1166.53 485.744 1072.27 391.483 956 391.483Z" fill="white"/>
<path d="M1187.7 607.819H1176.12C1173.03 726.756 1075.67 822.223 956 822.223C836.338 822.223 738.965 726.756 735.894 607.819H724.306C727.377 733.159 829.936 833.813 956 833.813C1082.06 833.813 1184.62 733.159 1187.7 607.819Z" fill="white"/>
<path d="M1123.93 442.274L1115.73 450.474C1151.95 488.651 1174.65 539.799 1176.11 596.23H1187.69C1186.24 536.602 1162.26 482.557 1123.93 442.274Z" fill="white"/>
<path d="M724.306 596.23H735.894C738.965 477.293 836.338 381.826 956 381.826C1014.72 381.826 1068.06 404.811 1107.54 442.284L1115.74 434.084C1074.16 394.516 1017.92 370.236 956 370.236C829.936 370.236 727.377 470.9 724.306 596.23Z" fill="white"/>
<path d="M773.045 776.802L781.235 768.612C739.931 725.278 714.571 666.616 714.571 602.024C714.571 470.62 819.545 363.727 950.206 360.656V349.066C813.142 352.147 702.983 464.217 702.983 602.024C702.983 669.813 729.646 731.372 773.045 776.802Z" fill="white"/>
<path d="M1130.77 785.001L1122.57 776.811C1079.24 818.108 1020.59 843.47 956 843.47C891.413 843.47 832.756 818.108 789.434 776.802L781.235 784.992C826.662 828.404 888.217 855.059 956 855.059C1023.78 855.059 1085.34 828.404 1130.77 785.001Z" fill="white"/>
<path d="M961.794 349.066V360.656C1092.46 363.727 1197.43 470.62 1197.43 602.024C1197.43 666.616 1172.07 725.278 1130.77 768.603L1138.96 776.792C1182.36 731.372 1209.02 669.813 1209.02 602.024C1209.02 464.217 1098.86 352.147 961.794 349.066Z" fill="white"/>
<path d="M766.218 404.028L774.407 412.228C821.582 367.068 885.551 339.331 956 339.331C1101.07 339.331 1218.67 456.944 1218.67 602.024C1218.67 745.172 1104.19 861.559 961.794 864.639V876.229C1110.59 873.138 1230.26 751.566 1230.26 602.024C1230.26 450.541 1107.47 327.741 956 327.741C882.355 327.741 815.489 356.782 766.218 404.028Z" fill="white"/>
<path d="M950.206 876.229V864.64C807.811 861.559 693.326 745.173 693.326 602.024C693.326 531.57 721.061 467.597 766.218 420.418L758.019 412.229C710.776 461.503 681.737 528.364 681.737 602.024C681.737 751.566 801.409 873.148 950.206 876.229Z" fill="white"/>
<path d="M1160.81 405.391C1208.55 455.119 1238.37 522.193 1239.84 596.23H1251.43C1249.94 518.996 1218.85 449.025 1169 397.201L1160.81 405.391Z" fill="white"/>
<path d="M660.569 596.229H672.157C675.238 442.09 801.138 318.084 956 318.084C1032.32 318.084 1101.6 348.206 1152.62 397.201L1160.82 389.011C1107.69 337.911 1035.52 306.494 956 306.494C794.735 306.494 663.659 435.687 660.569 596.229Z" fill="white"/>
<path d="M1239.85 607.819C1236.76 761.958 1110.87 885.965 956 885.965C801.138 885.965 675.238 761.958 672.157 607.819H660.569C663.659 768.361 794.735 897.554 956 897.554C1117.26 897.554 1248.35 768.361 1251.44 607.819H1239.85Z" fill="white"/>
<path d="M961.794 285.324V296.914C1127.66 300.004 1261.17 435.417 1261.17 602.024C1261.17 684.212 1228.67 758.809 1175.84 813.675L1184.03 821.875C1238.16 765.743 1271.82 689.649 1272.74 605.51C1274.66 431.341 1135.64 288.482 961.794 285.324Z" fill="white"/>
<path d="M727.976 821.875L736.165 813.685C683.331 758.809 650.834 684.212 650.834 602.024C650.834 435.407 784.344 300.004 950.206 296.914V285.314C779.516 288.347 641.158 426.705 639.265 598.537C638.309 685.178 672.244 764.063 727.976 821.875Z" fill="white"/>
<path d="M729.337 367.156C788.922 309.643 870.254 274.624 959.592 275.609C1046.34 276.565 1124.81 311.295 1182.66 367.146L1190.86 358.947C1130.95 301.029 1049.64 265.014 959.728 264.02C867.135 263.006 782.838 299.309 721.138 358.947L729.337 367.156Z" fill="white"/>
<path d="M1199.06 367.146L1190.85 375.355C1248.36 434.934 1283.38 516.282 1282.39 605.626C1280.44 782.751 1137.77 925.368 961.794 928.401V940C1144.11 936.967 1291.96 789.241 1293.98 605.752C1295 513.153 1258.69 428.849 1199.06 367.146Z" fill="white"/>
<path d="M950.206 928.391C770.969 925.223 627.628 777.97 629.608 598.431C630.564 511.675 665.291 433.205 721.138 375.345L712.939 367.146C655.026 427.063 619.014 508.391 618.019 598.296C615.972 784.287 764.509 936.832 950.206 939.99V928.391Z" fill="white"/>
<path d="M988.487 577.734L980.172 586.05C983.204 590.628 984.971 596.123 984.971 602.024C984.971 618.027 972.002 630.997 956 630.997C941.987 630.997 930.293 621.04 927.608 607.818H915.855C918.665 627.472 935.565 642.587 956 642.587C978.405 642.587 996.56 624.43 996.56 602.024C996.56 592.916 993.557 584.505 988.487 577.734Z" fill="white"/>
<path d="M974.86 602.149C974.86 612.59 966.401 621.05 955.961 621.05C945.522 621.05 937.062 612.59 937.062 602.149C937.062 591.709 945.522 583.249 955.961 583.249C966.401 583.249 974.86 591.709 974.86 602.149Z" fill="white"/>
<path d="M956 582.708C945.338 582.708 936.686 591.361 936.686 602.024C936.686 612.696 945.338 621.339 956 621.339C966.671 621.339 975.314 612.696 975.314 602.024C975.314 591.361 966.671 582.708 956 582.708ZM955.961 617.138C952.649 610.716 947.395 605.471 940.983 602.159C947.405 598.846 952.649 593.592 955.961 587.18C959.274 593.602 964.527 598.846 970.94 602.159C964.527 605.462 959.274 610.716 955.961 617.138Z" fill="white"/>
</g>
<circle opacity="0.1" cx="557" cy="254" r="318.5" stroke="white" stroke-width="3"/>
<circle opacity="0.5" cx="1097" cy="91" r="148.5" stroke="white" stroke-width="3"/>
<circle opacity="0.5" cx="659" cy="813" r="148.5" stroke="white" stroke-width="3"/>
<mask id="mask0" mask-type="alpha" maskUnits="userSpaceOnUse" x="-87" y="488" width="397" height="397">
<g opacity="0.1" clip-path="url(#clip1)">
<path d="M87.9238 683.111H94.826C96.4026 675.346 103.271 669.499 111.5 669.499C114.965 669.499 118.192 670.537 120.88 672.317L125.764 667.434C121.788 664.456 116.848 662.692 111.5 662.692C99.4992 662.692 89.5799 671.569 87.9238 683.111Z" fill="white"/>
<path d="M83.5399 709.661L88.3833 704.817C84.3963 699.786 82.0086 693.434 82.0086 686.514C82.0086 671.376 93.4138 658.909 108.097 657.219V650.373C89.648 652.092 75.2029 667.61 75.2029 686.508C75.2029 695.311 78.3335 703.382 83.5399 709.661Z" fill="white"/>
<path d="M140.793 689.917C139.103 704.601 126.637 716.007 111.5 716.007C104.581 716.007 98.2289 713.62 93.1984 709.632L88.355 714.476C94.6389 719.683 102.704 722.814 111.5 722.814C130.397 722.814 145.914 708.367 147.633 689.917H140.793Z" fill="white"/>
<path d="M114.903 650.379V657.225C128.469 658.785 139.228 669.544 140.793 683.117H147.633C146.022 665.784 132.235 651.99 114.903 650.379Z" fill="white"/>
<path d="M108.097 735.162V728.339C86.5118 726.603 69.5315 708.55 69.5315 686.515C69.5315 676.152 73.2974 666.669 79.5246 659.346L74.6982 654.525C67.2459 663.09 62.7258 674.269 62.7258 686.515C62.7258 712.31 82.7516 733.415 108.097 735.162Z" fill="white"/>
<path d="M148.302 654.525L143.476 659.346C149.703 666.669 153.469 676.152 153.469 686.515C153.469 696.877 149.703 706.36 143.481 713.683L148.308 718.509C155.754 709.939 160.274 698.76 160.274 686.515C160.274 674.269 155.754 663.09 148.302 654.525Z" fill="white"/>
<path d="M84.3339 654.536C91.6557 648.309 101.138 644.543 111.5 644.543C121.867 644.543 131.344 648.309 138.666 654.531L143.487 649.71C134.923 642.257 123.745 637.736 111.5 637.736C99.2554 637.736 88.077 642.257 79.5132 649.71L84.3339 654.536Z" fill="white"/>
<path d="M138.666 718.498C132.155 724.034 123.932 727.613 114.903 728.339V735.162C125.809 734.408 135.728 730.074 143.487 723.319L138.666 718.498Z" fill="white"/>
<path d="M111.5 747.77C144.184 747.77 170.891 722.167 172.655 689.917H165.838C164.08 718.401 140.424 740.964 111.5 740.964C82.5757 740.964 58.9202 718.401 57.162 689.917H50.345C52.1088 722.167 78.8155 747.77 111.5 747.77Z" fill="white"/>
<path d="M50.345 683.111H57.162C58.8521 655.75 80.7381 633.862 108.097 632.172V625.354C76.978 627.056 52.0464 651.989 50.345 683.111Z" fill="white"/>
<path d="M114.903 625.354V632.172C142.262 633.862 164.148 655.75 165.838 683.111H172.655C170.954 651.989 146.022 627.056 114.903 625.354Z" fill="white"/>
<path d="M111.5 612.78C70.7792 612.78 37.7715 645.79 37.7715 686.514C37.7715 726.098 68.9587 758.388 108.097 760.168V753.357C72.7188 751.587 44.5772 722.337 44.5772 686.514C44.5772 649.551 74.5394 619.586 111.5 619.586C148.461 619.586 178.423 649.551 178.423 686.514C178.423 722.337 150.281 751.587 114.903 753.357V760.168C154.041 758.388 185.229 726.098 185.229 686.514C185.229 645.79 152.221 612.78 111.5 612.78Z" fill="white"/>
<path d="M170.001 749.829L165.186 745.014C151.053 757.996 132.201 765.92 111.5 765.92C90.7993 765.92 71.9532 757.996 57.8143 745.014L52.9993 749.829C68.3688 764.043 88.9221 772.726 111.5 772.726C134.084 772.726 154.631 764.043 170.001 749.829Z" fill="white"/>
<path d="M48.1897 745.02L53.0048 740.204C40.0229 726.07 32.0999 707.217 32.0999 686.515C32.0999 665.813 40.0229 646.959 53.0048 632.825L48.1897 628.01C33.9828 643.38 25.2942 663.935 25.2942 686.515C25.2942 709.1 33.9828 729.649 48.1897 745.02Z" fill="white"/>
<path d="M111.5 600.302C88.9221 600.302 68.3688 608.991 52.9993 623.199L57.8143 628.014C71.9532 615.037 90.7993 607.108 111.5 607.108C155.352 607.108 190.9 642.659 190.9 686.514C190.9 707.216 182.977 726.069 169.995 740.203L174.81 745.019C189.023 729.648 197.706 709.099 197.706 686.514C197.706 638.899 159.112 600.302 111.5 600.302Z" fill="white"/>
<path d="M12.8796 683.111H19.691C21.4832 633.942 61.8978 594.63 111.5 594.63C135.649 594.63 157.614 603.949 174.011 619.184L178.826 614.368C161.193 597.903 137.526 587.824 111.5 587.824C58.1376 587.824 14.6775 630.181 12.8796 683.111Z" fill="white"/>
<path d="M183.641 619.184L178.826 623.999C193.339 639.625 202.481 660.304 203.309 683.111H210.121C209.281 658.427 199.385 636.046 183.641 619.184Z" fill="white"/>
<path d="M111.5 785.204C164.863 785.204 208.323 742.847 210.121 689.917H203.309C201.517 739.086 161.102 778.398 111.5 778.398C61.8978 778.398 21.4832 739.086 19.691 689.917H12.8796C14.6775 742.847 58.1376 785.204 111.5 785.204Z" fill="white"/>
<path d="M108.097 797.625V790.814C81.8497 789.974 58.0524 779.436 40.159 762.67L35.344 767.485C54.4737 785.482 79.9668 796.78 108.097 797.625Z" fill="white"/>
<path d="M114.903 575.403V582.215C170.959 584.013 215.854 630.017 215.854 686.515C215.854 743.012 170.959 789.016 114.903 790.814V797.626C174.719 795.828 222.66 746.772 222.66 686.515C222.66 626.257 174.719 577.201 114.903 575.403Z" fill="white"/>
<path d="M0.340088 686.515C0.340088 715.991 11.8134 742.779 30.5348 762.676L35.3498 757.861C17.8591 739.2 7.1458 714.108 7.1458 686.515C7.1458 630.017 52.0408 584.013 108.097 582.215V575.403C48.2807 577.201 0.340088 626.257 0.340088 686.515Z" fill="white"/>
<path d="M111.5 810.16C144.417 810.16 174.328 797.291 196.481 776.316L191.666 771.501C170.744 791.244 142.54 803.354 111.5 803.354C46.9761 803.354 -5.33149 751.043 -5.33149 686.514C-5.33149 655.472 6.77701 627.266 26.5192 606.343L21.7042 601.527C0.731262 623.682 -12.1372 653.595 -12.1372 686.514C-12.1372 754.803 43.2159 810.16 111.5 810.16Z" fill="white"/>
<path d="M111.5 562.868C78.583 562.868 48.6719 575.738 26.5193 596.712L31.3343 601.527C52.2562 581.784 80.4602 569.674 111.5 569.674C176.024 569.674 228.331 621.986 228.331 686.514C228.331 717.556 216.223 745.762 196.481 766.685L201.296 771.501C222.269 749.347 235.137 719.433 235.137 686.514C235.137 618.225 179.784 562.868 111.5 562.868Z" fill="white"/>
<path d="M247.575 689.917H240.769C238.96 759.766 181.78 815.832 111.5 815.832C41.2254 815.832 -15.9596 759.766 -17.7631 689.917H-24.5688C-22.7653 763.526 37.4652 822.638 111.5 822.638C185.535 822.638 245.765 763.526 247.575 689.917Z" fill="white"/>
<path d="M210.12 592.696L205.305 597.512C226.579 619.932 239.907 649.97 240.763 683.111H247.569C246.712 648.093 232.63 616.354 210.12 592.696Z" fill="white"/>
<path d="M-24.5688 683.112H-17.7631C-15.9596 613.263 41.2254 557.197 111.5 557.197C145.982 557.197 177.311 570.696 200.496 592.702L205.311 587.887C180.896 564.65 147.865 550.391 111.5 550.391C37.4652 550.391 -22.7653 609.508 -24.5688 683.112Z" fill="white"/>
<path d="M4.0549 789.157L8.86428 784.347C-15.3924 758.898 -30.2856 724.447 -30.2856 686.514C-30.2856 609.343 31.3628 546.567 108.097 544.763V537.957C27.6027 539.766 -37.0913 605.582 -37.0913 686.514C-37.0913 726.324 -21.4325 762.477 4.0549 789.157Z" fill="white"/>
<path d="M214.136 793.973L209.321 789.163C183.879 813.416 149.431 828.31 111.5 828.31C73.5696 828.31 39.1213 813.416 13.6793 789.157L8.86426 793.967C35.5427 819.462 71.6924 835.116 111.5 835.116C151.308 835.116 187.458 819.462 214.136 793.973Z" fill="white"/>
<path d="M114.903 537.957V544.763C191.637 546.567 253.286 609.343 253.286 686.514C253.286 724.447 238.393 758.898 214.136 784.341L218.951 789.151C244.438 762.477 260.091 726.324 260.091 686.514C260.091 605.582 195.397 539.766 114.903 537.957Z" fill="white"/>
<path d="M0.045166 570.235L4.85454 575.051C32.5595 548.529 70.127 532.24 111.5 532.24C196.696 532.24 265.763 601.311 265.763 686.514C265.763 770.582 198.528 838.933 114.903 840.742V847.548C202.288 845.733 272.569 774.336 272.569 686.514C272.569 597.551 200.456 525.434 111.5 525.434C68.2498 525.434 28.9808 542.489 0.045166 570.235Z" fill="white"/>
<path d="M108.097 847.548V840.742C24.4719 838.933 -42.7629 770.582 -42.7629 686.514C-42.7629 645.138 -26.4745 607.567 0.0450592 579.861L-4.76998 575.051C-32.5146 603.988 -49.5686 643.255 -49.5686 686.514C-49.5686 774.336 20.7118 845.739 108.097 847.548Z" fill="white"/>
<path d="M231.78 571.035C259.819 600.24 277.327 639.63 278.195 683.111H285C284.127 637.753 265.865 596.661 236.589 566.226L231.78 571.035Z" fill="white"/>
<path d="M-62.0002 683.111H-55.1945C-53.3853 592.589 20.5531 519.762 111.5 519.762C156.321 519.762 197.008 537.453 226.97 566.226L231.785 561.416C200.587 531.407 158.199 512.956 111.5 512.956C16.7929 512.956 -60.1854 588.828 -62.0002 683.111Z" fill="white"/>
<path d="M278.2 689.917C276.386 780.439 202.453 853.266 111.5 853.266C20.5531 853.266 -53.3853 780.439 -55.1945 689.917H-62.0002C-60.1854 784.2 16.7929 860.072 111.5 860.072C206.207 860.072 283.191 784.2 285.006 689.917H278.2Z" fill="white"/>
<path d="M114.903 500.523V507.33C212.31 509.145 290.717 588.669 290.717 686.514C290.717 734.781 271.633 778.591 240.604 810.812L245.419 815.628C277.208 782.663 296.973 737.975 297.517 688.562C298.64 586.276 217 502.378 114.903 500.523Z" fill="white"/>
<path d="M-22.4136 815.628L-17.6043 810.818C-48.6327 778.591 -67.717 734.781 -67.717 686.514C-67.717 588.664 10.6905 509.144 108.097 507.329V500.518C7.85478 502.299 -73.3998 583.553 -74.5114 684.466C-75.0729 735.348 -55.1435 781.676 -22.4136 815.628Z" fill="white"/>
<path d="M-21.6142 548.581C13.3786 514.805 61.1433 494.239 113.61 494.817C164.556 495.379 210.637 515.775 244.614 548.575L249.429 543.76C214.244 509.746 166.49 488.595 113.689 488.011C59.3114 487.416 9.80556 508.736 -26.4292 543.76L-21.6142 548.581Z" fill="white"/>
<path d="M254.244 548.575L249.423 553.396C283.197 588.386 303.761 636.16 303.183 688.63C302.037 792.651 218.248 876.407 114.903 878.188V885C221.974 883.219 308.803 796.463 309.989 688.704C310.59 634.322 289.265 584.813 254.244 548.575Z" fill="white"/>
<path d="M108.097 878.182C2.83539 876.322 -81.3456 789.844 -80.183 684.404C-79.6215 633.454 -59.227 587.371 -26.4292 553.391L-31.2442 548.575C-65.2558 583.763 -86.4045 631.526 -86.9887 684.325C-88.191 793.553 -0.958786 883.14 108.097 884.994V878.182Z" fill="white"/>
<path d="M130.579 672.25L125.696 677.133C127.476 679.822 128.514 683.049 128.514 686.515C128.514 695.913 120.898 703.53 111.5 703.53C103.271 703.53 96.4026 697.682 94.826 689.918H87.9238C89.5742 701.46 99.4992 710.336 111.5 710.336C124.658 710.336 135.32 699.673 135.32 686.515C135.32 681.166 133.556 676.226 130.579 672.25Z" fill="white"/>
<path d="M122.576 686.588C122.576 692.719 117.608 697.688 111.477 697.688C105.347 697.688 100.378 692.719 100.378 686.588C100.378 680.457 105.347 675.488 111.477 675.488C117.608 675.488 122.576 680.457 122.576 686.588Z" fill="white"/>
<path d="M111.5 675.171C105.239 675.171 100.157 680.253 100.157 686.515C100.157 692.782 105.239 697.858 111.5 697.858C117.767 697.858 122.843 692.782 122.843 686.515C122.843 680.253 117.767 675.171 111.5 675.171ZM111.477 695.391C109.532 691.619 106.447 688.539 102.681 686.594C106.453 684.649 109.532 681.563 111.477 677.797C113.423 681.569 116.508 684.649 120.274 686.594C116.508 688.534 113.423 691.619 111.477 695.391Z" fill="white"/>
</g>
</mask>
<g mask="url(#mask0)">
<rect x="-80" y="541" width="338" height="338" rx="50" fill="#D3E1E2"/>
</g>
<rect opacity="0.3" x="-68.5" y="527.5" width="382" height="382" rx="48.5" stroke="white" stroke-width="3"/>
<defs>
<clipPath id="clip0">
<rect width="676" height="676" fill="white" transform="translate(618 264)"/>
</clipPath>
<clipPath id="clip1">
<rect width="397" height="397" fill="white" transform="translate(-87 488)"/>
</clipPath>
</defs>
</svg>
