<svg width="266" height="213" viewBox="0 0 266 213" fill="none" xmlns="http://www.w3.org/2000/svg"><g opacity=".05" clip-path="url(#clip0)"><path d="M78.867 70.39h5.798c1.325-6.515 7.096-11.422 14.01-11.422 2.911 0 5.623.87 7.881 2.365l4.103-4.098a19.941 19.941 0 00-11.984-3.98c-10.083 0-18.417 7.45-19.808 17.136z" fill="#FF2639"/><path d="M75.183 92.67l4.07-4.065a24.62 24.62 0 01-5.357-15.36c0-12.703 9.583-23.165 21.92-24.583v-5.745c-15.501 1.442-27.638 14.465-27.638 30.324a30.31 30.31 0 007.005 19.429zm48.103-16.568c-1.42 12.322-11.893 21.894-24.611 21.894a24.682 24.682 0 01-15.377-5.35l-4.07 4.065a30.398 30.398 0 0019.447 6.997c15.877 0 28.914-12.123 30.358-27.606h-5.747zm-21.752-33.18v5.745c11.398 1.309 20.437 10.338 21.752 21.728h5.747c-1.353-14.546-12.937-26.121-27.499-27.473z" fill="#FF2639"/><path d="M95.816 114.07v-5.726c-18.136-1.457-32.403-16.607-32.403-35.098 0-8.696 3.164-16.654 8.396-22.799l-4.055-4.046C61.493 53.59 57.695 62.97 57.695 73.246c0 21.647 16.825 39.358 38.12 40.824zm33.779-67.669l-4.055 4.046c5.232 6.145 8.396 14.103 8.396 22.799s-3.164 16.654-8.391 22.799l4.055 4.05c6.257-7.192 10.054-16.573 10.054-26.849s-3.797-19.657-10.059-26.845zm-53.745.009a35.137 35.137 0 0122.825-8.386c8.71 0 16.673 3.16 22.825 8.382l4.05-4.046c-7.195-6.254-16.587-10.047-26.875-10.047S78.995 36.105 71.8 42.36l4.05 4.05zm45.649 53.676a35.13 35.13 0 01-19.965 8.258v5.726a40.807 40.807 0 0024.016-9.938l-4.051-4.046z" fill="#FF2639"/><path d="M98.675 124.65c27.461 0 49.9-21.485 51.382-48.548h-5.728c-1.477 23.903-21.352 42.837-45.654 42.837-24.302 0-44.177-18.934-45.654-42.837h-5.728c1.482 27.063 23.92 48.548 51.382 48.548zM47.293 70.39h5.728c1.42-22.96 19.808-41.328 42.795-42.746v-5.721C69.67 23.35 48.722 44.274 47.293 70.39zm54.241-48.467v5.721c22.986 1.418 41.375 19.786 42.795 42.747h5.727c-1.429-26.117-22.376-47.04-48.522-48.468z" fill="#FF2639"/><path d="M98.675 11.37c-34.213 0-61.946 27.701-61.946 61.876 0 33.218 26.203 60.315 59.087 61.809v-5.716c-29.725-1.485-53.37-26.031-53.37-56.093 0-31.019 25.175-56.164 56.229-56.164s56.228 25.145 56.228 56.164c0 30.062-23.645 54.608-53.369 56.093v5.716c32.884-1.494 59.087-28.591 59.087-61.81 0-34.174-27.733-61.875-61.946-61.875z" fill="#FF2639"/><path d="M147.826 126.378l-4.045-4.041c-11.875 10.895-27.714 17.544-45.106 17.544-17.393 0-33.227-6.649-45.106-17.544l-4.046 4.041c12.913 11.928 30.182 19.215 49.152 19.215 18.974 0 36.238-7.287 49.151-19.215zm-102.344-4.035l4.046-4.041C38.62 106.441 31.964 90.619 31.964 73.246c0-17.372 6.657-33.193 17.564-45.055l-4.046-4.04C33.546 37.048 26.246 54.297 26.246 73.245c0 18.954 7.3 36.198 19.236 49.097zM98.675.898c-18.97 0-36.239 7.292-49.152 19.215l4.045 4.041C65.448 13.264 81.282 6.61 98.675 6.61c36.843 0 66.711 29.834 66.711 66.636 0 17.372-6.657 33.194-17.564 45.055l4.045 4.041c11.941-12.899 19.237-30.143 19.237-49.096 0-39.958-32.427-72.348-72.43-72.348z" fill="#FF2639"/><path d="M15.815 70.39h5.723C23.044 29.13 56.999-3.86 98.675-3.86c20.289 0 38.745 7.82 52.52 20.604l4.046-4.04C140.426-1.115 120.542-9.573 98.675-9.573c-44.835 0-81.35 35.545-82.86 79.962zm143.472-53.646l-4.046 4.041c12.194 13.113 19.875 30.467 20.571 49.606h5.723c-.706-20.715-9.021-39.496-22.248-53.647zm-60.612 139.32c44.834 0 81.349-35.545 82.86-79.962h-5.723c-1.506 41.261-35.462 74.251-77.137 74.251s-75.631-32.99-77.137-74.251h-5.723c1.51 44.417 38.025 79.962 82.86 79.962z" fill="#FF2639"/><path d="M95.816 166.488v-5.716c-22.053-.705-42.047-9.548-57.081-23.618l-4.045 4.041c16.072 15.103 37.491 24.584 61.126 25.293zm5.718-186.484v5.716c47.098 1.51 84.818 40.115 84.818 87.526 0 47.411-37.72 86.017-84.818 87.526v5.716c50.257-1.509 90.536-42.675 90.536-93.242 0-50.567-40.279-91.733-90.536-93.242zM5.28 73.246c0 24.736 9.639 47.216 25.369 63.913l4.045-4.041C20 117.459 10.997 96.402 10.997 73.246c0-47.411 37.72-86.017 84.819-87.526v-5.716C45.558-18.487 5.279 22.679 5.279 73.246z" fill="#FF2639"/><path d="M98.675 177.007c27.656 0 52.787-10.8 71.4-28.401l-4.046-4.041c-17.578 16.568-41.275 26.73-67.354 26.73-54.212 0-98.16-43.898-98.16-98.05 0-26.049 10.173-49.719 26.76-67.277l-4.046-4.041C5.61 20.518-5.204 45.62-5.204 73.246c0 57.306 46.507 103.761 103.879 103.761zm0-207.522c-27.657 0-52.788 10.8-71.4 28.401l4.045 4.041c17.58-16.567 41.276-26.73 67.355-26.73 54.212 0 98.16 43.898 98.16 98.05 0 26.05-10.173 49.719-26.76 67.277l4.045 4.041c17.621-18.591 28.433-43.693 28.433-71.319 0-57.306-46.507-103.76-103.878-103.76z" fill="#FF2639"/><path d="M213.003 76.102h-5.718c-1.52 58.615-49.562 105.664-108.61 105.664-59.044 0-107.09-47.049-108.606-105.664h-5.718c1.515 61.771 52.12 111.376 114.324 111.376 62.203 0 112.808-49.605 114.328-111.376zM181.535-5.483l-4.046 4.04c17.874 18.816 29.072 44.023 29.791 71.834h5.718c-.719-29.387-12.551-56.022-31.463-75.874zM-15.649 70.39h5.718C-8.416 11.775 39.631-35.275 98.675-35.275c28.971 0 55.294 11.328 74.773 29.796l4.046-4.041c-20.514-19.5-48.266-31.466-78.82-31.466-62.203 0-112.808 49.61-114.323 111.376z" fill="#FF2639"/><path d="M8.4 159.382l4.041-4.037c-20.38-21.356-32.893-50.267-32.893-82.1 0-64.76 51.796-117.44 116.268-118.953v-5.712C28.185-49.902-26.17 5.33-26.17 73.246c0 33.408 13.156 63.746 34.57 86.136zm176.508 4.041l-4.045-4.036c-21.376 20.352-50.319 32.851-82.188 32.851-31.87 0-60.812-12.499-82.188-32.856l-4.046 4.036c22.415 21.395 52.788 34.532 86.234 34.532s63.818-13.137 86.233-34.527zM101.534-51.42v5.712c64.471 1.513 116.267 54.193 116.267 118.954 0 31.832-12.513 60.743-32.893 82.095l4.046 4.036c21.414-22.385 34.566-52.723 34.566-86.131 0-67.916-54.356-123.148-121.986-124.666z" fill="#FF2639"/><path d="M5.031-24.332l4.041 4.041C32.35-42.547 63.913-56.217 98.675-56.217c71.581 0 129.61 57.963 129.61 129.463 0 70.548-56.49 127.907-126.751 129.425v5.712c73.42-1.523 132.469-61.438 132.469-135.137 0-74.655-60.588-135.175-135.328-135.175-36.339 0-69.332 14.313-93.644 37.597zm90.785 232.715v-5.712C25.555 201.153-30.935 143.794-30.935 73.246c0-34.722 13.685-66.25 35.967-89.5L.986-20.292c-23.31 24.284-37.64 57.235-37.64 93.537 0 73.699 59.05 133.619 132.47 135.137z" fill="#FF2639"/><path d="M199.732-23.661C223.291.847 238.001 33.903 238.73 70.39h5.718c-.734-38.063-16.077-72.547-40.675-98.087l-4.041 4.036zM-47.098 70.39h5.718C-39.86-5.574 22.262-66.689 98.675-66.689c37.658 0 71.843 14.846 97.017 38.991l4.045-4.036C173.525-56.917 137.91-72.4 98.675-72.4 19.103-72.4-45.574-8.73-47.098 70.39zm285.833 5.712c-1.525 75.964-63.643 137.078-140.06 137.078-76.413 0-138.535-61.114-140.055-137.078h-5.718c1.524 79.12 66.2 142.79 145.773 142.79 79.572 0 144.253-63.67 145.778-142.79h-5.718z" fill="#FF2639"/><path d="M101.534-82.833v5.712c81.84 1.523 147.717 68.258 147.717 150.367 0 40.505-16.035 77.269-42.104 104.309l4.045 4.041c26.709-27.664 43.315-65.165 43.772-106.631.944-85.836-67.649-156.242-153.43-157.798zM-13.838 181.596l4.04-4.037c-26.07-27.044-42.104-63.808-42.104-104.313 0-82.114 65.877-148.844 147.718-150.367v-5.717C11.593-81.343-56.676-13.156-57.61 71.528c-.472 42.699 16.273 81.576 43.772 110.068zm216.939 0c-27.07 26.04-63.876 42.056-104.426 42.056-40.551 0-77.356-16.016-104.427-42.056l-4.045 4.041c27.694 26.678 65.238 43.265 106.747 43.722 42.747.471 81.668-16.254 110.192-43.722l-4.041-4.041z" fill="#FF2639"/><path d="M218.607-42.51l-4.051 4.046c28.376 29.362 45.655 69.453 45.169 113.485-.963 87.293-71.362 157.579-158.191 159.073v5.717c89.959-1.495 162.913-74.299 163.909-164.728.505-45.636-17.412-87.183-46.836-117.593zM95.816 234.09C7.376 232.528-63.352 159.957-62.375 71.475c.472-42.756 17.607-81.429 45.163-109.944l-4.045-4.04C-49.833-12.982-67.602 27.1-68.093 71.407-69.103 163.07 4.188 238.25 95.816 239.806v-5.716zm18.889-172.815l-4.103 4.099a14.202 14.202 0 012.368 7.872c0 7.887-6.399 14.279-14.295 14.279-6.914 0-12.685-4.907-14.01-11.423h-5.799c1.387 9.686 9.726 17.135 19.809 17.135 11.055 0 20.013-8.949 20.013-19.991a19.89 19.89 0 00-3.983-11.97z" fill="#FF2639"/><path d="M107.981 73.308c0 5.145-4.174 9.315-9.325 9.315-5.151 0-9.325-4.17-9.325-9.315s4.174-9.315 9.325-9.315c5.151 0 9.325 4.17 9.325 9.315z" fill="#fff"/><path d="M98.675 63.727c-5.261 0-9.53 4.264-9.53 9.519 0 5.26 4.269 9.52 9.53 9.52 5.265 0 9.53-4.26 9.53-9.52 0-5.255-4.265-9.52-9.53-9.52zm-.02 16.968a17.203 17.203 0 00-7.39-7.382 17.204 17.204 0 007.39-7.383 17.204 17.204 0 007.391 7.383 17.178 17.178 0 00-7.39 7.382z" fill="#FF2639"/></g><defs><clipPath id="clip0"><path fill="#fff" transform="translate(-68.103 -93.343)" d="M0 0h333.555v333.154H0z"/></clipPath></defs></svg>