<svg width="206" height="242" viewBox="0 0 206 242" fill="none" xmlns="http://www.w3.org/2000/svg">
<g clip-path="url(#clip0)">
<path opacity="0.5" d="M149.724 157.158L102.988 130.218L56.2515 157.158H0.553955L6.01974 186.109L102.988 242L198.837 186.755L205.419 157.158H149.724Z" fill="#327A83"/>
<path d="M199.587 53.8046L110.896 2.68903C105.998 -0.133321 99.9643 -0.133321 95.0688 2.68903L6.38819 53.8046C2.79436 55.875 0.581299 59.7026 0.581299 63.8463L5.49314 65.7778L6.51099 60.569L98.0241 115.855L98.4116 124.453L106.636 123.778L108.571 116.098L199.465 60.569L200.482 65.7778L205.394 63.8463C205.394 59.7026 203.181 55.875 199.587 53.8046Z" fill="white"/>
<path d="M97.8576 125.079L97.4564 116.193L6.69375 62.6526L5.92696 66.5728L0 64.2381V63.8431C0 59.5088 2.33585 55.4686 6.09614 53.3001L94.7767 2.1873C99.8387 -0.730401 106.126 -0.730401 111.185 2.1873L199.877 53.3029C203.637 55.4714 205.973 59.5115 205.973 63.8458V64.2408L200.046 66.5728L199.052 61.5002L109.076 116.468L107.097 124.322L97.8576 125.079ZM5.86965 60.8191L98.5889 115.517L98.9627 123.829L106.175 123.235L108.066 115.727L108.268 115.604L199.874 59.6422L200.919 64.9845L204.807 63.4562C204.671 59.6831 202.586 56.2042 199.298 54.3108L110.604 3.19255C105.902 0.481901 100.06 0.481901 95.3553 3.19255L6.67738 54.3054C3.38917 56.2015 1.30437 59.6804 1.16793 63.4508L5.05374 64.9791L5.86965 60.8191Z" fill="#83919B"/>
<path d="M199.615 60.4983L108.273 113.148C105.018 115.025 103.015 118.49 103.015 122.241V202.953L92.5964 212.426L96.8097 214.518C100.706 216.455 105.283 216.479 109.204 214.589L111.182 213.632C111.452 213.524 111.723 213.395 111.985 213.246L203.487 160.504C204.685 159.814 205.421 158.537 205.421 157.158V63.8437C205.419 60.8688 202.193 59.0109 199.615 60.4983Z" fill="white"/>
<path d="M103.078 216.559C100.835 216.559 98.5889 216.052 96.5505 215.038L91.5786 212.568L102.434 202.698V122.242C102.434 118.297 104.56 114.619 107.984 112.647L199.325 59.9973L199.615 60.4985L199.325 59.9973C200.72 59.1936 202.382 59.1936 203.776 59.9973C205.17 60.8009 206.003 62.2394 206.003 63.8467V157.159C206.003 158.741 205.151 160.215 203.776 161.008L112.274 213.747C112.004 213.902 111.714 214.044 111.414 214.164L109.455 215.112C107.455 216.076 105.266 216.559 103.078 216.559ZM93.6143 212.284L97.0662 214.001C100.775 215.845 105.217 215.869 108.947 214.069L110.964 213.096C111.218 212.995 111.463 212.878 111.693 212.745L203.195 160.003C204.21 159.417 204.84 158.327 204.84 157.159V63.844C204.84 62.6562 204.226 61.5937 203.195 60.9998C202.166 60.4059 200.935 60.4059 199.904 60.9998L108.563 113.649C105.498 115.414 103.594 118.708 103.594 122.242V203.21L93.6143 212.284Z" fill="#83919B"/>
<path d="M94.0182 213.246L2.51602 160.504C1.31808 159.815 0.581299 158.537 0.581299 157.159V63.8441C0.581299 60.8692 3.80674 59.0085 6.38819 60.496L97.7294 113.145C100.985 115.022 102.988 118.488 102.988 122.239V208.073C102.988 212.671 98.005 215.543 94.0182 213.246Z" fill="white"/>
<path d="M97.0089 214.635C95.8819 214.635 94.7549 214.338 93.7289 213.747L2.2267 161.005C0.854115 160.215 0 158.741 0 157.156V63.8437C0 62.2364 0.832285 60.798 2.2267 59.9943C3.62112 59.1907 5.28296 59.1907 6.67738 59.9943L98.0186 112.644C101.44 114.616 103.569 118.294 103.569 122.239V208.072C103.569 210.44 102.344 212.559 100.289 213.744C99.2602 214.338 98.1332 214.635 97.0089 214.635ZM94.3074 212.742C95.9993 213.717 98.0159 213.717 99.7077 212.742C101.397 211.766 102.406 210.023 102.406 208.075V122.241C102.406 118.708 100.502 115.417 97.4373 113.649L6.09614 60.9996C5.06739 60.4057 3.8367 60.4057 2.80521 60.9996C1.77372 61.5935 1.15974 62.656 1.15974 63.8437V157.156C1.15974 158.324 1.79009 159.417 2.80521 160L94.3074 212.742Z" fill="#83919B"/>
<path d="M86.9478 124.118V198.082L12.8608 155.379V81.4121L18.0183 84.387L86.9478 124.118Z" fill="#D3E1E2"/>
<path d="M86.9479 124.118V192.265L18.0183 152.534V84.3867L86.9479 124.118Z" fill="#F8FDFF"/>
<path d="M12.3244 74.2887C12.9928 73.7867 12.8143 72.4236 11.9256 71.244C11.0369 70.0643 9.7746 69.515 9.10613 70.0169C8.43766 70.5189 8.61618 71.882 9.50487 73.0617C10.3936 74.2413 11.6559 74.7906 12.3244 74.2887Z" fill="#A8B7BB"/>
<path d="M12.7299 73.3104C12.7299 74.4219 11.8294 74.8006 10.716 74.1604C9.60265 73.5202 8.70215 72.1008 8.70215 70.9893C8.70215 69.8778 9.60265 69.4991 10.716 70.1393C11.8294 70.7795 12.7299 72.2016 12.7299 73.3104Z" fill="#D3E1E2"/>
<path d="M33.0375 85.1014C33.0375 86.2129 32.137 86.5916 31.0236 85.9514C29.9103 85.3112 29.0098 83.8918 29.0098 82.7803C29.0098 81.6688 29.9103 81.2902 31.0236 81.9304C32.137 82.5706 33.0375 83.9899 33.0375 85.1014Z" fill="#D3E1E2"/>
<path d="M53.348 96.8895C53.348 98.001 52.4475 98.3797 51.3342 97.7395C50.2208 97.0993 49.3203 95.6799 49.3203 94.5684C49.3203 93.4569 50.2208 93.0782 51.3342 93.7184C52.4475 94.3614 53.348 95.7807 53.348 96.8895Z" fill="#D3E1E2"/>
<path d="M73.6559 108.681C73.6559 109.792 72.7554 110.171 71.642 109.53C70.5287 108.89 69.6282 107.471 69.6282 106.359C69.6282 105.248 70.5287 104.869 71.642 105.509C72.7554 106.15 73.6559 107.569 73.6559 108.681Z" fill="#D3E1E2"/>
<path d="M93.9664 120.468C93.9664 121.579 93.0659 121.958 91.9526 121.318C90.8392 120.677 89.9387 119.258 89.9387 118.147C89.9387 117.035 90.8392 116.656 91.9526 117.297C93.0632 117.939 93.9664 119.359 93.9664 120.468Z" fill="#D3E1E2"/>
<path d="M197.657 75.0578C198.546 73.8782 198.725 72.515 198.056 72.0131C197.388 71.5111 196.125 72.0605 195.237 73.2401C194.348 74.4197 194.169 75.7829 194.838 76.2848C195.506 76.7868 196.769 76.2374 197.657 75.0578Z" fill="#925FC4"/>
<path d="M194.433 75.3153C194.433 76.4268 195.333 76.8054 196.446 76.1652C197.56 75.525 198.46 74.1057 198.46 72.9942C198.46 71.8827 197.56 71.504 196.446 72.1442C195.336 72.7871 194.433 74.2065 194.433 75.3153Z" fill="#D3E1E2"/>
<path d="M174.125 87.1063C174.125 88.2178 175.025 88.5965 176.139 87.9563C177.252 87.3161 178.152 85.8967 178.152 84.7852C178.152 83.6737 177.252 83.295 176.139 83.9352C175.025 84.5754 174.125 85.9948 174.125 87.1063Z" fill="#D3E1E2"/>
<path d="M153.814 98.8944C153.814 100.006 154.715 100.385 155.828 99.7443C156.941 99.1041 157.842 97.6848 157.842 96.5733C157.842 95.4618 156.941 95.0831 155.828 95.7233C154.717 96.3663 153.814 97.7856 153.814 98.8944Z" fill="#D3E1E2"/>
<path d="M133.507 110.684C133.507 111.796 134.407 112.175 135.52 111.534C136.634 110.894 137.534 109.475 137.534 108.363C137.534 107.252 136.634 106.873 135.52 107.513C134.407 108.154 133.507 109.573 133.507 110.684Z" fill="#D3E1E2"/>
<path d="M113.199 122.473C113.199 123.584 114.099 123.963 115.213 123.322C116.326 122.682 117.226 121.263 117.226 120.151C117.226 119.04 116.326 118.661 115.213 119.301C114.099 119.944 113.199 121.364 113.199 122.473Z" fill="#D3E1E2"/>
<path d="M193.3 158.019C193.3 159.131 194.201 159.51 195.314 158.869C196.427 158.229 197.328 156.81 197.328 155.698C197.328 154.587 196.427 154.208 195.314 154.848C194.204 155.489 193.3 156.908 193.3 158.019Z" fill="#925FC4"/>
<path d="M193.3 158.019C193.3 159.131 194.201 159.51 195.314 158.869C196.427 158.229 197.328 156.81 197.328 155.698C197.328 154.587 196.427 154.208 195.314 154.848C194.204 155.489 193.3 156.908 193.3 158.019Z" fill="#D3E1E2"/>
<path d="M172.992 169.807C172.992 170.919 173.893 171.298 175.006 170.657C176.12 170.017 177.02 168.598 177.02 167.486C177.02 166.375 176.12 165.996 175.006 166.636C173.893 167.279 172.992 168.699 172.992 169.807Z" fill="#D3E1E2"/>
<path d="M152.682 181.598C152.682 182.71 153.582 183.089 154.696 182.448C155.809 181.808 156.71 180.389 156.71 179.277C156.71 178.166 155.809 177.787 154.696 178.427C153.585 179.068 152.682 180.487 152.682 181.598Z" fill="#D3E1E2"/>
<path d="M132.374 193.386C132.374 194.497 133.275 194.876 134.388 194.236C135.501 193.595 136.402 192.176 136.402 191.065C136.402 189.953 135.501 189.574 134.388 190.215C133.275 190.857 132.374 192.277 132.374 193.386Z" fill="#D3E1E2"/>
<path d="M112.064 205.177C112.064 206.288 112.964 206.667 114.078 206.027C115.191 205.386 116.091 203.967 116.091 202.856C116.091 201.744 115.191 201.365 114.078 202.006C112.967 202.646 112.064 204.065 112.064 205.177Z" fill="#D3E1E2"/>
<path d="M10.7159 158.869C10.7159 159.981 9.81544 160.359 8.70209 159.719C7.58874 159.079 6.68823 157.659 6.68823 156.548C6.68823 155.436 7.58874 155.058 8.70209 155.698C9.81544 156.338 10.7159 157.76 10.7159 158.869Z" fill="#A8B7BB"/>
<path d="M10.7159 158.869C10.7159 159.981 9.81544 160.359 8.70209 159.719C7.58874 159.079 6.68823 157.659 6.68823 156.548C6.68823 155.436 7.58874 155.058 8.70209 155.698C9.81544 156.338 10.7159 157.76 10.7159 158.869Z" fill="#D3E1E2"/>
<path d="M31.0265 170.66C31.0265 171.772 30.126 172.15 29.0126 171.51C27.8993 170.87 26.9988 169.45 26.9988 168.339C26.9988 167.227 27.8993 166.849 29.0126 167.489C30.126 168.129 31.0265 169.549 31.0265 170.66Z" fill="#D3E1E2"/>
<path d="M51.3341 182.448C51.3341 183.56 50.4336 183.938 49.3203 183.298C48.2069 182.658 47.3064 181.238 47.3064 180.127C47.3064 179.016 48.2069 178.637 49.3203 179.277C50.4336 179.917 51.3341 181.339 51.3341 182.448Z" fill="#D3E1E2"/>
<path d="M71.642 194.238C71.642 195.35 70.7415 195.728 69.6281 195.088C68.5148 194.448 67.6143 193.029 67.6143 191.917C67.6143 190.806 68.5148 190.427 69.6281 191.067C70.7415 191.707 71.642 193.127 71.642 194.238Z" fill="#D3E1E2"/>
<path d="M91.9523 206.026C91.9523 207.138 91.0518 207.516 89.9384 206.876C88.8251 206.236 87.9246 204.817 87.9246 203.705C87.9246 202.594 88.8251 202.215 89.9384 202.855C91.0518 203.495 91.9523 204.917 91.9523 206.026Z" fill="#D3E1E2"/>
<path d="M184.24 106.163C183.498 105.735 182.718 105.376 181.905 105.087C178.775 103.97 175.137 103.861 171.243 104.735C168.214 105.414 165.03 106.691 161.807 108.549C154.431 112.802 147.513 119.64 142.323 127.807C137.1 136.035 134.221 144.69 134.221 152.181C134.221 158.973 136.612 164.291 140.981 167.282C141.281 167.486 141.586 167.682 141.903 167.865C144.236 169.205 146.946 169.87 149.901 169.87C150.676 169.87 151.465 169.824 152.272 169.731C156.06 169.306 160.164 167.879 164.336 165.473C171.712 161.223 178.63 154.383 183.817 146.215C189.043 137.988 191.919 129.333 191.919 121.841C191.922 114.586 189.196 109.018 184.24 106.163ZM151.437 164.762C148.758 165.021 146.37 164.604 144.438 163.49C144.053 163.269 143.69 163.021 143.349 162.743C140.721 160.632 139.286 156.941 139.286 152.181C139.286 138.5 150.526 120.888 164.342 112.925C167.046 111.366 169.669 110.287 172.114 109.702C173.552 109.361 174.922 109.19 176.212 109.19C177.399 109.19 178.515 109.334 179.547 109.631C180.319 109.849 181.042 110.151 181.713 110.538C185.034 112.453 186.865 116.469 186.865 121.847C186.865 135.531 175.626 153.14 161.81 161.103C158.118 163.228 154.578 164.46 151.437 164.762Z" fill="#FF2639"/>
<path d="M158.044 164.762L156.24 134.244L183.741 108.462L187.207 112.145L161.433 136.309L163.095 164.465L158.044 164.762Z" fill="#FF2639"/>
<path d="M151.438 164.762C159.318 165.65 167.194 162.91 172.763 157.273C175.874 154.127 178.731 150.544 181.195 146.662C185.823 139.375 188.609 131.749 189.185 124.898C189.308 123.432 188.309 122.111 186.86 121.847C186.86 135.531 175.62 153.14 161.804 161.103C158.118 163.228 154.578 164.46 151.438 164.762Z" fill="#92101B"/>
<path d="M147.515 124.72L144.584 128.84L157.395 137.925L160.326 133.806L147.515 124.72Z" fill="#FF2639"/>
<path d="M166.561 126.606L166.943 126.058L165.003 124.958C164.967 124.936 164.929 124.917 164.893 124.895H164.891C163.185 123.963 160.697 124.192 157.927 125.789C152.78 128.755 148.608 135.323 148.608 140.461C148.608 142.619 149.342 144.18 150.575 145.046C150.758 145.174 150.952 145.289 151.157 145.387L152.84 146.37L153.211 145.834C154.595 145.847 156.202 145.384 157.921 144.393C163.068 141.426 167.24 134.858 167.24 129.72C167.246 128.477 167 127.434 166.561 126.606Z" fill="#92101B"/>
<path d="M165.42 140.38C169.533 134.921 170.359 128.613 167.266 126.29C164.173 123.968 158.332 126.511 154.219 131.97C150.106 137.429 149.279 143.737 152.372 146.06C155.465 148.382 161.307 145.839 165.42 140.38Z" fill="#FF2639"/>
<path d="M142.523 42.8943V50.6394C142.523 50.6421 142.523 50.6421 142.523 50.6421V51.7127H142.482C142.302 53.9466 141.551 56.1696 140.233 58.3027C140.08 58.5534 139.917 58.8013 139.748 59.0492C138.154 61.3703 135.873 63.5688 132.904 65.5439C132.745 65.6501 132.584 65.7564 132.421 65.8626C131.949 66.165 131.457 66.4619 130.947 66.7562C129.263 67.7287 127.462 68.5923 125.574 69.3524C125.413 69.4178 125.252 69.4804 125.091 69.5431C122.911 70.3931 120.619 71.1041 118.247 71.6707C118.086 71.7116 117.925 71.7498 117.764 71.7879C115.538 72.3055 113.245 72.6978 110.918 72.9702C110.757 72.9893 110.596 73.0111 110.435 73.0247C108.175 73.2753 105.883 73.4088 103.591 73.4252C103.43 73.4279 103.269 73.4306 103.108 73.4306C100.818 73.4361 98.5262 73.3244 96.2613 73.0983C96.1003 73.0847 95.9393 73.0683 95.7783 73.0492C93.4561 72.8041 91.1639 72.4363 88.9345 71.9486C88.7735 71.9132 88.6125 71.8778 88.4515 71.8397C86.0856 71.3003 83.7907 70.6246 81.6049 69.8128C81.4439 69.7529 81.2802 69.6929 81.1219 69.6303C78.9716 68.8103 76.936 67.8513 75.0422 66.7589C74.7829 66.6091 74.5292 66.4592 74.2781 66.3067C74.1144 66.2086 73.9534 66.1078 73.7951 66.0097C70.908 64.1872 68.624 62.163 66.9485 60.0163C66.7794 59.8011 66.6184 59.5886 66.4655 59.3707C64.7027 56.9215 63.7176 54.3253 63.5075 51.7182H63.4639V42.8997H65.8134C66.018 42.5728 66.2363 42.2486 66.4683 41.9271C66.6238 41.7092 66.7848 41.494 66.9513 41.2815C67.5653 40.4914 68.2638 39.7177 69.0443 38.9658C69.9993 38.045 71.0772 37.1542 72.2779 36.3015C73.1347 35.6913 74.0571 35.1001 75.0422 34.5335C90.4817 25.636 115.513 25.636 130.953 34.5335C131.938 35.1001 132.857 35.6913 133.714 36.3015C134.915 37.1542 135.993 38.0423 136.948 38.9658C138.045 40.0229 138.981 41.1235 139.75 42.2486C139.9 42.4638 140.042 42.6818 140.179 42.8997H142.523V42.8943Z" fill="#FFA94D"/>
<path d="M102.988 28.3357C113.464 28.3357 123.306 30.684 130.701 34.9448C131.665 35.5006 132.579 36.0863 133.425 36.6883C134.598 37.5192 135.665 38.4019 136.604 39.3064C137.663 40.328 138.585 41.4068 139.346 42.5156C139.483 42.7117 139.619 42.9188 139.764 43.1476L139.906 43.3737H140.173H142.037V50.6393V51.2251H142.031L141.996 51.6691C141.819 53.8458 141.087 55.9898 139.816 58.0466C139.676 58.2755 139.515 58.5179 139.344 58.7713C137.747 61.0924 135.49 63.2337 132.631 65.1379C132.472 65.2415 132.314 65.3477 132.153 65.4512C131.687 65.7482 131.198 66.0451 130.699 66.3339C129.061 67.2765 127.274 68.1401 125.388 68.9002C125.23 68.9628 125.069 69.0255 124.908 69.0881C122.769 69.9218 120.488 70.6328 118.119 71.1994C117.961 71.2403 117.805 71.2757 117.647 71.3139C115.467 71.8206 113.18 72.2129 110.852 72.4853C110.694 72.5044 110.538 72.5234 110.375 72.5398C108.134 72.7877 105.85 72.9212 103.577 72.9375C103.419 72.9403 103.258 72.943 103.1 72.943H102.969C100.734 72.943 98.4907 72.8313 96.294 72.6106C96.1384 72.597 95.9829 72.5806 95.8219 72.5643C93.5188 72.3218 91.2348 71.9541 89.0299 71.4719C88.8716 71.4365 88.7106 71.401 88.5496 71.3656C86.181 70.8262 83.8998 70.1506 81.7631 69.3578L81.7058 69.336C81.5666 69.2843 81.4275 69.2352 81.2856 69.1753C79.1462 68.358 77.1241 67.4018 75.274 66.3366C75.0175 66.1895 74.7664 66.0397 74.5181 65.8898C74.3571 65.7918 74.1961 65.6937 74.0406 65.5956C71.2545 63.8385 68.9923 61.8579 67.3141 59.7112C67.164 59.5232 67.0112 59.3189 66.8447 59.0846C65.1474 56.7226 64.1814 54.2299 63.9768 51.6746L63.9413 51.2305H63.9331V43.3792H65.7969H66.067L66.2089 43.1503C66.4054 42.837 66.6183 42.5183 66.8475 42.2023C66.9894 42.0034 67.1422 41.7991 67.3196 41.573C67.9172 40.8047 68.6075 40.0419 69.3662 39.3091C70.3185 38.391 71.3882 37.5111 72.5452 36.6911C73.3993 36.0835 74.3162 35.4978 75.2713 34.9475C82.6691 30.684 92.5119 28.3357 102.988 28.3357ZM102.988 27.8535C92.8693 27.8535 82.7509 30.0792 75.0339 34.528C74.0488 35.0946 73.1292 35.6858 72.2696 36.296C71.0662 37.1487 69.9911 38.0396 69.036 38.9604C68.2555 39.7123 67.557 40.486 66.943 41.276C66.7738 41.4912 66.6128 41.7037 66.46 41.9217C66.228 42.2431 66.0097 42.5673 65.8051 42.8942H63.4556V51.7127H63.4992C63.7093 54.3226 64.6944 56.9161 66.4572 59.3652C66.6128 59.5804 66.7711 59.7956 66.9402 60.0108C68.613 62.1576 70.897 64.1817 73.7868 66.0042C73.9451 66.1023 74.1061 66.2031 74.2698 66.3012C74.5209 66.4538 74.7746 66.6036 75.0339 66.7534C76.9277 67.8459 78.9661 68.8048 81.1136 69.6248C81.2719 69.6902 81.4356 69.7474 81.5966 69.8073C83.7824 70.6192 86.0773 71.2948 88.4432 71.8342C88.6042 71.8723 88.7652 71.9077 88.9262 71.9432C91.1556 72.4308 93.4478 72.7986 95.77 73.0438C95.931 73.0601 96.092 73.0792 96.253 73.0928C98.4743 73.3162 100.72 73.4252 102.966 73.4252C103.01 73.4252 103.053 73.4252 103.1 73.4252C103.261 73.4252 103.422 73.4224 103.583 73.4197C105.875 73.4034 108.167 73.2672 110.426 73.0193C110.587 73.0029 110.748 72.9838 110.909 72.9648C113.234 72.6923 115.529 72.3 117.756 71.7824C117.917 71.7443 118.078 71.7062 118.239 71.6653C120.61 71.0986 122.903 70.3876 125.083 69.5376C125.244 69.475 125.405 69.4123 125.566 69.3469C127.454 68.5869 129.255 67.7233 130.939 66.7507C131.446 66.4565 131.938 66.1595 132.412 65.8571C132.576 65.7509 132.737 65.6446 132.895 65.5384C135.864 63.5633 138.146 61.3648 139.739 59.0437C139.908 58.7958 140.072 58.5479 140.225 58.2973C141.543 56.1642 142.293 53.9412 142.473 51.7073H142.514V50.6366C142.514 50.6366 142.514 50.6366 142.514 50.6339V42.8888H140.165C140.028 42.6708 139.887 42.4529 139.737 42.2377C138.964 41.1126 138.028 40.012 136.934 38.9549C135.979 38.0314 134.901 37.1433 133.7 36.2906C132.844 35.6804 131.924 35.0892 130.939 34.5225C123.225 30.0792 113.106 27.8535 102.988 27.8535Z" fill="#FFE499"/>
<path d="M102.988 65.4404C124.822 65.4404 142.523 55.2376 142.523 42.6518C142.523 30.0661 124.822 19.8633 102.988 19.8633C81.1533 19.8633 63.4529 30.0661 63.4529 42.6518C63.4529 55.2376 81.1533 65.4404 102.988 65.4404Z" fill="#FFE499"/>
<path d="M136.94 38.9598C135.676 35.0477 132.399 31.449 127.411 28.5749C120.886 24.8126 112.211 22.7422 102.985 22.7422C93.759 22.7422 85.0841 24.8126 78.5596 28.5749C73.5713 31.449 70.294 35.0505 69.0306 38.9598C68.6404 40.1639 68.4412 41.398 68.4412 42.6512C68.4412 46.4788 70.3022 50.1429 73.7814 53.2977C73.9397 53.442 74.1007 53.5837 74.2644 53.7226C75.5088 54.7933 76.9441 55.7985 78.5596 56.7302C79.3782 57.2015 80.2296 57.6456 81.1083 58.0624C81.2693 58.1387 81.4303 58.215 81.5913 58.2885C83.717 59.2611 86.0146 60.0756 88.4378 60.7213C88.5988 60.7649 88.7598 60.8085 88.9208 60.8521C91.112 61.4133 93.4042 61.8437 95.7647 62.127C95.9257 62.1488 96.0867 62.1679 96.2477 62.187C98.4416 62.4376 100.696 62.5629 102.98 62.5629H103.091C103.252 62.5629 103.413 62.5602 103.574 62.5575C105.902 62.5357 108.192 62.3831 110.418 62.0998C110.579 62.0807 110.74 62.0589 110.901 62.0344C113.267 61.7184 115.559 61.2553 117.748 60.6586C117.912 60.6151 118.073 60.5715 118.231 60.5224C120.662 59.8332 122.957 58.9723 125.075 57.9534C125.236 57.8772 125.399 57.7982 125.558 57.7164C126.188 57.4031 126.802 57.0735 127.4 56.7302C129.329 55.6187 131.004 54.3955 132.404 53.0906C132.571 52.9353 132.732 52.7828 132.887 52.6248C135.905 49.6281 137.515 46.2091 137.515 42.6512C137.529 41.398 137.33 40.1639 136.94 38.9598ZM132.901 50.1811C132.745 50.3854 132.584 50.5924 132.418 50.794C130.865 52.6629 128.75 54.4092 126.071 55.9565C125.907 56.0519 125.741 56.1445 125.574 56.2371C125.416 56.3243 125.255 56.4142 125.091 56.4987C122.984 57.6211 120.681 58.5501 118.247 59.2883C118.089 59.3374 117.925 59.3864 117.764 59.4327C115.568 60.0756 113.27 60.566 110.918 60.9011C110.759 60.9256 110.598 60.9474 110.435 60.9665C108.186 61.2689 105.891 61.4323 103.591 61.4541C103.43 61.4569 103.269 61.4596 103.108 61.4596C100.813 61.465 98.5153 61.3315 96.2613 61.0591C96.1003 61.04 95.9366 61.0182 95.7783 60.9964C93.4343 60.6941 91.1366 60.2391 88.9345 59.6343C88.7735 59.5907 88.6097 59.5471 88.4515 59.5008C86.0283 58.8089 83.7252 57.9289 81.6049 56.8665C81.4412 56.7847 81.2802 56.703 81.1219 56.6185C80.7126 56.406 80.3114 56.1854 79.9158 55.9593C77.6236 54.638 75.7434 53.1669 74.2781 51.6004C74.1116 51.4206 73.9506 51.2435 73.7951 51.061C69.811 46.4543 69.3035 41.0929 72.2779 36.2982C73.8524 33.7592 76.3983 31.3809 79.9185 29.3513C92.6429 22.0148 113.352 22.0148 126.079 29.3513C129.599 31.3809 132.145 33.7592 133.717 36.2982C136.492 40.7905 136.225 45.7787 132.901 50.1811Z" fill="#FFA94D"/>
<path d="M67.9718 53.0175V61.0051C67.8026 60.7899 67.6416 60.5774 67.4888 60.3594V52.3691C67.6416 52.5871 67.8026 52.8023 67.9718 53.0175Z" fill="#FFE499"/>
<path d="M74.2699 58.3135V66.3038C74.1061 66.2058 73.9451 66.105 73.7869 66.0069V58.0166C73.9451 58.1147 74.1061 58.2127 74.2699 58.3135Z" fill="#FFE499"/>
<path d="M81.5968 61.8195V69.8097C81.4358 69.7498 81.272 69.6899 81.1138 69.6272V61.6396C81.272 61.6996 81.4358 61.7622 81.5968 61.8195Z" fill="#FFE499"/>
<path d="M88.9264 63.9554V71.943C88.7654 71.9076 88.6044 71.8722 88.4434 71.834V63.8438C88.6044 63.8819 88.7654 63.92 88.9264 63.9554Z" fill="#FFE499"/>
<path d="M96.2559 65.1057V73.096C96.0949 73.0824 95.9339 73.066 95.7729 73.0469V65.0566C95.9312 65.0757 96.0949 65.0921 96.2559 65.1057Z" fill="#FFE499"/>
<path d="M103.585 65.4346V73.4249C103.424 73.4276 103.263 73.4303 103.102 73.4303V65.4373C103.263 65.4373 103.424 65.4373 103.585 65.4346Z" fill="#FFE499"/>
<path d="M110.912 64.9775V72.9678C110.751 72.9869 110.59 73.0087 110.429 73.0223V65.032C110.59 65.0184 110.751 64.9966 110.912 64.9775Z" fill="#FFE499"/>
<path d="M118.242 63.6807V71.671C118.081 71.7118 117.92 71.75 117.759 71.7881V63.7978C117.92 63.7569 118.081 63.7188 118.242 63.6807Z" fill="#FFE499"/>
<path d="M125.571 61.3613V69.3489C125.41 69.4143 125.249 69.4769 125.088 69.5396V61.5493C125.249 61.4894 125.41 61.424 125.571 61.3613Z" fill="#FFE499"/>
<path d="M132.901 57.5537V65.5413C132.743 65.6475 132.582 65.7538 132.418 65.86V57.8697C132.579 57.7662 132.743 57.66 132.901 57.5537Z" fill="#FFE499"/>
<path d="M139.401 51.1133V59.1036C139.248 59.3542 139.084 59.6021 138.915 59.85V51.8625C139.084 51.6118 139.248 51.3639 139.401 51.1133Z" fill="#FFE499"/>
<path d="M124.648 34.1125L118.966 37.0253C120.798 38.4248 121.881 40.0913 121.901 41.8963C121.957 46.9356 113.789 51.1236 103.69 51.2327C94.9565 51.327 87.6052 48.3348 85.7381 44.2655L77.6583 44.3527C79.6486 50.6195 90.6054 55.3339 103.734 55.1921C118.207 55.0358 129.921 49.0329 129.841 41.8105C129.803 38.9103 127.874 36.2506 124.648 34.1125Z" fill="#FFA94D"/>
<path d="M103.155 33.4266C106.725 33.3879 110.049 33.8522 112.866 34.6692L118.47 31.9371C114.156 30.483 108.845 29.6517 103.113 29.7138C90.1596 29.8541 79.4437 34.5018 77.6142 40.4181L85.5892 40.3317C87.3443 36.4781 94.5342 33.5199 103.155 33.4266Z" fill="#FFA94D"/>
<path d="M103.166 36.6623C96.3936 36.7354 90.9116 39.3929 90.9473 42.588C90.983 45.7806 96.5231 48.3191 103.295 48.246C110.068 48.1728 115.55 45.5153 115.514 42.3227C115.478 39.1302 109.938 36.5891 103.166 36.6623ZM103.277 46.6197C101.149 44.9113 98.0804 43.5053 94.397 42.5508C98.0582 41.5169 101.094 40.045 103.184 38.291C105.313 39.9994 108.381 41.4054 112.064 42.36C108.403 43.3914 105.367 44.8632 103.277 46.6197Z" fill="#FFA94D"/>
</g>
<defs>
<clipPath id="clip0">
<rect width="206" height="242" fill="white"/>
</clipPath>
</defs>
</svg>
