<svg width="138" height="89" viewBox="0 0 138 89" fill="none" xmlns="http://www.w3.org/2000/svg"><g clip-path="url(#clip0)"><path d="M136.715 36.395l-6.111.626-45.396-26.15a8.619 8.619 0 00-.253-.136c-.92-.472-2.04-.752-3.19-.832l-.006-.002a10.25 10.25 0 00-.607-.024c-1.553-.019-3.112.314-4.296.995L10.07 49.367l-8.985.92 1.088 6.278c-.004.148.008.296.039.443.149.73.71 1.437 1.686 2l48.69 28.024c.967.558 2.186.88 3.445.97.205.016.407.025.612.025a9.83 9.83 0 002.288-.236 7.278 7.278 0 002.004-.759l72.719-41.871c1.088-.63 1.661-1.437 1.722-2.257h.007l1.33-6.509z" fill="#E3DFEA"/><path d="M84.955 1.827l-.72 2.95 44.454 25.605c2.307 1.33 2.305 3.48 0 4.81L56.023 77.073l2.912 1.809a9.767 9.767 0 01-2.288.237l-.612-.026c-1.259-.09-2.48-.413-3.444-.969L2.81 49.451c-.973-.56-1.536-1.267-1.686-1.997-.207-1 .355-2.044 1.686-2.812l74.047-42.68C78.04 1.282 79.6.95 81.152.968l.607.025h.004c1.152.082 2.27.36 3.192.834z" fill="#FF2639"/><path d="M85.209 1.964l49.778 28.673c2.305 1.327 2.303 3.48 0 4.81l-74.05 42.675c-.588.34-1.27.594-2.002.758a9.767 9.767 0 01-2.288.237 9.213 9.213 0 01-.612-.026c-1.259-.09-2.48-.412-3.444-.969L2.81 49.452c-.973-.562-1.536-1.268-1.686-1.998-.207-1 .355-2.044 1.686-2.812l74.047-42.68C78.04 1.282 79.6.95 81.152.968c.202.001.407.01.607.025h.004c1.152.082 2.27.36 3.192.834.086.043.171.09.254.137z" fill="#FFBC00"/><path d="M136.715 33.188v3.207h-.005c-.039.841-.612 1.676-1.723 2.315l-74.05 42.677c-.59.34-1.272.593-2.004.759-.73.169-1.51.246-2.288.237v-3.265a9.83 9.83 0 002.288-.236 7.275 7.275 0 002.004-.76l74.05-42.677c1.087-.63 1.662-1.437 1.722-2.259h.006v.002z" fill="#327A83"/><path d="M136.709 33.188c-.06.82-.635 1.629-1.722 2.258l-74.05 42.678c-.59.34-1.272.592-2.004.76-.73.167-1.51.245-2.288.235v3.266a9.145 9.145 0 01-.612-.026c-1.259-.089-2.478-.413-3.444-.967L2.81 52.716c-.975-.562-1.536-1.27-1.687-1.997a1.949 1.949 0 010-.802v-2.463l3.024-.318L76.856 5.228c1.184-.682 2.743-1.013 4.296-.996.202.001.407.01.607.025h.005c1.151.082 2.271.362 3.191.834.088.043.171.09.254.137l48.998 28.224 2.502-.264z" fill="#327A83"/><path d="M56.766 82.709h-.123l.007-.649a9.487 9.487 0 002.211-.228 6.836 6.836 0 001.916-.724l74.049-42.678c.971-.56 1.527-1.286 1.563-2.049l.003-.085v-1.582a4.566 4.566 0 01-1.241 1.016L61.1 78.404a7.527 7.527 0 01-2.095.794c-.76.172-1.556.255-2.363.244l.008-.649a9.55 9.55 0 002.211-.227 6.89 6.89 0 001.914-.723l74.049-42.678c.951-.551 1.507-1.261 1.561-2.001l.023-.3h.627l.007.323v3.532h-.039c-.158.87-.804 1.669-1.852 2.27L61.1 81.669a7.428 7.428 0 01-2.095.793 9.939 9.939 0 01-2.239.248z" fill="#327A83"/><path d="M56.643 82.707a8.91 8.91 0 01-.634-.027c-1.36-.096-2.6-.446-3.583-1.01L2.648 52.995c-1.03-.593-1.666-1.358-1.842-2.212a2.296 2.296 0 01-.007-.898v-2.724l3.246-.342L76.694 4.95c1.194-.69 2.774-1.057 4.462-1.04.206.002.413.01.615.026h.014c1.234.089 2.382.389 3.316.87.088.044.18.092.266.143l48.908 28.173 2.784-.295-.029.387c-.07.96-.739 1.855-1.883 2.515L61.1 78.404a7.525 7.525 0 01-2.095.794 9.775 9.775 0 01-2.363.244l.008-.649a9.545 9.545 0 002.211-.227 6.896 6.896 0 001.914-.723l74.049-42.678c.782-.452 1.296-1.013 1.485-1.609l-2.172.23-.093-.052L85.046 5.51a3.904 3.904 0 00-.236-.127c-.859-.442-1.914-.716-3.058-.8l-.017-.002a10.928 10.928 0 00-.585-.025c-1.57-.017-3.035.32-4.13.952L4.252 47.45l-2.801.295-.007 2.236a1.64 1.64 0 000 .67c.135.661.679 1.292 1.53 1.784l49.78 28.675c.886.509 2.059.838 3.304.927.203.015.397.023.593.025l-.007.645z" fill="#327A83"/><path d="M85.209 1.964l49.778 28.673c2.305 1.327 2.303 3.48 0 4.81l-74.05 42.675c-.588.34-1.27.594-2.002.758a9.767 9.767 0 01-2.288.237 9.213 9.213 0 01-.612-.026c-1.259-.09-2.48-.412-3.444-.969L2.81 49.452c-.973-.562-1.536-1.268-1.686-1.998-.207-1 .355-2.044 1.686-2.812l74.047-42.68C78.04 1.282 79.6.95 81.152.968c.202.001.407.01.607.025h.004c1.152.082 2.27.36 3.192.834.086.043.171.09.254.137z" fill="#327A83"/><path d="M136.709 33.187c-.06.82-.635 1.63-1.722 2.26l-74.05 42.677c-.59.34-1.272.592-2.004.76a9.83 9.83 0 01-2.288.235c-.205 0-.407-.009-.612-.024-1.259-.09-2.478-.413-3.444-.97L2.81 49.45c-.975-.56-1.536-1.269-1.687-2-.208-.999.353-2.043 1.687-2.81L76.857 1.961c1.183-.68 2.742-1.013 4.295-.994.202.001.407.01.607.023l.005.002c1.151.08 2.271.358 3.191.833.088.042.171.09.254.136l49.778 28.675c1.217.7 1.792 1.63 1.722 2.55z" fill="#49A9B4"/><path d="M56.787 79.444l-.147-.001h-.001c-.199 0-.406-.009-.631-.024-1.367-.1-2.605-.449-3.583-1.014L2.647 49.735C1.617 49.14.98 48.374.805 47.52c-.248-1.19.424-2.341 1.842-3.158L76.693 1.684C77.89.994 79.48.624 81.154.646c.197.002.407.01.624.024l.07.007c1.21.092 2.331.39 3.253.863.073.036.149.079.222.118l.04.022 49.783 28.678c1.279.735 1.965 1.776 1.883 2.856-.072.96-.741 1.853-1.883 2.515L61.099 78.405a7.528 7.528 0 01-2.095.794 9.892 9.892 0 01-2.217.245zm24.239-78.15c-1.498 0-2.952.344-4.007.951L2.973 44.923c-1.16.667-1.717 1.566-1.528 2.465.136.67.665 1.287 1.528 1.785l49.779 28.673c.892.515 2.036.836 3.305.928.21.015.404.022.59.022a9.464 9.464 0 002.215-.227 6.893 6.893 0 001.913-.723l74.05-42.678c.95-.551 1.506-1.261 1.561-2.002.061-.82-.506-1.64-1.56-2.245L85.045 2.245l-.036-.019a5.396 5.396 0 00-.2-.107c-.864-.444-1.923-.718-3.068-.799l-.069-.006a11.46 11.46 0 00-.523-.02h-.123z" fill="#327A83"/><path d="M43.987 47.515l-13.359 7.7c-.77.444-2.844.358-3.733-.154l-11.004-6.34c-1.112-.64-1.204-1.376-.241-1.93l13.005-7.496c.72-.414 2.659-.334 3.49.145l11.673 6.724c.778.447.843.962.17 1.351z" fill="#FF2639"/><path d="M40.834 47.462l-10.44 6.018c-.602.346-2.223.28-2.917-.121l-8.6-4.953c-.87-.5-.941-1.077-.189-1.51l10.165-5.859c.563-.324 2.078-.26 2.728.113l9.123 5.255c.607.35.657.754.13 1.057zm14.246 7.553l-10.453 6.023c-.385.221-1.421.179-1.864-.077l-2.93-1.688c-.206-.12-.222-.256-.044-.358l10.454-6.022c.384-.222 1.42-.18 1.864.076l2.929 1.688c.205.12.222.256.044.358zm17.56-10.114l-10.454 6.023c-.385.221-1.422.179-1.864-.077l-2.93-1.687c-.207-.12-.222-.256-.044-.359L67.8 42.78c.385-.222 1.421-.18 1.864.077l2.93 1.687c.207.12.224.256.044.358zM90.2 34.786l-10.454 6.023c-.384.221-1.42.179-1.864-.077l-2.929-1.688c-.207-.12-.222-.255-.044-.358l10.453-6.022c.385-.222 1.421-.18 1.864.076l2.93 1.688c.205.12.222.256.044.358zm17.561-10.116l-10.454 6.023c-.385.221-1.421.179-1.864-.077l-2.93-1.687c-.206-.12-.222-.256-.044-.359l10.454-6.022c.385-.222 1.421-.18 1.864.077l2.929 1.687c.205.12.222.256.045.358z" fill="#fff"/><path d="M76.11 41.215v4.933h-.023c-.101 1.248-.522 2.492-1.259 3.684a8.67 8.67 0 01-.272.418c-.892 1.297-2.168 2.527-3.828 3.633l-.27.177c-.266.169-.54.336-.825.5a23.848 23.848 0 01-3.006 1.452l-.27.106c-1.22.476-2.504.873-3.83 1.19a35.046 35.046 0 01-4.37.756c-1.266.14-2.546.215-3.83.225-.09.002-.18.002-.27.002a38.148 38.148 0 01-4.1-.213 35.036 35.036 0 01-3.829-.616l-.27-.06a30.55 30.55 0 01-3.83-1.133c-.091-.034-.182-.066-.27-.102a23.888 23.888 0 01-3.831-1.858 9.652 9.652 0 01-.27-.167c-1.616-1.019-2.894-2.152-3.831-3.353a7.405 7.405 0 01-.27-.36c-.987-1.37-1.538-2.82-1.656-4.28h-.023v-4.934h1.313c.114-.183.236-.364.366-.543a12.385 12.385 0 011.442-1.657 15.51 15.51 0 011.81-1.489c.48-.341.996-.672 1.546-.99 8.64-4.976 22.648-4.976 31.288 0 .55.318 1.065.647 1.546.99.671.476 1.275.974 1.81 1.49a12.02 12.02 0 011.57 1.835 9.1 9.1 0 01.24.364h1.303z" fill="#FFA94D"/><path d="M53.988 33.073c5.862 0 11.37 1.312 15.508 3.696.539.31 1.05.638 1.524.974.657.466 1.255.957 1.778 1.464a11.654 11.654 0 011.767 2.148l.08.126h1.194v4.389h-.002l-.02.249c-.1 1.218-.51 2.417-1.22 3.566a9.489 9.489 0 01-.265.406c-.892 1.298-2.156 2.496-3.757 3.56l-.267.176c-.26.165-.533.333-.814.493a23.854 23.854 0 01-2.972 1.435l-.27.106a29.118 29.118 0 01-4.063 1.243 34.963 34.963 0 01-4.07.688 37.592 37.592 0 01-3.803.223c-.089.002-.178.002-.267.002h-.073c-1.252 0-2.506-.061-3.735-.186-.086-.007-.173-.017-.265-.027a35.125 35.125 0 01-3.8-.61l-.268-.06a30.204 30.204 0 01-3.797-1.123L42.08 56c-.077-.03-.156-.056-.236-.089a23.75 23.75 0 01-3.364-1.587 19.778 19.778 0 01-.69-.414c-1.559-.983-2.824-2.09-3.763-3.291a8.832 8.832 0 01-.263-.35c-.951-1.32-1.491-2.714-1.606-4.144l-.02-.25h-.004v-4.39h1.192l.081-.129c.11-.175.23-.353.357-.53a12.028 12.028 0 011.41-1.617 15.247 15.247 0 011.778-1.464c.479-.34.992-.667 1.525-.975 4.14-2.383 9.647-3.697 15.51-3.697zm0-.27c-5.662 0-11.324 1.245-15.644 3.734-.55.317-1.067.648-1.546.99a15.39 15.39 0 00-1.81 1.489 12.373 12.373 0 00-1.443 1.656c-.13.18-.253.36-.366.543h-1.313v4.932h.024c.118 1.459.669 2.909 1.655 4.28.088.122.177.241.27.36.938 1.2 2.215 2.335 3.831 3.353l.27.167a23.878 23.878 0 004.1 1.96c1.224.454 2.508.833 3.832 1.133l.27.06c1.247.273 2.53.48 3.829.616a37.722 37.722 0 004.027.213h.074l.27-.001a37.576 37.576 0 003.829-.225c.09-.009.18-.021.27-.031a34.978 34.978 0 004.1-.725 29.233 29.233 0 004.1-1.297 23.889 23.889 0 003.006-1.452 21.871 21.871 0 001.094-.677c1.662-1.106 2.938-2.334 3.83-3.632a9.86 9.86 0 00.271-.418c.737-1.193 1.158-2.437 1.259-3.686h.023v-4.93h-1.313a8.303 8.303 0 00-.24-.364 12.01 12.01 0 00-1.57-1.835 15.651 15.651 0 00-1.81-1.49 19.41 19.41 0 00-1.546-.99c-4.31-2.489-9.971-3.732-15.633-3.732z" fill="#FFE499"/><path d="M53.988 53.821c12.218 0 22.123-5.705 22.123-12.743 0-7.037-9.905-12.743-22.123-12.743-12.219 0-22.123 5.706-22.123 12.743 0 7.038 9.904 12.743 22.123 12.743z" fill="#FFE499"/><path d="M72.988 39.014c-.708-2.187-2.541-4.2-5.332-5.808-3.65-2.103-8.506-3.262-13.668-3.262-5.163 0-10.018 1.159-13.669 3.262-2.79 1.607-4.626 3.62-5.334 5.808a6.707 6.707 0 00-.328 2.064c0 2.141 1.041 4.19 2.988 5.955.087.081.177.16.27.239.696.598 1.5 1.16 2.402 1.682a20.047 20.047 0 001.697.87c1.188.542 2.474.998 3.83 1.36.09.023.181.049.27.073 1.227.314 2.51.554 3.83.713.09.012.18.024.27.034 1.227.14 2.488.21 3.767.21h.063l.27-.002a32.67 32.67 0 003.829-.256c.09-.012.181-.022.27-.035a29.029 29.029 0 004.101-.847 23.756 23.756 0 004.099-1.567c.352-.176.696-.36 1.031-.552a15.357 15.357 0 002.8-2.035c.092-.087.182-.172.27-.261 1.69-1.677 2.589-3.588 2.589-5.577a6.313 6.313 0 00-.315-2.068zm-2.26 6.275c-.088.114-.177.23-.27.343-.87 1.044-2.053 2.022-3.553 2.887a14.73 14.73 0 01-.549.302 21.482 21.482 0 01-4.098 1.64 27.482 27.482 0 01-4.101.859 31.008 31.008 0 01-3.83.273c-.09.002-.18.002-.27.002a31.404 31.404 0 01-3.83-.225l-.27-.035a28.047 28.047 0 01-4.1-.836 22.187 22.187 0 01-3.83-1.472l-.27-.138a15.503 15.503 0 01-.674-.369c-1.282-.738-2.334-1.56-3.155-2.436-.092-.1-.183-.2-.27-.302-2.23-2.576-2.514-5.574-.848-8.256.88-1.42 2.305-2.75 4.275-3.885 7.12-4.101 18.71-4.101 25.83 0 1.97 1.135 3.395 2.466 4.274 3.885 1.548 2.512 1.397 5.301-.462 7.763z" fill="#fff"/><path d="M34.392 46.875v4.467a7.312 7.312 0 01-.27-.36v-4.468c.085.12.176.242.27.361zm3.524 2.963v4.468a19.38 19.38 0 01-.27-.167V49.67l.27.168zm4.101 1.96v4.468c-.09-.034-.181-.067-.27-.102v-4.469c.089.036.18.07.27.103zm4.103 1.194v4.468l-.27-.06v-4.468c.088.019.179.041.27.06zm4.1.643v4.468a6.9 6.9 0 01-.27-.027v-4.468c.09.01.18.02.27.027zm4.101.185v4.468l-.27.001v-4.466c.09 0 .181-.002.27-.004zm4.101-.257v4.469c-.09.012-.181.022-.27.03v-4.468c.09-.008.18-.019.27-.03zm4.102-.724v4.468c-.09.024-.18.044-.27.065v-4.47l.27-.063zm4.101-1.297v4.468l-.27.106v-4.468l.27-.106zm4.103-2.129v4.468l-.27.177V49.59l.27-.177zm3.637-3.602v4.468c-.086.14-.176.28-.272.418V46.23c.094-.14.184-.278.272-.418z" fill="#FFE499"/><path d="M63.96 36.996l-2.877 1.485c.928.713 1.476 1.562 1.486 2.481.028 2.568-4.107 4.702-9.22 4.758-4.42.048-8.141-1.476-9.086-3.55l-4.09.046c1.007 3.192 6.553 5.594 13.2 5.521 7.326-.08 13.256-3.139 13.215-6.819-.019-1.477-.995-2.832-2.628-3.922zm-10.88-.35c1.807-.02 3.49.217 4.915.633l2.837-1.392c-2.184-.74-4.872-1.164-7.773-1.132-6.558.072-11.982 2.44-12.908 5.453l4.036-.044c.889-1.963 4.529-3.47 8.892-3.518z" fill="#FFA94D"/><path d="M53.085 38.296c-3.428.038-6.203 1.392-6.185 3.02.017 1.627 2.822 2.92 6.25 2.882 3.428-.037 6.204-1.392 6.186-3.018-.018-1.627-2.823-2.921-6.25-2.884zm.056 5.074c-1.077-.87-2.63-1.587-4.495-2.073 1.853-.527 3.39-1.277 4.448-2.17 1.078.87 2.63 1.586 4.495 2.072-1.853.526-3.39 1.276-4.448 2.17z" fill="#FFA94D"/><path d="M71.283 63.673l-9.816 5.654c-.413.24-1.528.193-2.005-.083l-3.279-1.889c-.222-.128-.24-.275-.048-.385l9.816-5.654c.414-.24 1.529-.193 2.006.083l3.278 1.889c.22.13.24.276.048.385zm16.65-9.475l-9.816 5.654c-.414.239-1.529.193-2.006-.084l-3.278-1.888c-.223-.128-.24-.275-.048-.386L82.6 51.84c.413-.239 1.528-.193 2.005.084l3.279 1.888c.222.128.24.275.048.386zm.501-37.087L63.535 31.452c-.246.142-.908.115-1.19-.049l-3.413-1.965c-.132-.075-.142-.164-.03-.23l24.9-14.34c.245-.142.907-.115 1.19.049l3.413 1.965c.131.075.141.162.029.229z" fill="#fff"/><path d="M113.442 25.37v4.933h-.024c-.101 1.248-.522 2.492-1.259 3.684-.085.14-.176.28-.272.418-.893 1.297-2.168 2.527-3.829 3.633-.089.06-.179.117-.27.177-.265.169-.539.336-.824.5a23.918 23.918 0 01-3.277 1.558 29.286 29.286 0 01-3.828 1.19 35.046 35.046 0 01-4.37.756c-1.267.14-2.548.215-3.83.225-.09.002-.181.002-.27.002a38.149 38.149 0 01-4.101-.213 35.012 35.012 0 01-3.829-.616l-.27-.06a30.566 30.566 0 01-3.83-1.133c-.091-.034-.182-.066-.271-.102a23.882 23.882 0 01-3.83-1.858 18.81 18.81 0 01-.27-.167c-1.617-1.019-2.894-2.151-3.831-3.352a7.296 7.296 0 01-.27-.36c-.987-1.37-1.538-2.82-1.656-4.281h-.024v-4.932h1.314c.114-.183.236-.364.366-.543.087-.123.176-.242.27-.362.344-.441.735-.873 1.171-1.295a15.51 15.51 0 011.811-1.489c.48-.341.995-.672 1.546-.99 8.64-4.976 22.648-4.976 31.287 0 .551.318 1.066.647 1.546.99.672.476 1.276.974 1.811 1.49a11.9 11.9 0 011.808 2.199h1.305v-.002z" fill="#FFA94D"/><path d="M91.318 17.23c5.863 0 11.371 1.312 15.509 3.695.539.31 1.052.638 1.524.976a15.23 15.23 0 011.778 1.464 11.616 11.616 0 011.767 2.148l.08.126h1.194v4.391h-.002l-.021.249c-.099 1.218-.509 2.418-1.219 3.566a9.235 9.235 0 01-.265.406c-.893 1.298-2.156 2.496-3.757 3.56l-.267.176c-.26.166-.533.333-.814.493a23.804 23.804 0 01-2.972 1.435l-.27.106a29.083 29.083 0 01-3.8 1.18c-.087.023-.176.043-.263.064-1.221.283-2.5.503-3.807.656l-.263.031a37.592 37.592 0 01-3.803.224l-.269.001h-.073a37.686 37.686 0 01-4-.213 35.224 35.224 0 01-3.8-.61l-.268-.06a30.216 30.216 0 01-3.797-1.123l-.032-.012c-.077-.029-.156-.058-.236-.09a23.762 23.762 0 01-3.364-1.587 19.778 19.778 0 01-.689-.415c-1.56-.982-2.825-2.09-3.764-3.29a9.634 9.634 0 01-.263-.35c-.951-1.321-1.491-2.715-1.606-4.145l-.02-.249h-.004v-4.391h1.193l.081-.128a9.5 9.5 0 01.358-.53 12.028 12.028 0 011.41-1.617A15.247 15.247 0 0174.28 21.9c.479-.34.992-.667 1.525-.974 4.142-2.385 9.65-3.697 15.512-3.697zm0-.271c-5.662 0-11.324 1.243-15.643 3.732a19.1 19.1 0 00-1.546.99c-.674.476-1.276.976-1.811 1.49a12.363 12.363 0 00-1.442 1.656c-.13.18-.253.36-.366.543h-1.313v4.932h.024c.118 1.459.669 2.909 1.655 4.28.087.122.176.241.27.36.938 1.2 2.215 2.334 3.831 3.353.089.056.18.11.27.167a23.883 23.883 0 004.1 1.96c1.224.454 2.508.833 3.832 1.133l.27.06a35.104 35.104 0 004.099.643c1.243.125 2.5.186 3.757.186h.073l.27-.002a37.604 37.604 0 003.83-.225c.09-.008.18-.02.27-.03a35.002 35.002 0 004.1-.725 29.247 29.247 0 004.099-1.297 23.905 23.905 0 003.007-1.452 22.465 22.465 0 001.094-.677c1.662-1.106 2.938-2.334 3.829-3.633.096-.138.186-.278.272-.418.737-1.192 1.157-2.436 1.258-3.685h.024v-4.932h-1.313a9.093 9.093 0 00-.239-.363 12.076 12.076 0 00-1.569-1.836 15.552 15.552 0 00-1.811-1.49c-.48-.34-.995-.672-1.545-.99-4.311-2.487-9.973-3.73-15.636-3.73z" fill="#FFE499"/><path d="M91.318 37.978c12.219 0 22.124-5.705 22.124-12.743s-9.905-12.743-22.124-12.743c-12.218 0-22.123 5.705-22.123 12.743S79.1 37.978 91.318 37.978z" fill="#FFE499"/><path d="M110.319 23.17c-.708-2.187-2.541-4.2-5.332-5.807-3.651-2.104-8.506-3.262-13.669-3.262-5.164 0-10.017 1.158-13.668 3.262-2.791 1.607-4.626 3.62-5.334 5.808a6.706 6.706 0 00-.328 2.064c0 2.141 1.041 4.19 2.987 5.954.088.082.178.16.27.24.697.598 1.5 1.16 2.403 1.681.458.263.934.512 1.426.744l.27.127c1.189.542 2.475.998 3.831 1.36.09.023.181.049.27.073a29.79 29.79 0 003.83.713c.09.012.18.024.27.034 1.227.14 2.487.21 3.766.21h.064l.27-.002a32.692 32.692 0 003.829-.256c.09-.012.181-.022.27-.036a29.029 29.029 0 004.1-.846 23.791 23.791 0 004.1-1.568c.352-.175.696-.36 1.031-.55a15.328 15.328 0 002.799-2.036c.093-.087.183-.173.271-.261 1.689-1.677 2.589-3.588 2.589-5.578a6.225 6.225 0 00-.315-2.067zm-2.261 6.276c-.087.114-.176.23-.27.343-.869 1.044-2.052 2.021-3.552 2.886-.092.053-.184.106-.279.157a21.463 21.463 0 01-4.369 1.786c-1.23.36-2.515.634-3.83.821-.09.014-.18.026-.27.038a31.006 31.006 0 01-3.83.273c-.09.002-.18.002-.27.002a31.404 31.404 0 01-3.83-.226l-.27-.034a28.046 28.046 0 01-4.1-.836 22.187 22.187 0 01-3.83-1.472l-.27-.138c-.23-.118-.455-.243-.674-.369-1.282-.739-2.334-1.561-3.155-2.436-.092-.1-.183-.2-.27-.302-2.23-2.576-2.514-5.574-.848-8.256.88-1.42 2.305-2.75 4.275-3.885 7.12-4.101 18.71-4.101 25.83 0 1.97 1.135 3.395 2.466 4.274 3.885 1.548 2.51 1.399 5.3-.462 7.763z" fill="#fff"/><path d="M71.725 31.03v4.467a7.312 7.312 0 01-.27-.36v-4.468c.085.12.175.242.27.361zm3.524 2.962v4.469l-.27-.167v-4.469c.087.056.178.113.27.167zm4.101 1.961v4.468c-.09-.034-.181-.067-.27-.103V35.85c.087.036.18.07.27.102zm4.1 1.195v4.468l-.27-.06v-4.468l.27.06zm4.101.643v4.469a6.712 6.712 0 01-.27-.028v-4.468l.27.027zm4.103.185v4.467l-.27.001v-4.468c.088.002.18 0 .27 0zm4.1-.256v4.468a7.71 7.71 0 01-.27.03V37.75c.09-.008.18-.02.27-.03zm4.103-.726v4.468c-.09.024-.181.044-.27.065v-4.468l.27-.065zm4.101-1.296v4.468l-.27.106v-4.468c.088-.036.179-.07.27-.106zm4.1-2.131v4.469c-.089.06-.179.117-.27.177v-4.468c.091-.058.181-.118.27-.178zm3.639-3.601v4.468c-.085.14-.176.28-.271.418v-4.468c.094-.138.184-.278.271-.418z" fill="#FFE499"/><path d="M102.952 20.612l-2.876 1.485c.928.712 1.476 1.561 1.486 2.481.028 2.568-4.107 4.702-9.22 4.758-4.42.048-8.142-1.476-9.087-3.55l-4.09.045c1.007 3.193 6.554 5.595 13.2 5.522 7.326-.08 13.256-3.14 13.216-6.819-.019-1.478-.996-2.833-2.629-3.922zm-10.88-.35c1.807-.02 3.49.217 4.916.633l2.837-1.392c-2.184-.74-4.872-1.164-7.774-1.132-6.557.071-11.982 2.44-12.908 5.453l4.037-.044c.889-1.963 4.528-3.47 8.892-3.518z" fill="#FFA94D"/><path d="M92.078 21.912c-3.428.038-6.204 1.392-6.186 3.02.018 1.626 2.823 2.92 6.251 2.882 3.428-.038 6.204-1.392 6.186-3.018-.018-1.627-2.823-2.922-6.251-2.884zm.056 5.073c-1.078-.87-2.63-1.586-4.495-2.072 1.853-.527 3.39-1.277 4.448-2.171 1.078.87 2.63 1.586 4.495 2.073-1.853.525-3.39 1.275-4.448 2.17z" fill="#FFA94D"/><path d="M92.452 26.67v4.932h-.024c-.1 1.25-.521 2.493-1.258 3.686-.086.14-.176.28-.272.418-.893 1.296-2.168 2.526-3.829 3.632-.089.06-.18.118-.27.177a20.59 20.59 0 01-.824.5 23.875 23.875 0 01-3.277 1.558 29.33 29.33 0 01-3.829 1.19c-.09.025-.181.045-.27.066-1.247.288-2.53.508-3.83.66-.091.01-.182.022-.27.03a37.51 37.51 0 01-3.83.226c-.09.002-.18.002-.27.002a38.147 38.147 0 01-4.1-.214 35.038 35.038 0 01-3.83-.616l-.27-.06a30.565 30.565 0 01-3.83-1.132c-.09-.034-.181-.067-.27-.103a23.883 23.883 0 01-3.83-1.858 19.38 19.38 0 01-.271-.167c-1.616-1.018-2.893-2.151-3.83-3.352a7.296 7.296 0 01-.27-.36c-.987-1.37-1.538-2.82-1.656-4.28h-.024v-4.933h1.313c.115-.183.236-.364.366-.543a12.373 12.373 0 011.442-1.657 15.501 15.501 0 011.81-1.489c.481-.34.996-.672 1.547-.99 8.639-4.976 22.648-4.976 31.287 0 .55.318 1.066.647 1.546.99.672.476 1.276.974 1.811 1.49a11.9 11.9 0 011.808 2.199h1.304v-.002z" fill="#FFA94D"/><path d="M70.33 18.53c5.861 0 11.37 1.312 15.508 3.695.538.311 1.052.638 1.524.976a15.23 15.23 0 011.778 1.464 11.655 11.655 0 011.766 2.148l.08.126h1.194v4.39h-.001l-.02.25c-.1 1.217-.51 2.417-1.22 3.565a9.42 9.42 0 01-.265.406c-.893 1.298-2.157 2.496-3.757 3.56l-.267.176c-.26.166-.534.333-.814.493a23.84 23.84 0 01-2.972 1.435l-.01.004-.26.102a29.109 29.109 0 01-4.063 1.244 34.566 34.566 0 01-3.803.655c-.088.01-.177.022-.267.03a37.592 37.592 0 01-3.803.224c-.09.002-.178.002-.269.002h-.075a37.623 37.623 0 01-3.998-.213 35.224 35.224 0 01-3.8-.611l-.269-.06a30.198 30.198 0 01-3.796-1.123l-.029-.01a23.767 23.767 0 01-3.603-1.677 19.541 19.541 0 01-.69-.414c-1.559-.983-2.824-2.09-3.763-3.291a9.886 9.886 0 01-.264-.35c-.95-1.32-1.49-2.715-1.605-4.144l-.02-.25h-.004v-4.39h1.193l.08-.129a9.5 9.5 0 01.358-.53 12.006 12.006 0 011.41-1.617 15.263 15.263 0 011.778-1.465c.479-.34.992-.667 1.525-.974 4.142-2.385 9.648-3.697 15.512-3.697zm0-.271c-5.663 0-11.325 1.244-15.645 3.733a19.09 19.09 0 00-1.545.99c-.674.475-1.276.975-1.811 1.489a12.385 12.385 0 00-1.442 1.656c-.13.18-.253.36-.366.543h-1.313v4.932h.024c.118 1.459.668 2.91 1.655 4.28.087.122.176.241.27.36.937 1.2 2.215 2.335 3.83 3.353l.271.167a23.888 23.888 0 004.1 1.96 30.267 30.267 0 004.101 1.193 35.103 35.103 0 004.1.644c1.241.124 2.498.186 3.755.186h.075l.27-.002a37.606 37.606 0 003.83-.225c.09-.009.18-.02.27-.031a35 35 0 004.1-.725 29.244 29.244 0 004.099-1.297 23.848 23.848 0 003.006-1.452 21.824 21.824 0 001.095-.677c1.662-1.106 2.938-2.334 3.829-3.632a8.67 8.67 0 00.271-.418c.738-1.193 1.158-2.437 1.26-3.686h.023v-4.932H91.13a8.332 8.332 0 00-.24-.363 12.014 12.014 0 00-1.57-1.836 15.642 15.642 0 00-1.81-1.49c-.481-.34-.996-.672-1.546-.989-4.31-2.486-9.972-3.731-15.634-3.731z" fill="#FFE499"/><path d="M70.33 39.278c12.218 0 22.122-5.705 22.122-12.743 0-7.037-9.904-12.742-22.123-12.742-12.218 0-22.123 5.705-22.123 12.742 0 7.038 9.905 12.743 22.123 12.743z" fill="#FFE499"/><path d="M89.33 24.471c-.708-2.187-2.541-4.2-5.332-5.808-3.651-2.103-8.506-3.262-13.669-3.262-5.164 0-10.017 1.159-13.668 3.262-2.791 1.608-4.626 3.62-5.334 5.808a6.706 6.706 0 00-.328 2.064c0 2.142 1.041 4.19 2.987 5.955.087.081.178.16.27.238.696.6 1.5 1.16 2.403 1.683.458.262.934.511 1.426.744l.27.126c1.189.542 2.475.998 3.83 1.36.091.023.182.05.271.073 1.226.314 2.509.554 3.829.713a33.318 33.318 0 004.037.244h.064l.27-.002a32.694 32.694 0 003.829-.256c.09-.011.18-.022.27-.035a29.027 29.027 0 004.1-.847 23.766 23.766 0 004.1-1.567c.352-.176.696-.36 1.03-.552a15.35 15.35 0 002.8-2.035c.093-.087.183-.172.27-.261 1.69-1.677 2.59-3.588 2.59-5.577a6.312 6.312 0 00-.315-2.068zm-2.261 6.275c-.087.114-.176.23-.27.343-.869 1.044-2.052 2.022-3.552 2.887-.092.053-.185.105-.279.157a21.476 21.476 0 01-4.37 1.786c-1.228.36-2.514.633-3.83.82-.088.014-.18.026-.27.038a31.008 31.008 0 01-3.829.273c-.09.002-.18.002-.27.002a31.402 31.402 0 01-3.83-.225l-.27-.035a28.044 28.044 0 01-4.1-.836 22.188 22.188 0 01-3.83-1.472l-.27-.138c-.23-.118-.455-.242-.674-.369-1.283-.738-2.334-1.56-3.155-2.436-.092-.1-.183-.2-.27-.302-2.23-2.576-2.514-5.574-.849-8.256.881-1.42 2.306-2.75 4.276-3.884 7.12-4.102 18.71-4.102 25.83 0 1.97 1.134 3.395 2.465 4.274 3.884 1.547 2.512 1.397 5.301-.462 7.763z" fill="#fff"/><path d="M50.734 32.332V36.8a7.343 7.343 0 01-.27-.36v-4.468c.085.12.175.242.27.361zm3.524 2.963v4.468l-.27-.167v-4.469c.089.057.18.111.27.168zm4.101 1.96v4.468c-.09-.034-.181-.067-.27-.102v-4.469c.089.036.18.07.27.103zm4.102 1.194v4.468l-.27-.06V38.39l.27.06zm4.101.643v4.468a6.938 6.938 0 01-.27-.027v-4.468c.089.01.18.02.27.027zm4.101.184v4.469l-.27.001v-4.468c.09 0 .18 0 .27-.002zm4.101-.256v4.469c-.091.01-.182.022-.27.03v-4.468c.09-.008.18-.019.27-.03zm4.102-.724v4.468c-.09.024-.181.044-.27.065v-4.468l.27-.065zm4.101-1.297v4.468l-.27.106v-4.47a9.26 9.26 0 00.27-.104zm4.102-2.129v4.468c-.089.06-.18.118-.27.177v-4.468c.09-.06.181-.12.27-.177zm3.638-3.602v4.468c-.086.14-.177.28-.272.418v-4.468c.095-.14.184-.28.272-.418z" fill="#FFE499"/><path d="M81.062 22.148l-2.876 1.484c.927.713 1.475 1.562 1.485 2.482.028 2.567-4.107 4.701-9.219 4.757-4.421.049-8.142-1.476-9.087-3.549l-4.09.045c1.007 3.193 6.553 5.594 13.2 5.522 7.326-.08 13.256-3.14 13.215-6.82-.019-1.477-.995-2.832-2.628-3.921zm-10.881-.35c1.808-.02 3.49.216 4.916.633l2.837-1.392c-2.183-.741-4.872-1.165-7.773-1.133-6.558.072-11.982 2.44-12.909 5.454l4.038-.044c.888-1.963 4.528-3.47 8.892-3.518z" fill="#FFA94D"/><path d="M70.187 23.448c-3.428.037-6.203 1.391-6.185 3.02.017 1.626 2.822 2.92 6.25 2.882 3.428-.038 6.204-1.392 6.186-3.019-.018-1.627-2.823-2.92-6.25-2.883zm.056 5.073c-1.077-.87-2.63-1.587-4.495-2.073 1.853-.527 3.39-1.277 4.448-2.17 1.078.87 2.63 1.586 4.495 2.072-1.853.526-3.39 1.276-4.448 2.171z" fill="#FFA94D"/></g><defs><clipPath id="clip0"><path fill="#fff" transform="translate(.757 .644)" d="M0 0h136.304v87.385H0z"/></clipPath></defs></svg>