<svg width="672" height="633" viewBox="0 0 672 633" fill="none" xmlns="http://www.w3.org/2000/svg">
<path d="M651.992 631.461C662.885 631.461 671.598 622.747 671.754 612.011C672.532 558.171 676.889 478.657 575.435 456.561C493.275 438.822 541.979 292.709 320.709 302.201C161.837 309.048 204.006 442.868 80.6108 454.072C-1.54865 461.541 -2.32668 565.485 0.941021 613.1C1.56344 623.525 10.2773 631.617 20.7029 631.617H651.992V631.461Z" fill="#FFE499"/>
<path opacity="0.9" d="M575.434 456.561C493.275 438.822 541.979 292.709 320.709 302.201C282.897 303.757 256.6 312.627 236.527 325.231C243.218 324.297 250.376 323.675 258 323.363C479.271 313.872 430.566 459.985 512.726 477.724C613.091 499.508 609.979 577.466 609.045 631.461H651.836C662.729 631.461 671.443 622.747 671.598 612.011C672.532 558.016 676.889 478.502 575.434 456.561Z" fill="#FF9F50"/>
<path d="M227 -13H224V270H227V-13Z" fill="#0E8B99"/>
<path d="M477 -13H474V313H477V-13Z" fill="#0E8B99"/>
<path d="M477.248 295.821L217.543 265.478C206.495 264.234 196.381 272.169 195.136 283.217L175.685 449.403C174.44 460.451 182.376 470.566 193.424 471.811L453.129 502.154C464.177 503.398 474.291 495.463 475.536 484.415L494.987 318.229C496.231 307.181 488.296 297.222 477.248 295.821Z" fill="#FF2639"/>
<path d="M493.119 334.722L494.987 318.228C496.231 307.18 488.296 297.066 477.248 295.821L217.543 265.478C206.495 264.233 196.381 272.169 195.136 283.217L193.269 299.711L493.119 334.722Z" fill="#FC9233"/>
<path d="M223.612 288.508C223.301 291.464 220.5 293.643 217.543 293.331C214.587 293.02 212.408 290.219 212.72 287.263C213.031 284.306 215.832 282.128 218.788 282.439C221.745 282.75 224.079 285.551 223.612 288.508Z" fill="#FFBF7A"/>
<path d="M249.753 291.62C249.442 294.576 246.641 296.755 243.685 296.444C240.728 296.132 238.55 293.332 238.861 290.375C239.172 287.419 241.973 285.24 244.93 285.551C247.886 285.863 250.065 288.508 249.753 291.62Z" fill="#FFA94D"/>
<path d="M276.829 294.732C276.517 297.688 273.717 299.867 270.76 299.556C267.804 299.245 265.625 296.444 265.936 293.487C266.248 290.531 269.048 288.352 272.005 288.663C274.961 288.975 277.14 291.775 276.829 294.732Z" fill="#FFBF4D"/>
<path d="M214.119 417.441C212.049 415.914 211.026 413.83 211.051 411.189C211.146 408.493 212.004 405.989 213.624 403.679C215.306 401.376 217.52 400.811 220.266 401.983C222.523 403.533 225.473 405.078 229.116 406.618C232.822 408.166 238.477 409.492 246.081 410.597C253.747 411.71 260.235 410.97 265.543 408.379C267.192 406.828 267.881 404.901 267.61 402.599C267.402 400.305 265.021 398.739 260.468 397.901L243.184 395.676C238.769 395.233 233.814 394.343 228.318 393.006C222.83 391.607 219.269 389.668 217.636 387.191C216.072 384.659 215.362 380.884 215.504 375.864C215.647 370.844 216.287 366.36 217.425 362.413C218.625 358.474 221.32 355.64 225.51 353.912C230.459 352.156 235.917 351.347 241.882 351.486C247.847 351.624 254.481 352.194 261.783 353.197C269.094 354.138 275.089 355.509 279.77 357.308C284.513 359.115 288.471 361.388 291.645 364.127C293.716 365.653 294.704 367.764 294.609 370.46C294.584 373.102 293.73 375.574 292.048 377.877C290.428 380.187 288.245 380.756 285.499 379.584C283.242 378.034 280.261 376.485 276.556 374.937C272.912 373.398 267.257 372.072 259.591 370.959C251.987 369.854 245.928 369.955 241.414 371.264C238.003 371.832 236.151 373.987 235.858 377.728C235.636 381.415 238.86 383.279 245.53 383.319L262.629 385.52C266.834 386.124 271.76 387.483 277.408 389.595C283.126 391.654 286.947 394.508 288.871 398.156C290.802 401.743 290.809 406.341 288.89 411.951C286.971 417.561 283.865 421.633 279.571 424.166C275.255 426.382 270.055 427.885 263.97 428.676C257.947 429.475 251.284 429.373 243.982 428.37C236.671 427.429 230.645 426.055 225.902 424.248C221.221 422.449 217.294 420.18 214.119 417.441ZM348.877 419.296C350.697 417.389 352.158 415.089 353.26 412.397C354.362 409.705 355.109 406.841 355.5 403.805C355.891 400.769 355.894 397.81 355.509 394.926C355.125 392.043 354.294 389.448 353.016 387.142C350.617 384.251 346.413 382.419 340.403 381.645C334.394 380.872 329.863 381.579 326.81 383.769C324.99 385.676 323.529 387.975 322.427 390.667C321.324 393.36 320.578 396.223 320.187 399.259C319.796 402.295 319.793 405.254 320.177 408.138C320.562 411.022 321.393 413.616 322.671 415.922C325.07 418.813 329.274 420.645 335.283 421.419C341.293 422.192 345.824 421.485 348.877 419.296ZM305.24 428.037C302.234 423.998 300.116 419.411 298.887 414.277C297.667 409.082 297.483 403.17 298.337 396.541C299.19 389.912 300.861 384.27 303.35 379.615C305.846 374.898 309.061 370.966 312.992 367.82C317.308 365.604 322.121 364.177 327.431 363.538C332.74 362.899 337.873 362.898 342.829 363.536C347.785 364.174 352.751 365.475 357.725 367.438C362.7 369.401 366.994 372 370.608 375.237C373.615 379.276 375.729 383.894 376.949 389.09C378.178 394.223 378.365 400.104 377.512 406.733C376.659 413.362 374.984 419.035 372.487 423.752C369.998 428.407 366.788 432.308 362.856 435.454C358.54 437.67 353.728 439.097 348.418 439.736C343.109 440.375 337.976 440.376 333.019 439.738C328.063 439.1 323.098 437.799 318.123 435.836C313.149 433.873 308.854 431.274 305.24 428.037ZM446.585 446.233C442.269 448.449 437.456 449.876 432.147 450.515C426.837 451.154 420.527 451.003 413.217 450.062C405.977 449.067 400.159 447.783 395.764 446.209C391.431 444.644 387.228 442.56 383.154 439.957C381.067 438.555 380.037 436.533 380.062 433.891C380.149 431.257 380.972 428.781 382.53 426.462C384.088 424.143 386.345 423.489 389.301 424.5C396.712 427.595 404.819 429.93 413.622 431.504C422.488 433.086 428.869 432.679 432.767 430.284C435.115 428.193 436.029 426.232 435.509 424.402C434.395 421.802 429.792 419.887 421.7 418.657L404.136 416.396C401.358 415.471 400.197 413.243 400.651 409.712C401.114 406.119 402.802 404.258 405.716 404.129L423.279 406.39C431.419 407.249 436.357 406.562 438.093 404.329C439.059 402.69 438.672 400.562 436.931 397.945C433.766 394.64 427.696 392.631 418.719 391.916C409.803 391.209 401.369 391.415 393.416 392.532C390.301 392.761 388.283 391.556 387.363 388.919C386.443 386.281 386.274 383.677 386.857 381.107C387.502 378.545 389.011 376.85 391.385 376.022C395.985 374.536 400.579 373.584 405.167 373.167C409.817 372.758 415.766 373.02 423.015 373.953C430.333 374.832 436.48 376.253 441.454 378.216C446.429 380.179 450.723 382.779 454.337 386.015C458.103 390.027 460.315 394.374 460.972 399.056C461.628 403.738 460.56 407.631 457.768 410.735C455.045 413.786 452.083 415.514 448.881 415.921C451.875 417.125 454.299 419.578 456.153 423.281C458.076 426.929 458.127 430.935 456.306 435.298C454.485 439.661 451.244 443.306 446.585 446.233Z" fill="white"/>
<path d="M494.584 520.697H266V567.223H494.584V520.697Z" fill="#FFBF4D"/>
<path opacity="0.29" d="M494.584 520.697H266V531.901H494.584V520.697Z" fill="#F98D2B"/>
<path d="M285.917 520.697H306.768L301.167 532.056H280.315L285.917 520.697Z" fill="#F77E2D"/>
<path d="M332.91 520.697H353.761L348.159 532.056H327.308L332.91 520.697Z" fill="#F77E2D"/>
<path d="M379.903 520.697H400.754L395.152 532.056H374.301L379.903 520.697Z" fill="#F77E2D"/>
<path d="M426.896 520.697H447.747L442.145 532.056H421.294L426.896 520.697Z" fill="#F77E2D"/>
<path d="M494.584 520.697V521.008L489.138 532.056H468.287L473.888 520.697H494.584Z" fill="#F77E2D"/>
<path d="M310.658 567.223H294.476V630.71H310.658V567.223Z" fill="#5ABBC6"/>
<path d="M310.659 567.223H306.924V630.71H310.659V567.223Z" fill="#49A9B4"/>
<path d="M467.353 567.223H451.17V630.71H467.353V567.223Z" fill="#5ABBC6"/>
<path d="M467.353 567.223H462.529V630.71H467.353V567.223Z" fill="#49A9B4"/>
<path d="M310.658 567.223H294.476V575.159H310.658V567.223Z" fill="#49A9B4"/>
<path d="M467.353 567.223H451.17V575.159H467.353V567.223Z" fill="#49A9B4"/>
<path d="M310.658 513.539H294.476V520.697H310.658V513.539Z" fill="#79C9E8"/>
<path d="M310.659 513.539H306.924V520.697H310.659V513.539Z" fill="#49A9B4"/>
<path d="M467.353 513.539H451.17V520.697H467.353V513.539Z" fill="#79C9E8"/>
<path d="M467.353 513.539H462.529V520.697H467.353V513.539Z" fill="#49A9B4"/>
<path d="M310.658 519.763H294.476V520.697H310.658V519.763Z" fill="#49A9B4"/>
<path d="M467.353 519.763H451.17V520.697H467.353V519.763Z" fill="#49A9B4"/>
<path d="M306.768 520.697L283.739 567.223H266V560.843L285.917 520.697H306.768Z" fill="#49A9B4"/>
<path d="M332.91 520.697L309.881 567.223H330.732L353.761 520.697H332.91Z" fill="#49A9B4"/>
<path d="M400.754 520.697L377.724 567.223H356.873L379.903 520.697H400.754Z" fill="#49A9B4"/>
<path d="M447.747 520.697L424.717 567.223H403.866L426.896 520.697H447.747Z" fill="#49A9B4"/>
<path d="M473.888 520.697L450.859 567.223H471.71L494.584 521.008L473.888 520.697Z" fill="#49A9B4"/>
<path d="M306.768 520.697L301.167 532.056H280.315L285.917 520.697H306.768Z" fill="#0E8B99"/>
<path d="M353.761 520.697L348.159 532.056H327.308L332.91 520.697H353.761Z" fill="#0E8B99"/>
<path d="M400.754 520.697L395.152 532.056H374.301L379.903 520.697H400.754Z" fill="#0E8B99"/>
<path d="M447.747 520.697L442.145 532.056H421.294L426.896 520.697H447.747Z" fill="#0E8B99"/>
<path d="M494.584 521.008L489.138 532.056H468.287L473.888 520.697L494.584 521.008Z" fill="#0E8B99"/>
<path opacity="0.55" d="M490.538 540.926H272.38V564.111H490.538V540.926Z" fill="url(#paint0_linear)"/>
<path d="M304.373 517.561C312.177 516.292 317.473 508.936 316.204 501.133C314.934 493.329 307.579 488.032 299.775 489.302C291.972 490.572 286.675 497.927 287.945 505.731C289.214 513.534 296.57 518.831 304.373 517.561Z" fill="#FFBF4D"/>
<path d="M308.636 503.425C308.636 499.846 305.679 496.889 302.1 496.889C298.521 496.889 295.565 499.846 295.565 503.425C295.565 507.004 298.521 509.96 302.1 509.96C305.679 509.96 308.636 507.004 308.636 503.425Z" fill="#49A9B4"/>
<path d="M461.531 517.558C469.335 516.288 474.632 508.933 473.362 501.13C472.092 493.326 464.737 488.029 456.933 489.299C449.13 490.569 443.833 497.924 445.103 505.728C446.373 513.531 453.728 518.828 461.531 517.558Z" fill="#FFBF4D"/>
<path d="M465.641 503.425C465.641 499.846 462.685 496.889 459.106 496.889C455.527 496.889 452.57 499.846 452.57 503.425C452.57 507.004 455.527 509.96 459.106 509.96C462.685 509.96 465.641 507.004 465.641 503.425Z" fill="#49A9B4"/>
<path d="M606.58 626.459H533.757L544.961 599.54L549.473 588.647L550.718 585.691L552.741 580.867L553.208 579.933L557.72 569.041L558.499 567.018L566.434 547.723C567.835 544.3 572.814 544.3 574.215 547.723L582.15 567.018L582.929 569.041L587.441 579.933L587.908 580.867L589.931 585.691L591.176 588.647L595.688 599.54L606.58 626.459Z" fill="#FFBF4D"/>
<path opacity="0.29" d="M538.581 614.789L533.757 626.459H606.58L601.757 614.789H538.581Z" fill="#F98D2B"/>
<path d="M611.404 619.457H528V631.283H611.404V619.457Z" fill="#49A9B4"/>
<path d="M611.404 619.457H593.354V631.283H611.404V619.457Z" fill="#1397A6"/>
<path opacity="0.29" d="M603.779 619.457H593.509L585.262 599.384L580.75 588.492L579.505 585.535L577.482 580.711L577.015 579.778L572.503 568.885L571.725 566.862L565.034 550.68L566.279 547.567C567.679 544.144 572.658 544.144 574.059 547.567L581.995 566.862L582.773 568.885L587.285 579.778L587.752 580.711L589.775 585.535L591.02 588.492L595.532 599.384L603.779 619.457Z" fill="#F98D2B"/>
<path d="M587.285 579.622H553.052L557.565 568.73H582.773L587.285 579.622Z" fill="#49A9B4"/>
<path d="M595.533 599.384H544.961L549.473 588.491H591.02L595.533 599.384Z" fill="#49A9B4"/>
<path d="M587.285 579.622H577.016L572.503 568.73H582.773L587.285 579.622Z" fill="#1397A6"/>
<path d="M595.532 599.384H585.107L580.75 588.491H591.02L595.532 599.384Z" fill="#1397A6"/>
<path d="M225.226 624.105H101.761L120.756 578.465L128.406 559.998L130.517 554.986L133.947 546.808L134.738 545.225L142.389 526.758L143.708 523.328L157.162 490.615C159.536 484.811 167.979 484.811 170.353 490.615L183.807 523.328L185.126 526.758L192.777 545.225L193.569 546.808L196.998 554.986L199.109 559.998L206.759 578.465L225.226 624.105Z" fill="#FFBF4D"/>
<path opacity="0.29" d="M109.939 604.318L101.761 624.104H225.226L217.048 604.318H109.939Z" fill="#F98D2B"/>
<path d="M233.404 612.233H92V632.283H233.404V612.233Z" fill="#49A9B4"/>
<path d="M233.404 612.233H202.802V632.283H233.404V612.233Z" fill="#1397A6"/>
<path opacity="0.29" d="M220.477 612.233H203.066L189.083 578.201L181.433 559.734L179.322 554.722L175.893 546.544L175.101 544.961L167.451 526.494L166.132 523.064L154.788 495.628L156.898 490.351C159.272 484.547 167.714 484.547 170.089 490.351L183.543 523.064L184.862 526.494L192.513 544.961L193.304 546.544L196.734 554.722L198.845 559.734L206.495 578.201L220.477 612.233Z" fill="#F98D2B"/>
<path d="M192.513 544.697H134.474L142.125 526.23H184.863L192.513 544.697Z" fill="#49A9B4"/>
<path d="M206.495 578.201H120.756L128.406 559.734H198.845L206.495 578.201Z" fill="#49A9B4"/>
<path d="M192.513 544.697H175.101L167.451 526.23H184.862L192.513 544.697Z" fill="#1397A6"/>
<path d="M206.495 578.201H188.82L181.433 559.734H198.845L206.495 578.201Z" fill="#1397A6"/>
<path d="M105.041 361.642C110.487 361.642 115.155 357.752 115.933 352.306C116.089 351.372 116.089 350.283 116.089 349.349C116.089 337.367 106.441 327.564 94.3038 327.564C93.837 327.564 93.3702 327.564 92.9034 327.564C91.9698 315.738 82.0111 306.402 69.8739 306.402C57.1143 306.402 46.8443 316.672 46.8443 329.432C46.8443 330.054 46.8443 330.521 46.8443 331.143C43.2654 329.12 39.0641 328.031 34.5515 328.187C23.0368 328.654 13.3893 337.99 12.6112 349.505C12.6112 349.66 12.6112 349.66 12.6112 349.816C12.3 356.04 17.2794 361.331 23.6592 361.331H105.041V361.642Z" fill="white"/>
<path d="M623.361 378.759C640.477 378.759 641.411 352.928 624.294 352.15C623.827 352.15 623.361 352.15 622.894 352.15C619.782 352.15 616.825 352.617 614.18 353.551C611.846 339.546 599.709 328.81 585.082 328.81C570.144 328.81 557.695 340.013 555.828 354.484C552.249 352.773 548.359 351.839 544.158 351.839C541.824 351.839 539.489 352.15 537.311 352.773C522.217 356.663 525.485 378.914 540.89 378.914H623.361V378.759Z" fill="white"/>
<path d="M417.029 251.318C434.145 251.318 435.079 225.488 417.962 224.71C417.495 224.71 417.028 224.71 416.562 224.71C413.45 224.71 410.493 225.177 407.848 226.11C405.514 212.106 393.377 201.525 378.75 201.525C363.812 201.525 351.519 212.728 349.496 227.044C345.917 225.332 342.027 224.399 337.826 224.399C335.492 224.399 333.157 224.71 330.979 225.332C316.041 229.222 319.153 251.474 334.558 251.474H417.029V251.318Z" fill="white"/>
<path d="M143.63 299.245C166.404 299.245 184.866 280.783 184.866 258.009C184.866 235.236 166.404 216.774 143.63 216.774C120.857 216.774 102.395 235.236 102.395 258.009C102.395 280.783 120.857 299.245 143.63 299.245Z" fill="#FFBF4D"/>
<path d="M144.097 216.774C155.301 224.088 162.614 236.847 162.614 251.163C162.614 273.881 144.253 292.398 121.379 292.398C121.223 292.398 121.223 292.398 121.068 292.398C127.603 296.6 135.228 299.089 143.631 299.089C166.349 299.089 184.866 280.728 184.866 257.854C184.866 235.291 166.66 216.93 144.097 216.774Z" fill="#FF9F50"/>
<path d="M121.58 627.459H48.7571L59.9607 600.54L64.4732 589.647L65.718 586.691L67.7409 581.867L68.2077 580.933L72.7202 570.041L73.4983 568.018L81.4341 548.723C82.8346 545.3 87.8139 545.3 89.2144 548.723L97.1502 568.018L97.9283 570.041L102.441 580.933L102.908 581.867L104.93 586.691L106.175 589.647L110.688 600.54L121.58 627.459Z" fill="#FFBF4D"/>
<path opacity="0.29" d="M53.5808 615.789L48.7571 627.459H121.58L116.756 615.789H53.5808Z" fill="#F98D2B"/>
<path d="M126.404 620.457H43V632.283H126.404V620.457Z" fill="#49A9B4"/>
<path d="M126.404 620.457H108.354V632.283H126.404V620.457Z" fill="#1397A6"/>
<path opacity="0.29" d="M118.779 620.457H108.509L100.262 600.384L95.7498 589.492L94.5049 586.535L92.4821 581.711L92.0153 580.778L87.5027 569.885L86.7247 567.862L80.0337 551.68L81.2785 548.567C82.679 545.144 87.6583 545.144 89.0588 548.567L96.9946 567.862L97.7726 569.885L102.285 580.778L102.752 581.711L104.775 586.535L106.02 589.492L110.532 600.384L118.779 620.457Z" fill="#F98D2B"/>
<path d="M102.285 580.622H68.0522L72.5648 569.73H97.7728L102.285 580.622Z" fill="#49A9B4"/>
<path d="M110.533 600.384H59.9609L64.4735 589.491H106.02L110.533 600.384Z" fill="#49A9B4"/>
<path d="M102.285 580.622H92.0155L87.5029 569.73H97.7729L102.285 580.622Z" fill="#1397A6"/>
<path d="M110.532 600.384H100.107L95.75 589.491H106.02L110.532 600.384Z" fill="#1397A6"/>
<defs>
<linearGradient id="paint0_linear" x1="381.481" y1="580.827" x2="381.481" y2="543.397" gradientUnits="userSpaceOnUse">
<stop stop-color="white"/>
<stop offset="1" stop-color="white" stop-opacity="0"/>
</linearGradient>
</defs>
</svg>
