<svg width="466" height="461" viewBox="0 0 466 461" fill="none" xmlns="http://www.w3.org/2000/svg">
<rect x="123" y="51" width="293" height="293" rx="50" fill="white"/>
<g opacity="0.1" clip-path="url(#clip0)">
<path d="M357.479 95.344H360.852C361.623 91.5496 364.979 88.6921 369 88.6921C370.693 88.6921 372.27 89.1993 373.584 90.0696L375.97 87.6832C374.027 86.2281 371.614 85.3661 369 85.3661C363.136 85.3661 358.289 89.7037 357.479 95.344Z" fill="white"/>
<path d="M355.337 108.318L357.704 105.951C355.755 103.492 354.589 100.388 354.589 97.0069C354.589 89.6094 360.162 83.5174 367.337 82.6914V79.3461C358.322 80.1859 351.263 87.769 351.263 97.0041C351.263 101.306 352.793 105.25 355.337 108.318Z" fill="white"/>
<path d="M383.314 98.6699C382.489 105.846 376.397 111.419 369 111.419C365.619 111.419 362.515 110.253 360.057 108.304L357.69 110.671C360.761 113.215 364.702 114.745 369 114.745C378.234 114.745 385.817 107.686 386.657 98.6699H383.314Z" fill="white"/>
<path d="M370.663 79.3487V82.694C377.292 83.4562 382.549 88.714 383.314 95.3465H386.657C385.87 86.8764 379.132 80.1358 370.663 79.3487Z" fill="white"/>
<path d="M367.337 120.779V117.445C356.789 116.597 348.491 107.775 348.491 97.0068C348.491 91.943 350.332 87.3089 353.375 83.7307L351.016 81.3748C347.375 85.56 345.166 91.0228 345.166 97.0068C345.166 109.612 354.952 119.925 367.337 120.779Z" fill="white"/>
<path d="M386.984 81.3748L384.625 83.7307C387.668 87.3089 389.509 91.943 389.509 97.0068C389.509 102.071 387.668 106.705 384.628 110.283L386.987 112.642C390.626 108.454 392.834 102.991 392.834 97.0068C392.834 91.0229 390.626 85.56 386.984 81.3748Z" fill="white"/>
<path d="M355.725 81.3806C359.303 78.3373 363.937 76.497 369 76.497C374.066 76.497 378.697 78.3373 382.275 81.3778L384.631 79.0219C380.446 75.38 374.984 73.171 369 73.171C363.016 73.171 357.554 75.38 353.369 79.0219L355.725 81.3806Z" fill="white"/>
<path d="M382.275 112.636C379.094 115.341 375.075 117.09 370.663 117.445V120.779C375.992 120.411 380.84 118.293 384.631 114.992L382.275 112.636Z" fill="white"/>
<path d="M369 126.941C384.972 126.941 398.022 114.429 398.884 98.6699H395.553C394.694 112.589 383.134 123.615 369 123.615C354.866 123.615 343.306 112.589 342.447 98.6699H339.116C339.978 114.429 353.028 126.941 369 126.941Z" fill="white"/>
<path d="M339.116 95.344H342.447C343.273 81.9737 353.968 71.278 367.337 70.452V67.1205C352.13 67.952 339.947 80.1361 339.116 95.344Z" fill="white"/>
<path d="M370.663 67.1205V70.452C384.032 71.278 394.727 81.9737 395.553 95.344H398.884C398.053 80.1361 385.87 67.952 370.663 67.1205Z" fill="white"/>
<path d="M369 60.9758C349.101 60.9758 332.971 77.1066 332.971 97.0069C332.971 116.35 348.212 132.129 367.337 132.999V129.671C350.049 128.806 336.297 114.512 336.297 97.0069C336.297 78.9442 350.939 64.3017 369 64.3017C387.061 64.3017 401.703 78.9442 401.703 97.0069C401.703 114.512 387.951 128.806 370.663 129.671V132.999C389.789 132.129 405.029 116.35 405.029 97.0069C405.029 77.1066 388.899 60.9758 369 60.9758Z" fill="white"/>
<path d="M397.587 127.946L395.234 125.593C388.328 131.938 379.116 135.81 369 135.81C358.884 135.81 349.675 131.938 342.766 125.593L340.413 127.946C347.923 134.892 357.967 139.135 369 139.135C380.036 139.135 390.077 134.892 397.587 127.946Z" fill="white"/>
<path d="M338.063 125.596L340.415 123.243C334.072 116.336 330.2 107.124 330.2 97.0071C330.2 86.8907 334.072 77.6778 340.415 70.7709L338.063 68.4178C331.12 75.9289 326.874 85.9733 326.874 97.0071C326.874 108.044 331.12 118.085 338.063 125.596Z" fill="white"/>
<path d="M369 54.8781C357.967 54.8781 347.923 59.1242 340.413 66.0671L342.766 68.4202C349.675 62.0787 358.884 58.204 369 58.204C390.429 58.204 407.8 75.5766 407.8 97.0068C407.8 107.123 403.928 116.336 397.585 123.243L399.937 125.596C406.883 118.085 411.126 108.043 411.126 97.0068C411.126 73.739 392.266 54.8781 369 54.8781Z" fill="white"/>
<path d="M320.808 95.3441H324.136C325.012 71.3168 344.761 52.1067 369 52.1067C380.801 52.1067 391.534 56.6604 399.547 64.105L401.9 61.7519C393.283 53.7059 381.718 48.7807 369 48.7807C342.924 48.7807 321.686 69.4792 320.808 95.3441Z" fill="white"/>
<path d="M404.253 64.105L401.9 66.4582C408.992 74.094 413.459 84.1994 413.864 95.3441H417.192C416.782 83.282 411.946 72.3451 404.253 64.105Z" fill="white"/>
<path d="M369 145.233C395.076 145.233 416.314 124.535 417.192 98.6699H413.864C412.988 122.697 393.239 141.907 369 141.907C344.761 141.907 325.012 122.697 324.136 98.6699H320.808C321.686 124.535 342.924 145.233 369 145.233Z" fill="white"/>
<path d="M367.337 151.303V147.974C354.511 147.564 342.882 142.415 334.138 134.222L331.785 136.575C341.133 145.369 353.591 150.89 367.337 151.303Z" fill="white"/>
<path d="M370.663 42.7108V46.0395C398.056 46.9181 419.994 69.3987 419.994 97.0069C419.994 124.615 398.056 147.096 370.663 147.974V151.303C399.893 150.424 423.32 126.453 423.32 97.0069C423.32 67.5612 399.893 43.5894 370.663 42.7108Z" fill="white"/>
<path d="M314.68 97.0069C314.68 111.411 320.287 124.501 329.435 134.224L331.788 131.871C323.241 122.753 318.006 110.491 318.006 97.0069C318.006 69.3987 339.944 46.9181 367.337 46.0395V42.7108C338.107 43.5894 314.68 67.5612 314.68 97.0069Z" fill="white"/>
<path d="M369 157.428C385.085 157.428 399.702 151.139 410.527 140.89L408.174 138.537C397.95 148.185 384.168 154.102 369 154.102C337.469 154.102 311.909 128.54 311.909 97.0067C311.909 81.8376 317.826 68.0543 327.473 57.8298L325.12 55.4767C314.871 66.3027 308.583 80.9202 308.583 97.0067C308.583 130.377 335.632 157.428 369 157.428Z" fill="white"/>
<path d="M369 36.5854C352.915 36.5854 338.298 42.8742 327.473 53.1237L329.826 55.4768C340.05 45.8288 353.832 39.9113 369 39.9113C400.53 39.9113 426.091 65.474 426.091 97.0068C426.091 112.176 420.174 125.959 410.527 136.184L412.88 138.537C423.129 127.711 429.417 113.093 429.417 97.0068C429.417 63.6364 402.368 36.5854 369 36.5854Z" fill="white"/>
<path d="M435.495 98.6699H432.169C431.285 132.802 403.344 160.2 369 160.2C334.659 160.2 306.715 132.802 305.834 98.6699H302.508C303.389 134.64 332.822 163.526 369 163.526C405.178 163.526 434.611 134.64 435.495 98.6699Z" fill="white"/>
<path d="M417.192 51.1615L414.839 53.5146C425.235 64.4708 431.748 79.1494 432.166 95.344H435.492C435.074 78.232 428.192 62.722 417.192 51.1615Z" fill="white"/>
<path d="M302.508 95.344H305.834C306.715 61.2114 334.659 33.8139 369 33.8139C385.85 33.8139 401.16 40.4103 412.489 51.1642L414.842 48.8111C402.911 37.4558 386.77 30.4879 369 30.4879C332.822 30.4879 303.389 59.3766 302.508 95.344Z" fill="white"/>
<path d="M316.495 147.165L318.846 144.815C306.992 132.378 299.714 115.543 299.714 97.0068C299.714 59.2961 329.84 28.6197 367.337 27.7384V24.4124C328.002 25.2966 296.389 57.4585 296.389 97.0068C296.389 116.461 304.041 134.127 316.495 147.165Z" fill="white"/>
<path d="M419.155 149.518L416.802 147.168C404.369 159.019 387.535 166.298 369 166.298C350.465 166.298 333.631 159.019 321.198 147.165L318.845 149.515C331.882 161.974 349.547 169.624 369 169.624C388.453 169.624 406.118 161.974 419.155 149.518Z" fill="white"/>
<path d="M370.663 24.4124V27.7384C408.16 28.6197 438.286 59.2961 438.286 97.0069C438.286 115.543 431.008 132.378 419.155 144.812L421.507 147.162C433.962 134.127 441.611 116.461 441.611 97.0069C441.611 57.4585 409.998 25.2966 370.663 24.4124Z" fill="white"/>
<path d="M314.536 40.1857L316.886 42.5389C330.424 29.5787 348.782 21.6186 369 21.6186C410.632 21.6186 444.383 55.3715 444.383 97.0069C444.383 138.088 411.528 171.489 370.663 172.373V175.699C413.365 174.812 447.709 139.923 447.709 97.0069C447.709 53.5339 412.47 18.2927 369 18.2927C347.865 18.2927 328.676 26.6269 314.536 40.1857Z" fill="white"/>
<path d="M367.337 175.699V172.373C326.473 171.489 293.617 138.088 293.617 97.0069C293.617 76.7879 301.577 58.4286 314.536 44.8892L312.183 42.5389C298.625 56.6797 290.292 75.8677 290.292 97.0069C290.292 139.923 324.635 174.815 367.337 175.699Z" fill="white"/>
<path d="M427.776 40.5766C441.478 54.8477 450.034 74.0967 450.458 95.344H453.784C453.357 73.1792 444.433 53.0988 430.127 38.2263L427.776 40.5766Z" fill="white"/>
<path d="M284.216 95.344H287.542C288.426 51.1088 324.557 15.5211 369 15.5211C390.903 15.5211 410.785 24.1658 425.426 38.2263L427.779 35.876C412.534 21.2113 391.82 12.1952 369 12.1952C322.72 12.1952 285.103 49.2712 284.216 95.344Z" fill="white"/>
<path d="M450.461 98.6699C449.574 142.905 413.445 178.493 369 178.493C324.557 178.493 288.426 142.905 287.542 98.6699H284.216C285.103 144.743 322.72 181.819 369 181.819C415.28 181.819 452.899 144.743 453.786 98.6699H450.461Z" fill="white"/>
<path d="M370.663 6.11981V9.44576C418.262 10.3327 456.577 49.1937 456.577 97.007C456.577 120.594 447.251 142.002 432.089 157.747L434.442 160.1C449.976 143.992 459.634 122.154 459.9 98.0075C460.449 48.024 420.554 7.02613 370.663 6.11981Z" fill="white"/>
<path d="M303.561 160.1L305.911 157.75C290.749 142.001 281.423 120.593 281.423 97.0069C281.423 49.1908 319.738 10.3326 367.337 9.44567V6.11694C318.352 6.98723 278.646 46.6936 278.103 96.0063C277.828 120.871 287.567 143.509 303.561 160.1Z" fill="white"/>
<path d="M429.736 160.1C413.991 175.264 392.585 184.59 369 184.59C345.415 184.59 324.009 175.264 308.264 160.1L305.911 162.453C322.019 177.988 343.855 187.647 367.997 187.913C392.859 188.188 415.496 178.448 432.086 162.453L429.736 160.1Z" fill="white"/>
<path d="M303.952 29.6038C321.052 13.0987 344.393 3.04882 370.031 3.33153C394.927 3.60592 417.445 13.5727 434.048 29.601L436.401 27.2479C419.207 10.6264 395.872 0.291053 370.07 0.00557502C343.497 -0.285446 319.306 10.1331 301.599 27.2479L303.952 29.6038Z" fill="white"/>
<path d="M438.754 29.601L436.398 31.9569C452.902 49.0551 462.951 72.4005 462.669 98.0408C462.109 148.872 421.164 189.801 370.663 190.671V194C422.985 193.13 465.415 150.735 465.994 98.0768C466.288 71.5025 455.868 47.3089 438.754 29.601Z" fill="white"/>
<path d="M367.337 190.669C315.899 189.759 274.763 147.5 275.331 95.9759C275.606 71.0784 285.572 48.5589 301.599 31.9541L299.246 29.601C282.626 46.7962 272.291 70.1361 272.006 95.9371C271.418 149.313 314.045 193.091 367.337 193.997V190.669Z" fill="white"/>
<path d="M378.323 90.0364L375.937 92.4228C376.807 93.7365 377.314 95.3136 377.314 97.0071C377.314 101.6 373.592 105.322 369 105.322C364.979 105.322 361.623 102.464 360.852 98.67H357.479C358.286 104.31 363.136 108.648 369 108.648C375.43 108.648 380.64 103.437 380.64 97.0071C380.64 94.3934 379.778 91.9793 378.323 90.0364Z" fill="white"/>
<path d="M374.413 97.0431C374.413 100.039 371.985 102.467 368.989 102.467C365.993 102.467 363.565 100.039 363.565 97.0431C363.565 94.0469 365.993 91.619 368.989 91.619C371.985 91.619 374.413 94.0469 374.413 97.0431Z" fill="white"/>
<path d="M369 91.4637C365.94 91.4637 363.457 93.9471 363.457 97.007C363.457 100.07 365.94 102.55 369 102.55C372.062 102.55 374.543 100.07 374.543 97.007C374.543 93.9471 372.062 91.4637 369 91.4637ZM368.989 101.345C368.038 99.5015 366.531 97.9965 364.69 97.0458C366.533 96.0951 368.038 94.5874 368.989 92.747C369.94 94.5901 371.447 96.0951 373.287 97.0458C371.447 97.9937 369.94 99.5015 368.989 101.345Z" fill="white"/>
</g>
<circle cx="369" cy="97" r="95.5" stroke="#49A9B4" stroke-width="3"/>
<g clip-path="url(#clip1)">
<path d="M331.712 280.768C331.712 280.768 332.732 293.079 340.49 302.653C346.608 310.229 378.099 311.96 384.912 303.17C392.507 293.39 394 280.768 394 280.768H331.712Z" fill="#49A9B4"/>
<path d="M362.863 311.871C375.816 311.871 386.316 305.955 386.316 298.657C386.316 291.36 375.816 285.443 362.863 285.443C349.911 285.443 339.411 291.36 339.411 298.657C339.411 305.955 349.911 311.871 362.863 311.871Z" fill="#49A9B4"/>
<path d="M362.657 265.349C346.889 265.349 334.106 272.244 334.106 280.768C334.106 285.118 337.446 289.024 342.81 291.836C346.918 288.018 354.351 285.458 362.863 285.458C371.272 285.458 378.631 287.959 382.769 291.717C387.986 288.921 391.207 285.059 391.207 280.782C391.207 272.244 378.424 265.349 362.657 265.349Z" fill="#49A9B4"/>
<path d="M342.81 291.821C347.953 294.514 354.943 296.171 362.657 296.171C370.504 296.171 377.612 294.455 382.769 291.703C378.631 287.959 371.272 285.443 362.863 285.443C354.351 285.443 346.918 288.003 342.81 291.821Z" fill="#49A9B4"/>
<path d="M384.262 238.773L376.223 234.098L372.528 236.051L382.045 242.147L384.262 238.773Z" fill="#EF8E35"/>
<path d="M347.982 287.842L346.667 290.224L337.667 285.001C337.889 286.673 338.244 288.182 338.687 289.617C339.854 290.446 340.682 291.615 341.879 292.532L344.11 293.834C346.696 295.033 349.8 295.684 352.445 296.232C355.238 296.809 358.445 297.193 361.725 297.327C374.242 289.44 384.247 269.937 384.247 253.068C384.247 240.15 378.395 232.456 370.031 232.5L378.661 237.502L377.346 239.884L365.76 233.166C364.223 233.61 362.642 234.291 361.016 235.208L371.848 241.467L370.533 243.85L358.445 236.851C357.263 237.694 356.125 238.626 355.002 239.647L365.021 245.448L363.706 247.83L353.007 241.63C352.061 242.636 351.13 243.687 350.243 244.812L359.08 249.931L357.765 252.314L348.588 246.987C347.79 248.097 347.036 249.251 346.297 250.449L356.76 256.501L355.445 258.884L344.923 252.787C344.081 254.311 343.298 255.865 342.588 257.463L353.568 263.811L352.253 266.193L341.524 259.979C340.859 261.621 340.268 263.308 339.766 264.995L350.376 271.136L349.061 273.518L339.012 267.688C338.554 269.478 338.184 271.284 337.918 273.089L347.184 278.445L345.869 280.828L337.549 276.004C337.416 277.424 337.342 278.83 337.342 280.221C337.342 280.754 337.357 281.272 337.372 281.79L347.982 287.842Z" fill="#EF8E35"/>
<path d="M377.375 239.854L365.789 233.136C367.267 232.707 368.701 232.485 370.06 232.485L378.69 237.486L377.375 239.854Z" fill="#FFA94D"/>
<path d="M370.548 243.819L358.46 236.82C359.228 236.273 360.026 235.755 360.809 235.296C360.883 235.252 360.957 235.222 361.016 235.178L371.848 241.437L370.548 243.819Z" fill="#FFA94D"/>
<path d="M363.72 247.785L353.021 241.585C353.672 240.904 354.337 240.238 355.016 239.617L365.036 245.417L363.72 247.785Z" fill="#FFA94D"/>
<path d="M357.78 252.254L348.603 246.927C349.135 246.187 349.682 245.462 350.258 244.751L359.095 249.871L357.78 252.254Z" fill="#FFA94D"/>
<path d="M355.46 258.823L344.938 252.727C345.381 251.928 345.839 251.159 346.298 250.389L356.76 256.441L355.46 258.823Z" fill="#FFA94D"/>
<path d="M352.268 266.133L341.539 259.918C341.879 259.075 342.234 258.232 342.603 257.418L353.583 263.766L352.268 266.133Z" fill="#FFA94D"/>
<path d="M349.076 273.443L339.027 267.613C339.263 266.71 339.5 265.822 339.781 264.92L350.391 271.061L349.076 273.443Z" fill="#FFA94D"/>
<path d="M345.884 280.753L337.579 275.929C337.667 274.952 337.786 273.991 337.933 273.014L347.199 278.37L345.884 280.753Z" fill="#FFA94D"/>
<path d="M346.682 290.223L337.682 284.999C337.549 283.949 337.446 282.854 337.401 281.715L347.982 287.841L346.682 290.223Z" fill="#FFA94D"/>
<path d="M352.46 296.216C360.263 297.814 371.08 298.08 378.543 294.677C386.803 285.059 392.567 270.72 392.567 257.906C392.567 240.623 382.074 232.677 369.114 240.164C356.169 247.652 345.662 267.731 345.662 285.014C345.662 288.802 346.194 292.117 347.125 294.958C348.928 295.491 350.79 295.875 352.46 296.216Z" fill="#FDDB6F"/>
<path d="M369.942 296.985C380.331 290.4 388.636 274.198 388.636 260.185C388.636 245.802 379.902 239.188 369.129 245.417C358.356 251.647 349.608 268.368 349.608 282.75C349.608 288.847 351.189 293.537 353.819 296.452C358.696 297.326 364.519 297.681 369.942 296.985Z" fill="#FFE499"/>
<path d="M370.769 284.2C368.819 285.236 367.208 285.621 365.671 285.414V278.607L368.612 276.595V279.243C368.612 280.057 368.7 280.338 369.203 280.309C369.617 280.294 370.178 280.116 370.769 279.761V271.223C368.036 271.653 365.582 271.297 365.582 266C365.582 261.428 367.622 257.196 370.769 254.695V250.493L372.986 249.205V253.319C374.582 252.535 376.134 252.194 377.582 252.402V258.838L374.671 260.791V258.32C374.671 257.492 374.582 257.225 374.08 257.24C373.754 257.299 373.37 257.373 372.986 257.551V265.586L373.016 265.571C375.616 265.305 378.35 265.497 378.35 271.031C378.35 275.958 376.134 280.22 372.986 282.765V287.471L370.769 288.758V284.2ZM370.769 265.704V259.119C369.824 260.17 369.232 261.561 369.232 263.396C369.232 265.038 369.824 265.571 370.769 265.704ZM373.001 271.046V278.178C374.006 277.098 374.685 275.559 374.685 273.413C374.685 271.667 374.006 271.105 373.001 271.046Z" fill="#FF9D4D"/>
<path d="M390.335 272.57C389.981 273.739 389.818 274.316 389.419 275.441C390.483 277.053 391.207 278.947 391.207 280.768C391.207 285.044 387.971 288.906 382.769 291.703C377.612 294.47 370.503 296.171 362.656 296.171C354.943 296.171 347.953 294.514 342.81 291.821C337.446 289.024 334.106 285.103 334.106 280.753C334.106 277.956 335.51 275.337 337.919 273.088C337.978 273.043 338.332 270.809 338.51 269.818C334.254 272.822 331.712 276.624 331.712 280.768C331.712 290.46 345.647 298.317 362.849 298.317C380.05 298.317 393.985 290.46 393.985 280.768C394 277.808 392.626 275.011 390.335 272.57Z" fill="#A5A0E3"/>
<path d="M337.372 288.462H335.702L362.73 178.194L392.7 284.585L391.045 284.615L362.834 184.498L337.372 288.462Z" fill="#F8FDFF"/>
<path d="M392.7 284.585C392.7 284.837 392.33 285.059 391.872 285.059C391.414 285.059 391.045 284.852 391.045 284.585C391.045 284.334 391.414 284.112 391.872 284.112C392.33 284.112 392.7 284.319 392.7 284.585Z" fill="white"/>
<path d="M337.372 288.462C337.372 288.728 337.002 288.936 336.544 288.936C336.086 288.936 335.717 288.728 335.717 288.462C335.717 288.196 336.086 287.989 336.544 287.989C337.002 287.989 337.372 288.211 337.372 288.462Z" fill="white"/>
<path d="M362.923 234.186L363.588 181.361L361.977 181.346L361.297 234.985C361.844 234.719 362.391 234.467 362.923 234.186Z" fill="#F8FDFF"/>
<path d="M146 173.74C146 173.74 147.02 186.051 154.778 195.625C160.896 203.201 192.387 204.932 199.2 196.143C206.796 186.362 208.288 173.74 208.288 173.74H146Z" fill="#FF2639"/>
<path d="M177.137 204.858C190.089 204.858 200.589 198.942 200.589 191.645C200.589 184.347 190.089 178.431 177.137 178.431C164.184 178.431 153.684 184.347 153.684 191.645C153.684 198.942 164.184 204.858 177.137 204.858Z" fill="#FF2639"/>
<path d="M176.945 158.336C161.177 158.336 148.394 165.232 148.394 173.755C148.394 178.105 151.734 182.012 157.098 184.823C161.206 181.006 168.639 178.446 177.151 178.446C185.56 178.446 192.919 180.946 197.057 184.705C202.274 181.908 205.495 178.046 205.495 173.77C205.495 165.232 192.712 158.336 176.945 158.336Z" fill="#FF2639"/>
<path d="M157.098 184.808C162.241 187.501 169.231 189.159 176.945 189.159C184.792 189.159 191.9 187.442 197.057 184.69C192.919 180.946 185.56 178.431 177.151 178.431C168.625 178.431 161.206 180.991 157.098 184.808Z" fill="#49A9B4"/>
<path d="M168.861 186.2L167.25 187.132L152.946 178.86C153.108 179.926 153.3 180.932 153.551 181.894L164.664 188.316C168.374 189.189 172.127 189.736 175.157 189.988C176.339 190.091 177.506 190.121 178.688 190.106C190.954 181.568 200.574 162.273 200.574 145.522C200.574 140.832 199.806 136.822 198.446 133.596L199.761 130.636L192.21 126.035L192.195 126.049C190.644 125.162 188.915 124.644 187.053 124.51L198.476 131.11L196.865 132.042L184.068 124.644C183.033 124.792 181.984 124.999 180.89 125.369L194.087 132.989L192.476 133.921L178.984 126.123C178.186 126.478 177.388 126.878 176.56 127.351C176.442 127.411 176.339 127.499 176.221 127.573L190.437 135.786L188.826 136.718L174.698 128.55C171.994 130.4 169.408 132.738 167.029 135.49L180.743 143.421L179.132 144.353L165.994 136.762C165.521 137.34 165.063 137.917 164.62 138.523L176.339 145.3L174.728 146.233L163.659 139.84C163.157 140.551 162.669 141.29 162.196 142.045L172.674 148.097L171.063 149.029L161.325 143.406C158.871 147.49 156.832 151.989 155.34 156.605L170.029 165.099L168.418 166.031L154.867 158.189C154.66 158.884 154.453 159.594 154.276 160.29L169.127 168.872L167.516 169.804L153.891 161.932C153.684 162.85 153.492 163.767 153.33 164.685L167.472 172.867L165.861 173.8L153.034 166.386C152.694 168.739 152.502 171.077 152.502 173.356C152.502 174.584 152.561 175.753 152.665 176.892L168.861 186.2Z" fill="#FFA94D"/>
<path d="M198.461 131.124L187.038 124.525C186.077 124.451 185.072 124.51 184.053 124.658L196.85 132.057L198.461 131.124Z" fill="#EF8E35"/>
<path d="M194.072 133.004L180.876 125.383C180.255 125.59 179.605 125.842 178.969 126.138L192.461 133.936L194.072 133.004Z" fill="#EF8E35"/>
<path d="M190.422 135.8L176.206 127.588C175.688 127.899 175.186 128.224 174.684 128.565L188.811 136.733L190.422 135.8Z" fill="#EF8E35"/>
<path d="M168.861 186.199L152.694 176.862C152.753 177.558 152.857 178.209 152.96 178.875L167.265 187.146L168.861 186.199Z" fill="#EF8E35"/>
<path d="M157.556 186.066C159.758 186.983 162.182 187.738 164.664 188.33L153.551 181.908C153.758 182.692 153.995 183.447 154.261 184.172L157.556 186.066Z" fill="#EF8E35"/>
<path d="M180.728 143.421L167.014 135.49C166.659 135.889 166.319 136.333 165.979 136.747L179.117 144.338L180.728 143.421Z" fill="#EF8E35"/>
<path d="M176.339 145.3L164.62 138.523C164.295 138.952 163.985 139.396 163.674 139.84L174.743 146.232L176.339 145.3Z" fill="#EF8E35"/>
<path d="M172.689 148.097L162.211 142.045C161.93 142.503 161.62 142.933 161.354 143.406L171.093 149.029L172.689 148.097Z" fill="#EF8E35"/>
<path d="M170.043 165.084L155.354 156.59C155.177 157.108 155.044 157.641 154.881 158.173L168.433 166.016L170.043 165.084Z" fill="#EF8E35"/>
<path d="M169.142 168.857L154.29 160.275C154.157 160.822 154.024 161.37 153.906 161.902L167.531 169.774L169.142 168.857Z" fill="#EF8E35"/>
<path d="M167.487 172.837L153.345 164.655C153.241 165.217 153.138 165.779 153.049 166.342L165.876 173.755L167.487 172.837Z" fill="#EF8E35"/>
<path d="M175.171 190.002C182.043 190.579 188.959 189.292 195.225 186.51C203.042 176.699 208.407 162.805 208.407 150.301C208.407 132.589 197.648 124.451 184.378 132.116C171.107 139.781 160.349 160.363 160.349 178.076C160.349 181.627 160.793 184.779 161.591 187.501C166.231 188.878 171.285 189.677 175.171 190.002Z" fill="white"/>
<path d="M175.171 190.002C179.516 190.357 183.89 189.987 188.102 188.966C197.56 181.375 204.771 166.268 204.771 153.039C204.771 138.301 195.816 131.524 184.777 137.901C173.738 144.279 164.783 161.414 164.783 176.152C164.783 181.657 166.039 186.036 168.167 189.055C170.679 189.499 173.102 189.825 175.171 190.002Z" fill="#FDDB6F"/>
<path d="M173.354 189.81C173.974 189.884 174.595 189.943 175.171 190.002C177.255 190.18 179.353 190.18 181.437 190.017C182.457 189.647 183.506 189.174 184.585 188.522C194.397 182.648 202.525 167.185 202.717 153.956C202.909 140.743 195.106 134.779 185.279 140.639C175.467 146.513 167.339 161.976 167.147 175.205C167.058 182.648 169.467 187.783 173.354 189.81Z" fill="#FFE499"/>
<path d="M169.127 174.465C168.787 186.377 175.615 191.645 184.378 186.229C193.156 180.813 200.545 166.756 200.885 154.844C201.239 142.933 194.397 137.665 185.634 143.08C176.871 148.511 169.482 162.553 169.127 174.465Z" fill="#FDDB6F"/>
<path d="M171.802 173.341C171.477 183.417 177.225 187.857 184.629 183.24C192.033 178.623 198.313 166.726 198.638 156.635C198.963 146.558 193.215 142.119 185.811 146.735C178.408 151.352 172.127 163.264 171.802 173.341Z" fill="#FFE499"/>
<path d="M168.906 189.173C166.615 186.214 165.374 181.716 165.418 176.226C165.551 161.769 174.403 144.841 185.161 138.493C187.836 136.91 190.452 136.111 192.831 136.111C194.515 136.111 196.097 136.511 197.501 137.324C201.624 139.707 203.958 145.389 203.885 152.891C203.766 166.489 195.919 182.278 186.033 189.381C186.831 189.233 187.614 189.07 188.397 188.877C197.693 181.065 204.83 166.001 204.949 152.906C205.022 145.004 202.495 138.996 198.033 136.407C194.309 134.247 189.535 134.676 184.614 137.576C173.575 144.087 164.472 161.429 164.354 176.226C164.31 181.435 165.418 185.8 167.443 188.922C167.93 189.011 168.418 189.099 168.906 189.173Z" fill="#EF8E35"/>
<path d="M204.579 169.908C205.17 171.136 205.495 172.423 205.495 173.74C205.495 178.017 202.259 181.879 197.057 184.675C191.9 187.442 184.792 189.144 176.945 189.144C169.231 189.144 162.241 187.487 157.098 184.794C151.734 181.997 148.394 178.076 148.394 173.725C148.394 170.544 150.197 167.599 153.256 165.143C153.418 164.448 153.507 163.427 153.832 162.198C149.044 165.291 146 169.316 146 173.74C146 183.432 159.935 191.29 177.137 191.29C194.338 191.29 208.273 183.432 208.273 173.74C208.273 171.239 207.328 168.887 205.658 166.726C205.229 168.028 204.505 169.73 204.579 169.908Z" fill="#FFEDED"/>
<path d="M151.66 181.449H149.99L177.018 71.1814L206.973 177.558L205.318 177.602L177.122 77.485L151.66 181.449Z" fill="#F8FDFF"/>
<path d="M206.973 177.558C206.973 177.809 206.604 178.031 206.145 178.031C205.687 178.031 205.318 177.824 205.318 177.558C205.318 177.291 205.687 177.084 206.145 177.084C206.604 177.099 206.973 177.306 206.973 177.558Z" fill="white"/>
<path d="M151.66 181.449C151.66 181.701 151.29 181.923 150.832 181.923C150.374 181.923 149.99 181.701 149.99 181.449C149.99 181.198 150.359 180.976 150.817 180.976C151.276 180.976 151.66 181.183 151.66 181.449Z" fill="white"/>
<path d="M177.211 126.996L177.876 74.348L176.265 74.3332L175.57 127.988C176.117 127.603 176.664 127.366 177.211 126.996Z" fill="#F8FDFF"/>
<path d="M265.242 119.583L176.235 68L170.93 69.5389L264.99 124.051L265.242 119.583Z" fill="#FFE499"/>
<path d="M170.93 69.5389V75.2062L249.71 134.883V115.203L170.93 69.5389Z" fill="#EF8E35"/>
<path d="M289.669 286.465C289.669 295.195 277.108 302.283 261.591 302.283C246.09 302.283 233.514 295.195 233.514 286.465C233.514 277.734 246.075 270.646 261.591 270.646C277.093 270.646 289.669 277.734 289.669 286.465Z" fill="#EF8E35"/>
<path d="M258.267 137.413L274.404 146.735V110.335L258.267 101.012V137.413Z" fill="#FFA94D"/>
<path d="M266.897 96.9579H256.286V287.574H266.897V96.9579Z" fill="#49A9B4"/>
<path d="M266.897 287.574C266.897 289.232 264.517 290.563 261.591 290.563C258.665 290.563 256.286 289.232 256.286 287.574C256.286 285.917 258.665 284.585 261.591 284.585C264.517 284.585 266.897 285.917 266.897 287.574Z" fill="#49A9B4"/>
<path d="M266.897 96.958C266.897 98.6153 264.517 99.947 261.591 99.947C258.665 99.947 256.286 98.6153 256.286 96.958C256.286 95.3007 258.665 93.969 261.591 93.969C264.517 93.969 266.897 95.3155 266.897 96.958Z" fill="#49A9B4"/>
<path d="M261.591 98.3489C264.521 98.3489 266.897 97.0107 266.897 95.3599C266.897 93.7091 264.521 92.3708 261.591 92.3708C258.661 92.3708 256.286 93.7091 256.286 95.3599C256.286 97.0107 258.661 98.3489 261.591 98.3489Z" fill="#FFA94D"/>
<path d="M266.69 96.1589C269.897 92.3709 270.414 76.9227 270.414 76.9227H252.769C252.769 76.9227 253.02 91.7494 256.493 96.1589C256.493 96.1737 266.69 96.1737 266.69 96.1589Z" fill="#FFA94D"/>
<path d="M270.429 76.5232C270.429 79.2754 266.483 81.495 261.606 81.495C256.73 81.495 252.784 79.2606 252.784 76.5232C252.784 73.7709 256.73 71.5513 261.606 71.5513C266.468 71.5513 270.429 73.7709 270.429 76.5232Z" fill="#FFE499"/>
<path d="M248.218 143.199L264.355 152.521V116.12L248.218 106.798V143.199Z" fill="#FFA94D"/>
<path d="M274.404 110.335L258.267 101.012L248.218 106.798L264.355 116.12L274.404 110.335Z" fill="#FFE499"/>
<path d="M274.404 110.335L264.355 116.12V152.521L274.404 146.735V110.335Z" fill="#EF8E35"/>
<path d="M272.113 117.644L267.03 120.574V149.31L272.113 146.38V117.644Z" fill="#49A9B4"/>
<path d="M266.897 108.559C266.897 110.216 264.517 111.548 261.591 111.548C258.665 111.548 256.286 110.216 256.286 108.559C256.286 106.902 258.665 105.57 261.591 105.57C264.517 105.585 266.897 106.916 266.897 108.559Z" fill="#49A9B4"/>
<path d="M266.897 100.539H256.286V108.574H266.897V100.539Z" fill="#49A9B4"/>
<path d="M271.951 121.832L266.897 124.747L363.839 181.124L368.893 178.194L271.951 121.832Z" fill="#FFE499"/>
<path d="M266.897 124.747V144.915L363.839 186.688V181.124L266.897 124.747Z" fill="#FFA94D"/>
<path d="M368.893 178.194L363.839 181.124V186.688L368.893 183.876V178.194Z" fill="#EF8E35"/>
<path d="M187.944 150.024L187.794 154.24C189.089 153.504 190.301 153.294 191.269 153.763C193.972 155.074 193.757 161.135 190.79 167.274C188.224 172.584 184.427 176.234 181.699 176.278L179.326 181.191C183.262 181.658 189.056 176.286 192.913 168.304C197.166 159.505 197.475 150.814 193.602 148.936C192.045 148.185 190.05 148.643 187.944 150.024Z" fill="#FF9D4D"/>
<path d="M181.138 162.846C182.187 160.676 183.43 158.788 184.709 157.302L184.932 153.182C182.865 155.404 180.831 158.396 179.147 161.881C175.342 169.757 174.608 177.481 177.213 180.166L179.556 175.317C178.028 173.227 178.605 168.087 181.138 162.846Z" fill="#FF9D4D"/>
<path d="M182.868 163.703C180.878 167.821 180.652 171.847 182.366 172.678C184.078 173.509 187.091 170.834 189.08 166.716C191.07 162.599 191.296 158.572 189.583 157.742C187.871 156.912 184.857 159.586 182.868 163.703ZM188.208 166.293C186.66 167.125 184.992 168.607 183.379 170.581C183.925 168.09 184.05 165.86 183.741 164.127C185.289 163.295 186.958 161.813 188.57 159.839C188.023 162.33 187.898 164.56 188.208 166.293Z" fill="#FF9D4D"/>
</g>
<mask id="mask0" mask-type="alpha" maskUnits="userSpaceOnUse" x="0" y="195" width="266" height="266">
<g opacity="0.1" clip-path="url(#clip2)">
<path d="M117.203 325.729H121.828C122.884 320.527 127.486 316.609 133 316.609C135.322 316.609 137.484 317.304 139.285 318.497L142.557 315.225C139.893 313.23 136.583 312.048 133 312.048C124.959 312.048 118.313 317.996 117.203 325.729Z" fill="white"/>
<path d="M114.266 343.518L117.511 340.273C114.84 336.902 113.24 332.646 113.24 328.009C113.24 317.867 120.882 309.514 130.72 308.381V303.794C118.359 304.946 108.68 315.343 108.68 328.006C108.68 333.904 110.778 339.311 114.266 343.518Z" fill="white"/>
<path d="M152.627 330.29C151.495 340.129 143.142 347.771 133 347.771C128.364 347.771 124.108 346.171 120.737 343.499L117.492 346.745C121.703 350.233 127.106 352.331 133 352.331C145.662 352.331 156.058 342.652 157.21 330.29H152.627Z" fill="white"/>
<path d="M135.28 303.798V308.385C144.37 309.43 151.578 316.639 152.627 325.733H157.21C156.13 314.119 146.893 304.877 135.28 303.798Z" fill="white"/>
<path d="M130.72 360.604V356.033C116.257 354.87 104.88 342.773 104.88 328.009C104.88 321.066 107.403 314.712 111.576 309.806L108.342 306.576C103.349 312.314 100.32 319.805 100.32 328.009C100.32 345.293 113.738 359.434 130.72 360.604Z" fill="white"/>
<path d="M157.658 306.576L154.424 309.806C158.597 314.712 161.12 321.066 161.12 328.009C161.12 334.953 158.597 341.307 154.428 346.213L157.662 349.447C162.651 343.705 165.68 336.214 165.68 328.009C165.68 319.805 162.651 312.314 157.658 306.576Z" fill="white"/>
<path d="M114.798 306.584C119.704 302.411 126.057 299.888 133 299.888C139.946 299.888 146.296 302.411 151.202 306.58L154.432 303.35C148.694 298.356 141.204 295.327 133 295.327C124.796 295.327 117.306 298.356 111.568 303.35L114.798 306.584Z" fill="white"/>
<path d="M151.202 349.439C146.84 353.148 141.33 355.546 135.28 356.033V360.604C142.587 360.099 149.234 357.196 154.432 352.669L151.202 349.439Z" fill="white"/>
<path d="M133 369.052C154.899 369.052 172.794 351.898 173.975 330.29H169.408C168.23 349.375 152.38 364.492 133 364.492C113.62 364.492 97.7702 349.375 96.5922 330.29H92.0246C93.2064 351.898 111.101 369.052 133 369.052Z" fill="white"/>
<path d="M92.0246 325.729H96.5922C97.7246 307.397 112.389 292.732 130.72 291.599V287.031C109.869 288.171 93.1646 304.877 92.0246 325.729Z" fill="white"/>
<path d="M135.28 287.031V291.599C153.611 292.732 168.275 307.397 169.408 325.729H173.975C172.835 304.877 156.131 288.171 135.28 287.031Z" fill="white"/>
<path d="M133 278.606C105.716 278.606 83.6 300.724 83.6 328.009C83.6 354.532 104.496 376.166 130.72 377.36V372.796C107.016 371.61 88.16 352.012 88.16 328.009C88.16 303.243 108.235 283.166 133 283.166C157.765 283.166 177.84 303.243 177.84 328.009C177.84 352.012 158.984 371.61 135.28 372.796V377.36C161.504 376.166 182.4 354.532 182.4 328.009C182.4 300.724 160.284 278.606 133 278.606Z" fill="white"/>
<path d="M172.197 370.432L168.971 367.205C159.501 375.904 146.87 381.213 133 381.213C119.13 381.213 106.503 375.904 97.0292 367.205L93.803 370.432C104.101 379.955 117.872 385.773 133 385.773C148.132 385.773 161.899 379.955 172.197 370.432Z" fill="white"/>
<path d="M90.5806 367.209L93.8068 363.983C85.1086 354.513 79.8 341.881 79.8 328.01C79.8 314.139 85.1086 301.507 93.8068 292.036L90.5806 288.81C81.0616 299.109 75.24 312.881 75.24 328.01C75.24 343.142 81.0616 356.911 90.5806 367.209Z" fill="white"/>
<path d="M133 270.245C117.872 270.245 104.101 276.067 93.803 285.587L97.0292 288.813C106.503 280.118 119.13 274.806 133 274.806C162.382 274.806 186.2 298.626 186.2 328.009C186.2 341.88 180.891 354.512 172.193 363.983L175.419 367.209C184.942 356.91 190.76 343.142 190.76 328.009C190.76 296.106 164.901 270.245 133 270.245Z" fill="white"/>
<path d="M66.9218 325.729H71.4856C72.6864 292.785 99.7652 266.445 133 266.445C149.18 266.445 163.898 272.689 174.884 282.897L178.11 279.67C166.296 268.638 150.438 261.885 133 261.885C97.2458 261.885 68.1264 290.265 66.9218 325.729Z" fill="white"/>
<path d="M181.336 282.897L178.11 286.123C187.834 296.593 193.96 310.449 194.514 325.729H199.078C198.516 309.191 191.885 294.195 181.336 282.897Z" fill="white"/>
<path d="M133 394.134C168.754 394.134 197.874 365.754 199.078 330.29H194.514C193.314 363.234 166.235 389.574 133 389.574C99.7652 389.574 72.6864 363.234 71.4856 330.29H66.9218C68.1264 365.754 97.2458 394.134 133 394.134Z" fill="white"/>
<path d="M130.72 402.457V397.893C113.134 397.33 97.1888 390.269 85.1998 379.036L81.9736 382.262C94.791 394.321 111.872 401.891 130.72 402.457Z" fill="white"/>
<path d="M135.28 253.562V258.126C172.839 259.331 202.92 290.155 202.92 328.01C202.92 365.864 172.839 396.688 135.28 397.893V402.457C175.359 401.252 207.48 368.384 207.48 328.01C207.48 287.635 175.359 254.767 135.28 253.562Z" fill="white"/>
<path d="M58.52 328.01C58.52 347.76 66.2074 365.708 78.7512 379.04L81.9774 375.813C70.2582 363.31 63.08 346.498 63.08 328.01C63.08 290.155 93.1608 259.331 130.72 258.126V253.562C90.6414 254.767 58.52 287.635 58.52 328.01Z" fill="white"/>
<path d="M133 410.855C155.055 410.855 175.096 402.232 189.939 388.179L186.713 384.953C172.695 398.181 153.797 406.295 133 406.295C89.7674 406.295 54.72 371.245 54.72 328.009C54.72 307.21 62.833 288.312 76.0608 274.292L72.8346 271.066C58.7822 285.91 50.16 305.953 50.16 328.009C50.16 373.765 87.248 410.855 133 410.855Z" fill="white"/>
<path d="M133 245.164C110.945 245.164 90.9036 253.786 76.0608 267.84L79.287 271.066C93.3052 257.837 112.203 249.724 133 249.724C176.233 249.724 211.28 284.774 211.28 328.009C211.28 348.808 203.167 367.707 189.939 381.726L193.165 384.953C207.218 370.109 215.84 350.066 215.84 328.009C215.84 282.254 178.752 245.164 133 245.164Z" fill="white"/>
<path d="M224.173 330.29H219.613C218.401 377.09 180.09 414.656 133 414.656C85.9142 414.656 47.5988 377.09 46.3904 330.29H41.8304C43.0388 379.61 83.3948 419.216 133 419.216C182.605 419.216 222.961 379.61 224.173 330.29Z" fill="white"/>
<path d="M199.078 265.149L195.852 268.376C210.106 283.398 219.036 303.524 219.61 325.729H224.17C223.596 302.266 214.16 281 199.078 265.149Z" fill="white"/>
<path d="M41.8304 325.729H46.3904C47.5988 278.929 85.9142 241.363 133 241.363C156.104 241.363 177.095 250.408 192.63 265.153L195.856 261.927C179.497 246.357 157.366 236.803 133 236.803C83.3948 236.803 43.0388 276.413 41.8304 325.729Z" fill="white"/>
<path d="M61.0091 396.783L64.2315 393.56C47.9789 376.509 38.0001 353.426 38.0001 328.009C38.0001 276.303 79.3061 234.242 130.72 233.033V228.473C76.7867 229.685 33.4401 273.783 33.4401 328.009C33.4401 354.684 43.9319 378.907 61.0091 396.783Z" fill="white"/>
<path d="M201.769 400.009L198.542 396.787C181.496 413.037 158.414 423.016 133 423.016C107.586 423.016 84.5044 413.037 67.4576 396.783L64.2314 400.006C82.1066 417.088 106.328 427.577 133 427.577C159.672 427.577 183.893 417.088 201.769 400.009Z" fill="white"/>
<path d="M135.28 228.473V233.033C186.694 234.242 228 276.303 228 328.009C228 353.426 218.021 376.509 201.769 393.557L204.995 396.779C222.072 378.907 232.56 354.684 232.56 328.009C232.56 273.783 189.213 229.685 135.28 228.473Z" fill="white"/>
<path d="M58.3224 250.1L61.5448 253.326C80.1078 235.556 105.279 224.642 133 224.642C190.084 224.642 236.36 270.922 236.36 328.009C236.36 384.337 191.311 430.134 135.28 431.346V435.907C193.83 434.691 240.92 386.853 240.92 328.009C240.92 268.402 192.603 220.082 133 220.082C104.021 220.082 77.71 231.509 58.3224 250.1Z" fill="white"/>
<path d="M130.72 435.907V431.346C74.689 430.134 29.64 384.337 29.64 328.009C29.64 300.286 40.5536 275.113 58.3224 256.549L55.0962 253.327C36.5066 272.716 25.08 299.025 25.08 328.009C25.08 386.853 72.1696 434.694 130.72 435.907Z" fill="white"/>
<path d="M213.59 250.636C232.378 270.204 244.108 296.596 244.69 325.729H249.25C248.664 295.339 236.428 267.806 216.813 247.413L213.59 250.636Z" fill="white"/>
<path d="M16.7504 325.729H21.3104C22.5226 265.077 72.0632 216.282 133 216.282C163.031 216.282 190.293 228.135 210.368 247.413L213.594 244.191C192.69 224.084 164.289 211.721 133 211.721C69.5438 211.721 17.9664 262.557 16.7504 325.729Z" fill="white"/>
<path d="M244.693 330.29C243.477 390.942 193.941 439.737 133 439.737C72.0632 439.737 22.5226 390.942 21.3104 330.29H16.7504C17.9664 393.462 69.5438 444.298 133 444.298C196.456 444.298 248.037 393.462 249.253 330.29H244.693Z" fill="white"/>
<path d="M135.28 203.391V207.951C200.545 209.167 253.08 262.451 253.08 328.01C253.08 360.35 240.293 389.703 219.503 411.292L222.729 414.519C244.028 392.432 257.271 362.489 257.636 329.381C258.389 260.847 203.688 204.634 135.28 203.391Z" fill="white"/>
<path d="M43.2745 414.519L46.4969 411.296C25.7071 389.703 12.9201 360.35 12.9201 328.01C12.9201 262.447 65.4551 209.167 130.72 207.951V203.387C63.5551 204.58 9.11247 259.023 8.36767 326.638C7.99147 360.73 21.3447 391.77 43.2745 414.519Z" fill="white"/>
<path d="M216.277 414.519C194.689 435.31 165.338 448.098 133 448.098C100.662 448.098 71.3108 435.31 49.723 414.519L46.4968 417.745C68.5824 439.046 98.5226 452.29 131.624 452.655C165.714 453.031 196.753 439.677 219.499 417.745L216.277 414.519Z" fill="white"/>
<path d="M43.8102 235.591C67.2562 212.96 99.2598 199.18 134.414 199.568C168.549 199.944 199.424 213.61 222.19 235.587L225.416 232.36C201.841 209.57 169.845 195.399 134.467 195.008C98.0324 194.609 64.8622 208.894 40.584 232.36L43.8102 235.591Z" fill="white"/>
<path d="M228.642 235.587L225.412 238.817C248.041 262.261 261.82 294.271 261.432 329.427C260.665 399.124 204.523 455.243 135.28 456.436V461C207.02 459.807 265.198 401.678 265.992 329.476C266.395 293.039 252.107 259.867 228.642 235.587Z" fill="white"/>
<path d="M130.72 456.432C60.192 455.186 3.78862 397.243 4.56762 326.596C4.94382 292.458 18.6086 261.581 40.584 238.813L37.3578 235.587C14.5692 259.164 0.399018 291.166 0.00761833 326.543C-0.797982 399.728 57.6498 459.754 130.72 460.996V456.432Z" fill="white"/>
<path d="M145.783 318.452L142.511 321.724C143.705 323.525 144.4 325.688 144.4 328.01C144.4 334.307 139.297 339.41 133 339.41C127.486 339.41 122.884 335.492 121.828 330.29H117.203C118.309 338.023 124.959 343.971 133 343.971C141.816 343.971 148.96 336.826 148.96 328.01C148.96 324.426 147.778 321.116 145.783 318.452Z" fill="white"/>
<path d="M140.421 328.059C140.421 332.167 137.093 335.496 132.985 335.496C128.877 335.496 125.548 332.167 125.548 328.059C125.548 323.951 128.877 320.622 132.985 320.622C137.093 320.622 140.421 323.951 140.421 328.059Z" fill="white"/>
<path d="M133 320.409C128.805 320.409 125.4 323.814 125.4 328.01C125.4 332.209 128.805 335.61 133 335.61C137.199 335.61 140.6 332.209 140.6 328.01C140.6 323.814 137.199 320.409 133 320.409ZM132.985 333.957C131.681 331.43 129.614 329.366 127.091 328.063C129.618 326.759 131.681 324.692 132.985 322.169C134.288 324.696 136.355 326.759 138.879 328.063C136.355 329.362 134.288 331.43 132.985 333.957Z" fill="white"/>
</g>
</mask>
<g mask="url(#mask0)">
<rect x="53" y="248" width="161" height="161" rx="50" fill="#49A9B4"/>
</g>
<rect x="66.5" y="234.5" width="158" height="158" rx="48.5" stroke="#49A9B4" stroke-width="3"/>
<defs>
<clipPath id="clip0">
<rect width="194" height="194" fill="white" transform="translate(272)"/>
</clipPath>
<clipPath id="clip1">
<rect width="248" height="260" fill="white" transform="translate(146 68)"/>
</clipPath>
<clipPath id="clip2">
<rect width="266" height="266" fill="white" transform="translate(0 195)"/>
</clipPath>
</defs>
</svg>
