<svg width="800" height="495" viewBox="0 0 800 495" fill="none" xmlns="http://www.w3.org/2000/svg"><g clip-path="url(#clip0)"><g opacity=".1" fill="#FF2639"><path d="M552 87.286c-32.752 0-63.198 9.83-88.599 26.662L417.252 67.8C454.832 39.659 501.459 23 552 23c113.348 0 207.08 83.815 222.695 192.857h-65.199C694.62 142.524 629.769 87.286 552 87.286zm-180.2 25.967l46.105 46.148c-16.833 25.401-26.663 55.848-26.663 88.599 0 88.774 71.941 160.715 160.715 160.715 77.769 0 142.62-55.239 157.495-128.572h65.243C759.08 389.185 665.348 473 552 473c-124.265 0-225-100.734-225-225 0-50.541 16.659-97.168 44.8-134.747z"/><path d="M552.001 140.872c59.197 0 107.128 47.975 107.128 107.171 0 59.197-47.975 107.129-107.128 107.129-59.197 0-107.172-47.975-107.172-107.129 0-59.196 47.975-107.171 107.172-107.171zm.217 190.986a193.664 193.664 0 0183.119-83.119 193.654 193.654 0 01-83.119-83.119 193.643 193.643 0 01-83.119 83.119c35.623 18.355 64.721 47.497 83.119 83.119z"/></g><mask id="a" maskUnits="userSpaceOnUse" x="-199" y="2" width="996" height="490"><path fill="url(#paint0_linear)" d="M-199 2h996v490h-996z"/></mask><g opacity=".6" stroke="#D3E1E2" mask="url(#a)"><path d="M248.391 493.58c-32.019 0-57.976-25.91-57.976-57.87 0-31.961 25.957-57.87 57.976-57.87s57.976 25.909 57.976 57.87c0 31.96-25.957 57.87-57.976 57.87zm-152.472 0c-52.189 0-94.496-42.23-94.496-94.323 0-52.093 42.307-94.322 94.496-94.322 52.189 0 94.496 42.229 94.496 94.322s-42.307 94.323-94.496 94.323zm455.692-.002c-136.082 0-246.399-110.114-246.399-245.947S415.529 1.684 551.611 1.684 798.01 111.798 798.01 247.63 687.693 493.578 551.611 493.578z" stroke-width="1.5" stroke-miterlimit="10"/><path d="M154.483 304.934C70.589 304.934 2.58 237.05 2.58 153.31S70.59 1.685 154.483 1.685c83.894 0 151.903 67.885 151.903 151.625s-68.009 151.624-151.903 151.624z" stroke-width="1.5" stroke-miterlimit="10"/><path d="M306.159 1.665h492.418v491.516H306.159V1.665zM1.992 1.667h304.167v303.608H1.992V1.667z" stroke-width="1.5" stroke-miterlimit="10" stroke-linecap="round" stroke-linejoin="round"/><path d="M2.01 305.256h188.253v187.907H2.011V305.256zm188.291 72.262h115.876v115.664H190.301V377.518zm43.577-72.243h72.299v72.243h-72.299v-72.243z" stroke-width="1.5" stroke-miterlimit="10" stroke-linecap="round" stroke-linejoin="round"/><path d="M190.263 305.275h43.615v43.535h-43.615v-43.535zm0 43.536h28.836v28.707h-28.836v-28.707zm28.836 13.956h14.779v14.751h-14.779v-14.751z" stroke-width="1.5" stroke-miterlimit="10" stroke-linecap="round" stroke-linejoin="round"/><path d="M218.018 376.003c9.334 0 16.903-7.536 16.903-16.872m-44.279-10.396c0 15.092 12.237 27.287 27.338 27.287m16.865-71.485c-24.454 0-44.241 19.75-44.241 44.16m115.896 27.23c0-39.501-32.024-71.447-71.579-71.447m-44.146 187.187c64.028 0 115.839-51.715 115.839-115.626M3.15 304.764c0 103.412 83.833 187.093 187.436 187.093M306.139 1.723C138.509 1.723 2.845 137.12 2.845 304.461m794.556 186.638c0-270.754-219.498-489.868-490.768-489.868" stroke-width="1.3" stroke-miterlimit="1" stroke-linecap="square"/></g></g><defs><linearGradient id="paint0_linear" x1="-199" y1="248.195" x2="785.414" y2="297.48" gradientUnits="userSpaceOnUse"><stop stop-color="#DADADA" stop-opacity="0"/><stop offset="1" stop-color="#DADADA"/></linearGradient><clipPath id="clip0"><path fill="#fff" transform="matrix(-1 0 0 1 800 0)" d="M0 0h800v495H0z"/></clipPath></defs></svg>