<svg width="184" height="166" viewBox="0 0 184 166" fill="none" xmlns="http://www.w3.org/2000/svg"><g opacity=".05" clip-path="url(#clip0)"><path d="M54.636 48.72h4.018a9.904 9.904 0 019.705-7.907c2.017 0 3.895.603 5.46 1.638l2.842-2.837a13.823 13.823 0 00-8.302-2.754c-6.985 0-12.759 5.156-13.723 11.86z" fill="#49A9B4"/><path d="M52.085 64.14l2.819-2.813a17.03 17.03 0 01-3.71-10.63c0-8.793 6.638-16.034 15.184-17.016v-3.976c-10.738.998-19.146 10.011-19.146 20.988 0 5.113 1.822 9.8 4.853 13.448zM85.41 52.673c-.984 8.529-8.24 15.154-17.051 15.154a17.109 17.109 0 01-10.653-3.703l-2.819 2.814A21.07 21.07 0 0068.36 71.78c11 0 20.031-8.39 21.031-19.107h-3.98zM70.34 29.708v3.976c7.896.906 14.158 7.156 15.07 15.039h3.98c-.937-10.068-8.962-18.08-19.05-19.015z" fill="#49A9B4"/><path d="M66.378 78.952v-3.963C53.814 73.98 43.931 63.495 43.931 50.696a24.246 24.246 0 015.816-15.78l-2.809-2.8c-4.338 4.975-6.969 11.468-6.969 18.58 0 14.983 11.657 27.241 26.41 28.256zM89.78 32.116l-2.81 2.8a24.247 24.247 0 015.817 15.78 24.262 24.262 0 01-5.813 15.78l2.81 2.804c4.334-4.978 6.965-11.471 6.965-18.584 0-7.112-2.631-13.605-6.969-18.58zm-37.233.007a24.355 24.355 0 0115.812-5.805c6.034 0 11.55 2.188 15.812 5.802l2.806-2.8a28.296 28.296 0 00-18.618-6.955A28.295 28.295 0 0049.74 29.32l2.806 2.803zm31.624 37.15A24.35 24.35 0 0170.34 74.99v3.963a28.283 28.283 0 0016.637-6.879l-2.806-2.8z" fill="#49A9B4"/><path d="M68.359 86.275c19.024 0 34.569-14.87 35.596-33.602h-3.968c-1.023 16.544-14.792 29.65-31.628 29.65s-30.604-13.106-31.628-29.65h-3.968C33.79 71.405 49.335 86.275 68.36 86.275zM32.763 48.72h3.968c.984-15.892 13.723-28.605 29.647-29.587v-3.96c-18.113.989-32.624 15.47-33.615 33.547zM70.34 15.174v3.96c15.924.981 28.663 13.694 29.647 29.586h3.968c-.991-18.076-15.502-32.558-33.615-33.547z" fill="#49A9B4"/><path d="M68.359 7.87c-23.702 0-42.914 19.173-42.914 42.826 0 22.992 18.152 41.746 40.933 42.78V89.52c-20.592-1.028-36.972-18.017-36.972-38.824 0-21.469 17.44-38.873 38.953-38.873s38.953 17.404 38.953 38.873c0 20.807-16.38 37.796-36.972 38.824v3.957c22.78-1.035 40.933-19.79 40.933-42.78 0-23.654-19.212-42.827-42.914-42.827z" fill="#49A9B4"/><path d="M102.41 87.471l-2.803-2.797A46.092 46.092 0 0168.36 96.817c-12.049 0-23.019-4.602-31.248-12.143l-2.803 2.797c8.946 8.256 20.91 13.299 34.051 13.299 13.145 0 25.105-5.043 34.051-13.299zm-70.901-2.793l2.802-2.797c-7.556-8.21-12.168-19.16-12.168-31.184 0-12.025 4.612-22.975 12.168-31.185l-2.802-2.797c-8.27 8.928-13.327 20.867-13.327 33.981 0 13.119 5.057 25.054 13.327 33.982zM68.359.622c-13.142 0-25.105 5.047-34.05 13.3l2.802 2.796C45.34 9.181 56.31 4.575 68.359 4.575c25.524 0 46.215 20.65 46.215 46.121 0 12.025-4.611 22.975-12.167 31.185l2.802 2.796c8.273-8.927 13.327-20.863 13.327-33.98C118.536 23.04 96.072.621 68.359.621z" fill="#49A9B4"/><path d="M10.956 48.72h3.965C15.964 20.16 39.487-2.672 68.359-2.672c14.056 0 26.841 5.413 36.385 14.261l2.802-2.797C97.283-.77 83.508-6.625 68.359-6.625c-31.06 0-56.356 24.602-57.403 55.345zm99.393-37.13l-2.803 2.796c8.448 9.076 13.769 21.087 14.251 34.334h3.965c-.489-14.337-6.249-27.337-15.413-37.13zm-41.99 96.428c31.06 0 56.356-24.602 57.403-55.345h-3.965c-1.043 28.559-24.567 51.392-53.438 51.392-28.871 0-52.395-22.833-53.438-51.392h-3.965c1.046 30.743 26.343 55.345 57.403 55.345z" fill="#49A9B4"/><path d="M66.378 115.233v-3.957c-15.277-.487-29.129-6.608-39.544-16.346l-2.802 2.797c11.134 10.453 25.973 17.015 42.346 17.506zM70.34-13.84v3.957c32.628 1.044 58.759 27.764 58.759 60.58 0 32.814-26.131 59.535-58.76 60.579v3.957c34.817-1.045 62.722-29.538 62.722-64.537 0-34.999-27.905-63.492-62.721-64.536zM3.657 50.696c0 17.121 6.678 32.68 17.575 44.237l2.803-2.797C13.855 81.298 7.619 66.723 7.619 50.696c0-32.815 26.131-59.535 58.76-60.58v-3.956C31.56-12.796 3.656 15.697 3.656 50.696z" fill="#49A9B4"/><path d="M68.359 122.513c19.16 0 36.569-7.475 49.464-19.657l-2.803-2.797c-12.178 11.467-28.594 18.501-46.661 18.501C30.802 118.56.356 88.176.356 50.696c0-18.03 7.048-34.413 18.54-46.565l-2.803-2.797C3.885 14.2-3.605 31.576-3.605 50.696c0 39.664 32.218 71.817 71.964 71.817zm0-143.633c-19.16 0-36.57 7.474-49.464 19.657l2.803 2.797c12.178-11.468 28.594-18.501 46.661-18.501 37.557 0 68.003 30.384 68.003 67.863 0 18.03-7.048 34.413-18.539 46.566l2.802 2.797c12.208-12.868 19.698-30.242 19.698-49.363 0-39.664-32.219-71.816-71.964-71.816z" fill="#49A9B4"/><path d="M147.562 52.673h-3.961c-1.053 40.57-34.335 73.134-75.242 73.134-40.904 0-74.189-32.564-75.239-73.134h-3.961c1.05 42.754 36.107 77.088 79.2 77.088s78.15-34.334 79.203-77.088zm-21.8-56.468L122.959-1c12.383 13.023 20.14 30.47 20.639 49.719h3.961c-.498-20.34-8.695-38.775-21.797-52.515zM-10.841 48.72h3.961c1.05-40.57 34.335-73.135 75.24-73.135 20.07 0 38.306 7.84 51.801 20.623l2.803-2.797C108.752-20.086 89.527-28.368 68.36-28.368c-43.093 0-78.15 34.337-79.2 77.088z" fill="#49A9B4"/><path d="M5.82 110.314l2.799-2.793C-5.5 92.739-14.169 72.729-14.169 50.696c0-44.823 35.883-81.284 80.547-82.332v-3.953C19.526-34.54-18.13 3.689-18.13 50.696c0 23.123 9.114 44.122 23.95 59.618zm122.279 2.797l-2.803-2.794c-14.808 14.087-34.86 22.738-56.937 22.738-22.078 0-42.129-8.651-56.937-22.741l-2.803 2.794c15.528 14.808 36.57 23.9 59.74 23.9s44.212-9.092 59.74-23.897zM70.34-35.59v3.954c44.664 1.048 80.547 37.51 80.547 82.332 0 22.033-8.669 42.043-22.788 56.821l2.803 2.794c14.835-15.493 23.946-36.492 23.946-59.615 0-47.007-37.656-85.234-84.508-86.285z" fill="#49A9B4"/><path d="M3.486-16.841l2.799 2.797C22.41-29.45 44.277-38.91 68.359-38.91c49.589 0 89.79 40.119 89.79 89.606 0 48.83-39.135 88.529-87.81 89.58v3.953c50.864-1.054 91.771-42.523 91.771-93.533 0-51.672-41.973-93.56-93.751-93.56-25.174 0-48.031 9.907-64.873 26.023zm62.892 161.07v-3.953c-48.674-1.051-87.809-40.75-87.809-89.58 0-24.032 9.48-45.854 24.917-61.947L.683-14.044C-15.466 2.764-25.392 25.57-25.392 50.696c0 51.01 40.907 92.483 91.77 93.533z" fill="#49A9B4"/><path d="M138.369-16.377C154.689.586 164.88 23.465 165.385 48.72h3.961c-.508-26.345-11.138-50.213-28.178-67.89l-2.799 2.793zM-32.628 48.72h3.96c1.054-52.578 44.09-94.877 97.027-94.877 26.089 0 49.771 10.275 67.21 26.987l2.803-2.794C120.213-39.394 95.54-50.11 68.359-50.11c-55.125 0-99.931 44.069-100.987 98.83zm198.016 3.953c-1.056 52.578-44.089 94.877-97.029 94.877-52.936 0-95.973-42.299-97.026-94.877h-3.961c1.056 54.762 45.862 98.83 100.987 98.83 55.125 0 99.934-44.068 100.991-98.83h-3.962z" fill="#49A9B4"/><path d="M70.34-57.332v3.953c56.696 1.054 102.334 47.245 102.334 104.075 0 28.035-11.108 53.481-29.169 72.196l2.803 2.797c18.503-19.147 30.007-45.103 30.324-73.803.653-59.41-46.866-108.14-106.292-109.218zM-9.587 125.689l2.8-2.794c-18.06-18.718-29.169-44.164-29.169-72.199 0-56.834 45.638-103.02 102.335-104.075v-3.956C8.03-56.301-39.263-9.105-39.912 49.507c-.326 29.554 11.274 56.462 30.324 76.182zm150.29 0c-18.754 18.023-44.252 29.109-72.344 29.109-28.092 0-53.59-11.086-72.344-29.109l-2.802 2.797c19.186 18.465 45.195 29.945 73.951 30.262 29.614.326 56.578-11.25 76.338-30.262l-2.799-2.797z" fill="#49A9B4"/><path d="M151.444-29.422l-2.806 2.8c19.659 20.323 31.628 48.071 31.292 78.547-.667 60.419-49.438 109.066-109.59 110.101v3.956c62.32-1.034 112.86-51.425 113.55-114.014.35-31.586-12.062-60.343-32.447-81.39zM66.378 162.022C5.11 160.942-43.888 110.713-43.212 49.471c.327-29.593 12.198-56.36 31.288-76.096l-2.803-2.797c-19.796 20.438-32.106 48.18-32.446 78.847-.7 63.442 50.074 115.477 113.551 116.554v-3.957zM79.464 42.411l-2.842 2.837a9.823 9.823 0 011.64 5.449c0 5.458-4.433 9.883-9.903 9.883a9.904 9.904 0 01-9.705-7.907h-4.018c.96 6.704 6.738 11.86 13.723 11.86 7.659 0 13.865-6.194 13.865-13.837a13.76 13.76 0 00-2.76-8.285z" fill="#49A9B4"/><path d="M74.806 50.74c0 3.56-2.892 6.446-6.46 6.446-3.569 0-6.46-2.886-6.46-6.447 0-3.56 2.891-6.447 6.46-6.447 3.568 0 6.46 2.886 6.46 6.447z" fill="#fff"/><path d="M68.36 44.108c-3.645 0-6.603 2.951-6.603 6.588 0 3.64 2.958 6.589 6.602 6.589 3.648 0 6.602-2.948 6.602-6.589 0-3.637-2.954-6.588-6.602-6.588zm-.014 11.744a11.912 11.912 0 00-5.12-5.11 11.912 11.912 0 005.12-5.11 11.913 11.913 0 005.12 5.11 11.895 11.895 0 00-5.12 5.11z" fill="#49A9B4"/></g><defs><clipPath id="clip0"><path fill="#fff" transform="translate(-47.18 -64.606)" d="M0 0h231.077v230.588H0z"/></clipPath></defs></svg>