<svg width="671" height="671" viewBox="0 0 671 671" fill="none" xmlns="http://www.w3.org/2000/svg">
<g opacity="0.05" clip-path="url(#clip0)">
<path d="M295.652 329.772H307.318C309.983 316.648 321.591 306.765 335.5 306.765C341.357 306.765 346.811 308.519 351.355 311.529L359.608 303.275C352.888 298.242 344.539 295.261 335.5 295.261C315.217 295.261 298.451 310.264 295.652 329.772Z" fill="white"/>
<path d="M288.242 374.646L296.429 366.459C289.69 357.956 285.654 347.219 285.654 335.524C285.654 309.938 304.931 288.867 329.749 286.01V274.439C298.566 277.344 274.151 303.573 274.151 335.514C274.151 350.392 279.443 364.034 288.242 374.646Z" fill="white"/>
<path d="M385.01 341.276C382.154 366.095 361.084 385.373 335.5 385.373C323.805 385.373 313.069 381.337 304.567 374.598L296.381 382.785C307.002 391.585 320.632 396.877 335.5 396.877C367.44 396.877 393.666 372.46 396.57 341.276H385.01Z" fill="white"/>
<path d="M341.251 274.449V286.02C364.18 288.656 382.365 306.841 385.01 329.782H396.571C393.848 300.486 370.545 277.172 341.251 274.449Z" fill="white"/>
<path d="M329.749 417.746V406.214C293.265 403.281 264.566 372.767 264.566 335.524C264.566 318.009 270.931 301.981 281.456 289.605L273.298 281.457C260.703 295.932 253.063 314.827 253.063 335.524C253.063 379.123 286.91 414.794 329.749 417.746Z" fill="white"/>
<path d="M397.702 281.457L389.544 289.605C400.069 301.981 406.434 318.01 406.434 335.524C406.434 353.038 400.069 369.067 389.554 381.443L397.711 389.601C410.297 375.116 417.937 356.221 417.937 335.524C417.937 314.827 410.297 295.932 397.702 281.457Z" fill="white"/>
<path d="M289.584 281.476C301.96 270.95 317.987 264.585 335.5 264.585C353.023 264.585 369.04 270.95 381.415 281.466L389.563 273.318C375.089 260.721 356.195 253.081 335.5 253.081C314.804 253.081 295.911 260.721 281.437 273.318L289.584 281.476Z" fill="white"/>
<path d="M381.416 389.582C370.411 398.938 356.512 404.987 341.251 406.214V417.747C359.685 416.472 376.45 409.148 389.563 397.73L381.416 389.582Z" fill="white"/>
<path d="M335.5 439.057C390.742 439.057 435.882 395.784 438.863 341.276H427.341C424.369 389.419 384.387 427.554 335.5 427.554C286.613 427.554 246.631 389.419 243.659 341.276H232.137C235.118 395.784 280.257 439.057 335.5 439.057Z" fill="white"/>
<path d="M232.137 329.772H243.659C246.516 283.527 283.507 246.533 329.748 243.677V232.154C277.152 235.03 235.013 277.171 232.137 329.772Z" fill="white"/>
<path d="M341.251 232.154V243.677C387.493 246.533 424.484 283.527 427.341 329.772H438.863C435.987 277.171 393.848 235.03 341.251 232.154Z" fill="white"/>
<path d="M335.5 210.901C266.675 210.901 210.886 266.694 210.886 335.524C210.886 402.427 263.598 457.003 329.749 460.013V448.5C269.953 445.509 222.389 396.072 222.389 335.524C222.389 273.049 273.03 222.404 335.5 222.404C397.97 222.404 448.611 273.049 448.611 335.524C448.611 396.072 401.047 445.509 341.251 448.5V460.013C407.403 457.003 460.114 402.427 460.114 335.524C460.114 266.694 404.326 210.901 335.5 210.901Z" fill="white"/>
<path d="M434.376 442.537L426.238 434.398C402.351 456.341 370.488 469.734 335.5 469.734C300.512 469.734 268.659 456.341 244.762 434.398L236.623 442.537C262.601 466.56 297.339 481.237 335.5 481.237C373.67 481.237 408.399 466.56 434.376 442.537Z" fill="white"/>
<path d="M228.495 434.408L236.633 426.269C214.691 402.38 201.3 370.514 201.3 335.524C201.3 300.534 214.691 268.669 236.633 244.779L228.495 236.64C204.482 262.62 189.797 297.361 189.797 335.524C189.797 373.697 204.482 408.429 228.495 434.408Z" fill="white"/>
<path d="M335.5 189.811C297.339 189.811 262.601 204.497 236.623 228.511L244.762 236.65C268.659 214.716 300.512 201.314 335.5 201.314C409.617 201.314 469.7 261.402 469.7 335.524C469.7 370.514 456.309 402.38 434.367 426.269L442.505 434.408C466.527 408.429 481.203 373.697 481.203 335.524C481.203 255.046 415.972 189.811 335.5 189.811Z" fill="white"/>
<path d="M168.814 329.772H180.326C183.355 246.668 251.663 180.224 335.5 180.224C376.316 180.224 413.441 195.975 441.154 221.724L449.292 213.585C419.49 185.756 379.489 168.721 335.5 168.721C245.308 168.721 171.853 240.312 168.814 329.772Z" fill="white"/>
<path d="M457.43 221.724L449.292 229.863C473.822 256.273 489.274 291.225 490.673 329.772H502.186C500.767 288.052 484.04 250.224 457.43 221.724Z" fill="white"/>
<path d="M335.5 502.327C425.692 502.327 499.147 430.736 502.186 341.276H490.673C487.644 424.38 419.337 490.824 335.5 490.824C251.663 490.824 183.355 424.38 180.326 341.276H168.814C171.853 430.736 245.308 502.327 335.5 502.327Z" fill="white"/>
<path d="M329.749 523.322V511.808C285.386 510.389 245.164 492.578 214.921 464.241L206.783 472.379C239.116 502.797 282.203 521.893 329.749 523.322Z" fill="white"/>
<path d="M341.251 147.727V159.24C435.997 162.279 511.877 240.034 511.877 335.524C511.877 431.014 435.997 508.77 341.251 511.808V523.322C442.352 520.283 523.38 437.37 523.38 335.524C523.38 233.678 442.352 150.765 341.251 147.727Z" fill="white"/>
<path d="M147.62 335.524C147.62 385.345 167.012 430.621 198.654 464.25L206.792 456.111C177.23 424.572 159.123 382.162 159.123 335.524C159.123 240.034 235.003 162.279 329.748 159.24V147.727C228.648 150.765 147.62 233.678 147.62 335.524Z" fill="white"/>
<path d="M335.5 544.507C391.136 544.507 441.691 522.756 479.132 487.305L470.994 479.166C435.632 512.537 387.963 533.004 335.5 533.004C226.443 533.004 138.034 444.588 138.034 335.524C138.034 283.057 158.5 235.384 191.868 200.02L183.729 191.881C148.281 229.326 126.531 279.884 126.531 335.524C126.531 450.944 220.088 544.507 335.5 544.507Z" fill="white"/>
<path d="M335.5 126.541C279.865 126.541 229.309 148.292 191.868 183.743L200.006 191.881C235.368 158.511 283.037 138.044 335.5 138.044C444.557 138.044 532.966 226.46 532.966 335.524C532.966 387.99 512.5 435.663 479.132 471.028L487.271 479.167C522.719 441.722 544.469 391.163 544.469 335.524C544.469 220.104 450.912 126.541 335.5 126.541Z" fill="white"/>
<path d="M565.49 341.276H553.987C550.929 459.332 454.286 554.094 335.5 554.094C216.723 554.094 120.071 459.332 117.022 341.276H105.52C108.568 465.688 210.368 565.598 335.5 565.598C460.632 565.598 562.432 465.688 565.49 341.276Z" fill="white"/>
<path d="M502.186 176.955L494.048 185.094C530.004 222.989 552.53 273.759 553.978 329.772H565.48C564.033 270.586 540.232 216.94 502.186 176.955Z" fill="white"/>
<path d="M105.52 329.772H117.022C120.071 211.716 216.723 116.954 335.5 116.954C393.781 116.954 446.733 139.77 485.919 176.965L494.057 168.826C452.791 129.551 396.964 105.45 335.5 105.45C210.368 105.45 108.568 205.369 105.52 329.772Z" fill="white"/>
<path d="M153.899 509.009L162.027 500.88C121.029 457.866 95.8571 399.638 95.8571 335.524C95.8571 205.091 200.054 98.9892 329.749 95.9407V84.437C193.698 87.4951 84.3542 198.736 84.3542 335.524C84.3542 402.811 110.82 463.915 153.899 509.009Z" fill="white"/>
<path d="M508.973 517.148L500.834 509.018C457.833 550.01 399.609 575.184 335.5 575.184C271.391 575.184 213.167 550.01 170.166 509.009L162.027 517.138C207.119 560.229 268.218 586.687 335.5 586.687C402.782 586.687 463.882 560.229 508.973 517.148Z" fill="white"/>
<path d="M341.251 84.437V95.9407C470.946 98.9892 575.143 205.091 575.143 335.524C575.143 399.638 549.971 457.866 508.973 500.87L517.111 508.999C560.189 463.915 586.646 402.811 586.646 335.524C586.646 198.736 477.302 87.4951 341.251 84.437Z" fill="white"/>
<path d="M147.122 138.993L155.25 147.132C202.076 102.306 265.572 74.7739 335.5 74.7739C479.497 74.7739 596.231 191.517 596.231 335.524C596.231 477.614 482.593 593.139 341.251 596.197V607.701C488.948 604.633 607.734 483.96 607.734 335.524C607.734 185.161 485.852 63.2702 335.5 63.2702C262.399 63.2702 196.028 92.0965 147.122 138.993Z" fill="white"/>
<path d="M329.749 607.701V596.197C188.407 593.139 74.7685 477.614 74.7685 335.524C74.7685 265.591 102.299 202.091 147.121 155.261L138.983 147.132C92.0899 196.042 63.2656 262.409 63.2656 335.524C63.2656 483.96 182.052 604.643 329.749 607.701Z" fill="white"/>
<path d="M538.794 140.345C586.186 189.705 615.777 256.283 617.243 329.772H628.746C627.27 253.11 596.404 183.656 546.923 132.216L538.794 140.345Z" fill="white"/>
<path d="M42.2539 329.772H53.7568C56.8146 176.773 181.784 53.6839 335.5 53.6839C411.256 53.6839 480.024 83.5838 530.665 132.216L538.804 124.086C486.073 73.3647 414.429 42.1802 335.5 42.1802C175.428 42.1802 45.3213 170.417 42.2539 329.772Z" fill="white"/>
<path d="M617.253 341.276C614.186 494.275 489.226 617.364 335.5 617.364C181.784 617.364 56.8146 494.275 53.7568 341.276H42.2539C45.3213 500.631 175.428 628.868 335.5 628.868C495.572 628.868 625.688 500.631 628.756 341.276H617.253Z" fill="white"/>
<path d="M341.251 21.1668V32.6705C505.886 35.7381 638.409 170.149 638.409 335.524C638.409 417.104 606.153 491.15 553.709 545.61L561.848 553.749C615.575 498.033 648.982 422.501 649.902 338.985C651.8 166.104 513.814 24.3016 341.251 21.1668Z" fill="white"/>
<path d="M109.162 553.749L117.291 545.619C64.8473 491.15 32.5914 417.104 32.5914 335.524C32.5914 170.139 165.114 35.7381 329.749 32.6704V21.1572C160.321 24.1673 22.9865 161.502 21.1077 332.063C20.1587 418.063 53.8429 496.365 109.162 553.749Z" fill="white"/>
<path d="M545.571 553.749C491.114 606.196 417.074 638.454 335.5 638.454C253.926 638.454 179.885 606.196 125.429 553.749L117.291 561.888C173.003 615.619 248.529 649.028 332.03 649.948C418.023 650.897 496.319 617.211 553.7 561.888L545.571 553.749Z" fill="white"/>
<path d="M110.514 102.392C169.658 45.3053 250.389 10.545 339.066 11.5228C425.174 12.4719 503.058 46.9446 560.486 102.383L568.625 94.2439C509.155 36.7542 428.443 1.00654 339.2 0.0191455C247.292 -0.987426 163.619 35.0478 102.375 94.2439L110.514 102.392Z" fill="white"/>
<path d="M576.763 102.383L568.615 110.531C625.698 169.67 660.456 250.416 659.478 339.1C657.542 514.914 515.922 656.477 341.251 659.487V671C522.22 667.99 668.977 521.356 670.981 339.224C671.997 247.31 635.955 163.63 576.763 102.383Z" fill="white"/>
<path d="M329.749 659.477C151.838 656.333 9.55708 510.169 11.5222 331.958C12.4711 245.843 46.9414 167.954 102.376 110.522L94.2373 102.383C36.7518 161.857 1.00662 242.584 0.0192925 331.824C-2.01288 516.438 145.425 667.856 329.749 670.99V659.477Z" fill="white"/>
<path d="M367.746 311.414L359.493 319.668C362.503 324.212 364.257 329.667 364.257 335.524C364.257 351.409 351.383 364.283 335.5 364.283C321.591 364.283 309.983 354.4 307.318 341.276H295.652C298.442 360.784 315.217 375.787 335.5 375.787C357.739 375.787 375.76 357.764 375.76 335.524C375.76 326.484 372.779 318.134 367.746 311.414Z" fill="white"/>
<path d="M354.221 335.649C354.221 346.012 345.824 354.409 335.462 354.409C325.099 354.409 316.702 346.012 316.702 335.649C316.702 325.286 325.099 316.888 335.462 316.888C345.824 316.888 354.221 325.286 354.221 335.649Z" fill="white"/>
<path d="M335.5 316.351C324.917 316.351 316.329 324.94 316.329 335.524C316.329 346.117 324.917 354.697 335.5 354.697C346.092 354.697 354.672 346.117 354.672 335.524C354.672 324.94 346.092 316.351 335.5 316.351ZM335.462 350.527C332.174 344.152 326.959 338.946 320.594 335.658C326.969 332.37 332.174 327.155 335.462 320.79C338.75 327.165 343.964 332.37 350.329 335.658C343.964 338.937 338.75 344.152 335.462 350.527Z" fill="white"/>
</g>
<defs>
<clipPath id="clip0">
<rect width="671" height="671" fill="white"/>
</clipPath>
</defs>
</svg>
