<svg xmlns="http://www.w3.org/2000/svg" xmlns:xlink="http://www.w3.org/1999/xlink"><defs><clipPath id="clip0"><rect width="101" height="101" rx="20" fill="#fff"/></clipPath><clipPath id="clip1"><path fill="#fff" transform="translate(26 -40)" d="M0 0h113v113H0z"/></clipPath><clipPath id="clip0"><rect width="102" height="102" rx="20" fill="#fff"/></clipPath><clipPath id="clip1"><path fill="#fff" transform="translate(-39 -40)" d="M0 0h113v113H0z"/></clipPath><clipPath id="clip0"><rect width="101" height="101" rx="20" fill="#fff"/></clipPath><clipPath id="clip1"><path fill="#fff" transform="translate(24 19)" d="M0 0h53v64H0z"/></clipPath><clipPath id="clip2"><path fill="#fff" transform="translate(-7 -5)" d="M0 0h92v92H0z"/></clipPath><clipPath id="clip0"><rect width="102" height="102" rx="20" fill="#fff"/></clipPath><clipPath id="clip1"><path fill="#fff" transform="translate(-11 -12)" d="M0 0h123v125H0z"/></clipPath><clipPath id="clip0"><rect width="122" height="122" rx="20" fill="#fff"/></clipPath><clipPath id="clip1"><path fill="#fff" transform="translate(-39 -40)" d="M0 0h113v113H0z"/></clipPath><clipPath id="clip0"><rect width="122" height="122" rx="20" fill="#fff"/></clipPath><clipPath id="clip0"><rect width="122" height="122" rx="20" fill="#fff"/></clipPath><clipPath id="clip1"><path fill="#fff" transform="translate(9 67)" d="M0 0h109v109H0z"/></clipPath></defs><symbol id="404" viewBox="0 0 670 317"><path d="M74.402 89.281H55.993v23.931h18.409v-23.93z" fill="#FF9E3C"/><path opacity=".1" d="M334.728 316.933c184.865 0 334.727-13.118 334.727-29.3 0-16.182-149.862-29.3-334.727-29.3C149.863 258.333 0 271.451 0 287.633c0 16.182 149.863 29.3 334.728 29.3z" fill="#000"/><path d="M605.792 277.508h-9.511V48.168c0-19.175-15.494-34.669-34.669-34.669H117.507c-19.175 0-34.67 15.494-34.67 34.67v225.504h-9.51V48.169c0-24.391 19.789-44.18 44.18-44.18h444.105c24.391 0 44.18 19.789 44.18 44.18v229.339z" fill="#FF9E3C"/><path d="M124.41 4.756h-5.522v191.908h5.522V4.756zm59.981 0h-5.523v191.908h5.523V4.756zm59.827 0h-5.522v191.908h5.522V4.756zm59.983 0h-5.523v191.908h5.523V4.756zm59.98 0h-5.522v191.908h5.522V4.756zm59.981 0h-5.522v191.908h5.522V4.756zm59.982 0h-5.523v191.908h5.523V4.756zm59.98 0h-5.522v191.908h5.522V4.756z" fill="#FFB748"/><path d="M128.246 4.756h-5.522v191.908h5.522V4.756zm59.981 0h-5.523v191.908h5.523V4.756zm59.981 0h-5.523v191.908h5.523V4.756zm59.98 0h-5.522v191.908h5.522V4.756zm59.983 0h-5.523v191.908h5.523V4.756zm59.979 0h-5.522v191.908h5.522V4.756zm59.981 0h-5.523v191.908h5.523V4.756zm59.828 0h-5.523v191.908h5.523V4.756z" fill="#FF9E3C"/><path d="M598.891 273.519h-9.511V44.18c0-19.175-15.494-34.669-34.67-34.669H110.759c-19.175 0-34.67 15.494-34.67 34.67v229.338h-9.51V44.18C66.579 19.79 86.368 0 110.759 0h444.105c24.391 0 44.18 19.79 44.18 44.18v229.34h-.153z" fill="#FFB748"/><path d="M594.133 192.062h-522.8v9.511h522.8v-9.511zm38.965 76.855h-76.856v9.511h76.856v-9.511z" fill="#FFB748"/><path d="M638.161 268.917h-28.84v9.511h28.84v-9.511z" fill="#FF9E3C"/><path d="M421.401 28.686h-181.63v111.985h181.63V28.687z" fill="#FFB748"/><path d="M407.594 37.277H253.577v94.957h154.017V37.277z" fill="#FFB748"/><path d="M278.58 66.254c.921-.306 1.995-.46 3.068-.767 1.228-.153 2.148-.306 3.222-.306 1.074 0 2.148.153 3.221.306 1.074.154 1.995.614 2.762 1.074.767.46 1.38 1.227 1.994 1.994.46.92.767 1.995.767 3.222v18.869h6.29c.306.46.613 1.227.92 1.994.307.92.46 1.687.46 2.761 0 1.841-.46 3.068-1.227 3.835-.767.767-1.841 1.074-3.068 1.074h-3.375v8.437c-.46.154-1.381.154-2.301.46-1.074.154-1.994.307-2.915.307-1.074 0-1.994 0-2.761-.153-.767-.153-1.534-.307-1.994-.614-.614-.307-.921-.92-1.228-1.534-.306-.613-.46-1.534-.46-2.761v-3.989H264.16c-1.073-.613-1.994-1.38-2.761-2.454-.767-1.074-1.227-2.454-1.227-4.142 0-.92.153-1.84.307-2.915.306-1.073.613-1.994 1.227-2.914l16.874-21.784zm3.682 11.199h-.153l-9.511 13.346h9.664V77.453zm67.498 9.971c0 3.682-.461 6.903-1.381 9.818-.921 2.915-2.301 5.216-3.989 7.21-1.687 1.994-3.681 3.375-5.982 4.449-2.301.92-4.909 1.534-7.671 1.534-2.761 0-5.369-.461-7.67-1.534-2.301-.921-4.295-2.455-5.983-4.449-1.687-1.994-2.914-4.295-3.988-7.21-.92-2.915-1.381-6.136-1.381-9.818 0-3.682.461-6.903 1.381-9.664.92-2.762 2.301-5.216 3.988-7.057 1.688-1.994 3.682-3.375 5.983-4.449 2.301-.92 4.909-1.534 7.67-1.534 2.762 0 5.37.46 7.671 1.534 2.301.92 4.295 2.455 5.982 4.449 1.688 1.994 3.068 4.295 3.989 7.057.92 2.76 1.381 5.982 1.381 9.664zm-12.119 0c0-4.142-.614-7.363-1.841-9.664-1.227-2.302-2.915-3.375-5.216-3.375s-3.988 1.073-5.062 3.375c-1.228 2.3-1.688 5.522-1.688 9.664 0 4.142.614 7.363 1.688 9.664 1.227 2.302 2.914 3.375 5.062 3.375 2.301 0 3.989-1.073 5.216-3.374 1.227-2.302 1.841-5.523 1.841-9.665zm42.493-21.17c.921-.306 1.994-.46 3.068-.767 1.228-.153 2.148-.306 3.222-.306 1.074 0 2.147.153 3.221.306 1.074.154 1.995.614 2.762 1.074.767.46 1.38 1.227 1.994 1.994.46.92.767 1.995.767 3.222v18.869h6.289c.307.46.614 1.227.921 1.994.307.92.46 1.687.46 2.761 0 1.841-.46 3.068-1.227 3.835-.767.767-1.841 1.074-3.068 1.074h-3.682v8.437c-.46.154-1.381.154-2.301.46-1.074.154-1.994.307-2.915.307-1.074 0-1.994 0-2.761-.153-.767-.153-1.534-.307-1.994-.614-.614-.307-.921-.92-1.227-1.534-.307-.613-.461-1.534-.461-2.761v-3.989h-17.795c-1.073-.613-1.994-1.38-2.761-2.454-.767-1.074-1.227-2.454-1.227-4.142 0-.92.153-1.84.307-2.915.307-1.073.613-1.994 1.227-2.914l17.181-21.784zm3.529 11.199h-.154l-9.511 13.346h9.665V77.453z" fill="#555"/><path fill="transparent" d="M593.214 100.786h27.459v24.698" stroke="#FFB748" stroke-width="5" stroke-miterlimit="10"/><path d="M160.921 171.352l-2.301-9.357h-13.347l-2.301 9.357-29.76 102.168h77.469l-29.76-102.168z" fill="#FFFBF3"/><path d="M160.921 171.352l-2.301-9.357h-6.75l-9.511 111.525h48.323l-29.761-102.168z" fill="#C9C9C9"/><path d="M205.715 273.52H98.179v12.272h107.536V273.52z" fill="#FF4252"/><path d="M205.562 273.52H151.87v12.272h53.692V273.52z" fill="#FF2639"/><path d="M160.921 171.352l-2.301-9.357h-13.346l-2.302 9.357-5.062 17.028h27.92l-4.909-17.028zm19.329 66.117h-56.606l-10.432 36.05h77.469l-10.431-36.05zm-9.665-33.135h-37.278l-5.062 17.181h47.249l-4.909-17.181z" fill="#FF4252"/><path d="M180.25 237.469h-34.823l-3.068 36.05h48.323l-10.432-36.05zm-33.442-15.954h28.687l-4.909-17.181h-22.244l-1.534 17.181zm19.022-33.135l-4.909-17.028-2.301-9.357h-6.75l-2.147 26.385h16.107z" fill="#FF2639"/><path opacity=".2" d="M125.178 255.418l17.181-74.248h4.449l-10.738 74.248h-10.892z" fill="#fff"/><path d="M341.016 287.326l9.512 1.687.153-.46 5.062-11.505.154-.307-7.517-5.983-81.304-68.571-1.688 3.681-28.226 63.663-1.534 3.528 105.388 14.267z" fill="#FFFBF3"/><path d="M341.016 287.326l9.512 1.687.153-.46 2.454-5.676-98.025-53.845-17.948 40.499-1.534 3.528 105.388 14.267z" fill="#C9C9C9"/><path d="M261.818 183.578l-43.573 98.31 11.219 4.972 43.574-98.309-11.22-4.973z" fill="#FF4252"/><path d="M239.967 232.822l-21.756 49.085 11.22 4.973 21.756-49.085-11.22-4.973z" fill="#FF2639"/><path d="M341.016 287.326l9.512 1.687.153-.46 5.062-11.505.154-.307-7.517-5.983-13.653-11.352-11.352 25.619 17.641 2.301zm-68.264-9.204l23.01-51.698-28.686-24.237-1.688 3.681-28.226 63.663-1.534 3.528 37.124 5.063zm34.363 4.602l15.033-34.056-13.806-11.505-19.175 43.106 17.948 2.455z" fill="#FF4252"/><path d="M272.752 278.121l14.113-31.754-31.755-17.335-17.948 40.499-1.534 3.528 37.124 5.062zm28.073-24.084l-11.658 26.232 17.948 2.455 8.897-20.25-15.187-8.437zm22.551 30.987l17.641 2.302 9.512 1.687.153-.46 2.454-5.676-23.164-12.733-6.596 14.88z" fill="#FF2639"/><path opacity=".2" d="M278.581 220.441l60.902 46.022-1.688 3.988-63.509-40.038 4.295-9.972z" fill="#fff"/><path d="M431.678 294.996c-3.989 0-7.824-2.148-9.818-5.676a11.52 11.52 0 010-11.352l80.69-139.751c1.995-3.528 5.83-5.676 9.818-5.676 3.989 0 7.824 2.148 9.818 5.676l80.384 139.291a11.064 11.064 0 011.841 6.136c0 6.29-5.063 11.352-11.352 11.352H431.678z" fill="#FF2639"/><path d="M512.368 134.382c3.375 0 6.597 1.841 8.438 4.755l80.383 139.291c.921 1.534 1.534 3.375 1.534 5.216a9.624 9.624 0 01-9.664 9.664H431.678c-3.375 0-6.597-1.84-8.437-4.755-1.688-2.915-1.688-6.596 0-9.664l80.69-139.752c1.841-2.914 5.062-4.755 8.437-4.755zm0-3.528c-4.602 0-9.051 2.454-11.352 6.596l-80.69 139.751c-2.301 3.989-2.301 9.051 0 13.039 2.301 3.989 6.75 6.597 11.352 6.597h161.227c7.21 0 13.193-5.83 13.193-13.04 0-2.454-.767-4.909-1.994-7.056L523.72 137.45c-2.301-3.989-6.596-6.596-11.352-6.596z" fill="#fff"/><path d="M578.18 273.059l-63.969-110.757c-.307-.614-1.074-1.074-1.841-1.074-.767 0-1.381.46-1.841 1.074L446.56 273.059a2.274 2.274 0 000 1.994c.307.614 1.073 1.074 1.841 1.074h127.785c.767 0 1.381-.46 1.841-1.074.46-.613.46-1.38.153-1.994z" fill="#fff"/><path d="M503.164 249.282c0-2.608.767-4.756 2.455-6.597 1.687-1.687 3.988-2.608 6.903-2.608 2.914 0 5.215.921 6.903 2.608 1.687 1.688 2.454 3.835 2.454 6.597 0 2.607-.767 4.755-2.454 6.596-1.688 1.687-3.989 2.608-6.903 2.608-2.915 0-5.216-.921-6.903-2.608-1.688-1.841-2.455-3.989-2.455-6.596zm17.795-48.936c0 1.534 0 3.681-.153 6.443 0 2.761-.154 5.829-.461 9.05-.153 3.222-.46 6.597-.767 9.818a84.885 84.885 0 01-1.227 8.438c-.307.153-.614.46-1.227.613-.46.154-1.074.307-1.688.46-.613.154-1.227.154-1.687.307-.614 0-1.074.154-1.534.154-1.841 0-3.375-.307-4.756-.921-1.227-.613-1.994-1.687-2.301-3.375-.307-1.534-.613-3.681-.767-6.75-.153-3.068-.46-6.289-.613-9.817l-.461-10.585c-.153-3.529-.153-6.443-.153-8.898 1.227-.767 2.761-1.227 4.449-1.687 1.687-.46 3.221-.614 4.909-.614 2.608 0 4.755.614 6.136 1.841 1.534 1.227 2.301 3.068 2.301 5.523z" fill="#FF2639"/><path opacity=".2" d="M604.105 276.587L523.721 137.45c-2.301-3.989-6.75-6.596-11.352-6.596v165.983h80.691c7.21 0 13.192-5.83 13.192-13.04-.153-2.607-.767-5.062-2.147-7.21z" fill="#000"/></symbol><symbol id="advantage-1" viewBox="0 0 101 101"><g clip-path="url(#clip0)"><rect width="101" height="101" rx="20" fill="#F8FDFF"/><g opacity=".2" clip-path="url(#clip1)"><path d="M75.79 15.536h1.964a4.846 4.846 0 017.416-3.073l1.39-1.39a6.782 6.782 0 00-10.77 4.462z" fill="#A8B7BB"/><path d="M74.541 23.092l1.38-1.379a8.356 8.356 0 01-1.815-5.21 8.396 8.396 0 017.425-8.338V6.217c-5.251.489-9.363 4.906-9.363 10.285 0 2.506.891 4.803 2.373 6.59zm16.297-5.619c-.481 4.18-4.03 7.426-8.338 7.426-1.97 0-3.777-.68-5.21-1.815l-1.378 1.379a10.29 10.29 0 006.588 2.373c5.379 0 9.796-4.112 10.285-9.363h-1.947zM83.469 6.218v1.949a8.397 8.397 0 017.369 7.37h1.947a10.331 10.331 0 00-9.316-9.319z" fill="#A8B7BB"/><path d="M81.531 30.35v-1.942c-6.144-.494-10.977-5.632-10.977-11.904 0-2.95 1.072-5.65 2.845-7.733l-1.374-1.373a13.822 13.822 0 00-3.408 9.106c0 7.342 5.7 13.35 12.914 13.846zM92.975 7.398l-1.374 1.373a11.897 11.897 0 012.845 7.733c0 2.95-1.072 5.648-2.843 7.733l1.374 1.373a13.836 13.836 0 003.406-9.106c0-3.486-1.287-6.668-3.408-9.106zm-18.207.004A11.895 11.895 0 0182.5 4.557c2.951 0 5.648 1.072 7.733 2.843l1.372-1.372A13.82 13.82 0 0082.5 2.62a13.82 13.82 0 00-9.105 3.408l1.373 1.374zm15.464 18.205a11.894 11.894 0 01-6.763 2.801v1.943a13.816 13.816 0 008.136-3.371l-1.373-1.373z" fill="#A8B7BB"/><path d="M82.5 33.94c9.303 0 16.905-7.288 17.407-16.467h-1.94c-.5 8.107-7.234 14.53-15.467 14.53s-14.966-6.423-15.466-14.53h-1.94c.501 9.18 8.103 16.467 17.406 16.467zM65.093 15.536h1.94c.482-7.788 6.711-14.018 14.498-14.5v-1.94c-8.857.485-15.954 7.581-16.438 16.44zM83.469-.904v1.94c7.787.482 14.016 6.712 14.497 14.5h1.94C99.423 6.677 92.327-.42 83.469-.904z" fill="#A8B7BB"/><path d="M82.5-4.483c-11.59 0-20.986 9.395-20.986 20.987 0 11.267 8.877 20.457 20.018 20.964V35.53c-10.07-.503-18.08-8.829-18.08-19.025 0-10.521 8.528-19.05 19.048-19.05 10.52 0 19.049 8.529 19.049 19.05 0 10.196-8.01 18.522-18.08 19.025v1.94c11.14-.508 20.017-9.698 20.017-20.965 0-11.592-9.395-20.987-20.986-20.987z" fill="#A8B7BB"/><path d="M99.151 34.525l-1.37-1.37a22.514 22.514 0 01-15.281 5.95 22.516 22.516 0 01-15.28-5.95l-1.371 1.37A24.444 24.444 0 0082.5 41.043a24.441 24.441 0 0016.651-6.518zM64.48 33.157l1.37-1.371a22.516 22.516 0 01-5.95-15.282 22.517 22.517 0 015.95-15.282l-1.37-1.37a24.455 24.455 0 00-6.517 16.652 24.452 24.452 0 006.517 16.653zM82.5-8.035a24.452 24.452 0 00-16.651 6.517l1.37 1.37A22.524 22.524 0 0182.5-6.097c12.482 0 22.6 10.12 22.6 22.602a22.516 22.516 0 01-5.95 15.282l1.37 1.37a24.442 24.442 0 006.517-16.652c0-13.553-10.985-24.54-24.537-24.54z" fill="#A8B7BB"/><path d="M54.43 15.536h1.938C56.878 1.54 68.382-9.65 82.5-9.65a26.053 26.053 0 0117.793 6.989l1.37-1.371A27.983 27.983 0 0082.5-11.586c-15.189 0-27.56 12.056-28.07 27.122zM82.5 44.595c15.189 0 27.559-12.057 28.071-27.122h-1.939c-.51 13.995-12.013 25.184-26.132 25.184-14.118 0-25.622-11.19-26.132-25.184h-1.939c.512 15.065 12.882 27.122 28.071 27.122z" fill="#A8B7BB"/><path d="M81.532 48.13v-1.939a29.594 29.594 0 01-19.338-8.01l-1.37 1.37c5.445 5.123 12.7 8.339 20.708 8.58zm1.937-63.252v1.939c15.955.512 28.734 13.606 28.734 29.687 0 16.081-12.779 29.175-28.734 29.687v1.94c17.025-.513 30.671-14.476 30.671-31.627 0-17.151-13.646-31.114-30.671-31.626zM50.86 16.504c0 8.39 3.266 16.015 8.595 21.678l1.37-1.37a29.598 29.598 0 01-8.028-20.308c0-16.081 12.779-29.175 28.735-29.687v-1.94C64.506-14.61 50.86-.646 50.86 16.505z" fill="#A8B7BB"/><path d="M82.5 51.698c9.37 0 17.883-3.663 24.188-9.633l-1.37-1.371c-5.955 5.62-13.983 9.066-22.818 9.066-18.366 0-33.254-14.89-33.254-33.256 0-8.836 3.446-16.864 9.066-22.82l-1.371-1.37c-5.97 6.305-9.632 14.82-9.632 24.19 0 19.437 15.755 35.194 35.191 35.194zm0-70.388c-9.37 0-17.883 3.663-24.188 9.633l1.37 1.37c5.955-5.619 13.983-9.066 22.818-9.066 18.366 0 33.254 14.89 33.254 33.257 0 8.836-3.446 16.864-9.066 22.82l1.371 1.37c5.97-6.306 9.632-14.82 9.632-24.19 0-19.437-15.755-35.194-35.191-35.194z" fill="#A8B7BB"/><path d="M121.232 17.473h-1.938c-.515 19.881-16.79 35.84-36.794 35.84-20.003 0-36.28-15.959-36.793-35.84H43.77C44.283 38.424 61.427 55.25 82.5 55.25c21.073 0 38.217-16.826 38.732-37.777zM43.77 15.535h1.937c.514-19.881 16.79-35.84 36.793-35.84 9.815 0 18.732 3.843 25.331 10.107l1.371-1.37c-6.95-6.615-16.351-10.674-26.702-10.674-21.073 0-38.217 16.827-38.73 37.777z" fill="#A8B7BB"/><path d="M51.917 45.72l1.37-1.37c-6.905-7.243-11.144-17.049-11.144-27.846 0-21.965 17.547-39.834 39.388-40.347v-1.937c-22.911.515-41.325 19.248-41.325 42.284 0 11.332 4.457 21.622 11.711 29.216zm59.797 1.37l-1.371-1.369c-7.241 6.904-17.047 11.143-27.843 11.143s-20.6-4.24-27.843-11.144l-1.37 1.369C60.88 54.346 71.168 58.8 82.5 58.8c11.33 0 21.62-4.456 29.214-11.71zM83.469-25.78v1.937c21.841.513 39.388 18.382 39.388 40.347 0 10.797-4.239 20.603-11.143 27.845l1.37 1.37c7.255-7.593 11.71-17.883 11.71-29.215 0-23.036-18.414-41.77-41.325-42.284z" fill="#A8B7BB"/><path d="M50.776-16.593l1.369 1.37C60.031-22.77 70.724-27.407 82.5-27.407c24.25 0 43.909 19.66 43.909 43.912 0 23.928-19.138 43.384-42.94 43.899v1.937c24.873-.517 44.877-20.839 44.877-45.836 0-25.322-20.526-45.85-45.846-45.85-12.31 0-23.488 4.855-31.724 12.753zM81.531 62.34v-1.937c-23.802-.515-42.94-19.97-42.94-43.899 0-11.777 4.637-22.47 12.185-30.357l-1.37-1.37C41.508-6.984 36.654 4.192 36.654 16.505c0 24.997 20.004 45.321 44.877 45.836z" fill="#A8B7BB"/><path d="M33.116 15.536h1.937C35.568-10.23 56.613-30.96 82.5-30.96c12.758 0 24.339 5.035 32.867 13.225l1.37-1.369c-8.88-8.542-20.945-13.794-34.237-13.794-26.957 0-48.868 21.596-49.384 48.432zm96.833 1.937c-.517 25.766-21.561 46.494-47.449 46.494-25.887 0-46.932-20.728-47.447-46.494h-1.937c.516 26.836 22.427 48.432 49.384 48.432s48.869-21.596 49.386-48.432h-1.937z" fill="#A8B7BB"/><path d="M83.469-36.435v1.937c27.725.516 50.042 23.152 50.042 51.002 0 13.738-5.432 26.208-14.263 35.38l1.37 1.37c9.048-9.383 14.674-22.103 14.829-36.167.32-29.114-22.918-52.995-51.978-53.522zM44.384 53.254l1.369-1.369c-8.832-9.173-14.264-21.642-14.264-35.381 0-27.852 22.317-50.486 50.043-51.002v-1.939c-28.533.507-51.66 23.635-51.977 52.358-.16 14.483 5.513 27.67 14.829 37.333zm73.493 0C108.706 62.087 96.237 67.52 82.5 67.52c-13.737 0-26.206-5.432-35.377-14.265l-1.37 1.371c9.382 9.049 22.1 14.675 36.163 14.83 14.481.16 27.667-5.513 37.33-14.83l-1.369-1.37z" fill="#A8B7BB"/><path d="M123.13-22.758l-1.372 1.372c9.613 9.96 15.466 23.557 15.302 38.492-.327 29.608-24.176 53.448-53.591 53.955V73c30.476-.507 55.19-25.2 55.528-55.873.171-15.479-5.899-29.57-15.867-39.885zM81.531 71.06c-29.96-.53-53.922-25.145-53.59-55.157.16-14.502 5.964-27.619 15.3-37.29l-1.37-1.371C32.188-12.743 26.168.852 26.002 15.88 25.66 46.97 50.489 72.47 81.53 72.997V71.06zm6.399-58.616l-1.39 1.39a4.843 4.843 0 11-8.787 3.639H75.79a6.781 6.781 0 1012.14-5.03z" fill="#A8B7BB"/><path d="M85.653 16.525a3.159 3.159 0 11-6.318.001 3.159 3.159 0 016.318 0z" fill="#fff"/><path d="M82.5 13.275a3.23 3.23 0 000 6.458 3.228 3.228 0 100-6.458zm-.006 5.756a5.831 5.831 0 00-2.504-2.504 5.832 5.832 0 002.504-2.504 5.832 5.832 0 002.503 2.504 5.823 5.823 0 00-2.503 2.504z" fill="#A8B7BB"/></g><rect fill="transparent" opacity=".5" x="68.557" y="77.664" width="46.672" height="46.672" rx="18.5" stroke="#83919B" stroke-width="3"/><circle cx="7.451" cy="96.033" r="16.557" fill="#fff"/><path d="M78.498 53.012l-12.683 7.353.045 17.05 22.21-12.839-9.572-11.564z" fill="#FFA94D"/><path d="M25.851 37.353L38.534 30l39.964 23.011-12.683 7.353-39.964-23.011z" fill="#FFE499"/><path d="M65.815 60.364L25.851 37.353 15 48.126l50.86 29.29-.045-17.051z" fill="#EF8E35"/></g></symbol><symbol id="advantage-2" viewBox="0 0 102 102"><g clip-path="url(#clip0)"><rect width="102" height="102" rx="20" fill="#F8FDFF"/><g opacity=".2" clip-path="url(#clip1)"><path d="M10.79 15.536h1.964a4.846 4.846 0 017.416-3.073l1.39-1.39a6.782 6.782 0 00-10.77 4.462z" fill="#49A9B4"/><path d="M9.541 23.092l1.38-1.379a8.356 8.356 0 01-1.815-5.21 8.396 8.396 0 017.425-8.338V6.217c-5.251.489-9.363 4.906-9.363 10.285 0 2.506.892 4.803 2.373 6.59zm16.297-5.619c-.481 4.18-4.03 7.426-8.338 7.426-1.97 0-3.777-.68-5.21-1.815l-1.378 1.379a10.29 10.29 0 006.588 2.373c5.379 0 9.796-4.112 10.285-9.363h-1.947zm-7.37-11.255v1.949a8.397 8.397 0 017.37 7.37h1.947a10.331 10.331 0 00-9.317-9.319z" fill="#49A9B4"/><path d="M16.532 30.35v-1.942c-6.145-.494-10.978-5.632-10.978-11.904 0-2.95 1.072-5.65 2.845-7.733L7.025 7.398a13.822 13.822 0 00-3.408 9.106c0 7.342 5.7 13.35 12.915 13.846zM27.975 7.398l-1.374 1.373a11.897 11.897 0 012.845 7.733c0 2.95-1.072 5.648-2.843 7.733l1.374 1.373a13.836 13.836 0 003.406-9.106c0-3.486-1.287-6.668-3.408-9.106zm-18.207.004A11.895 11.895 0 0117.5 4.557c2.951 0 5.648 1.072 7.733 2.843l1.372-1.372A13.82 13.82 0 0017.5 2.62a13.82 13.82 0 00-9.104 3.408l1.372 1.374zm15.464 18.205a11.894 11.894 0 01-6.764 2.801v1.943a13.816 13.816 0 008.137-3.371l-1.373-1.373z" fill="#49A9B4"/><path d="M17.5 33.94c9.303 0 16.905-7.288 17.407-16.467h-1.94c-.5 8.107-7.234 14.53-15.467 14.53S2.534 25.58 2.034 17.472H.094C.594 26.653 8.196 33.94 17.5 33.94zM.093 15.536h1.94c.482-7.788 6.711-14.018 14.498-14.5v-1.94C7.675-.419.579 6.677.094 15.536zM18.468-.904v1.94c7.788.482 14.017 6.712 14.498 14.5h1.94C34.424 6.677 27.327-.42 18.469-.904z" fill="#49A9B4"/><path d="M17.5-4.483c-11.59 0-20.986 9.395-20.986 20.987 0 11.267 8.877 20.457 20.018 20.964V35.53c-10.07-.503-18.08-8.829-18.08-19.025 0-10.521 8.528-19.05 19.048-19.05 10.52 0 19.049 8.529 19.049 19.05 0 10.196-8.01 18.522-18.08 19.025v1.94c11.14-.508 20.017-9.698 20.017-20.965 0-11.592-9.395-20.987-20.986-20.987z" fill="#49A9B4"/><path d="M34.151 34.525l-1.37-1.37a22.514 22.514 0 01-15.281 5.95 22.517 22.517 0 01-15.28-5.95l-1.371 1.37A24.444 24.444 0 0017.5 41.043a24.441 24.441 0 0016.651-6.518zM-.52 33.157l1.37-1.371A22.516 22.516 0 01-5.1 16.504 22.517 22.517 0 01.85 1.222L-.52-.148a24.455 24.455 0 00-6.517 16.652A24.453 24.453 0 00-.52 33.157zM17.5-8.035A24.452 24.452 0 00.849-1.518l1.37 1.37A22.524 22.524 0 0117.5-6.097c12.482 0 22.6 10.12 22.6 22.602a22.517 22.517 0 01-5.95 15.282l1.37 1.37a24.445 24.445 0 006.517-16.652c0-13.553-10.985-24.54-24.537-24.54z" fill="#49A9B4"/><path d="M-10.57 15.536h1.938C-8.122 1.54 3.381-9.65 17.5-9.65a26.052 26.052 0 0117.793 6.99l1.37-1.371A27.984 27.984 0 0017.5-11.586C2.311-11.586-10.06.47-10.57 15.536zM38.034-2.66l-1.37 1.37a26.05 26.05 0 016.968 16.825h1.939A27.987 27.987 0 0038.034-2.66zM17.5 44.595c15.189 0 27.56-12.057 28.07-27.122h-1.938C43.122 31.468 31.62 42.657 17.5 42.657c-14.119 0-25.622-11.19-26.132-25.184h-1.939c.512 15.065 12.882 27.122 28.071 27.122z" fill="#49A9B4"/><path d="M16.532 48.13v-1.939a29.594 29.594 0 01-19.338-8.01l-1.37 1.37c5.444 5.123 12.7 8.339 20.708 8.58zm1.936-63.252v1.939c15.956.512 28.735 13.606 28.735 29.687 0 16.081-12.779 29.175-28.735 29.687v1.94c17.026-.513 30.672-14.476 30.672-31.627 0-17.151-13.646-31.114-30.672-31.626zM-14.14 16.504c0 8.39 3.266 16.015 8.595 21.678l1.37-1.37a29.599 29.599 0 01-8.028-20.308c0-16.081 12.779-29.175 28.735-29.687v-1.94C-.494-14.61-14.14-.646-14.14 16.505z" fill="#49A9B4"/><path d="M17.5 51.698c9.37 0 17.883-3.663 24.188-9.633l-1.37-1.371c-5.955 5.62-13.983 9.066-22.818 9.066-18.366 0-33.254-14.89-33.254-33.256 0-8.836 3.446-16.864 9.066-22.82l-1.371-1.37c-5.97 6.305-9.632 14.82-9.632 24.19 0 19.437 15.755 35.194 35.191 35.194zm0-70.388c-9.37 0-17.883 3.663-24.188 9.633l1.37 1.37C.637-13.305 8.665-16.752 17.5-16.752c18.366 0 33.254 14.89 33.254 33.257 0 8.836-3.446 16.864-9.066 22.82l1.37 1.37c5.97-6.306 9.633-14.82 9.633-24.19 0-19.437-15.755-35.194-35.191-35.194z" fill="#49A9B4"/><path d="M56.231 17.473h-1.937c-.515 19.881-16.79 35.84-36.794 35.84-20.003 0-36.28-15.959-36.793-35.84h-1.937C-20.717 38.424-3.573 55.25 17.5 55.25c21.073 0 38.217-16.826 38.731-37.777zM45.57-10.2L44.2-8.83c6.055 6.383 9.849 14.933 10.093 24.366h1.937C55.986 5.568 51.978-3.466 45.57-10.2zm-66.8 25.735h1.937c.514-19.881 16.79-35.84 36.793-35.84 9.815 0 18.732 3.843 25.331 10.107l1.37-1.37c-6.949-6.615-16.35-10.674-26.701-10.674-21.073 0-38.217 16.827-38.73 37.777z" fill="#49A9B4"/><path d="M-13.082 45.72l1.368-1.37c-6.904-7.243-11.143-17.049-11.143-27.846 0-21.965 17.547-39.834 39.389-40.347v-1.937c-22.912.515-41.326 19.248-41.326 42.284 0 11.332 4.457 21.622 11.712 29.216zm59.796 1.37l-1.37-1.369C38.101 52.625 28.296 56.864 17.5 56.864c-10.796 0-20.601-4.24-27.843-11.144l-1.37 1.369C-4.12 54.346 6.168 58.8 17.5 58.8c11.33 0 21.62-4.456 29.214-11.71zM18.468-25.78v1.937c21.842.513 39.39 18.382 39.39 40.347 0 10.797-4.24 20.603-11.144 27.845l1.37 1.37c7.255-7.593 11.71-17.883 11.71-29.215 0-23.036-18.414-41.77-41.325-42.284z" fill="#49A9B4"/><path d="M-14.224-16.593l1.369 1.37C-4.969-22.77 5.724-27.407 17.5-27.407c24.25 0 43.909 19.66 43.909 43.912 0 23.928-19.138 43.384-42.94 43.899v1.937c24.873-.517 44.877-20.839 44.877-45.836 0-25.322-20.526-45.85-45.846-45.85-12.31 0-23.488 4.855-31.724 12.753zM16.531 62.34v-1.937c-23.802-.515-42.94-19.97-42.94-43.899 0-11.777 4.637-22.47 12.185-30.357l-1.37-1.37c-7.897 8.238-12.752 19.414-12.752 31.727 0 24.997 20.005 45.321 44.877 45.836z" fill="#49A9B4"/><path d="M51.736-16.365c7.98 8.312 12.964 19.524 13.211 31.9h1.937c-.248-12.91-5.446-24.607-13.78-33.27l-1.368 1.37zm-83.62 31.901h1.937C-29.432-10.23-8.387-30.96 17.5-30.96c12.758 0 24.339 5.035 32.867 13.225l1.37-1.369c-8.88-8.542-20.945-13.794-34.237-13.794-26.957 0-48.868 21.596-49.384 48.432zm96.833 1.937c-.517 25.766-21.56 46.494-47.449 46.494-25.887 0-46.932-20.728-47.447-46.494h-1.937c.516 26.836 22.427 48.432 49.384 48.432s48.87-21.596 49.386-48.432h-1.937z" fill="#49A9B4"/><path d="M18.468-36.435v1.937c27.726.516 50.043 23.152 50.043 51.002 0 13.738-5.432 26.208-14.263 35.38l1.37 1.37c9.048-9.383 14.674-22.103 14.829-36.167.32-29.114-22.918-52.995-51.979-53.522zm-39.084 89.689l1.369-1.369c-8.832-9.173-14.264-21.642-14.264-35.381 0-27.852 22.317-50.486 50.043-51.002v-1.939c-28.533.507-51.66 23.635-51.977 52.358-.16 14.483 5.513 27.67 14.829 37.333zm73.493 0C43.707 62.087 31.237 67.52 17.5 67.52c-13.738 0-26.206-5.432-35.377-14.265l-1.37 1.371c9.382 9.049 22.1 14.675 36.163 14.83 14.481.16 27.667-5.513 37.33-14.83l-1.369-1.37z" fill="#49A9B4"/><path d="M58.13-22.758l-1.372 1.372c9.613 9.96 15.466 23.557 15.301 38.492-.326 29.608-24.175 53.448-53.59 53.955V73c30.476-.507 55.19-25.2 55.528-55.873.17-15.479-5.899-29.57-15.867-39.885zM16.532 71.06C-13.43 70.53-37.39 45.914-37.06 15.902c.16-14.502 5.965-27.619 15.3-37.29l-1.37-1.371C-32.81-12.743-38.83.852-38.997 15.88c-.342 31.09 24.487 56.59 55.529 57.117V71.06zm6.398-58.616l-1.39 1.39a4.843 4.843 0 11-8.787 3.639H10.79a6.781 6.781 0 1012.14-5.03z" fill="#49A9B4"/><path d="M20.653 16.525a3.159 3.159 0 11-6.318.001 3.159 3.159 0 016.318 0z" fill="#fff"/><path d="M17.5 13.275a3.23 3.23 0 000 6.458 3.228 3.228 0 100-6.458zm-.006 5.756a5.831 5.831 0 00-2.504-2.504 5.832 5.832 0 002.504-2.504 5.832 5.832 0 002.503 2.504 5.823 5.823 0 00-2.503 2.504z" fill="#49A9B4"/></g><rect fill="transparent" opacity=".5" x="69.221" y="78.418" width="47.164" height="47.164" rx="18.5" stroke="#D3E1E2" stroke-width="3"/><circle cx="7.525" cy="96.984" r="16.721" fill="#fff"/><path opacity=".5" fill="#49A9B4" d="M26 46h12v35H26z"/><path opacity=".7" fill="#49A9B4" d="M45 31h12v50H45z"/><path fill="#49A9B4" d="M64 21h12v60H64z"/></g></symbol><symbol id="advantage-3" viewBox="0 0 101 101"><g clip-path="url(#clip0)"><rect width="101" height="101" rx="20" fill="#F8FDFF"/><circle opacity=".3" cx="20.5" cy="16.5" r="39.5" fill="#FF2639"/><circle fill="transparent" cx="14" cy="10" r="28.5" stroke="#fff" stroke-width="5"/><rect fill="transparent" opacity=".5" x="68.557" y="77.664" width="46.672" height="46.672" rx="18.5" stroke="#D3E1E2" stroke-width="3"/><path d="M72.087 26.352L50.502 19l-21.38 7.256C26.394 27.476 24 28.21 24 30.62v12.008c0 8.338 2.304 16.6 7.043 23.894C35.029 72.66 41.205 78.982 50.71 83c8.738-2.692 15.26-9.87 19.25-16.008 4.738-7.294 7.042-15.56 7.042-23.895V32.3c-.003-3.44-1.923-5.119-4.916-5.947z" fill="#FF2639"/><g clip-path="url(#clip1)"><path d="M72.087 26.352L50.502 19l-21.38 7.256C26.394 27.476 24 28.21 24 30.62v12.008c0 8.338 2.304 16.6 7.043 23.894C35.029 72.66 41.205 78.982 50.71 83c8.738-2.692 15.26-9.87 19.25-16.008 4.738-7.294 7.042-15.56 7.042-23.895V32.3c-.003-3.44-1.923-5.119-4.916-5.947z" fill="#FF2639"/></g><g opacity=".3" clip-path="url(#clip2)" fill="#fff"><path d="M33.537 40.215h1.6a3.945 3.945 0 016.037-2.502l1.132-1.131a5.522 5.522 0 00-8.769 3.633z"/><path d="M32.52 46.367l1.123-1.122a6.835 6.835 0 014.569-11.03v-1.587a8.412 8.412 0 00-5.691 13.74zm13.268-4.575A6.835 6.835 0 0139 47.838a6.802 6.802 0 01-4.241-1.477l-1.123 1.122A8.378 8.378 0 0039 49.415a8.41 8.41 0 008.373-7.623h-1.585zm-5.999-9.163v1.586a6.837 6.837 0 016 6h1.584a8.412 8.412 0 00-7.584-7.586z"/><path d="M38.212 52.276v-1.58c-5.003-.403-8.938-4.587-8.938-9.693 0-2.401.873-4.6 2.316-6.296l-1.118-1.117a11.253 11.253 0 00-2.775 7.413c0 5.978 4.641 10.868 10.515 11.273zm9.316-18.686l-1.118 1.117a9.686 9.686 0 012.316 6.296 9.692 9.692 0 01-2.315 6.296l1.119 1.118a11.265 11.265 0 002.773-7.414c0-2.838-1.048-5.428-2.775-7.413zm-14.823.003A9.685 9.685 0 0139 31.277c2.403 0 4.599.873 6.295 2.315l1.117-1.118A11.251 11.251 0 0039 29.7a11.252 11.252 0 00-7.413 2.774l1.118 1.119zm12.59 14.822a9.683 9.683 0 01-5.506 2.28v1.582a11.249 11.249 0 006.624-2.745l-1.118-1.117z"/><path d="M39 55.199c7.574 0 13.763-5.933 14.172-13.407h-1.58c-.407 6.6-5.89 11.83-12.592 11.83-6.703 0-12.185-5.23-12.592-11.83h-1.58c.409 7.474 6.598 13.407 14.172 13.407zM24.828 40.215h1.58c.392-6.34 5.463-11.413 11.803-11.805v-1.58c-7.211.395-12.989 6.173-13.383 13.385zM39.789 26.83v1.58c6.34.392 11.411 5.464 11.803 11.805h1.58C52.778 33.003 47 27.225 39.789 26.83z"/><path d="M39 23.916c-9.437 0-17.086 7.65-17.086 17.087 0 9.173 7.228 16.656 16.297 17.069v-1.579c-8.198-.41-14.72-7.188-14.72-15.49 0-8.565 6.944-15.51 15.509-15.51 8.565 0 15.509 6.945 15.509 15.51 0 8.302-6.522 15.08-14.72 15.49v1.579c9.07-.413 16.297-7.896 16.297-17.069 0-9.437-7.65-17.087-17.086-17.087z"/><path d="M52.557 55.675L51.44 54.56A18.33 18.33 0 0139 59.404a18.332 18.332 0 01-12.441-4.844l-1.116 1.115A19.902 19.902 0 0039 60.983c5.233 0 9.995-2.013 13.557-5.306zm-28.228-1.113l1.116-1.116A18.332 18.332 0 0120.6 41.004c0-4.798 1.836-9.167 4.845-12.442l-1.116-1.116a19.91 19.91 0 00-5.306 13.558c0 5.233 2.013 9.995 5.306 13.558zM39 21.024a19.907 19.907 0 00-13.557 5.307l1.116 1.116A18.338 18.338 0 0139 22.602c10.162 0 18.4 8.238 18.4 18.401 0 4.797-1.836 9.166-4.844 12.442l1.115 1.116a19.902 19.902 0 005.306-13.558c0-11.034-8.944-19.979-19.977-19.979z"/><path d="M16.146 40.215h1.578C18.14 28.82 27.505 19.71 39 19.71a21.21 21.21 0 0114.486 5.69l1.116-1.116A22.784 22.784 0 0039 18.133c-12.366 0-22.437 9.816-22.854 22.082zM55.718 25.4l-1.116 1.116a21.209 21.209 0 015.674 13.699h1.578A22.785 22.785 0 0055.718 25.4zM39 63.874c12.366 0 22.438-9.816 22.854-22.082h-1.578C59.86 53.186 50.495 62.296 39 62.296s-20.86-9.11-21.276-20.504h-1.578C16.563 54.058 26.634 63.874 39 63.874z"/><path d="M38.212 66.752v-1.578a24.094 24.094 0 01-15.744-6.522l-1.116 1.116a25.665 25.665 0 0016.86 6.984zm1.577-51.498v1.579c12.99.417 23.394 11.078 23.394 24.17 0 13.093-10.404 23.754-23.394 24.17v1.579C53.65 66.335 64.76 54.967 64.76 41.003c0-13.964-11.11-25.332-24.971-25.749zM13.24 41.003a25.67 25.67 0 006.997 17.65l1.116-1.116a24.098 24.098 0 01-6.536-16.534c0-13.092 10.404-23.753 23.394-24.17v-1.579C24.35 15.671 13.24 27.04 13.24 41.004z"/><path d="M39 69.657a28.55 28.55 0 0019.693-7.843l-1.115-1.116A26.979 26.979 0 0139 68.079c-14.953 0-27.074-12.122-27.074-27.076 0-7.193 2.806-13.73 7.38-18.579l-1.115-1.115a28.555 28.555 0 00-7.842 19.694c0 15.825 12.827 28.654 28.651 28.654zm0-57.307a28.551 28.551 0 00-19.693 7.842l1.116 1.116A26.979 26.979 0 0139 13.927c14.953 0 27.074 12.122 27.074 27.076 0 7.194-2.806 13.73-7.38 18.579l1.115 1.116a28.555 28.555 0 007.842-19.695C67.651 25.178 54.824 12.35 39 12.35z"/><path d="M70.534 41.792h-1.577c-.42 16.187-13.67 29.18-29.957 29.18-16.285 0-29.537-12.993-29.955-29.18H7.468C7.886 58.85 21.843 72.549 39 72.549S70.115 58.85 70.534 41.791zm-8.68-22.53l-1.116 1.116a29.865 29.865 0 018.217 19.837h1.577c-.198-8.115-3.462-15.47-8.678-20.953zM7.468 40.215h1.577c.418-16.187 13.67-29.18 29.955-29.18a29.863 29.863 0 0120.624 8.228l1.116-1.116A31.43 31.43 0 0039 9.458c-17.157 0-31.114 13.7-31.532 30.756z"/><path d="M14.1 64.79l1.115-1.115c-5.62-5.897-9.072-13.881-9.072-22.672 0-17.883 14.286-32.43 32.068-32.849V6.577c-18.653.42-33.645 15.671-33.645 34.426 0 9.226 3.628 17.604 9.535 23.787zm48.685 1.116l-1.116-1.115c-5.896 5.62-13.88 9.072-22.669 9.072-8.79 0-16.773-3.452-22.669-9.073l-1.116 1.114C21.398 71.812 29.775 75.44 39 75.44s17.602-3.628 23.785-9.534zM39.789 6.577v1.577c17.782.418 32.068 14.966 32.068 32.85 0 8.79-3.451 16.774-9.072 22.67l1.116 1.114c5.906-6.181 9.533-14.559 9.533-23.785 0-18.755-14.992-34.007-33.645-34.426z"/><path d="M13.172 14.057l1.114 1.116c6.42-6.146 15.126-9.92 24.714-9.92 19.743 0 35.749 16.006 35.749 35.75 0 19.482-15.581 35.322-34.96 35.74v1.578c20.25-.42 36.537-16.966 36.537-37.318C76.326 20.387 59.615 3.675 39 3.675c-10.023 0-19.123 3.952-25.828 10.382zm25.04 64.263v-1.576c-19.38-.42-34.96-16.26-34.96-35.741 0-9.588 3.774-18.295 9.92-24.716l-1.116-1.114c-6.43 6.706-10.382 15.805-10.382 25.83 0 20.352 16.287 36.899 36.538 37.318z"/><path d="M66.873 14.242C73.371 21.01 77.428 30.14 77.63 40.215h1.578c-.203-10.511-4.435-20.034-11.22-27.087l-1.114 1.114zm-68.08 25.973H.371C.79 19.237 17.924 2.36 39 2.36c10.386 0 19.815 4.1 26.758 10.768l1.116-1.115C59.645 5.06 49.822.783 39 .783 17.053.783-.786 18.366-1.207 40.215zm78.837 1.577C77.21 62.769 60.078 79.646 39 79.646 17.924 79.646.79 62.77.37 41.792h-1.577C-.786 63.641 17.053 81.223 39 81.223s39.787-17.582 40.208-39.431h-1.577z"/><path d="M39.789-2.098V-.52C62.36-.1 80.53 18.33 80.53 41.003c0 11.186-4.422 21.338-11.613 28.805l1.116 1.116c7.367-7.64 11.947-17.995 12.073-29.446.26-23.704-18.659-43.146-42.318-43.576zM7.967 70.924l1.115-1.115C1.892 62.341-2.531 52.19-2.531 41.003-2.531 18.328 15.639-.1 38.21-.52v-1.578C14.98-1.685-3.85 17.144-4.107 40.53-4.236 52.32.382 63.056 7.967 70.924zm59.835 0C60.336 78.114 50.184 82.538 39 82.538c-11.185 0-21.336-4.423-28.803-11.614L9.082 72.04c7.638 7.367 17.993 11.947 29.442 12.074 11.79.13 22.526-4.489 30.393-12.074l-1.115-1.116z"/><path d="M8.152 9.04C16.262 1.211 27.33-3.555 39.49-3.42c11.806.13 22.485 4.857 30.359 12.458l1.115-1.116C62.81.04 51.743-4.862 39.507-4.998 26.906-5.134 15.434-.193 7.037 7.923L8.152 9.04zm63.928-.002l-1.118 1.117c7.827 8.108 12.592 19.18 12.458 31.339-.265 24.105-19.683 43.515-43.631 43.927V87c24.812-.413 44.934-20.517 45.208-45.49.14-12.602-4.802-24.075-12.918-32.472zM38.211 85.42c-24.393-.43-43.9-20.47-43.631-44.906.13-11.807 4.856-22.486 12.457-30.36L5.92 9.038C-1.961 17.192-6.862 28.26-6.997 40.496c-.279 25.312 19.936 46.073 45.208 46.503V85.42zm5.21-47.722l-1.131 1.131a3.943 3.943 0 11-7.154 2.963h-1.6a5.521 5.521 0 109.885-4.094z"/><path d="M41.567 41.02a2.572 2.572 0 11-5.144.001 2.572 2.572 0 015.144 0z"/><path d="M39 38.374a2.63 2.63 0 10.002 5.26 2.63 2.63 0 00-.002-5.26zm-.005 4.686a4.748 4.748 0 00-2.039-2.038 4.749 4.749 0 002.039-2.039 4.749 4.749 0 002.038 2.039 4.74 4.74 0 00-2.038 2.038z"/></g></g></symbol><symbol id="advantage-4" viewBox="0 0 102 102"><g clip-path="url(#clip0)"><rect width="102" height="102" rx="20" fill="#F8FDFF"/><g opacity=".1" clip-path="url(#clip1)"><path d="M43.196 49.433h2.138c.488-2.445 2.616-4.286 5.166-4.286 1.074 0 2.073.327 2.906.888l1.513-1.538a7.27 7.27 0 00-4.419-1.493c-3.718 0-6.791 2.795-7.304 6.429z" fill="#A8B7BB"/><path d="M41.837 57.792l1.501-1.525a9.339 9.339 0 01-1.975-5.763c0-4.766 3.534-8.691 8.083-9.223v-2.156c-5.716.541-10.192 5.427-10.192 11.378 0 2.771.97 5.313 2.583 7.29zm17.739-6.216c-.524 4.624-4.386 8.215-9.076 8.215a9.003 9.003 0 01-5.67-2.007l-1.5 1.525a11.093 11.093 0 007.17 2.625c5.855 0 10.662-4.548 11.195-10.358h-2.12zm-8.022-12.449v2.155c4.203.491 7.537 3.879 8.021 8.152h2.12c-.5-5.457-4.771-9.8-10.14-10.307z" fill="#A8B7BB"/><path d="M49.446 65.821v-2.148c-6.688-.546-11.949-6.23-11.949-13.169 0-3.262 1.167-6.248 3.096-8.554l-1.495-1.518a15.435 15.435 0 00-3.71 10.072c0 8.122 6.205 14.767 14.058 15.317zm12.456-25.389l-1.495 1.518a13.287 13.287 0 013.096 8.554c0 3.263-1.167 6.249-3.095 8.555l1.496 1.52a15.45 15.45 0 003.707-10.075c0-3.855-1.4-7.375-3.709-10.072zm-19.819.004a12.83 12.83 0 0116.833-.002l1.494-1.518c-2.653-2.346-6.116-3.77-9.91-3.77-3.794 0-7.257 1.424-9.91 3.77l1.493 1.52zm16.834 20.139a12.839 12.839 0 01-7.363 3.098v2.149a14.915 14.915 0 008.856-3.73l-1.493-1.517z" fill="#A8B7BB"/><path d="M50.5 69.792c10.126 0 18.4-8.062 18.947-18.216h-2.112C66.791 60.545 59.461 67.65 50.5 67.65c-8.961 0-16.29-7.104-16.835-16.073h-2.112c.546 10.154 8.82 18.216 18.947 18.216zM31.553 49.433h2.112c.523-8.615 7.304-15.506 15.78-16.038v-2.147c-9.64.536-17.365 8.386-17.892 18.185zm20.001-18.185v2.147c8.477.532 15.257 7.423 15.781 16.038h2.112c-.527-9.799-8.251-17.65-17.893-18.185z" fill="#A8B7BB"/><path d="M50.5 27.289c-12.616 0-22.843 10.393-22.843 23.215 0 12.464 9.663 22.63 21.789 23.191v-2.144c-10.961-.558-19.68-9.767-19.68-21.047 0-11.638 9.283-21.072 20.734-21.072 11.451 0 20.734 9.434 20.734 21.073 0 11.279-8.719 20.488-19.68 21.046v2.144c12.126-.56 21.789-10.727 21.789-23.19 0-12.823-10.227-23.216-22.843-23.216z" fill="#A8B7BB"/><path d="M68.625 70.44l-1.492-1.517c-4.379 4.088-10.22 6.583-16.633 6.583-6.414 0-12.253-2.495-16.633-6.583l-1.492 1.516c4.762 4.476 11.13 7.21 18.125 7.21 6.997 0 13.363-2.734 18.125-7.21zm-37.74-1.515l1.492-1.516C28.355 62.96 25.9 57.023 25.9 50.504c0-6.518 2.455-12.454 6.477-16.904l-1.492-1.517c-4.402 4.84-7.094 11.312-7.094 18.422 0 7.11 2.692 13.58 7.094 18.42zM50.5 23.36c-6.995 0-13.363 2.735-18.125 7.209l1.492 1.516c4.38-4.086 10.22-6.583 16.633-6.583 13.586 0 24.6 11.194 24.6 25.002 0 6.519-2.455 12.455-6.477 16.905l1.492 1.516c4.403-4.84 7.094-11.31 7.094-18.42 0-14.993-11.958-27.146-26.71-27.146z" fill="#A8B7BB"/><path d="M19.945 49.433h2.11c.556-15.482 13.077-27.86 28.445-27.86 7.482 0 14.287 2.935 19.367 7.732l1.492-1.517c-5.463-5.184-12.795-8.357-20.859-8.357-16.533 0-29.998 13.336-30.555 30.002zM72.85 29.305l-1.49 1.516a29.058 29.058 0 017.585 18.612h2.11c-.26-7.772-3.326-14.819-8.204-20.128zM50.5 81.578c16.533 0 29.998-13.336 30.555-30.002h-2.11c-.556 15.482-13.077 27.86-28.445 27.86s-27.89-12.378-28.445-27.86h-2.11c.557 16.666 14.022 30.002 30.555 30.002z" fill="#A8B7BB"/><path d="M49.446 85.489v-2.145c-8.132-.264-15.505-3.582-21.05-8.861l-1.491 1.516c5.927 5.667 13.825 9.224 22.54 9.49zm2.108-69.969v2.145c17.368.566 31.277 15.05 31.277 32.84 0 17.788-13.91 32.273-31.277 32.84v2.144c18.533-.566 33.386-16.012 33.386-34.984 0-18.973-14.853-34.419-33.386-34.985zM16.06 50.505c0 9.28 3.555 17.715 9.355 23.98l1.492-1.516c-5.42-5.876-8.738-13.776-8.738-22.464 0-17.79 13.91-32.274 31.277-32.84V15.52c-18.533.566-33.386 16.012-33.386 34.985z" fill="#A8B7BB"/><path d="M50.5 89.436c10.199 0 19.466-4.053 26.33-10.657l-1.493-1.516c-6.482 6.217-15.22 10.03-24.837 10.03-19.991 0-36.197-16.471-36.197-36.789 0-9.774 3.751-18.655 9.868-25.243l-1.492-1.516c-6.498 6.976-10.485 16.394-10.485 26.76 0 21.5 17.15 38.93 38.306 38.93zm0-77.863c-10.199 0-19.466 4.052-26.33 10.656l1.493 1.517c6.482-6.217 15.22-10.03 24.837-10.03 19.99 0 36.197 16.471 36.197 36.789 0 9.773-3.752 18.654-9.868 25.242l1.492 1.517c6.498-6.976 10.485-16.394 10.485-26.76 0-21.501-17.15-38.93-38.306-38.93z" fill="#A8B7BB"/><path d="M92.659 51.576H90.55C89.99 73.57 72.275 91.222 50.5 91.222c-21.773 0-39.49-17.653-40.049-39.646H8.343C8.9 74.753 27.563 93.365 50.5 93.365c22.938 0 41.599-18.612 42.159-41.789zM81.055 20.965l-1.492 1.516c6.591 7.06 10.72 16.517 10.986 26.952h2.108c-.265-11.026-4.628-21.02-11.602-28.468zM8.343 49.433h2.108C11.01 27.44 28.727 9.787 50.5 9.787c10.683 0 20.39 4.25 27.573 11.18l1.492-1.517C72 12.134 61.767 7.644 50.5 7.644c-22.938 0-41.6 18.614-42.157 41.789z" fill="#A8B7BB"/><path d="M17.211 82.823l1.49-1.515c-7.515-8.013-12.13-18.86-12.13-30.804 0-24.298 19.1-44.064 42.875-44.631V3.729C24.506 4.3 4.463 25.022 4.463 50.504c0 12.535 4.851 23.918 12.748 32.319zm65.088 1.516l-1.492-1.514C72.925 90.46 62.252 95.15 50.5 95.15c-11.752 0-22.425-4.69-30.307-12.327L18.7 84.337c8.265 8.028 19.466 12.956 31.799 12.956 12.333 0 23.533-4.928 31.799-12.954zM51.554 3.73v2.142c23.774.568 42.874 20.334 42.874 44.632 0 11.944-4.614 22.791-12.13 30.802l1.493 1.515c7.896-8.399 12.746-19.782 12.746-32.317 0-25.482-20.044-46.205-44.983-46.775z" fill="#A8B7BB"/><path d="M15.969 13.893l1.49 1.516c8.583-8.35 20.223-13.48 33.04-13.48 26.397 0 47.795 21.749 47.795 48.576 0 26.47-20.83 47.99-46.74 48.56v2.143c27.074-.571 48.849-23.052 48.849-50.703 0-28.011-22.342-50.718-49.903-50.718-13.4 0-25.567 5.37-34.532 14.106zm33.477 87.315v-2.143c-25.91-.57-46.74-22.09-46.74-48.56 0-13.028 5.046-24.858 13.263-33.581l-1.492-1.515C5.88 24.52.597 36.884.597 50.505c0 27.651 21.775 50.133 48.849 50.703z" fill="#A8B7BB"/><path d="M87.765 14.145c8.688 9.195 14.112 21.598 14.381 35.288h2.108c-.27-14.281-5.928-27.22-14.999-36.803l-1.49 1.515zm-91.02 35.288h2.109C-.586 20.931 22.322-1.999 50.5-1.999c13.887 0 26.492 5.57 35.775 14.63l1.492-1.515C78.101 1.667 64.968-4.142 50.5-4.142c-29.343 0-53.192 23.89-53.755 53.575zm105.403 2.143c-.563 28.502-23.469 51.432-51.648 51.432-28.178 0-51.086-22.93-51.646-51.432h-2.109c.563 29.686 24.412 53.575 53.755 53.575 29.342 0 53.194-23.889 53.756-53.575h-2.108z" fill="#A8B7BB"/><path d="M51.554-8.057v2.143c30.18.572 54.472 25.611 54.472 56.419 0 15.197-5.913 28.991-15.526 39.136l1.491 1.517c9.849-10.38 15.973-24.45 16.141-40.009.348-32.206-24.946-58.622-56.578-59.206zM9.01 91.157l1.49-1.514C.888 79.496-5.025 65.702-5.025 50.504c0-30.809 24.293-55.846 54.472-56.418v-2.145C18.388-7.498-6.786 18.086-7.131 49.86-7.305 65.88-1.13 80.467 9.01 91.157zm79.998 0c-9.983 9.771-23.555 15.78-38.508 15.78-14.953 0-28.525-6.009-38.508-15.78L10.5 92.673c10.213 10.01 24.057 16.234 39.364 16.405 15.763.177 30.116-6.099 40.634-16.405l-1.49-1.516z" fill="#A8B7BB"/><path d="M9.258 7.075C20.1-3.56 34.898-10.035 51.154-9.853c15.784.177 30.06 6.599 40.588 16.926l1.492-1.516c-10.901-10.71-25.697-17.37-42.056-17.553-16.847-.188-32.185 6.525-43.412 17.553l1.492 1.518zm85.467-.002L93.232 8.59c10.464 11.017 16.835 26.059 16.656 42.58-.355 32.752-26.315 59.123-58.334 59.684V113c33.173-.561 60.075-27.877 60.442-61.806.187-17.123-6.42-32.712-17.27-44.121zm-45.279 103.78C16.833 110.268-9.248 83.039-8.888 49.84c.174-16.042 6.493-30.552 16.654-41.25L6.275 7.073c-10.538 11.08-17.09 26.118-17.271 42.742-.373 34.392 26.654 62.599 60.442 63.183v-2.145zm6.965-64.84l-1.513 1.538a5.39 5.39 0 01.873 2.954c0 2.959-2.36 5.357-5.271 5.357-2.55 0-4.678-1.841-5.166-4.286h-2.138c.51 3.634 3.586 6.43 7.304 6.43 4.077 0 7.38-3.358 7.38-7.501 0-1.684-.546-3.24-1.469-4.492z" fill="#A8B7BB"/><path d="M53.932 50.528c0 1.93-1.54 3.495-3.44 3.495-1.899 0-3.438-1.565-3.438-3.495 0-1.93 1.54-3.495 3.439-3.495 1.9 0 3.439 1.564 3.439 3.495z" fill="#fff"/><path d="M50.5 46.933c-1.94 0-3.514 1.6-3.514 3.571 0 1.974 1.574 3.572 3.514 3.572 1.941 0 3.514-1.598 3.514-3.572 0-1.971-1.573-3.571-3.514-3.571zm-.007 6.366a6.4 6.4 0 00-2.726-2.77 6.4 6.4 0 002.726-2.77 6.4 6.4 0 002.725 2.77 6.391 6.391 0 00-2.725 2.77z" fill="#A8B7BB"/></g><rect fill="transparent" opacity=".5" x="-19.5" y="-17.5" width="47.164" height="47.164" rx="18.5" stroke="#D3E1E2" stroke-width="3"/><path d="M55.853 19c-19.41 0-35.14 15.916-35.14 35.543a35.75 35.75 0 003.331 15.113L13 91l21.102-8.546c5.984 4.777 13.536 7.638 21.752 7.638 19.41 0 35.14-15.916 35.14-35.543C91 34.916 75.265 19 55.855 19z" fill="#49A9B4"/><path d="M51.416 61.336c0-1.664.368-3.04 1.104-4.128.768-1.088 1.872-2.288 3.312-3.6 1.056-.96 1.824-1.76 2.304-2.4a3.63 3.63 0 00.768-2.256c0-1.184-.48-2.112-1.44-2.784-.928-.704-2.176-1.056-3.744-1.056-1.504 0-2.848.32-4.032.96-1.152.608-2.128 1.472-2.928 2.592l-5.808-3.408c1.344-2.048 3.152-3.632 5.424-4.752 2.304-1.12 5.024-1.68 8.16-1.68 3.68 0 6.624.784 8.832 2.352 2.24 1.568 3.36 3.744 3.36 6.528 0 1.312-.224 2.464-.672 3.456-.416.992-.944 1.84-1.584 2.544-.608.672-1.408 1.456-2.4 2.352-1.184 1.056-2.048 1.952-2.592 2.688-.544.704-.816 1.568-.816 2.592h-7.248zm3.648 12.048c-1.312 0-2.416-.416-3.312-1.248-.864-.864-1.296-1.904-1.296-3.12 0-1.216.432-2.224 1.296-3.024.864-.832 1.968-1.248 3.312-1.248 1.344 0 2.448.416 3.312 1.248.864.8 1.296 1.808 1.296 3.024s-.448 2.256-1.344 3.12c-.864.832-1.952 1.248-3.264 1.248zM128.125-34.86l-7.224 7.231a25.04 25.04 0 014.178 13.882c0 13.909-11.272 25.18-25.18 25.18-12.186 0-22.346-8.655-24.677-20.144H65c2.447 17.084 17.132 30.216 34.891 30.216 19.47 0 35.253-15.783 35.253-35.252 0-7.919-2.61-15.224-7.019-21.112z" fill="#fff"/><path d="M99.891-30.532c-9.275 0-16.784 7.516-16.784 16.791S90.623 3.044 99.89 3.044c9.275 0 16.792-7.517 16.792-16.785 0-9.275-7.517-16.791-16.792-16.791zM99.857-.61a30.342 30.342 0 00-13.023-13.023 30.341 30.341 0 0013.023-13.023 30.343 30.343 0 0013.023 13.023A30.306 30.306 0 0099.857-.609z" fill="#49A9B4"/></g></symbol><symbol id="arrow-down" viewBox="0 0 16 10"><path d="M2.827 1.387L8 6.56l5.173-5.173c.52-.52 1.36-.52 1.88 0 .52.52.52 1.36 0 1.88l-6.12 6.12c-.52.52-1.36.52-1.88 0l-6.12-6.12c-.52-.52-.52-1.36 0-1.88.52-.507 1.374-.52 1.894 0z"/></symbol><symbol id="close" viewBox="0 0 32 32"><path d="M23.59 8.417c-.52-.52-1.36-.52-1.88 0l-4.653 4.64-6-6c-.52-.52-1.36-.52-1.88 0-.52.52-.52 1.36 0 1.88l6 6-8.12 8.4c-.52.52-.52 1.36 0 1.88.52.52 1.36.52 1.88 0l8.12-8.4 5.333 5.333c.52.52 1.36.52 1.88 0 .52-.52.52-1.36 0-1.88l-5.333-5.333 4.653-4.654a1.336 1.336 0 000-1.866z" fill="#D3E1E2"/></symbol><symbol id="formula" viewBox="0 0 79 80"><path d="M39.843 11.304a28.106 28.106 0 00-15.579 4.688L16.15 7.877A39.383 39.383 0 0139.843 0C59.773 0 76.254 14.738 79 33.91H67.536C64.92 21.017 53.517 11.305 39.843 11.305zM8.158 15.87l8.106 8.114a28.106 28.106 0 00-4.688 15.579c0 15.61 12.65 28.259 28.26 28.259 13.674 0 25.077-9.713 27.692-22.607H79c-2.746 19.173-19.227 33.91-39.157 33.91C17.993 79.125.28 61.413.28 39.563c0-8.887 2.93-17.086 7.878-23.693z" fill="#FF2639"/><path d="M39.843 20.726c10.409 0 18.837 8.435 18.837 18.844s-8.436 18.837-18.837 18.837c-10.409 0-18.845-8.436-18.845-18.837 0-10.409 8.436-18.844 18.845-18.844zm.038 33.581a34.05 34.05 0 0114.615-14.615 34.05 34.05 0 01-14.615-14.615 34.051 34.051 0 01-14.615 14.615 34.01 34.01 0 0114.615 14.615z" fill="#FF2639"/></symbol><symbol id="future-1" viewBox="0 0 122 122"><g clip-path="url(#clip0)"><rect width="122" height="122" rx="20" fill="#F8FDFF"/><g opacity=".2" clip-path="url(#clip1)"><path d="M10.79 15.536h1.964a4.846 4.846 0 017.416-3.073l1.39-1.39a6.782 6.782 0 00-10.77 4.462z" fill="#A8B7BB"/><path d="M9.541 23.092l1.38-1.378a8.356 8.356 0 01-1.815-5.21 8.396 8.396 0 017.425-8.338V6.217c-5.251.49-9.363 4.906-9.363 10.285 0 2.506.892 4.803 2.373 6.59zm16.297-5.619c-.481 4.18-4.03 7.426-8.338 7.426-1.97 0-3.777-.68-5.21-1.815l-1.378 1.379a10.29 10.29 0 006.588 2.373c5.379 0 9.796-4.112 10.285-9.363h-1.947zm-7.37-11.254v1.948a8.397 8.397 0 017.37 7.37h1.947a10.331 10.331 0 00-9.317-9.318z" fill="#A8B7BB"/><path d="M16.532 30.35v-1.942c-6.145-.494-10.978-5.632-10.978-11.904 0-2.95 1.072-5.649 2.845-7.733L7.025 7.399a13.822 13.822 0 00-3.408 9.105c0 7.342 5.7 13.35 12.915 13.847zM27.975 7.399L26.601 8.77a11.897 11.897 0 012.845 7.733c0 2.95-1.072 5.649-2.843 7.733l1.374 1.374a13.836 13.836 0 003.406-9.107 13.82 13.82 0 00-3.408-9.105zm-18.207.003A11.895 11.895 0 0117.5 4.558c2.951 0 5.648 1.072 7.733 2.843l1.372-1.373A13.82 13.82 0 0017.5 2.62a13.82 13.82 0 00-9.104 3.408l1.372 1.374zm15.464 18.206a11.895 11.895 0 01-6.764 2.8v1.943a13.815 13.815 0 008.137-3.371l-1.373-1.372z" fill="#A8B7BB"/><path d="M17.5 33.94c9.303 0 16.905-7.288 17.407-16.467h-1.94c-.5 8.107-7.234 14.53-15.467 14.53S2.534 25.58 2.034 17.472H.094C.594 26.653 8.196 33.94 17.5 33.94zM.093 15.536h1.94c.482-7.788 6.711-14.018 14.498-14.5v-1.94C7.675-.42.579 6.677.094 15.536zM18.468-.904v1.94c7.788.482 14.017 6.712 14.498 14.5h1.94C34.424 6.677 27.327-.42 18.469-.905z" fill="#A8B7BB"/><path d="M17.5-4.483c-11.59 0-20.986 9.396-20.986 20.987 0 11.267 8.877 20.458 20.018 20.964V35.53c-10.07-.504-18.08-8.83-18.08-19.026 0-10.521 8.528-19.05 19.048-19.05 10.52 0 19.049 8.529 19.049 19.05 0 10.197-8.01 18.522-18.08 19.026v1.938c11.14-.506 20.017-9.697 20.017-20.964 0-11.591-9.395-20.987-20.986-20.987z" fill="#A8B7BB"/><path d="M34.151 34.525l-1.37-1.37a22.514 22.514 0 01-15.281 5.95 22.517 22.517 0 01-15.28-5.95l-1.371 1.37A24.444 24.444 0 0017.5 41.043a24.441 24.441 0 0016.651-6.518zM-.52 33.157l1.37-1.37A22.517 22.517 0 01-5.1 16.503 22.517 22.517 0 01.85 1.222L-.52-.148a24.455 24.455 0 00-6.517 16.652A24.452 24.452 0 00-.52 33.157zM17.5-8.035A24.452 24.452 0 00.849-1.518l1.37 1.37A22.524 22.524 0 0117.5-6.097c12.482 0 22.6 10.12 22.6 22.602a22.517 22.517 0 01-5.95 15.282l1.37 1.37a24.445 24.445 0 006.517-16.652c0-13.555-10.985-24.54-24.537-24.54z" fill="#A8B7BB"/><path d="M-10.57 15.536h1.938C-8.122 1.54 3.381-9.65 17.5-9.65a26.052 26.052 0 0117.793 6.99l1.37-1.371A27.984 27.984 0 0017.5-11.586C2.311-11.586-10.06.47-10.57 15.536zM38.034-2.66l-1.37 1.37a26.05 26.05 0 016.968 16.825h1.939A27.987 27.987 0 0038.034-2.66zM17.5 44.595c15.189 0 27.56-12.057 28.07-27.122h-1.938C43.122 31.468 31.62 42.657 17.5 42.657c-14.119 0-25.622-11.19-26.132-25.184h-1.939c.512 15.065 12.882 27.122 28.071 27.122z" fill="#A8B7BB"/><path d="M16.532 48.13v-1.939a29.594 29.594 0 01-19.338-8.01l-1.37 1.37c5.444 5.123 12.7 8.339 20.708 8.58zm1.936-63.252v1.939c15.956.512 28.735 13.606 28.735 29.687 0 16.081-12.779 29.175-28.735 29.687v1.94c17.026-.513 30.672-14.476 30.672-31.627 0-17.151-13.646-31.114-30.672-31.626zM-14.14 16.504c0 8.39 3.266 16.015 8.595 21.678l1.37-1.37a29.599 29.599 0 01-8.028-20.308c0-16.081 12.779-29.175 28.735-29.687v-1.94C-.494-14.61-14.14-.646-14.14 16.505z" fill="#A8B7BB"/><path d="M17.5 51.698c9.37 0 17.883-3.663 24.188-9.633l-1.37-1.371c-5.955 5.62-13.983 9.066-22.818 9.066-18.366 0-33.254-14.89-33.254-33.256 0-8.836 3.446-16.864 9.066-22.82l-1.371-1.37c-5.97 6.305-9.632 14.82-9.632 24.19 0 19.437 15.755 35.194 35.191 35.194zm0-70.388c-9.37 0-17.883 3.663-24.188 9.633l1.37 1.37C.637-13.305 8.665-16.752 17.5-16.752c18.366 0 33.254 14.89 33.254 33.257 0 8.836-3.446 16.864-9.066 22.82l1.37 1.37c5.97-6.306 9.633-14.82 9.633-24.19 0-19.437-15.755-35.194-35.191-35.194z" fill="#A8B7BB"/><path d="M56.231 17.473h-1.937c-.515 19.881-16.79 35.84-36.794 35.84-20.003 0-36.28-15.959-36.793-35.84h-1.937C-20.717 38.424-3.573 55.25 17.5 55.25c21.073 0 38.217-16.826 38.731-37.777zM45.57-10.2L44.2-8.83c6.055 6.383 9.849 14.933 10.093 24.366h1.937C55.986 5.568 51.978-3.466 45.57-10.2zm-66.8 25.735h1.937c.514-19.88 16.79-35.84 36.793-35.84 9.815 0 18.732 3.843 25.331 10.107l1.37-1.37c-6.949-6.615-16.35-10.674-26.701-10.674-21.073 0-38.217 16.827-38.73 37.777z" fill="#A8B7BB"/><path d="M-13.082 45.72l1.368-1.37c-6.904-7.243-11.143-17.049-11.143-27.846 0-21.966 17.547-39.834 39.389-40.347v-1.937c-22.912.515-41.326 19.248-41.326 42.284 0 11.331 4.457 21.622 11.712 29.216zm59.796 1.37l-1.37-1.369C38.101 52.626 28.296 56.864 17.5 56.864c-10.796 0-20.601-4.24-27.843-11.144l-1.37 1.369C-4.12 54.346 6.168 58.8 17.5 58.8c11.33 0 21.62-4.455 29.214-11.71zM18.468-25.78v1.937c21.842.513 39.39 18.381 39.39 40.347 0 10.797-4.24 20.603-11.144 27.845l1.37 1.37c7.255-7.593 11.71-17.884 11.71-29.215 0-23.036-18.414-41.77-41.325-42.284z" fill="#A8B7BB"/><path d="M-14.224-16.593l1.369 1.37C-4.969-22.77 5.724-27.407 17.5-27.407c24.25 0 43.909 19.66 43.909 43.912 0 23.928-19.138 43.384-42.94 43.899v1.937c24.873-.517 44.877-20.839 44.877-45.836 0-25.322-20.526-45.85-45.846-45.85-12.31 0-23.488 4.855-31.724 12.753zM16.531 62.34v-1.937c-23.802-.515-42.94-19.97-42.94-43.899 0-11.777 4.637-22.47 12.185-30.357l-1.37-1.37c-7.897 8.238-12.752 19.414-12.752 31.727 0 24.997 20.005 45.321 44.877 45.836z" fill="#A8B7BB"/><path d="M51.736-16.365c7.98 8.312 12.964 19.524 13.211 31.9h1.937c-.248-12.91-5.446-24.606-13.78-33.27l-1.368 1.37zm-83.62 31.9h1.937c.515-25.765 21.56-46.494 47.447-46.494 12.758 0 24.339 5.035 32.867 13.225l1.37-1.37c-8.88-8.541-20.945-13.793-34.237-13.793-26.957 0-48.868 21.596-49.384 48.432zm96.833 1.938c-.517 25.766-21.56 46.494-47.449 46.494-25.887 0-46.932-20.728-47.447-46.494h-1.937c.516 26.836 22.427 48.432 49.384 48.432s48.87-21.596 49.386-48.432h-1.937z" fill="#A8B7BB"/><path d="M18.468-36.435v1.937c27.726.517 50.043 23.152 50.043 51.002 0 13.739-5.432 26.208-14.263 35.38l1.37 1.37c9.048-9.383 14.674-22.102 14.829-36.167.32-29.114-22.918-52.994-51.979-53.522zm-39.084 89.689l1.369-1.369c-8.832-9.173-14.264-21.642-14.264-35.381 0-27.852 22.317-50.486 50.043-51.002v-1.939c-28.533.507-51.66 23.635-51.977 52.358-.16 14.483 5.513 27.67 14.829 37.333zm73.493 0C43.707 62.087 31.237 67.52 17.5 67.52c-13.738 0-26.206-5.432-35.377-14.265l-1.37 1.37c9.382 9.05 22.1 14.676 36.163 14.83 14.481.16 27.667-5.512 37.33-14.83l-1.369-1.37z" fill="#A8B7BB"/><path d="M58.13-22.758l-1.372 1.372c9.613 9.96 15.466 23.557 15.301 38.492-.326 29.608-24.175 53.448-53.59 53.955V73c30.476-.507 55.19-25.2 55.528-55.873.17-15.479-5.899-29.57-15.867-39.885zM16.532 71.06C-13.43 70.53-37.39 45.915-37.06 15.903c.16-14.502 5.965-27.619 15.3-37.29l-1.37-1.371C-32.81-12.742-38.83.852-38.997 15.88c-.342 31.09 24.487 56.59 55.529 57.117V71.06zm6.398-58.616l-1.39 1.39a4.843 4.843 0 11-8.787 3.639H10.79a6.781 6.781 0 1012.14-5.029z" fill="#A8B7BB"/><path d="M20.653 16.525a3.159 3.159 0 11-6.318.001 3.159 3.159 0 016.318 0z" fill="#fff"/><path d="M17.5 13.275a3.23 3.23 0 000 6.458 3.228 3.228 0 100-6.458zm-.006 5.756a5.831 5.831 0 00-2.504-2.504 5.832 5.832 0 002.504-2.504 5.832 5.832 0 002.503 2.504 5.823 5.823 0 00-2.503 2.504z" fill="#A8B7BB"/></g><rect fill="transparent" opacity=".5" x="82.5" y="93.5" width="57" height="57" rx="18.5" stroke="#D3E1E2" stroke-width="3"/><path d="M60.996 30.882A29.955 29.955 0 0177.6 35.88l8.648-8.649a41.974 41.974 0 00-25.252-8.395c-21.241 0-38.807 15.707-41.733 36.141h12.218c2.788-13.742 14.941-24.094 29.515-24.094zm33.77 4.866l-8.64 8.648A29.956 29.956 0 0191.121 61c0 16.636-13.482 30.118-30.118 30.118-14.574 0-26.727-10.352-29.514-24.095H19.263c2.926 20.435 20.492 36.142 41.733 36.142 23.287 0 42.165-18.878 42.165-42.165 0-9.472-3.122-18.21-8.395-25.252z" fill="#FF2639"/><path d="M60.996 40.924c-11.093 0-20.076 8.99-20.076 20.084 0 11.093 8.99 20.076 20.076 20.076 11.093 0 20.084-8.99 20.084-20.076 0-11.093-8.99-20.084-20.084-20.084zm-.04 35.79A36.29 36.29 0 0045.378 61.14a36.29 36.29 0 0015.576-15.577A36.292 36.292 0 0076.531 61.14a36.247 36.247 0 00-15.577 15.576z" fill="#FF2639"/><circle cx="9" cy="116" r="20" fill="#fff"/></g></symbol><symbol id="future-2" viewBox="0 0 122 122"><g clip-path="url(#clip0)"><rect width="122" height="122" rx="20" fill="#F8FDFF"/><g opacity=".2" fill="#D3E1E2"><path d="M21.733 73.047a29.954 29.954 0 0116.603 4.997l8.649-8.648A41.973 41.973 0 0021.733 61C.492 61-17.074 76.707-20 97.141h12.218C-4.994 83.4 7.16 73.047 21.733 73.047zm33.769 4.866l-8.64 8.648a29.955 29.955 0 014.997 16.604c0 16.636-13.482 30.118-30.118 30.118-14.574 0-26.727-10.352-29.515-24.094H-20c2.926 20.434 20.492 36.141 41.733 36.141 23.287 0 42.165-18.878 42.165-42.165 0-9.471-3.122-18.21-8.396-25.252z"/><path d="M21.733 83.09c-11.094 0-20.076 8.99-20.076 20.083 0 11.094 8.99 20.076 20.076 20.076 11.093 0 20.084-8.991 20.084-20.076 0-11.093-8.99-20.084-20.084-20.084zm-.041 35.79a36.29 36.29 0 00-15.576-15.577 36.287 36.287 0 0015.576-15.576 36.288 36.288 0 0015.577 15.576 36.248 36.248 0 00-15.577 15.577z"/></g><circle fill="transparent" opacity=".5" cx="108.5" cy="-3.5" r="40.5" stroke="#D3E1E2" stroke-width="4"/><path d="M99.157 56.02l-12.682 7.353.044 17.05L108.73 67.59l-9.573-11.57z" fill="#FFA94D"/><path d="M46.51 40.361l12.683-7.353L99.157 56.02l-12.682 7.353L46.51 40.36z" fill="#FFE499"/><path d="M86.475 63.373L46.51 40.36 35.66 51.135l50.86 29.289-.045-17.051z" fill="#EF8E35"/><path opacity=".3" d="M64.901 40.701c.514.296 1.011.658 1.201 1.02l-1.178.68-.246-.14c.374-.423.681-.952-.04-1.365-1.133-.651-2.624.017-3.283.401-.475.273-2.027 1.243-.854 1.917.446.256.603.273.832.145l.916-.53c.318-.184.296-.234-.174-.54l.246-.14 1.96 1.126-.245.14c-.346-.162-.43-.173-.732.005l-1.206.696a7.275 7.275 0 01-1.888-.73c-.43-.245-1-.618-1.156-1.075-.162-.473.05-1.036 1.078-1.626.882-.524 2.697-1.181 4.77.016zm4.518 2.596c1.492.858 1.34 1.783-.123 2.624-1.463.841-3.066.93-4.557.072-1.49-.858-1.34-1.782.123-2.623 1.464-.841 3.066-.93 4.557-.073zm-4.384 2.524c.955.551 2.33-.106 3.111-.563.782-.451 1.927-1.242.972-1.794-.955-.551-2.329.106-3.11.563-.783.457-1.91 1.253-.973 1.794zm2.754 1.532c.48.256.564.267.893.072l3.228-1.86c.33-.19.313-.24-.128-.513l.246-.14 2.138 1.232-.245.139c-.559-.3-.643-.312-.972-.117l-3.088 1.777c-.414.24-.296.373.245.685.738.423 1.179.267 2.061.028l.246.14-1.38.707-3.496-2.011.252-.14zm3.792 2.189c.48.256.564.267.893.072l3.228-1.86c.33-.19.313-.24-.128-.518l.246-.14 2.222 1.282c.838.49 1.2.907 1.207 1.336.005.43-.352.853-1.078 1.27-2.15 1.237-3.893.396-4.904-.189l-1.938-1.114.252-.14zm2.122 1.158c.636.368 1.614.607 3.323-.378 1.25-.719 1.452-1.354.586-1.85-.407-.234-.57-.29-.72-.206l-3.424 1.972c-.206.123-.173.228.235.462zm7.65 2.368c.297.172.386.34.336.512-.056.167-.257.34-.575.524-.441.256-.832.373-1.156.384a1.469 1.469 0 01-.816-.217c-.463-.267-.374-.507-.257-.574.129-.072.352-.044.442.011.072.045.089.09.044.14-.178.206-.162.29-.05.356.162.095.453.106 1.2-.312l-.005-.005c-.184 0-.424-.023-.597-.123-.33-.19-.43-.473-.011-.719a1.5 1.5 0 011.446.023zm-1.027.657c.1.056.24.067.33.056a.63.63 0 00.234-.095c.369-.212.525-.418.341-.523-.179-.106-.469-.056-.765.117-.262.155-.34.328-.14.445zm2.765.346c.296.172.385.34.335.512-.056.167-.257.34-.575.524-.442.256-.832.373-1.156.384a1.468 1.468 0 01-.816-.217c-.463-.268-.374-.507-.257-.574.129-.073.352-.045.442.011.072.045.089.09.044.14-.178.205-.162.289-.05.356.162.094.452.106 1.2-.312l-.005-.006c-.184 0-.424-.022-.597-.122-.33-.19-.43-.474-.012-.719a1.5 1.5 0 011.447.023zm-1.022.657c.1.055.24.067.33.055a.631.631 0 00.234-.094c.368-.212.525-.418.34-.524-.178-.106-.469-.056-.765.117-.268.15-.34.329-.14.446zm2.764.345c.296.173.386.34.335.513-.056.167-.257.34-.575.523-.441.256-.832.373-1.156.385a1.468 1.468 0 01-.815-.218c-.464-.267-.374-.507-.257-.573.128-.073.352-.045.441.01.073.045.09.09.045.14-.18.206-.162.29-.05.356.161.095.452.106 1.2-.311l-.005-.006c-.185 0-.425-.022-.598-.123-.33-.189-.43-.473-.011-.718a1.5 1.5 0 011.446.022zm-1.027.657c.1.056.24.067.33.056a.632.632 0 00.234-.095c.368-.211.525-.417.34-.523-.178-.106-.469-.056-.765.117-.262.15-.34.329-.14.446zm.787 1.009c.173.1.173.234 0 .334s-.408.1-.575 0c-.173-.1-.173-.234 0-.334a.618.618 0 01.575 0z" fill="#D99027"/><path opacity=".6" d="M84.006 56.137c-.357.2-.614.295-.799.34a1.534 1.534 0 01-.491-.156.386.386 0 01.061-.134.091.091 0 00.023.017c.128.072.346.094.82-.117.13.033.263.05.375.05h.011zm-2.597-1.61a.585.585 0 01.246-.234c.251-.145.575-.195.899-.15.162-.04.313-.04.419.022.056.033.073.078.067.128.017.011.039.011.056.022.173.1.273.2.318.301.006-.011.017-.022.017-.033.05-.167-.04-.34-.335-.513a1.49 1.49 0 00-1.441-.022c-.268.156-.324.323-.246.479zm.855.607c-.112 0-.246-.017-.375-.05-.474.212-.692.195-.82.117-.012-.006-.012-.011-.023-.017-.033.05-.061.1-.061.134.156.078.318.134.491.156.184-.04.436-.14.799-.34h-.011zm-3.374-1.437c-.072.039-.134.15-.055.295a.157.157 0 01.055-.05c.123-.067.319-.044.42 0 .022-.028.038-.056.072-.095.044-.05.033-.094-.045-.139-.095-.056-.318-.083-.447-.011zm1.028-.407c.251-.145.57-.195.9-.15.161-.04.312-.04.418.022.056.034.073.078.067.128.017.011.04.011.056.023.173.1.273.2.318.3.006-.01.017-.022.017-.033.05-.167-.04-.34-.335-.512a1.49 1.49 0 00-1.441-.023c-.268.156-.324.323-.246.48a.586.586 0 01.246-.235zm-.614.897c-.034.05-.062.1-.062.134.157.078.319.134.492.156.184-.04.435-.14.798-.34l-.005-.005c-.112 0-.246-.017-.374-.05-.475.211-.693.194-.821.116-.017 0-.017-.005-.028-.01zm3.06 1.755c.123-.067.318-.045.419 0 .022-.028.04-.056.073-.095.044-.05.033-.095-.045-.14-.09-.05-.313-.083-.441-.01-.073.039-.134.15-.056.295a.213.213 0 01.05-.05zm-1.737-1.003c.123-.067.319-.044.42 0 .022-.028.038-.056.072-.095.044-.05.033-.094-.045-.139-.09-.05-.313-.083-.441-.01-.073.038-.134.15-.056.294a.213.213 0 01.05-.05zm2.519.59a.586.586 0 01.246-.233c.251-.145.575-.195.899-.15.162-.04.313-.04.419.022.056.033.072.078.067.128.016.01.039.01.056.022.173.1.273.2.318.3.005-.01.017-.022.017-.033.05-.167-.04-.34-.335-.512a1.49 1.49 0 00-1.441-.022c-.268.156-.324.323-.246.479zm-.877-.634l-.167.089a.568.568 0 00.296.044.63.63 0 00.234-.094c.358-.206.514-.407.346-.513a1.28 1.28 0 01-.346.273.672.672 0 01-.234.095.548.548 0 01-.33-.056c-.022-.011-.033-.033-.05-.044-.056.066-.078.128-.05.183.1.017.206.023.296.023h.005zm1.737.997c-.061.033-.112.061-.168.089a.568.568 0 00.297.044.628.628 0 00.234-.094c.358-.206.514-.407.346-.513a1.279 1.279 0 01-.346.273.67.67 0 01-.234.095.547.547 0 01-.33-.056c-.022-.011-.034-.033-.05-.044-.056.066-.078.128-.05.183.1.017.206.023.295.023h.006zm-3.35-1.866a.628.628 0 00.234-.095c.357-.206.513-.407.346-.513a1.279 1.279 0 01-.346.273.669.669 0 01-.235.095.547.547 0 01-.33-.056c-.022-.01-.033-.033-.05-.044-.055.067-.078.128-.05.184.1.016.207.022.296.022l.006.005c-.062.034-.112.062-.168.09.1.039.218.05.296.039zm-8.49-5.365c-.882.24-1.323.396-2.06-.028-.213-.122-.358-.217-.436-.3-.15.161.006.3.436.546.737.423 1.178.267 2.06.027l.023.011.223-.117-.246-.139zm-7.355-6.328c.179-.234.302-.484.246-.724-.045.223-.201.446-.38.646l.134.078zm-4.317 1.12c.447.256.603.273.833.145l.915-.53c.224-.128.274-.189.129-.322-.034.022-.073.05-.129.083l-.915.53c-.23.127-.38.116-.833-.146-.251-.144-.374-.3-.407-.468-.062.24.028.49.407.708zm1.815-1.315l-.245.14c.078.05.14.094.195.133l.05-.028 1.748 1.009.213-.123-1.96-1.13zm10.165 7.72l3.227-1.86c.24-.139.29-.2.14-.334a.88.88 0 01-.14.09l-3.227 1.86c-.33.19-.414.178-.894-.073l-.246.14.212.122.034-.022c.48.256.564.267.894.078zm12.118 6.88a.588.588 0 00-.575 0c-.145.084-.162.195-.056.29.017-.017.028-.028.056-.044.173-.1.408-.1.575 0 .023.01.034.027.056.044.1-.089.09-.2-.056-.29zM63.7 44.862c.061-.423.458-.846 1.162-1.253 1.463-.841 3.066-.93 4.557-.073.642.368.977.747 1.038 1.131.068-.462-.262-.924-1.038-1.376-1.491-.857-3.094-.774-4.557.073-.838.49-1.246.997-1.162 1.498zm-3.58-3.944c.894-.518 2.709-1.17 4.786.023.43.25.838.546 1.078.846l.123-.072c-.19-.362-.687-.724-1.2-1.02-2.073-1.191-3.888-.534-4.787-.022-.91.524-1.178 1.03-1.111 1.47.05-.378.363-.79 1.111-1.225zm8.562 6.757l3.227-1.86c.24-.14.29-.2.14-.334a.878.878 0 01-.14.089l-3.228 1.86c-.329.19-.413.178-.893-.072l-.246.14.212.122.034-.023c.48.257.564.268.894.078zm3.345-2.517l1.927 1.108.212-.123-2.14-1.23-.245.139c.084.05.145.094.195.128l.05-.023zm-6.992.907c.955.552 2.329-.105 3.11-.562.62-.357 1.464-.93 1.313-1.42-.117.428-.793.88-1.313 1.18-.781.452-2.155 1.109-3.11.563-.196-.111-.296-.234-.335-.368-.062.218.016.43.335.608zm10.784 1.276l2.222 1.281c.766.452 1.134.841 1.196 1.231a1.28 1.28 0 00.01-.139c-.005-.429-.368-.847-1.206-1.337l-2.222-1.281-.246.14c.084.05.145.094.196.127l.05-.022zm1.206 2.986c-1.709.986-2.692.74-3.323.379a1.566 1.566 0 01-.279-.19c-.156.112-.1.218.28.435.636.367 1.613.607 3.322-.38.821-.472 1.184-.907 1.09-1.291-.073.317-.436.668-1.09 1.047z" fill="#D99027"/><path d="M76.768 68.915l-12.683 7.353.045 17.051 22.21-12.84-9.572-11.564z" fill="#FFA94D"/><path d="M24.121 53.257l12.683-7.353 39.964 23.011-12.683 7.353-39.964-23.011z" fill="#FFE499"/><path d="M64.085 76.268L24.121 53.257 13.27 64.03l50.86 29.29-.045-17.052z" fill="#EF8E35"/><path opacity=".3" d="M42.512 53.591c.514.295 1.011.657 1.201 1.02l-1.184.68-.246-.14c.375-.424.682-.953-.039-1.365-1.133-.652-2.624.017-3.283.401-.475.273-2.028 1.242-.855 1.916.447.257.603.273.832.145l.916-.529c.318-.184.296-.234-.173-.54l.246-.14 1.96 1.126-.246.139c-.346-.162-.43-.173-.731.005l-1.207.697a7.274 7.274 0 01-1.887-.73c-.43-.245-1-.618-1.156-1.075-.162-.474.05-1.036 1.078-1.627.888-.518 2.703-1.175 4.774.017zm4.513 2.602c1.491.857 1.34 1.782-.123 2.623-1.463.841-3.066.93-4.557.073-1.491-.858-1.34-1.783.123-2.624 1.468-.847 3.066-.93 4.557-.072zm-4.379 2.523c.955.551 2.33-.106 3.111-.563.782-.45 1.927-1.242.972-1.793-.955-.552-2.329.105-3.11.562-.788.457-1.916 1.254-.973 1.794zm2.748 1.532c.48.256.564.267.894.072l3.228-1.86c.33-.19.312-.24-.129-.513l.246-.139 2.139 1.231-.246.14c-.558-.302-.642-.313-.972-.118l-3.088 1.777c-.413.24-.296.373.246.685.737.424 1.178.268 2.06.028l.246.14-1.38.707-3.495-2.01.251-.14zm3.798 2.183c.48.257.564.268.893.073l3.228-1.86c.33-.19.313-.24-.128-.519l.245-.139 2.223 1.281c.838.49 1.201.908 1.207 1.337.005.43-.352.852-1.078 1.27-2.15 1.237-3.893.396-4.904-.19l-1.938-1.113.252-.14zm2.116 1.165c.637.367 1.614.607 3.323-.38 1.251-.718 1.452-1.353.587-1.849-.408-.233-.57-.29-.72-.206l-3.424 1.972c-.207.117-.173.229.234.463zm7.657 2.367c.296.173.385.34.335.513-.056.167-.257.34-.575.523-.441.257-.832.373-1.156.385a1.468 1.468 0 01-.816-.218c-.463-.267-.374-.507-.256-.573.128-.073.351-.045.44.01.073.045.09.09.045.14-.178.206-.161.29-.05.357.162.094.453.105 1.2-.313l-.005-.005c-.184 0-.424-.022-.597-.123-.33-.189-.43-.473-.011-.718.396-.223.971-.25 1.446.022zm-1.028.657c.1.056.24.067.33.056a.629.629 0 00.234-.095c.37-.211.525-.417.341-.523-.179-.106-.469-.056-.765.117-.262.15-.34.328-.14.445zm2.765.346c.296.172.385.34.335.512-.056.167-.257.34-.575.524-.442.256-.832.373-1.156.384a1.469 1.469 0 01-.816-.217c-.463-.267-.374-.507-.257-.574.129-.072.352-.044.442.011.072.045.089.09.044.14-.178.206-.162.29-.05.356.162.095.452.106 1.2-.312l-.005-.005c-.184 0-.424-.023-.597-.123-.33-.19-.43-.473-.012-.719.402-.222.972-.25 1.447.023zm-1.028.657c.1.056.24.067.33.056a.63.63 0 00.234-.095c.369-.212.525-.418.341-.523-.179-.106-.47-.056-.765.116-.263.15-.34.33-.14.446zm2.765.346c.296.172.385.34.335.512-.056.167-.257.34-.575.524-.442.256-.833.373-1.157.384a1.468 1.468 0 01-.815-.217c-.463-.268-.374-.507-.257-.574.129-.073.352-.045.441.011.073.045.09.09.045.14-.179.205-.162.289-.05.356.162.094.452.106 1.2-.312l-.005-.006c-.184 0-.424-.022-.598-.122-.33-.19-.43-.474-.01-.719a1.472 1.472 0 011.446.023zm-1.022.651c.1.056.24.067.33.056a.629.629 0 00.234-.095c.368-.212.525-.418.34-.523-.178-.106-.469-.056-.765.117-.268.156-.34.328-.14.445zm.782 1.014c.173.1.173.234 0 .334a.59.59 0 01-.576 0c-.173-.1-.173-.234 0-.334a.618.618 0 01.576 0z" fill="#D99027"/><path opacity=".6" d="M61.617 69.032c-.357.2-.614.296-.799.34a1.537 1.537 0 01-.491-.156.388.388 0 01.061-.133c.006.005.012.01.023.016.128.073.346.095.82-.117.13.034.263.05.375.05h.011zm-2.597-1.61a.586.586 0 01.246-.233c.251-.145.575-.195.899-.15.162-.04.313-.04.419.021.056.034.072.078.067.129.017.01.039.01.056.022.173.1.273.2.318.3.006-.01.017-.022.017-.033.05-.167-.04-.34-.335-.512a1.49 1.49 0 00-1.441-.023c-.268.156-.324.323-.246.48zm.849.608a1.54 1.54 0 01-.374-.05c-.475.211-.693.194-.821.117-.011-.006-.011-.012-.022-.017-.034.05-.062.1-.062.133.156.079.318.134.492.156.184-.038.435-.139.798-.34h-.011zm-3.367-1.438c-.073.04-.135.15-.056.296a.158.158 0 01.056-.05c.122-.067.318-.045.418 0 .023-.028.04-.056.073-.095.045-.05.033-.095-.045-.14-.095-.055-.318-.088-.447-.01zm1.021-.406c.252-.145.57-.195.9-.15.162-.04.312-.04.418.022.056.033.073.078.067.128.017.011.04.011.056.022.173.1.274.2.319.3.005-.01.016-.021.016-.032.05-.168-.039-.34-.335-.513a1.49 1.49 0 00-1.44-.022c-.269.156-.325.323-.246.479a.664.664 0 01.245-.234zm-.608.891c-.034.05-.062.1-.062.134.157.078.319.133.492.156.184-.04.435-.14.798-.34l-.005-.006c-.112 0-.246-.016-.374-.05-.475.212-.693.195-.821.117-.017.006-.023-.005-.028-.01zm3.06 1.76c.123-.067.319-.044.419 0 .022-.028.04-.055.073-.094.044-.05.033-.095-.045-.14-.09-.05-.313-.083-.441-.01-.073.038-.134.15-.056.294a.11.11 0 01.05-.05zm-1.737-1.002c.123-.067.319-.045.42 0 .021-.028.038-.056.072-.095.044-.05.033-.095-.045-.14-.09-.05-.313-.083-.441-.01-.073.039-.134.15-.056.295a.144.144 0 01.05-.05zm2.519.585a.622.622 0 01.246-.234c.251-.145.57-.195.899-.15.162-.04.313-.04.419.022.056.033.072.077.067.128.017.01.039.01.056.022.173.1.273.2.318.3.005-.01.017-.022.017-.033.05-.167-.04-.34-.335-.512a1.49 1.49 0 00-1.441-.022c-.268.156-.324.328-.246.479zm-.877-.636c-.061.034-.111.062-.167.09a.568.568 0 00.296.044.63.63 0 00.234-.095c.358-.206.514-.406.346-.512a1.28 1.28 0 01-.346.273.67.67 0 01-.234.095.546.546 0 01-.33-.056c-.022-.011-.033-.033-.05-.045-.056.067-.078.129-.05.184.1.017.206.022.296.022h.005zm1.737 1.003l-.167.09a.57.57 0 00.295.044.629.629 0 00.235-.095c.358-.206.514-.406.346-.512a1.28 1.28 0 01-.346.273.67.67 0 01-.234.094.547.547 0 01-.33-.055c-.022-.011-.033-.034-.05-.045-.056.067-.078.128-.05.184.1.017.206.022.295.022h.006zm-3.35-1.871a.632.632 0 00.234-.095c.357-.206.514-.407.346-.513a1.282 1.282 0 01-.346.273.668.668 0 01-.235.095.546.546 0 01-.33-.056c-.022-.01-.033-.033-.05-.044-.055.067-.078.128-.05.184.1.016.207.022.296.022l.006.005c-.062.034-.112.062-.168.09.095.039.218.05.296.039zm-8.49-5.36c-.882.24-1.323.396-2.06-.027-.212-.123-.358-.217-.436-.3-.15.16.006.3.436.545.737.423 1.178.267 2.06.028l.023.011.223-.117-.246-.14zm-7.355-6.327c.18-.234.302-.485.246-.724-.045.222-.201.445-.38.646l.134.078zm-4.317 1.114c.447.256.604.273.833.145l.915-.53c.224-.128.274-.189.129-.323-.034.023-.073.05-.129.084l-.916.53c-.228.127-.38.116-.832-.146-.25-.145-.374-.3-.407-.468-.067.245.028.496.407.708zm1.815-1.31l-.245.14c.078.05.14.095.195.134l.05-.028 1.748 1.008.213-.122-1.96-1.131zm10.165 7.721l3.228-1.86c.24-.14.29-.2.14-.334a.878.878 0 01-.14.089l-3.228 1.86c-.33.19-.414.179-.894-.072l-.246.14.212.122.034-.023c.48.257.564.268.894.078zm12.113 6.88a.588.588 0 00-.575 0c-.146.084-.162.195-.056.29.017-.017.028-.028.056-.045.173-.1.407-.1.575 0a.22.22 0 01.056.045c.106-.095.095-.207-.056-.29zM41.31 57.758c.061-.424.458-.847 1.162-1.254 1.463-.84 3.066-.93 4.557-.072.642.368.977.746 1.038 1.13.068-.462-.262-.924-1.038-1.375-1.491-.858-3.094-.774-4.557.072-.838.485-1.246.992-1.162 1.499zm-3.585-3.944c.893-.513 2.708-1.17 4.786.022.43.25.837.546 1.078.847l.122-.073c-.19-.362-.687-.724-1.2-1.019-2.072-1.192-3.887-.535-4.786-.022-.91.523-1.179 1.03-1.112 1.47.056-.378.369-.796 1.112-1.225zm8.561 6.751l3.228-1.86c.24-.14.29-.2.14-.334a.878.878 0 01-.14.089l-3.228 1.86c-.33.19-.413.178-.894-.072l-.245.139.212.123.033-.023c.48.256.565.273.894.078zm3.35-2.512l1.928 1.108.212-.122-2.14-1.231-.245.14c.084.05.145.094.196.127l.05-.022zm-6.991.908c.955.546 2.329-.106 3.11-.563.62-.356 1.464-.93 1.313-1.42-.117.429-.793.88-1.313 1.18-.781.452-2.155 1.11-3.11.563-.196-.111-.296-.233-.335-.367-.062.212.016.423.335.607zm10.784 1.276l2.223 1.28c.765.452 1.133.842 1.195 1.232.005-.045.01-.095.01-.14-.005-.428-.368-.846-1.205-1.336L53.43 59.99l-.246.14c.084.05.145.094.196.128l.05-.022zm1.206 2.98c-1.709.986-2.692.74-3.323.379a1.566 1.566 0 01-.279-.19c-.156.112-.1.217.28.435.636.367 1.613.607 3.322-.38.821-.473 1.184-.907 1.09-1.291-.079.323-.436.674-1.09 1.047z" fill="#D99027"/><path d="M84.707 53.046L73.663 59.45l.039 14.847 19.34-11.18-8.335-10.07z" fill="#FFA94D"/><path d="M38.863 39.411l11.044-6.403 34.8 20.038-11.044 6.403-34.8-20.038z" fill="#FFE499"/><path d="M73.663 59.449l-34.8-20.038-9.448 9.381 44.287 25.504-.039-14.847z" fill="#EF8E35"/><path opacity=".3" d="M54.878 39.702c.448.257.88.573 1.046.888l-1.031.592-.214-.122c.326-.368.593-.83-.034-1.188-.987-.568-2.286.014-2.86.35-.413.237-1.765 1.08-.744 1.668.39.223.526.237.725.126l.797-.46c.278-.16.258-.205-.15-.471l.214-.122 1.706.98-.213.122c-.302-.141-.375-.15-.637.004l-1.05.607a6.333 6.333 0 01-1.645-.636c-.374-.213-.87-.538-1.006-.936-.141-.412.044-.902.938-1.416.773-.451 2.354-1.024 4.158.014zm3.93 2.265c1.298.747 1.167 1.553-.108 2.285-1.274.732-2.67.81-3.968.063-1.298-.747-1.167-1.552.107-2.284 1.28-.738 2.67-.81 3.968-.064zm-3.813 2.198c.832.48 2.028-.092 2.709-.49.68-.393 1.677-1.082.846-1.562-.832-.48-2.028.092-2.709.49-.686.398-1.668 1.091-.846 1.562zm2.393 1.334c.418.223.49.232.778.063l2.81-1.62c.287-.165.273-.209-.111-.447l.213-.12 1.863 1.071-.214.121c-.486-.262-.56-.271-.846-.102l-2.69 1.548c-.36.208-.257.325.215.596.642.37 1.026.233 1.794.025l.214.121-1.201.616-3.044-1.751.219-.121zm3.306 1.901c.419.223.491.233.778.063l2.811-1.62c.287-.165.273-.209-.112-.451l.214-.121 1.936 1.115c.73.427 1.045.791 1.05 1.164.005.374-.306.743-.938 1.106-1.873 1.077-3.39.345-4.27-.164l-1.688-.97.22-.122zm1.843 1.014c.555.32 1.406.529 2.894-.33 1.09-.626 1.264-1.179.51-1.61-.355-.204-.496-.253-.627-.18l-2.98 1.717c-.18.102-.152.2.203.403zm6.668 2.061c.257.15.335.296.291.447-.048.145-.223.296-.5.456-.385.223-.725.325-1.007.334a1.279 1.279 0 01-.71-.189c-.404-.233-.326-.441-.224-.5.112-.063.306-.038.384.01.064.039.078.078.04.121-.156.18-.142.253-.044.31.14.083.393.093 1.045-.27l-.005-.006c-.16 0-.37-.019-.52-.106-.287-.165-.375-.413-.01-.626a1.307 1.307 0 011.26.02zm-.895.573c.087.048.209.058.287.048a.55.55 0 00.204-.082c.32-.185.457-.364.297-.456-.156-.092-.409-.049-.667.102-.228.13-.296.286-.121.388zm2.407.3c.258.15.336.296.292.447-.049.145-.224.296-.501.456-.384.223-.725.325-1.007.334a1.279 1.279 0 01-.71-.189c-.403-.233-.326-.441-.223-.5.111-.063.306-.038.384.01.063.04.078.078.039.122-.156.179-.141.252-.044.31.14.082.394.092 1.045-.272l-.004-.005c-.16 0-.37-.019-.52-.106-.288-.165-.375-.413-.01-.626.35-.194.846-.218 1.259.02zm-.895.573c.088.048.21.058.287.048a.55.55 0 00.204-.082c.321-.184.457-.364.297-.456-.156-.092-.409-.049-.666.102-.229.13-.297.286-.122.388zm2.407.3c.258.15.336.296.292.447-.048.145-.224.296-.5.456-.385.223-.725.325-1.007.334a1.279 1.279 0 01-.71-.189c-.404-.233-.326-.441-.224-.5a.463.463 0 01.384.01c.063.04.078.078.039.122-.156.18-.141.252-.044.31.141.083.394.092 1.046-.272l-.005-.004c-.16 0-.37-.02-.52-.107-.287-.165-.375-.412-.01-.626.35-.199.846-.223 1.26.02zm-.89.568c.088.049.21.058.287.049a.548.548 0 00.205-.083c.32-.184.457-.364.296-.456-.155-.092-.408-.048-.666.102-.233.136-.297.286-.121.388zm.681.883c.151.087.151.204 0 .29a.512.512 0 01-.5 0c-.151-.086-.151-.203 0-.29a.538.538 0 01.5 0z" fill="#D99027"/><path opacity=".6" d="M71.514 53.148a2.795 2.795 0 01-.696.296 1.336 1.336 0 01-.428-.136.337.337 0 01.054-.117c.005.005.01.01.02.015.111.063.3.083.714-.102.112.03.229.044.326.044h.01zm-2.262-1.402a.511.511 0 01.214-.204c.22-.126.501-.17.783-.13.141-.035.273-.035.365.019.049.029.063.068.058.111.015.01.034.01.049.02.15.087.238.174.277.262.005-.01.015-.02.015-.03.043-.145-.034-.295-.292-.446a1.297 1.297 0 00-1.255-.02c-.233.137-.282.282-.214.418zm.74.529c-.098 0-.215-.015-.326-.044-.414.184-.603.17-.715.102-.01-.005-.01-.01-.02-.015-.029.044-.053.088-.053.117.136.068.277.116.428.136.16-.034.38-.122.695-.296h-.01zm-2.933-1.252c-.063.034-.117.131-.049.257a.137.137 0 01.05-.043c.106-.058.276-.039.364 0 .02-.025.034-.049.063-.083.039-.043.03-.082-.039-.121-.082-.049-.277-.078-.389-.01zm.89-.354a1.24 1.24 0 01.783-.13c.141-.035.272-.035.365.019.048.029.063.068.058.111.015.01.034.01.049.02.15.087.238.174.277.262.005-.01.015-.02.015-.03.043-.145-.035-.295-.292-.446a1.297 1.297 0 00-1.255-.02c-.233.137-.282.282-.214.418a.579.579 0 01.214-.204zm-.53.776c-.03.044-.053.088-.053.117.136.068.277.116.427.136.16-.034.38-.122.696-.296l-.005-.005c-.097 0-.214-.015-.326-.044-.413.184-.603.17-.715.102-.014.005-.02-.005-.024-.01zm2.665 1.533c.107-.058.277-.039.365 0 .02-.024.034-.048.063-.082.039-.044.029-.083-.04-.122-.077-.043-.271-.072-.383-.01-.064.035-.117.132-.049.258a.096.096 0 01.044-.044zm-1.513-.873c.108-.058.278-.039.365 0 .02-.024.034-.048.063-.082.04-.044.03-.083-.038-.122-.078-.043-.273-.073-.385-.01-.063.035-.116.132-.048.258a.125.125 0 01.043-.044zm2.194.51a.542.542 0 01.214-.204c.219-.127.496-.17.783-.131.14-.034.272-.034.364.019.049.03.064.068.059.112.014.01.034.01.048.019.151.087.239.175.277.262.005-.01.015-.02.015-.03.044-.145-.034-.295-.292-.445a1.297 1.297 0 00-1.254-.02c-.234.136-.282.286-.214.417zM70 52.06c-.053.03-.097.054-.146.078a.495.495 0 00.258.039.548.548 0 00.204-.083c.312-.18.448-.354.302-.446-.058.073-.16.155-.302.238a.582.582 0 01-.204.082.477.477 0 01-.287-.048c-.02-.01-.029-.03-.044-.04-.048.06-.068.112-.043.161.087.014.18.02.257.02H70zm1.513.873a3.7 3.7 0 01-.146.078.488.488 0 00.258.039.548.548 0 00.204-.083c.31-.18.447-.354.301-.446-.058.073-.16.155-.301.238a.582.582 0 01-.204.082.476.476 0 01-.287-.048c-.02-.01-.03-.03-.044-.039-.049.058-.068.112-.044.16.088.015.18.02.258.02h.005zm-2.918-1.63a.549.549 0 00.204-.082c.311-.18.448-.354.302-.446-.059.073-.16.155-.302.238a.583.583 0 01-.204.082.477.477 0 01-.287-.048c-.02-.01-.03-.03-.044-.04-.049.059-.068.112-.044.16.088.015.18.02.258.02l.005.005c-.053.03-.097.053-.146.078.083.034.19.043.258.034zm-7.392-4.666c-.768.209-1.153.345-1.794-.024-.185-.107-.312-.189-.38-.262-.131.14.005.262.38.476.642.368 1.026.232 1.794.024l.02.01.194-.102-.214-.122zm-6.405-5.51c.156-.204.263-.422.214-.63-.038.194-.175.388-.33.562l.116.068zm-3.759.97c.39.223.526.238.725.126l.797-.46c.195-.112.239-.165.112-.282-.029.02-.063.044-.112.073l-.797.46c-.2.112-.33.103-.725-.125-.218-.126-.325-.262-.355-.408-.058.214.025.432.355.616zm1.58-1.14l-.213.122c.068.043.121.082.17.116l.044-.024 1.522.878.185-.107-1.707-.985zm8.852 6.723l2.81-1.62c.21-.121.253-.174.122-.29a.766.766 0 01-.122.077l-2.81 1.62c-.287.165-.36.155-.779-.063l-.214.121.185.107.03-.02c.418.224.49.233.777.068zm10.547 5.99a.511.511 0 00-.5 0c-.127.074-.142.17-.05.253a.208.208 0 01.05-.039.512.512 0 01.5 0 .19.19 0 01.049.039c.092-.082.083-.18-.049-.252zM53.831 43.33c.053-.37.398-.738 1.011-1.092 1.274-.732 2.67-.81 3.968-.063.56.32.852.65.905.984.058-.402-.229-.805-.905-1.197-1.298-.748-2.694-.675-3.968.063-.73.421-1.084.863-1.011 1.304zm-3.122-3.435c.778-.446 2.358-1.019 4.167.02.375.218.73.475.939.737l.107-.063c-.166-.316-.598-.63-1.046-.888-1.804-1.038-3.384-.466-4.167-.02-.793.457-1.026.898-.968 1.281.049-.33.32-.693.968-1.067zm7.455 5.879l2.81-1.62c.21-.121.253-.175.122-.291a.76.76 0 01-.122.078l-2.81 1.62c-.287.165-.36.155-.778-.063l-.214.12.184.108.03-.02c.418.223.49.238.778.068zm2.918-2.188l1.677.966.185-.107-1.862-1.072-.215.121c.073.044.127.083.17.112l.045-.02zm-6.089.791c.831.475 2.028-.092 2.709-.49.54-.31 1.274-.81 1.142-1.237-.102.374-.69.767-1.142 1.029-.681.392-1.878.965-2.709.49-.17-.098-.258-.204-.292-.32-.053.184.015.368.292.528zm9.39 1.11l1.936 1.117c.666.392.987.732 1.04 1.071a1.01 1.01 0 00.01-.12c-.005-.374-.32-.738-1.05-1.165l-1.936-1.116-.213.122c.072.043.126.082.17.111l.043-.02zm1.05 2.596c-1.487.858-2.343.645-2.893.33a1.36 1.36 0 01-.243-.165c-.136.097-.087.189.243.378.555.32 1.406.529 2.894-.33.715-.412 1.03-.79.948-1.125-.068.281-.38.587-.948.912z" fill="#D99027"/><circle cx="109.5" cy="111.5" r="23.5" fill="#fff"/></g></symbol><symbol id="future-3" viewBox="0 0 122 122"><g clip-path="url(#clip0)"><rect width="122" height="122" rx="20" fill="#F8FDFF"/><g opacity=".3" fill="#D3E1E2"><path d="M21.733-5.953A29.955 29.955 0 0138.336-.956l8.649-8.649A41.973 41.973 0 0021.733-18C.492-18-17.074-2.293-20 18.141h12.218C-4.994 4.4 7.16-5.953 21.733-5.953zm33.769 4.866l-8.64 8.649a29.955 29.955 0 014.997 16.603c0 16.636-13.482 30.118-30.118 30.118-14.574 0-26.727-10.352-29.515-24.094H-20c2.926 20.434 20.492 36.14 41.733 36.14 23.287 0 42.165-18.877 42.165-42.164 0-9.471-3.122-18.21-8.396-25.252z"/><path d="M21.733 4.09c-11.094 0-20.076 8.99-20.076 20.083 0 11.094 8.99 20.076 20.076 20.076 11.093 0 20.084-8.99 20.084-20.076 0-11.093-8.99-20.084-20.084-20.084zm-.041 35.79A36.29 36.29 0 006.116 24.303 36.29 36.29 0 0021.692 8.727a36.292 36.292 0 0015.577 15.576A36.247 36.247 0 0021.692 39.88z"/></g><circle fill="transparent" cx="61.177" cy="61.177" r="36.914" stroke="#49A9B4" stroke-width="10"/><path d="M59.325 74.345c-.598.037-1.155-.169-1.546-.582L47.33 62.656c-.796-.843-.652-2.305.327-3.255.979-.951 2.42-1.029 3.216-.185l8.67 9.212 14.712-20.553c.789-1.108 2.23-1.481 3.217-.854.987.628 1.141 2.032.353 3.14L61.338 73.183c-.432.607-1.08 1.018-1.773 1.131-.08.015-.166.022-.24.031z" fill="#49A9B4"/><g opacity=".05" clip-path="url(#clip1)"><path d="M57.027 120.569h1.895a4.675 4.675 0 017.154-2.963l1.34-1.341a6.542 6.542 0 00-10.39 4.304z" fill="#A8B7BB"/><path d="M55.823 127.859l1.33-1.33a8.059 8.059 0 01-1.75-5.025 8.098 8.098 0 017.163-8.043v-1.88c-5.066.472-9.032 4.733-9.032 9.921 0 2.417.86 4.633 2.29 6.357zm8.611-16.276v1.879a8.1 8.1 0 017.109 7.109h1.878a9.965 9.965 0 00-8.987-8.988z" fill="#A8B7BB"/><path d="M62.566 134.86v-1.873c-5.927-.476-10.589-5.433-10.589-11.483 0-2.845 1.034-5.449 2.744-7.459l-1.325-1.324a13.332 13.332 0 00-3.287 8.783c0 7.082 5.498 12.877 12.457 13.356zm11.038-22.139l-1.325 1.324a11.475 11.475 0 012.744 7.459c0 2.845-1.034 5.449-2.742 7.459l1.325 1.325a13.345 13.345 0 003.285-8.784c0-3.362-1.24-6.432-3.287-8.783zm-17.563.003a11.474 11.474 0 017.46-2.744c2.846 0 5.447 1.034 7.458 2.743l1.323-1.324a13.331 13.331 0 00-8.782-3.287 13.332 13.332 0 00-8.782 3.287l1.323 1.325z" fill="#A8B7BB"/><path d="M46.71 120.57h1.87c.465-7.513 6.474-13.522 13.986-13.986v-1.872c-8.544.467-15.39 7.313-15.857 15.858zm17.724-15.858v1.872c7.512.464 13.521 6.473 13.985 13.986h1.872c-.467-8.545-7.313-15.391-15.857-15.858z" fill="#A8B7BB"/><path d="M63.5 101.26c-11.18 0-20.243 9.063-20.243 20.244 0 10.868 8.563 19.733 19.309 20.222v-1.87c-9.714-.486-17.44-8.517-17.44-18.352 0-10.149 8.226-18.376 18.374-18.376 10.148 0 18.374 8.227 18.374 18.376 0 9.835-7.726 17.866-17.44 18.352v1.87c10.746-.489 19.309-9.354 19.309-20.222 0-11.181-9.063-20.244-20.243-20.244z" fill="#A8B7BB"/><path d="M46.117 137.567l1.323-1.322a21.72 21.72 0 01-5.74-14.741 21.72 21.72 0 015.74-14.741l-1.322-1.322a23.59 23.59 0 00-6.287 16.063 23.586 23.586 0 006.286 16.063zM63.5 97.834a23.585 23.585 0 00-16.062 6.286l1.322 1.322a21.726 21.726 0 0114.74-5.74c12.04 0 21.8 9.761 21.8 21.802a21.72 21.72 0 01-5.74 14.741l1.322 1.322a23.579 23.579 0 006.286-16.063c0-13.073-10.596-23.67-23.668-23.67z" fill="#A8B7BB"/><path d="M36.423 120.57h1.87c.492-13.5 11.588-24.294 25.207-24.294a25.13 25.13 0 0117.163 6.742l1.322-1.322A26.993 26.993 0 0063.5 94.408c-14.651 0-26.584 11.629-27.077 26.162zm46.884-17.552l-1.322 1.322a25.127 25.127 0 016.722 16.23h1.87a26.996 26.996 0 00-7.27-17.552z" fill="#A8B7BB"/><path d="M64.434 90.997v1.87c15.391.494 27.718 13.125 27.718 28.637s-12.327 28.143-27.718 28.636v1.871c16.424-.494 29.586-13.963 29.586-30.507 0-16.544-13.162-30.013-29.586-30.507zM32.98 121.504c0 8.093 3.15 15.448 8.29 20.911l1.322-1.322a28.553 28.553 0 01-7.743-19.589c0-15.512 12.326-28.143 27.717-28.636v-1.87c-16.424.493-29.586 13.962-29.586 30.506z" fill="#A8B7BB"/><path d="M63.5 155.452c9.038 0 17.25-3.534 23.332-9.292l-1.322-1.323c-5.744 5.421-13.488 8.746-22.01 8.746-17.716 0-32.077-14.363-32.077-32.079a31.965 31.965 0 018.745-22.012l-1.322-1.322c-5.759 6.082-9.292 14.295-9.292 23.334 0 18.749 15.198 33.948 33.946 33.948zm0-67.896c-9.038 0-17.25 3.533-23.332 9.292l1.322 1.322c5.744-5.42 13.488-8.746 22.01-8.746 17.716 0 32.077 14.363 32.077 32.08 0 8.523-3.325 16.267-8.745 22.012l1.322 1.322c5.758-6.083 9.292-14.296 9.292-23.334 0-18.75-15.198-33.948-33.946-33.948z" fill="#A8B7BB"/><path d="M90.577 95.745l-1.322 1.322c5.841 6.156 9.5 14.404 9.735 23.503h1.869c-.235-9.615-4.102-18.329-10.282-24.825zM26.141 120.57h1.869c.495-19.178 16.195-34.571 35.49-34.571 9.468 0 18.07 3.706 24.435 9.748l1.322-1.322C82.553 88.045 73.484 84.13 63.5 84.13c-20.327 0-36.864 16.231-37.359 36.44z" fill="#A8B7BB"/><path d="M34 149.686l1.32-1.321c-6.66-6.987-10.748-16.446-10.748-26.861 0-21.188 16.926-38.424 37.994-38.919v-1.869c-22.1.497-39.863 18.567-39.863 40.788 0 10.93 4.3 20.856 11.297 28.182zm30.434-68.97v1.869c21.069.495 37.995 17.731 37.995 38.919 0 10.415-4.09 19.874-10.75 26.859l1.323 1.321c6.998-7.324 11.295-17.25 11.295-28.18 0-22.22-17.762-40.29-39.863-40.788z" fill="#A8B7BB"/><path d="M32.899 89.579l1.32 1.322c7.607-7.282 17.922-11.754 29.28-11.754 23.392 0 42.355 18.964 42.355 42.357 0 23.081-18.46 41.848-41.42 42.345v1.868c23.993-.498 43.289-20.101 43.289-44.213 0-24.426-19.8-44.226-44.223-44.226-11.875 0-22.657 4.682-30.601 12.3zm29.667 76.138v-1.868c-22.96-.497-41.42-19.264-41.42-42.345 0-11.36 4.472-21.676 11.753-29.283l-1.322-1.32c-7.618 7.945-12.3 18.726-12.3 30.603 0 24.112 19.296 43.717 43.289 44.213z" fill="#A8B7BB"/><path d="M96.524 89.798c7.698 8.018 12.505 18.834 12.744 30.771h1.868c-.24-12.453-5.254-23.735-13.292-32.091l-1.32 1.32zm-80.66 30.772h1.868C18.23 95.716 38.53 75.72 63.5 75.72c12.306 0 23.477 4.858 31.703 12.758l1.322-1.32C87.96 78.917 76.321 73.851 63.5 73.851c-26.003 0-47.138 20.831-47.636 46.718z" fill="#A8B7BB"/><path d="M64.434 70.439v1.868c26.744.498 48.272 22.333 48.272 49.197 0 13.252-5.24 25.28-13.76 34.127l1.323 1.322c8.728-9.05 14.154-21.32 14.304-34.887.308-28.083-22.107-51.118-50.139-51.627zm-37.701 86.514l1.32-1.32c-8.519-8.849-13.759-20.877-13.759-34.129 0-26.866 21.528-48.699 48.272-49.197v-1.87c-27.523.489-49.832 22.798-50.137 50.505-.154 13.97 5.318 26.689 14.304 36.011z" fill="#A8B7BB"/><path d="M26.952 83.633c9.608-9.273 22.722-14.92 37.127-14.761 13.988.154 26.64 5.754 35.969 14.76l1.322-1.323c-9.66-9.338-22.772-15.145-37.269-15.306-14.93-.163-28.522 5.69-38.47 15.306l1.321 1.324zm75.74-.001l-1.324 1.323c9.273 9.607 14.919 22.724 14.76 37.13-.314 28.56-23.32 51.556-51.694 52.045V176c29.398-.489 53.237-24.309 53.563-53.895.165-14.931-5.69-28.524-15.305-38.473zm-40.126 90.496c-28.9-.51-52.014-24.254-51.694-53.203.154-13.989 5.753-26.642 14.758-35.971l-1.322-1.322c-9.338 9.66-15.144 22.774-15.305 37.271-.33 29.99 23.62 54.586 53.563 55.096v-1.871zm6.172-56.54l-1.34 1.34a4.671 4.671 0 11-8.476 3.51h-1.895a6.54 6.54 0 1011.711-4.85z" fill="#A8B7BB"/><path d="M66.541 121.524a3.047 3.047 0 11-6.094.002 3.047 3.047 0 016.094-.002z" fill="#fff"/><path d="M63.5 118.389a3.114 3.114 0 100 6.23 3.114 3.114 0 000-6.23zm-.006 5.552a5.622 5.622 0 00-2.415-2.415 5.626 5.626 0 002.415-2.416 5.624 5.624 0 002.415 2.416 5.611 5.611 0 00-2.415 2.415z" fill="#A8B7BB"/></g><circle cx="112" cy="4" r="20" fill="#fff"/></g></symbol><symbol id="logo-b2b-token-black" viewBox="0 0 235 60"><path d="M77.046 31.303c.745.978 1.12 2.178 1.12 3.606 0 2.022-.786 3.574-2.356 4.662-1.57 1.088-3.862 1.63-6.87 1.63H57.007v-23.06h11.271c2.813 0 4.97.54 6.479 1.614 1.506 1.078 2.257 2.538 2.257 4.383 0 1.12-.27 2.118-.806 2.997-.54.879-1.29 1.569-2.257 2.076 1.317.417 2.347 1.116 3.095 2.092zM62.314 22.16v5.436h5.306c1.32 0 2.318-.231 2.999-.693.68-.462 1.024-1.142 1.024-2.04 0-.902-.344-1.576-1.024-2.029-.68-.449-1.68-.674-2.999-.674h-5.306zm9.41 14.33c.715-.462 1.072-1.174 1.072-2.143 0-1.913-1.416-2.866-4.251-2.866h-6.231v5.699h6.23c1.404.003 2.466-.228 3.18-.69zm20.78 1.451v3.263H80.738V38.6l5.47-4.71c.55-.462.922-.85 1.12-1.171.2-.318.296-.62.296-.905a1.08 1.08 0 00-.459-.905c-.308-.23-.78-.346-1.416-.346-.594 0-1.117.115-1.566.346-.45.231-.806.565-1.073 1.004L79.913 30.2c.53-.92 1.32-1.65 2.372-2.175 1.056-.527 2.34-.79 3.856-.79 1.778 0 3.207.392 4.283 1.171 1.075.78 1.614 1.807 1.614 3.08 0 .703-.186 1.374-.561 2.01-.376.635-1.066 1.405-2.078 2.306l-2.504 2.14h5.609zm23.93-6.638c.745.978 1.121 2.178 1.121 3.606 0 2.022-.787 3.574-2.357 4.662-1.57 1.088-3.862 1.63-6.87 1.63H96.395v-23.06h11.272c2.812 0 4.969.54 6.478 1.614 1.506 1.078 2.257 2.538 2.257 4.383 0 1.12-.27 2.118-.806 2.997-.539.879-1.29 1.569-2.257 2.076 1.317.417 2.347 1.116 3.095 2.092zm-14.732-9.142v5.436h5.307c1.319 0 2.317-.231 2.998-.693.681-.462 1.024-1.142 1.024-2.04 0-.902-.343-1.576-1.024-2.029-.681-.449-1.679-.674-2.998-.674h-5.307zm9.409 14.33c.716-.462 1.073-1.174 1.073-2.143 0-1.913-1.416-2.866-4.251-2.866h-6.231v5.699h6.231c1.403.003 2.466-.228 3.178-.69z" fill="#FF2639"/><path d="M132.682 40.344c-.507.376-1.127.655-1.862.841a9.45 9.45 0 01-2.324.28c-2.11 0-3.741-.54-4.896-1.618-1.153-1.075-1.731-2.657-1.731-4.742v-7.277h-2.735v-3.953h2.735v-4.316h5.14v4.316h4.418v3.953h-4.418v7.213c0 .747.193 1.325.578 1.729.385.407.928.61 1.631.61.815 0 1.506-.222 2.077-.658l1.387 3.622zm5.753-.048c-1.483-.78-2.642-1.86-3.477-3.243-.835-1.383-1.252-2.952-1.252-4.71 0-1.756.417-3.328 1.252-4.71.835-1.384 1.994-2.465 3.477-3.245 1.483-.78 3.159-1.17 5.027-1.17 1.869 0 3.538.39 5.012 1.17 1.47.78 2.626 1.861 3.461 3.244.834 1.383 1.252 2.955 1.252 4.71 0 1.759-.418 3.328-1.252 4.71-.835 1.383-1.991 2.468-3.461 3.244-1.474.78-3.143 1.172-5.012 1.172-1.868 0-3.544-.392-5.027-1.172zm8.273-4.383c.844-.888 1.268-2.079 1.268-3.574 0-1.492-.424-2.685-1.268-3.571-.847-.889-1.929-1.335-3.249-1.335-1.319 0-2.404.446-3.265 1.335-.857.889-1.284 2.08-1.284 3.571 0 1.495.427 2.686 1.284 3.575.857.888 1.946 1.334 3.265 1.334 1.32 0 2.402-.443 3.249-1.334zm17.519-1.662l-2.475 2.439v4.51h-5.14V16.758h5.14v13.836l7.515-7.114h6.132l-7.384 7.511 8.042 10.21h-6.228l-5.602-6.95zm30.65-.461h-13.416c.24 1.097.815 1.966 1.714 2.602.902.635 2.022.956 3.361.956.922 0 1.74-.135 2.456-.411.713-.273 1.377-.71 1.994-1.303l2.735 2.965c-1.669 1.912-4.109 2.865-7.316 2.865-2.001 0-3.769-.391-5.307-1.17-1.538-.78-2.726-1.862-3.561-3.248-.834-1.383-1.252-2.952-1.252-4.71 0-1.733.411-3.298 1.236-4.694a8.669 8.669 0 013.397-3.26c1.438-.78 3.047-1.171 4.828-1.171 1.737 0 3.307.375 4.713 1.12a8.199 8.199 0 013.313 3.211c.803 1.396 1.204 3.016 1.204 4.861 0 .07-.032.53-.099 1.386zm-12.03-5.699c-.793.658-1.274 1.56-1.451 2.702h8.733c-.177-1.12-.659-2.015-1.452-2.686-.789-.67-1.756-1.004-2.898-1.004-1.163 0-2.139.33-2.932.988zm31.661-2.897c1.352 1.318 2.026 3.272 2.026 5.861v10.146h-5.14v-9.356c0-1.405-.308-2.455-.925-3.145-.613-.693-1.505-1.036-2.667-1.036-1.297 0-2.331.401-3.098 1.203-.771.8-1.156 1.993-1.156 3.575v8.762h-5.14V23.48h4.912v2.073c.68-.745 1.528-1.322 2.536-1.73 1.011-.404 2.122-.61 3.329-.61 2.196.004 3.971.662 5.323 1.98z" fill="#050412"/><path d="M34.736 17.256c2.418 0 4.665.725 6.54 1.966l3.406-3.404a16.538 16.538 0 00-9.946-3.305c-8.366 0-15.284 6.183-16.437 14.227h4.812c1.098-5.41 5.885-9.484 11.625-9.484zm13.301 1.915l-3.403 3.404a11.787 11.787 0 011.968 6.536c0 6.549-5.31 11.856-11.863 11.856-5.74 0-10.526-4.075-11.624-9.485h-4.816c1.153 8.044 8.071 14.227 16.437 14.227 9.172 0 16.608-7.43 16.608-16.598 0-3.728-1.23-7.168-3.307-9.94z" fill="#FF2639"/><path d="M34.736 21.209a7.907 7.907 0 100 15.812 7.907 7.907 0 100-15.812zm-.016 14.088a14.29 14.29 0 00-6.135-6.131 14.29 14.29 0 006.135-6.132 14.29 14.29 0 006.135 6.132 14.272 14.272 0 00-6.135 6.131z" fill="#FF2639"/></symbol><symbol id="logo-b2b-token-white" viewBox="0 0 179 46"><path d="M58.686 23.999c.567.748.853 1.67.853 2.765 0 1.55-.599 2.74-1.794 3.574-1.196.834-2.942 1.25-5.233 1.25h-9.09v-17.68h8.586c2.142 0 3.785.413 4.934 1.238 1.147.826 1.72 1.945 1.72 3.36 0 .858-.206 1.626-.614 2.297a4.33 4.33 0 01-1.72 1.592c1.003.322 1.788.856 2.358 1.604zM47.464 16.99v4.168h4.043c1.005 0 1.765-.178 2.283-.532.519-.354.78-.876.78-1.564 0-.692-.261-1.208-.78-1.555-.518-.344-1.279-.517-2.283-.517h-4.043zm7.168 10.986c.545-.354.816-.9.816-1.643 0-1.463-1.078-2.197-3.237-2.197h-4.747v4.37h4.747c1.068.002 1.878-.175 2.42-.53zm15.828 1.112v2.502h-8.962v-1.998l4.167-3.61c.418-.355.702-.653.854-.899.151-.243.225-.474.225-.693a.83.83 0 00-.35-.694c-.235-.177-.594-.266-1.079-.266-.452 0-.85.089-1.193.266a2.02 2.02 0 00-.817.77l-2.435-1.314c.403-.706 1.005-1.264 1.807-1.667.804-.404 1.783-.608 2.937-.608 1.355 0 2.443.3 3.262.898.82.598 1.23 1.385 1.23 2.361 0 .54-.142 1.053-.428 1.54-.286.49-.812 1.078-1.582 1.769l-1.907 1.64h4.272v.003zm18.228-5.089c.568.748.854 1.67.854 2.765 0 1.55-.6 2.74-1.795 3.574-1.196.834-2.942 1.25-5.233 1.25h-9.09v-17.68h8.586c2.142 0 3.785.413 4.935 1.238 1.147.826 1.719 1.945 1.719 3.36 0 .858-.206 1.626-.614 2.297a4.33 4.33 0 01-1.72 1.592c1.004.322 1.788.856 2.358 1.604zM77.466 16.99v4.168h4.043c1.005 0 1.765-.178 2.284-.532.518-.354.78-.876.78-1.564 0-.692-.262-1.208-.78-1.555-.519-.344-1.28-.517-2.284-.517h-4.043zm7.168 10.986c.545-.354.817-.9.817-1.643 0-1.463-1.079-2.197-3.238-2.197h-4.746v4.37h4.746c1.069.002 1.878-.175 2.42-.53z" fill="#FF2639"/><path d="M101.064 30.93c-.386.289-.858.503-1.418.645a7.154 7.154 0 01-1.77.214c-1.607 0-2.85-.413-3.73-1.237-.878-.824-1.318-2.037-1.318-3.636v-5.581h-2.083v-3.03h2.083v-3.31h3.915v3.31h3.365v3.03h-3.365v5.53c0 .573.147 1.016.44 1.325.294.313.707.468 1.242.468.622 0 1.147-.17 1.583-.505l1.056 2.778zm4.382-.036c-1.13-.598-2.012-1.427-2.648-2.49-.636-1.06-.954-2.263-.954-3.61 0-1.346.318-2.552.954-3.612a6.637 6.637 0 012.648-2.487c1.13-.598 2.406-.898 3.83-.898 1.423 0 2.694.3 3.817.898 1.12.598 2 1.427 2.636 2.487.636 1.06.954 2.266.954 3.611 0 1.348-.318 2.551-.954 3.611a6.68 6.68 0 01-2.636 2.49c-1.123.597-2.394.898-3.817.898-1.424 0-2.7-.3-3.83-.898zm6.302-3.36c.643-.682.966-1.595.966-2.74 0-1.145-.323-2.06-.966-2.739-.646-.681-1.47-1.023-2.475-1.023-1.005 0-1.831.342-2.487 1.023-.653.682-.978 1.594-.978 2.738 0 1.146.325 2.06.978 2.74.653.682 1.482 1.024 2.487 1.024 1.005 0 1.829-.34 2.475-1.023zm13.344-1.274l-1.885 1.869v3.458h-3.915V12.848h3.915v10.607l5.724-5.453h4.671l-5.624 5.758 6.125 7.827h-4.744l-4.267-5.328zm23.346-.355h-10.219a3.208 3.208 0 001.306 1.995c.687.487 1.54.733 2.56.733.702 0 1.325-.103 1.871-.315a4.551 4.551 0 001.518-.996l2.084 2.273c-1.272 1.463-3.13 2.197-5.573 2.197-1.524 0-2.871-.3-4.043-.898-1.171-.598-2.076-1.427-2.711-2.49-.636-1.06-.954-2.263-.954-3.61 0-1.33.313-2.53.941-3.6a6.624 6.624 0 012.588-2.499c1.095-.598 2.32-.898 3.677-.898 1.323 0 2.519.288 3.59.859a6.272 6.272 0 012.524 2.462c.611 1.07.917 2.312.917 3.727 0 .052-.025.403-.076 1.06zm-9.163-4.369c-.604.505-.971 1.196-1.105 2.072h6.651c-.134-.859-.501-1.545-1.105-2.06-.602-.514-1.338-.77-2.208-.77-.885 0-1.629.254-2.233.758zm24.116-2.221c1.03 1.011 1.543 2.51 1.543 4.494v7.778h-3.915v-7.173c0-1.077-.234-1.882-.704-2.41-.467-.532-1.147-.795-2.032-.795-.988 0-1.775.308-2.36.923-.587.612-.88 1.527-.88 2.74v6.718h-3.915V18h3.741v1.59a5.237 5.237 0 011.932-1.326 6.739 6.739 0 012.536-.468c1.673.003 3.025.507 4.054 1.518z" fill="#fff"/><path d="M26.459 13.23c1.841 0 3.553.555 4.98 1.507l2.595-2.61a12.543 12.543 0 00-7.575-2.533c-6.373 0-11.643 4.74-12.52 10.907h3.665c.836-4.148 4.482-7.272 8.855-7.272zm10.131 1.468l-2.592 2.61a9.078 9.078 0 011.499 5.01c0 5.021-4.045 9.09-9.036 9.09-4.372 0-8.018-3.124-8.854-7.271h-3.668c.877 6.166 6.147 10.907 12.52 10.907 6.986 0 12.65-5.697 12.65-12.725a12.71 12.71 0 00-2.52-7.621z" fill="#FF2639"/><path d="M26.459 16.26c-3.328 0-6.023 2.713-6.023 6.061s2.697 6.059 6.023 6.059c3.328 0 6.025-2.714 6.025-6.059 0-3.348-2.697-6.061-6.025-6.061zm-.012 10.801a10.92 10.92 0 00-4.674-4.7 10.92 10.92 0 004.674-4.701 10.92 10.92 0 004.673 4.7 10.907 10.907 0 00-4.674 4.701z" fill="#FF2639"/></symbol><symbol id="menu" viewBox="0 0 32 32"><path d="M5.333 24h21.334C27.4 24 28 23.4 28 22.667c0-.734-.6-1.334-1.333-1.334H5.333c-.733 0-1.333.6-1.333 1.334C4 23.4 4.6 24 5.333 24zM8 17.333h18.667c.733 0 1.333-.6 1.333-1.333s-.6-1.333-1.333-1.333H8c-.733 0-1.333.6-1.333 1.333s.6 1.333 1.333 1.333zm1.333-8c0 .734.6 1.334 1.334 1.334h16c.733 0 1.333-.6 1.333-1.334C28 8.6 27.4 8 26.667 8h-16c-.734 0-1.334.6-1.334 1.333z" fill="#fff"/></symbol><symbol id="play" viewBox="0 0 34 33"><path fill-rule="evenodd" clip-rule="evenodd" d="M16.53 32.99c9.13 0 16.53-7.385 16.53-16.495C33.06 7.385 25.66 0 16.53 0S0 7.385 0 16.495c0 9.11 7.4 16.495 16.53 16.495zm8.409-16.415a.515.515 0 000-.893L13.264 8.956a.517.517 0 00-.774.447v13.451c0 .397.43.645.774.447l11.675-6.726z" fill="#FF2639"/></symbol></svg>