<svg width="124" height="120" viewBox="0 0 124 120" fill="none" xmlns="http://www.w3.org/2000/svg"><g clip-path="url(#clip0)"><path d="M2.565 83.914L.253 76.89l7.847.05 51.327-29.545a6.906 6.906 0 016.89 0l52.552 30.249 6.624.042-1.018 5.605a2.204 2.204 0 01-1.114 2.066L65.383 118.64a5.033 5.033 0 01-5.021 0L3.679 85.987a2.205 2.205 0 01-1.114-1.781v-.007a2.06 2.06 0 010-.285z" fill="#E3DFEA"/><path d="M62.873 109.558v4.041c.867 0 1.734-.223 2.51-.67l58.997-33.962a2.21 2.21 0 001.118-1.933v-3.896h-.004a2.209 2.209 0 01-1.114 1.787l-58.997 33.961a5.018 5.018 0 01-2.51.672z" fill="#327A83"/><path d="M1.366 78.967l58.996 33.96a5.021 5.021 0 002.511.671v-4.042a5.034 5.034 0 01-2.511-.67L1.366 74.926a2.205 2.205 0 01-1.113-1.782v3.746a2.21 2.21 0 001.113 2.077z" fill="#327A83"/><path d="M.253 73.138v.008a2.207 2.207 0 001.113 1.78l58.996 33.961a5.031 5.031 0 005.021 0l58.997-33.96a2.205 2.205 0 001.113-1.787h-4.527L66.317 41.682a6.906 6.906 0 00-6.89 0L4.78 73.14H.253v-.002z" fill="#7B5BAA"/><path d="M.252 73.138v.008a2.207 2.207 0 001.114 1.78l58.996 33.961a5.03 5.03 0 005.02 0l58.997-33.96a2.204 2.204 0 001.114-1.787 2.21 2.21 0 00-1.114-2.077L66.317 37.64a6.906 6.906 0 00-6.89 0L1.367 71.064a2.207 2.207 0 00-1.115 2.075z" fill="#49A9B4"/><path d="M62.873 113.822c.92 0 1.827-.242 2.623-.7l58.996-33.96a2.427 2.427 0 001.23-2.128V72.97l-.001-.056a2.442 2.442 0 00-1.229-2.047L66.43 37.445a7.153 7.153 0 00-7.115 0L1.254 70.867a2.44 2.44 0 00-1.226 2.279v3.737a2.437 2.437 0 001.226 2.277l58.995 33.961a5.262 5.262 0 002.624.701zm62.4-40.46v3.672a1.98 1.98 0 01-1.006 1.738l-58.996 33.961a4.81 4.81 0 01-4.797 0L1.48 78.773a1.995 1.995 0 01-1.003-1.869v-3.282l.086-.027a1.995 1.995 0 01-.086-.459v-.013a1.993 1.993 0 011.003-1.87l58.06-33.422a6.703 6.703 0 016.667 0l58.061 33.424a1.994 1.994 0 011.001 1.87l-.015.237h.02zm-62.4 36.419v-.448c-.415 0-.83-.053-1.232-.16l-.115.433c.439.116.892.175 1.347.175z" fill="#49A9B4"/><path d="M43.254 63.472c.455-.31.935-.61 1.441-.901 10.187-5.864 26.705-5.864 36.892 0 .506.291.986.592 1.442.9h6.198v9.719c0 3.843-2.547 7.685-7.64 10.619-10.187 5.864-26.705 5.864-36.892 0-5.094-2.932-7.64-6.776-7.64-10.62v-9.717h6.199z" fill="#327A83"/><path d="M63.141 78.489c-14.407 0-26.086-6.724-26.086-15.017 0-8.294 11.68-15.017 26.086-15.017 14.407 0 26.086 6.723 26.086 15.017 0 8.293-11.679 15.017-26.086 15.017z" fill="url(#paint0_linear)"/><path d="M81.587 52.854V74.09c5.605-3.226 8.126-7.555 7.562-11.776-.46-3.448-2.981-6.822-7.562-9.459z" fill="#49A9B4"/><path opacity=".3" d="M44.695 4.465v48.39c10.187-5.866 26.705-5.866 36.893 0V25.7c4.581-2.637 7.103-6.012 7.563-9.46a8.704 8.704 0 000-2.313c-.459-3.45-2.98-6.826-7.563-9.464C71.4-1.4 54.882-1.4 44.695 4.464z" fill="#49A9B4"/><path opacity=".5" d="M81.587 25.701v27.153c4.581 2.638 7.103 6.01 7.562 9.46V16.243c-.459 3.447-2.981 6.822-7.562 9.46z" fill="#49A9B4"/><path d="M37.996 41.415a.28.28 0 00.282-.28V21.957a.28.28 0 00-.282-.28.28.28 0 00-.28.28v19.176c0 .155.126.28.28.28zm0 18.328a.28.28 0 00.282-.28V46.148a.28.28 0 00-.282-.28.28.28 0 00-.28.28v13.314c0 .156.126.28.28.28zm9.25 0a.28.28 0 00.28-.28V42.37a.28.28 0 00-.562 0v17.093c0 .155.127.28.282.28zm0 15.918a.28.28 0 00.28-.28v-7.87a.28.28 0 00-.562 0v7.87c0 .155.127.28.282.28z" fill="#FF2639"/><path d="M71.562 57.403a.28.28 0 00.282-.28v-4.475a.28.28 0 00-.282-.28.28.28 0 00-.28.28v4.474c0 .154.126.28.28.28z" fill="#BBE6EA"/><path d="M71.562 77.967a.28.28 0 00.282-.28V62.869a.28.28 0 00-.282-.28.28.28 0 00-.28.28v14.817a.28.28 0 00.28.281z" fill="#FF2639"/><path d="M61.327 32.253l-.075-.91 3.055.02h.175c2.662.062 5.454 2.028 7.64 5.808 4.065 7.027 4.5 17.659.973 23.748-1.481 2.556-3.425 3.904-5.482 4.09h-.001a5.624 5.624 0 01-.922.005l-2.673.017-.073-.89c-1.647-.927-3.238-2.574-4.596-4.92-4.064-7.027-4.499-17.659-.971-23.748.851-1.468 1.857-2.54 2.95-3.22z" fill="#FFA94D"/><path d="M67.496 32.468c-.997-.574-2.012-.876-3.017-.9h-.172l-2.831-.017.056.687.01.124-.106.066c-1.095.682-2.065 1.742-2.881 3.152-3.49 6.024-3.055 16.585.97 23.544 1.272 2.202 2.811 3.863 4.45 4.806l.068.039.094.053.01.109.057.701 2.483-.015.008-.001h.009c.297.023.596.021.888-.005l.016-.002c1.728-.162 3.323-1.173 4.614-2.928a11.713 11.713 0 00.692-1.061c.3-.517.576-1.08.824-1.673l.082-.2a18.502 18.502 0 00.85-2.746c.185-.812.331-1.67.433-2.55.009-.067.015-.134.023-.202.088-.831.138-1.69.148-2.553l.001-.202a29.084 29.084 0 00-.12-2.756 29.767 29.767 0 00-.346-2.555l-.036-.201a28.413 28.413 0 00-.6-2.553l-.057-.202a25.887 25.887 0 00-.978-2.753 21.645 21.645 0 00-1.192-2.402l-.085-.144a15.802 15.802 0 00-1.99-2.72l-.022-.022a11.34 11.34 0 00-.19-.2 9.977 9.977 0 00-2.163-1.718zm.103-.177c.752.434 1.493 1.018 2.204 1.752.066.066.13.134.194.203a15.952 15.952 0 011.918 2.574l.122.204c.03.049.058.098.087.148.444.768.844 1.579 1.202 2.422l.085.204a25.871 25.871 0 01.96 2.774c.239.842.44 1.701.602 2.571l.038.204c.154.852.27 1.712.347 2.571l.018.205a29.558 29.558 0 01.102 2.774 27.079 27.079 0 01-.172 2.775c-.1.882-.246 1.743-.437 2.573l-.048.204a18.63 18.63 0 01-.894 2.775 14.393 14.393 0 01-.834 1.696 11.655 11.655 0 01-.706 1.08c-1.368 1.858-3.03 2.852-4.776 3.01a5.756 5.756 0 01-.924.006l-2.673.017-.072-.89-.07-.04c-1.622-.933-3.187-2.566-4.525-4.88-4.064-7.026-4.498-17.66-.97-23.748.852-1.471 1.858-2.543 2.95-3.223l-.075-.91 3.056.02h.173l.002.001c1.033.025 2.086.336 3.115.928z" fill="#FFE499"/><path d="M53.208 49.358c-1.128-9.272 2.227-17.309 7.495-17.952 5.268-.642 10.454 6.353 11.582 15.625 1.13 9.272-2.227 17.31-7.495 17.952-5.268.643-10.453-6.352-11.582-15.625z" fill="#FFD071"/><path d="M53.208 49.358c-1.128-9.272 2.227-17.309 7.495-17.952 5.268-.642 10.454 6.353 11.582 15.625 1.13 9.272-2.227 17.31-7.495 17.952-5.268.643-10.453-6.352-11.582-15.625z" fill="#FFE499"/><path d="M56.883 57.669c1.718 2.969 3.912 4.758 6.18 5.038 2.268.28 4.34-.984 5.83-3.557 1.491-2.574 2.223-6.15 2.064-10.069-.16-3.919-1.194-7.712-2.911-10.681-1.718-2.969-3.912-4.758-6.181-5.038-2.268-.28-4.339.983-5.83 3.557-1.49 2.574-2.223 6.15-2.063 10.068.16 3.92 1.194 7.714 2.911 10.682zM67.738 38.93c3.35 5.792 3.709 14.588.8 19.608-2.908 5.02-7.998 4.393-11.348-1.4-3.35-5.791-3.71-14.587-.801-19.607s8-4.392 11.349 1.4z" fill="#fff"/><path d="M67.864 36.827v.203l4.166-.002a8.938 8.938 0 00-.122-.204l-4.044.003zm2.074 2.774v.204l3.468-.003a16.568 16.568 0 00-.085-.203l-3.383.002zm.956 2.776l.001.204 3.473-.003-.059-.204-3.415.002zm.956 2.774v.204l3.16-.003a8.615 8.615 0 00-.038-.204l-3.121.003zm-.158 2.775l-.001.204 3.687-.003-.018-.205-3.668.004zm-.685 2.789l-.001.204 4.475-.018.001-.203-4.475.017zm.22 2.762l-.001.204 4.086-.004.023-.204-4.108.004zm-.917 2.774l.001.205 4.518-.004c.017-.067.031-.136.047-.204l-4.565.003zm-.439 2.775v.203l4.065-.002.084-.204-4.148.003zm-1.78 2.775v.204l4.309-.003a7.55 7.55 0 00.147-.204l-4.456.003zm-2.158-27.754v.204l4.054-.004a9.343 9.343 0 00-.194-.204l-3.86.004z" fill="#FFE499"/><path d="M58.221 42l1.415 1.593c.465-.656 1.071-1.094 1.781-1.21 1.983-.324 4.017 1.966 4.534 5.105.447 2.715-.386 5.186-1.902 6.015l.414 2.512c2.375-1.001 3.718-4.7 3.046-8.782-.741-4.498-3.657-7.782-6.498-7.318-1.141.188-2.099.95-2.79 2.085zm.737 6.738a8.622 8.622 0 01.033-3.1l-1.338-1.58c-.37 1.433-.45 3.138-.156 4.92.663 4.025 2.996 7.08 5.412 7.29l-.408-2.479c-1.6-.312-3.102-2.371-3.543-5.05z" fill="#FFA94D"/><path d="M60.234 48.537c.347 2.105 1.651 3.651 2.909 3.446 1.256-.205 1.996-2.085 1.65-4.19-.348-2.105-1.652-3.652-2.909-3.446-1.256.205-1.997 2.085-1.65 4.19zm3.918-.64c-.573.767-.983 1.808-1.186 3.014-.58-1.078-1.302-1.934-2.091-2.479.573-.766.983-1.808 1.186-3.013.578 1.078 1.301 1.934 2.091 2.478z" fill="#FFA94D"/></g><defs><linearGradient id="paint0_linear" x1="89.227" y1="63.472" x2="37.054" y2="63.472" gradientUnits="userSpaceOnUse"><stop stop-color="#49A9B4"/><stop offset="1" stop-color="#327A83"/></linearGradient><clipPath id="clip0"><path fill="#fff" transform="matrix(-1 0 0 1 125.722 .067)" d="M0 0h125.698v119.246H0z"/></clipPath></defs></svg>