<svg width="126" height="85" viewBox="0 0 126 85" fill="none" xmlns="http://www.w3.org/2000/svg"><g clip-path="url(#clip0)"><path d="M20.664 22.523c9.615 0 17.41-4.48 17.41-10.006S30.28 2.512 20.664 2.512c-9.615 0-17.41 4.48-17.41 10.005 0 5.526 7.795 10.006 17.41 10.006z" fill="#E3DFEA"/><path d="M20.664 22.523c9.615 0 17.41-4.48 17.41-10.006S30.28 2.512 20.664 2.512c-9.615 0-17.41 4.48-17.41 10.005 0 5.526 7.795 10.006 17.41 10.006zM127.978 67.78c9.616 0 17.41-4.48 17.41-10.006s-7.794-10.005-17.41-10.005c-9.615 0-17.41 4.48-17.41 10.005 0 5.526 7.795 10.006 17.41 10.006zm-10.636-32.924l-9.571 1.176-31.658-18.195a7.019 7.019 0 00-6.994 0L18.336 47.025l-16.68 2.05.552 9.091a3.21 3.21 0 001.63 2.808l2.874 1.652 36.952 21.239a5.115 5.115 0 003.002.66 5.114 5.114 0 002.105-.66l63.349-36.411 2.959-1.7a3.154 3.154 0 001.599-2.686l.664-8.212z" fill="#E3DFEA"/><path d="M116.681 29.508l-9.155 4.46 1.824 1.592-60.577 34.818a5.092 5.092 0 01-2.105.661v8.922a5.116 5.116 0 002.105-.66l66.307-38.11a3.155 3.155 0 001.601-2.762c.88-2.91.88-6.012 0-8.921zM43.664 70.38L7.48 49.582l1.473-1.123-6.746-3.78-.125.564a18.18 18.18 0 00.125 8.36 3.21 3.21 0 001.63 2.81l39.826 22.89a5.115 5.115 0 003.002.66v-8.92a5.141 5.141 0 01-3.002-.665z" fill="#327A83"/><path d="M46.208 80.22a5.317 5.317 0 01-2.663-.713L3.72 56.617a3.445 3.445 0 01-1.748-2.985 18.504 18.504 0 01-.119-8.44l.125-.564a.232.232 0 01.136-.165.237.237 0 01.213.01l6.747 3.78c.07.04.115.11.12.19a.231.231 0 01-.093.205l-1.19.908 35.874 20.618c.87.5 1.86.72 2.863.631a4.815 4.815 0 002.007-.63l60.29-34.654-1.574-1.375a.234.234 0 01-.079-.21.238.238 0 01.131-.18l9.155-4.46a.238.238 0 01.332.145c.892 2.95.896 6.072.009 9.025a3.39 3.39 0 01-1.719 2.931l-66.308 38.11a5.31 5.31 0 01-2.203.69c-.16.014-.32.022-.48.022zM2.372 45.041l-.055.25a18.016 18.016 0 00.123 8.252.234.234 0 01.008.058c0 1.087.564 2.06 1.51 2.604l39.826 22.89c.87.5 1.861.719 2.863.63a4.84 4.84 0 002.007-.63l66.306-38.111a2.918 2.918 0 001.482-2.557c0-.019.004-.039.007-.056.845-2.796.87-5.735.082-8.529l-8.58 4.18 1.555 1.358c.057.05.087.126.081.201a.243.243 0 01-.118.183L48.891 70.583a5.307 5.307 0 01-2.203.692 5.35 5.35 0 01-3.143-.692L7.363 49.79a.236.236 0 01-.025-.393l1.186-.905-6.152-3.449z" fill="#327A83"/><path d="M112.122 33.968L48.772 70.38a5.124 5.124 0 01-5.107 0L6.713 49.14l62.408-35.869a7.019 7.019 0 016.994 0l36.007 20.697z" fill="#327A83"/><path d="M115.08 32.268l-2.958 1.7-63.35 36.41a5.124 5.124 0 01-5.108 0L6.715 49.14l-2.877-1.65c-2.171-1.25-2.171-4.37 0-5.618L69.118 4.35a7.019 7.019 0 016.995 0l38.966 22.397c2.135 1.228 2.135 4.295 0 5.522z" fill="#49A9B4"/><path d="M46.211 71.297a5.345 5.345 0 01-2.666-.712L3.72 47.693a3.444 3.444 0 01-1.748-3.015 3.44 3.44 0 011.748-3.014L69 4.144a7.274 7.274 0 017.233 0L115.2 26.541a3.385 3.385 0 011.719 2.967 3.389 3.389 0 01-1.719 2.965l-66.308 38.11a5.306 5.306 0 01-2.203.692c-.16.014-.319.022-.477.022zM72.616 3.655a6.779 6.779 0 00-3.379.898L3.956 42.075a2.973 2.973 0 00-1.51 2.603c0 1.088.565 2.061 1.51 2.604l39.826 22.89c.871.5 1.86.72 2.864.631a4.815 4.815 0 002.007-.63L114.96 32.06a2.918 2.918 0 001.482-2.555 2.92 2.92 0 00-1.482-2.556L75.993 4.555a6.77 6.77 0 00-3.377-.9z" fill="#327A83"/><path d="M72.133 25.228l1.923 1.106a8.427 8.427 0 008.386.005l14.63-8.383a.864.864 0 000-1.5l-7.485-4.303a1.15 1.15 0 00-1.146 0l-16.305 9.343c-1.446.826-1.446 2.901-.003 3.732zM49.71 52.752c9.615 0 17.41-4.48 17.41-10.006S59.325 32.74 49.71 32.74c-9.616 0-17.41 4.48-17.41 10.006s7.794 10.006 17.41 10.006z" fill="#327A83"/><path d="M78.335 26.147c2.679 0 4.85-1.248 4.85-2.788 0-1.54-2.171-2.788-4.85-2.788-2.678 0-4.85 1.248-4.85 2.788 0 1.54 2.172 2.788 4.85 2.788z" fill="#FF2639"/><path d="M33.131 10.048v3.604h-.017c-.075.913-.381 1.822-.922 2.692a7.1 7.1 0 01-.199.305c-.652.949-1.588 1.847-2.805 2.654a14.592 14.592 0 01-.803.496 17.543 17.543 0 01-2.4 1.137 21.62 21.62 0 01-3.004.918 25.826 25.826 0 01-3.004.505 27.24 27.24 0 01-2.805.163c-.067.002-.133.002-.2.002a27.711 27.711 0 01-2.804-.137c-.067-.005-.133-.013-.2-.02a25.92 25.92 0 01-3.004-.495 22.208 22.208 0 01-3.004-.903 17.49 17.49 0 01-2.805-1.359c-.066-.04-.132-.082-.199-.121-1.183-.744-2.119-1.572-2.805-2.45a9.592 9.592 0 01-.199-.262c-.722-1-1.127-2.061-1.212-3.128H.73v-3.6h.963a7.01 7.01 0 01.269-.397 8.932 8.932 0 011.057-1.21c.392-.376.833-.741 1.326-1.089.35-.248.73-.49 1.133-.722 6.326-3.636 16.583-3.636 22.91 0a13.5 13.5 0 011.132.722c.492.348.934.711 1.326 1.089a8.736 8.736 0 011.324 1.608h.961v-.002z" fill="#FFA94D"/><path d="M16.93 4.1c4.294 0 8.327.96 11.356 2.7.395.227.77.466 1.116.713.48.34.918.7 1.302 1.07a8.505 8.505 0 011.294 1.57l.058.093h.874v3.209h-.001l-.014.181c-.073.89-.373 1.767-.893 2.606a5.823 5.823 0 01-.195.295c-.654.95-1.578 1.824-2.75 2.601-.066.042-.13.085-.197.127a16.242 16.242 0 01-2.772 1.408l-.197.078c-.877.34-1.811.63-2.783.862-.065.017-.13.031-.193.047-.894.206-1.83.368-2.79.48l-.19.022c-.918.1-1.854.155-2.785.163h-.01c-.06.002-.124.002-.186.002h-.053c-.915 0-1.835-.046-2.734-.135-.065-.005-.128-.013-.195-.02-.943-.098-1.88-.25-2.783-.446-.064-.014-.13-.028-.196-.044-.97-.22-1.905-.497-2.78-.821l-.023-.01a17.3 17.3 0 01-2.636-1.226c-.104-.06-.207-.12-.31-.182l-.196-.12C3.926 18.606 3 17.797 2.312 16.919a5.442 5.442 0 01-.192-.256c-.694-.965-1.09-1.982-1.173-3.027l-.014-.183H.93v-3.207h.873l.059-.093c.08-.13.167-.258.262-.387a8.713 8.713 0 011.032-1.181c.39-.375.828-.735 1.302-1.07.351-.25.726-.488 1.118-.713C8.606 5.058 12.638 4.1 16.93 4.1zm0-.199c-4.147 0-8.292.91-11.456 2.727-.402.231-.78.473-1.133.722-.493.348-.934.713-1.325 1.089a9.09 9.09 0 00-1.058 1.21c-.094.13-.185.262-.268.396H.73v3.604h.018c.085 1.067.49 2.125 1.212 3.128.063.088.128.176.2.262.685.877 1.62 1.706 2.804 2.45.065.04.131.082.2.12.102.064.206.125.312.187.776.446 1.61.838 2.492 1.173.065.027.133.05.2.076.894.332 1.836.607 2.804.827a25.92 25.92 0 003.203.515c.91.09 1.83.136 2.752.136h.054l.199-.001a28.2 28.2 0 003.004-.186 25.802 25.802 0 002.805-.483c.066-.015.133-.03.199-.047a21.39 21.39 0 002.805-.87l.2-.077c.773-.31 1.51-.664 2.2-1.06.209-.12.41-.242.604-.365l.2-.13c1.216-.808 2.15-1.706 2.804-2.655.07-.1.138-.203.2-.305.54-.872.846-1.78.92-2.692h.018v-3.604h-.962a8.81 8.81 0 00-1.324-1.608 11.26 11.26 0 00-1.326-1.089c-.351-.25-.729-.49-1.132-.722-3.172-1.818-7.318-2.728-11.465-2.728z" fill="#FFE499"/><path d="M16.933 19.26c8.947 0 16.2-4.169 16.2-9.311 0-5.143-7.254-9.312-16.2-9.312-8.947 0-16.2 4.169-16.2 9.312 0 5.142 7.253 9.312 16.2 9.312z" fill="#FFE499"/><path d="M30.845 8.44c-.519-1.599-1.86-3.07-3.905-4.245-2.674-1.537-6.228-2.383-10.008-2.383-3.782 0-7.336.846-10.008 2.383C4.879 5.37 3.536 6.841 3.017 8.439c-.16.493-.242.998-.242 1.51 0 1.563.764 3.06 2.19 4.35a11.612 11.612 0 001.958 1.403 14.831 14.831 0 001.243.635c.87.396 1.812.73 2.805.994l.199.054a21.833 21.833 0 003.004.544c.9.102 1.822.153 2.76.153h.045l.2-.002a24.078 24.078 0 003.003-.214 21.526 21.526 0 003.004-.618 17.395 17.395 0 002.805-1.05 14.293 14.293 0 00.955-.499 11.258 11.258 0 002.051-1.486 7.36 7.36 0 00.2-.19c1.237-1.226 1.896-2.621 1.896-4.075a5.122 5.122 0 00-.248-1.509zm-1.657 4.584c-.063.083-.13.168-.199.25-.637.763-1.503 1.477-2.6 2.11a5.721 5.721 0 01-.205.114 15.672 15.672 0 01-3.004 1.248 20.204 20.204 0 01-3.203.684c-.922.125-1.862.19-2.805.2-.067.002-.133.002-.2.002a23.08 23.08 0 01-3.003-.189 20.764 20.764 0 01-3.005-.612 16.276 16.276 0 01-3.004-1.177 12.291 12.291 0 01-.493-.269c-.94-.54-1.71-1.14-2.31-1.78a8.755 8.755 0 01-.2-.22C3.326 11.5 3.119 9.31 4.338 7.35c.644-1.037 1.687-2.01 3.13-2.838 5.215-2.997 13.7-2.997 18.915 0 1.443.829 2.485 1.801 3.129 2.838 1.149 1.836 1.04 3.875-.323 5.673z" fill="#FFA94D"/><path d="M2.583 14.184v3.263a9.612 9.612 0 01-.2-.263V13.92c.064.088.13.176.2.264zm2.58 2.163v3.264l-.199-.121v-3.264c.066.04.131.081.2.12zm3.003 1.433v3.266a5.222 5.222 0 01-.2-.075v-3.265l.2.074zm3.004.873v3.265l-.2-.045v-3.266c.067.016.133.032.2.046zm3.002.471v3.264c-.066-.004-.132-.012-.199-.02v-3.264l.2.02zm3.003.134v3.264c-.066.002-.133.002-.2.002v-3.265l.2-.001zm3.005-.188v3.265a8.354 8.354 0 01-.2.022v-3.265c.067-.004.133-.012.2-.022zm3.002-.53v3.265a4.663 4.663 0 01-.2.047v-3.265c.069-.015.133-.03.2-.047zm3.002-.946v3.264a10.59 10.59 0 01-.199.077V17.67c.068-.022.134-.049.2-.075zm3.004-1.557v3.265c-.064.044-.13.086-.199.13v-3.266a5.71 5.71 0 00.2-.129zm2.665-2.632v3.265c-.064.102-.13.204-.2.305V13.71c.07-.1.137-.203.2-.305z" fill="#FFE499"/><path d="M139.793 55.027v3.603h-.018c-.074.913-.38 1.822-.921 2.692a6.622 6.622 0 01-.199.305c-.653.949-1.588 1.847-2.805 2.654a14.092 14.092 0 01-.803.496c-.69.396-1.428.75-2.201 1.06-.066.027-.133.052-.199.077a21.63 21.63 0 01-3.004.917 25.83 25.83 0 01-2.805.483c-.067.008-.133.016-.199.022a27.29 27.29 0 01-2.805.164l-.2.001a27.785 27.785 0 01-2.805-.136c-.066-.005-.132-.013-.199-.02a26.487 26.487 0 01-2.805-.45l-.199-.045a22.216 22.216 0 01-3.004-.903 17.474 17.474 0 01-2.805-1.36l-.199-.12c-1.184-.744-2.119-1.572-2.805-2.45a9.084 9.084 0 01-.199-.263c-.722-1-1.127-2.06-1.212-3.127h-.018v-3.604h.963a7.452 7.452 0 01.467-.66c.252-.324.539-.64.859-.947.391-.376.832-.74 1.325-1.088.351-.249.73-.491 1.133-.722 6.326-3.636 16.584-3.636 22.911 0 .403.23.781.472 1.132.722.491.347.934.71 1.326 1.088a8.727 8.727 0 011.324 1.608h.969v.002z" fill="#FFA94D"/><path d="M123.592 49.08c4.293 0 8.326.96 11.356 2.7.395.227.769.466 1.115.713.481.34.918.7 1.302 1.07a8.47 8.47 0 011.295 1.57l.058.093h.874v3.208h-.002l-.014.18c-.072.89-.373 1.766-.893 2.606a4.599 4.599 0 01-.194.296c-.654.948-1.579 1.823-2.751 2.6l-.196.128c-.19.12-.391.242-.596.36-.672.385-1.403.738-2.178 1.05l-.194.075c-.877.341-1.811.63-2.783.862-.065.017-.129.031-.193.047-.894.206-1.83.368-2.789.48a27.81 27.81 0 01-2.976.186h-.009l-.187.001h-.053a27.56 27.56 0 01-2.734-.135c-.065-.005-.128-.013-.195-.019-.943-.1-1.88-.25-2.782-.447-.065-.014-.132-.028-.196-.044a22.068 22.068 0 01-2.78-.821l-.024-.01c-.057-.02-.114-.042-.172-.064a17.331 17.331 0 01-2.464-1.16c-.104-.06-.207-.12-.309-.182l-.196-.12c-1.143-.718-2.069-1.527-2.756-2.405a5.214 5.214 0 01-.193-.256c-.696-.965-1.092-1.984-1.176-3.029l-.014-.182h-.003v-3.208h.874l.058-.093c.081-.129.167-.258.262-.387a8.905 8.905 0 011.032-1.181c.391-.375.828-.735 1.302-1.07.351-.249.726-.488 1.118-.713 3.031-1.74 7.064-2.7 11.356-2.7zm0-.197c-4.147 0-8.292.91-11.456 2.726a14.33 14.33 0 00-1.133.722c-.493.348-.934.713-1.326 1.089a9.079 9.079 0 00-1.057 1.21c-.095.13-.185.262-.269.396h-.962v3.604h.017c.086 1.067.49 2.126 1.212 3.128.064.088.128.176.199.263.686.876 1.622 1.705 2.806 2.45.064.04.131.081.199.12a17.271 17.271 0 002.805 1.36c.064.026.132.05.199.075a22.25 22.25 0 002.805.828l.199.044c.913.2 1.854.349 2.805.45.066.008.133.014.199.02.91.091 1.83.137 2.751.137h.054l.199-.002c.94-.007 1.879-.063 2.805-.163l.199-.022a25.83 25.83 0 002.805-.483c.067-.016.133-.03.199-.047a21.433 21.433 0 002.805-.87l.2-.078c.774-.31 1.51-.663 2.201-1.06.208-.12.409-.242.604-.365l.199-.13c1.217-.807 2.15-1.706 2.805-2.654.069-.101.137-.203.199-.306.54-.871.847-1.779.921-2.691h.018v-3.605h-.963a8.803 8.803 0 00-1.324-1.608c-.392-.377-.835-.74-1.326-1.088-.351-.25-.729-.491-1.132-.722-3.168-1.82-7.315-2.728-11.461-2.728z" fill="#FFE499"/><path d="M123.593 64.24c8.947 0 16.199-4.17 16.199-9.312 0-5.143-7.252-9.312-16.199-9.312-8.947 0-16.2 4.17-16.2 9.312 0 5.143 7.253 9.312 16.2 9.312z" fill="#FFE499"/><path d="M137.505 53.419c-.519-1.598-1.86-3.07-3.905-4.245-2.674-1.537-6.228-2.383-10.008-2.383-3.782 0-7.336.846-10.008 2.383-2.044 1.176-3.387 2.647-3.905 4.245-.16.492-.242.997-.242 1.509 0 1.564.763 3.061 2.189 4.35a11.562 11.562 0 001.958 1.403c.335.192.684.374 1.044.544a17.914 17.914 0 003.004 1.086l.2.053a21.805 21.805 0 003.004.545c.899.102 1.822.152 2.759.152h.046l.199-.001c.954-.01 1.891-.071 2.805-.188a21.467 21.467 0 003.203-.645 17.416 17.416 0 003.004-1.145c.258-.127.511-.263.756-.403a11.294 11.294 0 002.051-1.486c.068-.063.134-.126.199-.19 1.237-1.226 1.896-2.622 1.896-4.075a5.154 5.154 0 00-.249-1.509zm-1.655 4.586c-.063.083-.13.168-.199.25-.635.763-1.503 1.477-2.601 2.11a7.692 7.692 0 01-.403.222 15.75 15.75 0 01-2.805 1.14 20.194 20.194 0 01-3.204.684c-.921.125-1.861.19-2.805.2-.066.002-.132.002-.199.002a23.106 23.106 0 01-3.004-.189 20.761 20.761 0 01-3.004-.612 16.29 16.29 0 01-2.805-1.076l-.199-.1a11.837 11.837 0 01-.493-.27c-.94-.54-1.71-1.14-2.31-1.78a8.948 8.948 0 01-.2-.22c-1.632-1.884-1.839-4.074-.621-6.034.645-1.037 1.688-2.01 3.131-2.838 5.215-2.997 13.699-2.997 18.914 0 1.443.829 2.486 1.801 3.129 2.838 1.149 1.836 1.04 3.875-.322 5.673z" fill="#FFA94D"/><path d="M109.244 59.165v3.263a11.355 11.355 0 01-.199-.263V58.9c.063.089.13.177.199.265zm2.581 2.163v3.264c-.067-.04-.133-.082-.199-.12v-3.267l.199.123zm3.003 1.432v3.267a5.091 5.091 0 01-.2-.076v-3.264l.2.074zm3.004.875v3.264a7.787 7.787 0 01-.199-.044v-3.266l.199.046zm3.002.468v3.264a4.192 4.192 0 01-.199-.02v-3.263c.066.006.133.014.199.019zm3.003.135v3.265l-.2.001V64.24l.2-.002z" fill="#FFE499"/><path d="M59.416 40.166v3.605H59.4c-.075.912-.381 1.822-.922 2.691a7.2 7.2 0 01-.199.306c-.652.948-1.588 1.847-2.805 2.654a14.592 14.592 0 01-.803.496 17.536 17.536 0 01-2.4 1.137 21.62 21.62 0 01-3.004.917 25.826 25.826 0 01-3.004.505 27.24 27.24 0 01-2.805.164l-.2.001a27.711 27.711 0 01-3.003-.157 25.92 25.92 0 01-3.005-.494 22.21 22.21 0 01-3.004-.903 17.491 17.491 0 01-2.805-1.36l-.199-.12c-1.183-.745-2.119-1.572-2.805-2.45a9.476 9.476 0 01-.199-.263c-.722-1-1.127-2.06-1.212-3.127h-.017v-3.605h.962c.084-.133.174-.265.269-.396a8.941 8.941 0 011.057-1.21c.392-.376.833-.74 1.326-1.089.35-.248.73-.49 1.133-.722 6.326-3.635 16.583-3.635 22.91 0 .404.232.782.472 1.132.722.492.348.934.711 1.326 1.09a8.73 8.73 0 011.324 1.607h.97v.002z" fill="#FFA94D"/><path d="M43.217 34.219c4.293 0 8.326.96 11.356 2.7.395.228.77.467 1.115.714.48.34.918.7 1.302 1.07a8.505 8.505 0 011.295 1.57l.058.092h.874v3.209h-.002l-.014.18c-.072.889-.373 1.765-.893 2.605a5.189 5.189 0 01-.194.296c-.654.949-1.579 1.823-2.751 2.6l-.196.128c-.191.121-.39.242-.596.36a17.33 17.33 0 01-2.176 1.048l-.01.003-.188.074c-.877.341-1.81.63-2.783.862-.064.018-.13.032-.192.047a25.41 25.41 0 01-2.98.5c-.919.101-1.856.156-2.785.164-.065.002-.131.002-.196.002h-.054a27.66 27.66 0 01-2.734-.135c-.065-.005-.128-.013-.194-.02-.944-.098-1.88-.25-2.783-.446-.065-.014-.131-.028-.196-.044-.97-.22-1.906-.497-2.78-.821l-.023-.01c-.057-.02-.114-.042-.173-.064a17.3 17.3 0 01-2.463-1.16c-.105-.061-.207-.12-.31-.182l-.196-.12c-1.143-.719-2.069-1.527-2.756-2.405a5.47 5.47 0 01-.193-.257c-.695-.964-1.092-1.984-1.176-3.028l-.014-.183h-.003v-3.207h.873l.06-.093a6.14 6.14 0 01.262-.387A8.862 8.862 0 0129.44 38.7c.39-.375.828-.735 1.302-1.07.35-.25.725-.488 1.117-.713 3.031-1.74 7.064-2.698 11.358-2.698zm0-.199c-4.147 0-8.292.91-11.456 2.727-.403.231-.78.473-1.133.722-.493.348-.934.713-1.326 1.089a9.08 9.08 0 00-1.057 1.21c-.095.13-.185.262-.269.396h-.962v3.604h.017c.086 1.067.49 2.126 1.212 3.128.064.088.128.176.2.262.685.877 1.62 1.706 2.804 2.45.065.04.132.082.2.121.102.063.207.124.313.186.775.447 1.61.838 2.492 1.173.064.027.132.05.199.076a22.25 22.25 0 002.805.827c.066.016.133.03.199.044a25.898 25.898 0 003.004.47c.91.092 1.83.138 2.751.138h.054l.2-.002c.94-.008 1.878-.063 2.804-.163l.2-.023a25.826 25.826 0 003.003-.53 21.342 21.342 0 002.805-.87l.2-.077c.774-.31 1.51-.664 2.2-1.06.21-.12.41-.242.605-.365l.199-.13c1.217-.808 2.15-1.706 2.805-2.655.07-.1.137-.203.199-.305.54-.871.847-1.78.921-2.692h.017v-3.604h-.962a8.819 8.819 0 00-1.324-1.608c-.392-.377-.833-.74-1.326-1.088a13.5 13.5 0 00-1.132-.722c-3.17-1.82-7.315-2.729-11.461-2.729z" fill="#FFE499"/><path d="M43.216 49.38c8.947 0 16.2-4.17 16.2-9.312 0-5.143-7.253-9.312-16.2-9.312-8.946 0-16.2 4.169-16.2 9.312s7.254 9.312 16.2 9.312z" fill="#FFE499"/><path d="M57.13 38.559c-.519-1.599-1.86-3.07-3.905-4.245-2.674-1.537-6.228-2.383-10.008-2.383-3.782 0-7.336.846-10.008 2.383-2.045 1.175-3.387 2.646-3.905 4.245a4.86 4.86 0 00-.242 1.508c0 1.564.763 3.062 2.189 4.35a11.6 11.6 0 001.958 1.403 14.828 14.828 0 001.243.636 17.9 17.9 0 002.805.994c.067.018.133.037.2.054a21.833 21.833 0 003.004.544c.899.102 1.822.153 2.759.153h.046l.199-.002c.954-.01 1.891-.07 2.805-.187.066-.008.133-.016.199-.027a21.51 21.51 0 003.004-.618 17.392 17.392 0 003.004-1.145c.258-.128.51-.263.756-.403a11.25 11.25 0 002.05-1.487 7.29 7.29 0 00.2-.19c1.237-1.226 1.896-2.621 1.896-4.075a5.124 5.124 0 00-.25-1.508zm-1.655 4.584a5.75 5.75 0 01-.2.25c-.636.763-1.502 1.477-2.6 2.11-.067.04-.135.077-.204.115a15.665 15.665 0 01-3.004 1.248c-.065.02-.133.038-.2.057a20.175 20.175 0 01-3.004.627 22.73 22.73 0 01-2.805.2h-.199a23.082 23.082 0 01-3.004-.188 20.765 20.765 0 01-3.004-.612 16.281 16.281 0 01-2.805-1.076l-.2-.1a12.301 12.301 0 01-.492-.27c-.94-.54-1.71-1.14-2.31-1.78a8.888 8.888 0 01-.2-.22c-1.632-1.884-1.84-4.074-.62-6.034.644-1.037 1.687-2.009 3.13-2.838 5.215-2.997 13.7-2.997 18.914 0 1.443.829 2.486 1.801 3.13 2.838 1.148 1.836 1.038 3.875-.323 5.673z" fill="#FFA94D"/><path d="M28.868 44.302v3.263a9.275 9.275 0 01-.2-.262v-3.265c.065.088.132.176.2.264zm2.58 2.165v3.265a12.04 12.04 0 00-.199-.121v-3.266l.2.122zM34.45 47.9v3.265a4.993 4.993 0 01-.199-.075v-3.265l.2.074zm3.005.872v3.265a8.75 8.75 0 01-.2-.044v-3.266l.2.045zm3.002.47v3.265a4.331 4.331 0 01-.199-.02v-3.265c.068.008.133.014.2.02zm3.005.134v3.264c-.067.002-.133.002-.2.002v-3.264c.067 0 .133 0 .2-.002zm3.002-.186v3.265a6.434 6.434 0 01-.2.022v-3.264l.2-.023zm3.004-.53v3.264a4.632 4.632 0 01-.199.047v-3.266a5.2 5.2 0 00.2-.046zm3.002-.948v3.264c-.066.027-.132.052-.198.077v-3.266c.066-.022.133-.048.199-.075zm3.005-1.557v3.265c-.065.044-.131.086-.2.13v-3.266c.067-.042.134-.085.2-.129zm2.663-2.63v3.265c-.064.102-.13.204-.2.305v-3.264c.07-.103.136-.205.2-.306z" fill="#FFE499"/><path d="M23.937 6.911l-1.882.966c.607.464.966 1.016.972 1.614.019 1.67-2.688 3.059-6.033 3.095-2.894.031-5.33-.96-5.948-2.31l-2.677.03c.66 2.077 4.29 3.64 8.64 3.593 4.794-.052 8.675-2.042 8.649-4.436-.013-.961-.652-1.843-1.72-2.552zm-7.121-.228c1.183-.012 2.285.141 3.218.412l1.857-.905c-1.43-.482-3.19-.758-5.088-.737C12.51 5.499 8.96 7.04 8.354 9l2.643-.029c.581-1.277 2.963-2.258 5.82-2.289z" fill="#FFA94D"/><path d="M16.82 7.756c-2.244.024-4.06.905-4.048 1.964.011 1.058 1.847 1.9 4.09 1.875 2.245-.024 4.06-.905 4.049-1.963-.012-1.058-1.847-1.9-4.091-1.876zm.037 3.3c-.705-.566-1.722-1.032-2.942-1.348 1.213-.343 2.219-.83 2.91-1.412.706.566 1.723 1.032 2.943 1.348-1.213.342-2.219.83-2.911 1.412zm113.75 41.164l-1.883.965c.607.464.966 1.017.973 1.615.018 1.67-2.688 3.059-6.034 3.095-2.893.031-5.329-.96-5.948-2.31l-2.677.03c.66 2.076 4.29 3.64 8.64 3.592 4.795-.052 8.676-2.041 8.649-4.435-.012-.962-.651-1.843-1.72-2.552zm-7.121-.228c1.182-.013 2.284.141 3.217.412l1.857-.906c-1.429-.482-3.189-.757-5.088-.737-4.292.047-7.842 1.588-8.448 3.549l2.642-.03c.582-1.276 2.964-2.257 5.82-2.288z" fill="#FFA94D"/><path d="M123.489 53.064c-2.243.025-4.06.905-4.048 1.965.012 1.058 1.847 1.9 4.091 1.875 2.244-.024 4.06-.905 4.048-1.963-.011-1.059-1.847-1.9-4.091-1.877zm.037 3.3c-.705-.565-1.722-1.031-2.942-1.348 1.213-.343 2.219-.83 2.911-1.412.706.566 1.722 1.033 2.942 1.349-1.213.342-2.218.83-2.911 1.412z" fill="#FFA94D"/></g><defs><clipPath id="clip0"><path fill="#fff" transform="translate(.73 .637)" d="M0 0h144.657v83.909H0z"/></clipPath></defs></svg>